<svg width="100" height="100" viewBox="0 0 100 100" fill="none" xmlns="http://www.w3.org/2000/svg">
<rect opacity="0.05" width="100" height="100" rx="16" fill="#FFB156"/>
<path d="M50.0001 34.8711C45.2887 34.8711 41.4551 38.7047 41.4551 43.4161C41.4551 48.1275 45.2887 51.9611 50.0001 51.9611C54.7115 51.9611 58.5451 48.1275 58.5451 43.4161C58.5451 38.7047 54.7115 34.8711 50.0001 34.8711Z" fill="#FFB156"/>
<path d="M48.0807 64.0469L48.0348 64.005L46.946 63.0197L44.3838 60.7015L41.5979 61.0013L39.893 61.184L39.4888 61.2279L38.1871 61.3676L34.0879 70.0786L40.4359 70.1626L44.5448 75L49.2163 65.0742L48.0807 64.0469Z" fill="#FFB156"/>
<path d="M61.8124 61.3676L60.5107 61.2279L60.1065 61.1849L58.4017 61.0013L55.6157 60.7015L53.0535 63.0197L51.9647 64.005L51.9188 64.0469L50.7832 65.0742L55.4547 75L59.5636 70.1626L65.9116 70.0786L61.8124 61.3676Z" fill="#FFB156"/>
<path d="M64.9646 43.4162L67.5142 37.7254L62.1065 34.6201L60.8244 28.5172L54.6238 29.1831L49.9993 25L45.3748 29.1832L39.1742 28.5173L37.8921 34.6201L32.4844 37.7253L35.0339 43.4161L32.4844 49.1069L37.8921 52.2121L39.1742 58.315L39.6469 58.2643L41.3527 58.0807L43.0576 57.898L43.5146 57.8492H43.5156L45.3748 57.649L46.7731 58.9136L48.2486 60.2484L48.7086 60.6645L49.3843 61.2757L49.9994 61.8322L50.6145 61.2757L51.2902 60.6645L51.7502 60.2484L52.8976 59.2114L52.8985 59.2104L54.6239 57.6491L57.6373 57.9724H57.6383L57.9449 58.0056L58.646 58.0808H58.647L60.3519 58.2644L60.8245 58.3151L62.1066 52.2122L67.5144 49.107L64.9646 43.4162ZM49.9993 54.8906C43.6728 54.8906 38.5248 49.7437 38.5248 43.4161C38.5248 37.0896 43.6728 31.9416 49.9993 31.9416C56.3259 31.9416 61.4738 37.0896 61.4738 43.4161C61.4738 49.7437 56.3259 54.8906 49.9993 54.8906Z" fill="#FFB156"/>
</svg>
