<svg width="100" height="100" viewBox="0 0 100 100" fill="none" xmlns="http://www.w3.org/2000/svg">
<rect opacity="0.05" width="100" height="100" rx="16" fill="#FF317B"/>
<path d="M60.0374 33.0646H31.3257C30.2833 33.0646 29.4355 33.9124 29.4355 34.9547V73.1099C29.4355 74.1523 30.2833 75 31.3257 75H60.0374C61.0787 75 61.9265 74.1523 61.9265 73.1099V34.9547C61.9265 33.9124 61.0787 33.0646 60.0374 33.0646ZM53.6291 59.6775H38.3065C37.4154 59.6775 36.6936 58.9557 36.6936 58.0646C36.6936 57.1734 37.4154 56.4517 38.3065 56.4517H53.6291C54.5202 56.4517 55.242 57.1734 55.242 58.0646C55.242 58.9557 54.5202 59.6775 53.6291 59.6775ZM53.6291 53.2259H38.3065C37.4154 53.2259 36.6936 52.5041 36.6936 51.613C36.6936 50.7218 37.4154 50.0001 38.3065 50.0001H53.6291C54.5202 50.0001 55.242 50.7218 55.242 51.613C55.242 52.5041 54.5202 53.2259 53.6291 53.2259ZM53.6291 46.7743H38.3065C37.4154 46.7743 36.6936 46.0525 36.6936 45.1613C36.6936 44.2702 37.4154 43.5484 38.3065 43.5484H53.6291C54.5202 43.5484 55.242 44.2702 55.242 45.1613C55.242 46.0525 54.5202 46.7743 53.6291 46.7743Z" fill="#FF317B"/>
<path d="M70.5644 29.8387V65.3226C70.5644 67.7581 68.6046 70.1613 65.1521 70.1613V34.9546C65.1521 32.1331 62.8577 29.8387 60.0372 29.8387H34.8477C34.8477 27.1704 37.1471 25 39.9727 25H65.4394C68.265 25 70.5644 27.1704 70.5644 29.8387Z" fill="#FF317B"/>
</svg>
