<svg width="40" height="40" viewBox="0 0 40 40" fill="none" xmlns="http://www.w3.org/2000/svg">
<path d="M16.0835 23L18.7668 25.0833C19.1168 25.4333 19.9002 25.5999 20.4168 25.5999H23.7168C24.7502 25.5999 25.8835 24.8166 26.1502 23.7833L28.2335 17.4665C28.6668 16.2499 27.8835 15.2166 26.5835 15.2166H23.1168C22.6002 15.2166 22.1668 14.7832 22.2502 14.1832L22.6835 11.4165C22.8502 10.6332 22.3335 9.76649 21.5502 9.51649C20.8502 9.24982 19.9835 9.5998 19.6502 10.1165L16.1002 15.3999" stroke="url(#paint0_linear_11561_28307)" stroke-width="2" stroke-linecap="round" stroke-linejoin="round"/>
<path d="M11.667 22.9997V14.5162C11.667 13.2995 12.1836 12.8662 13.4003 12.8662H14.267C15.4837 12.8662 16.0003 13.2995 16.0003 14.5162V22.9997C16.0003 24.2163 15.4837 24.6497 14.267 24.6497H13.4003C12.1836 24.6497 11.667 24.2163 11.667 22.9997Z" stroke="#00FFA3" stroke-width="2" stroke-linecap="round" stroke-linejoin="round"/>
<path d="M30 31.4329H28.7333C27.4 31.4329 26.1333 31.9496 25.2 32.8829L22.35 35.6997C21.05 36.983 18.9333 36.983 17.6333 35.6997L14.7833 32.8829C13.85 31.9496 12.5667 31.4329 11.25 31.4329H10C7.23333 31.4329 5 29.2163 5 26.483V8.29956C5 5.56623 7.23333 3.34961 10 3.34961H30C32.7667 3.34961 35 5.56623 35 8.29956V26.483C35 29.1996 32.7667 31.4329 30 31.4329Z" stroke="white" stroke-width="2" stroke-miterlimit="10" stroke-linecap="round" stroke-linejoin="round"/>
<defs>
<linearGradient id="paint0_linear_11561_28307" x1="15.3169" y1="8.07621" x2="29.1207" y2="8.07621" gradientUnits="userSpaceOnUse">
<stop stop-color="#00FFA3"/>
<stop offset="1" stop-color="#00FFA3" stop-opacity="0"/>
</linearGradient>
</defs>
</svg>
