<svg width="60" height="60" viewBox="0 0 60 60" fill="none" xmlns="http://www.w3.org/2000/svg">
<rect opacity="0.05" width="60" height="60" rx="16" fill="#C956FF"/>
<path d="M39.2136 16.7593H23.4863C22.8227 16.7593 22.2772 17.3002 22.2772 17.9684V19.132H40.4136V17.9638C40.4136 17.3002 39.8772 16.7593 39.2136 16.7593ZM32.9681 18.4002H29.7227C29.4727 18.4002 29.2681 18.1956 29.2681 17.9456C29.2681 17.6956 29.4727 17.4911 29.7227 17.4911H32.9681C33.2181 17.4911 33.4227 17.6956 33.4227 17.9456C33.4227 18.1956 33.2181 18.4002 32.9681 18.4002ZM29.6181 22.8593H40.4136V20.0411H22.2772V30.7138H23.0318C23.0908 30.7138 23.1454 30.7229 23.1954 30.7456C23.3454 30.8002 23.459 30.9366 23.4863 31.1047L23.5772 31.7502L23.6227 32.0593C23.809 32.1229 23.9908 32.2047 24.1727 32.2866C24.2545 32.3275 24.3363 32.3638 24.4181 32.4093L25.1908 31.8911C25.3727 31.7684 25.6181 31.7911 25.7727 31.9547L26.4363 32.6502L27.3681 33.6275C27.4863 33.7502 27.5227 33.9184 27.4772 34.0684C27.4636 34.1229 27.4408 34.1729 27.4045 34.2138L27.0727 34.6638L26.859 34.9547C26.8954 35.032 26.9227 35.1093 26.9545 35.1866C26.9863 35.2547 27.0181 35.3275 27.0454 35.4002C27.0908 35.5229 27.1363 35.6456 27.1727 35.7684L27.5636 35.8502L28.0772 35.9547C28.2908 35.9956 28.4408 36.182 28.4408 36.3911V36.4093L28.3863 38.7229C28.3818 38.8365 28.3408 38.9366 28.2727 39.0138C28.2045 39.0911 28.109 39.1502 27.9999 39.1638L27.0818 39.3093C27.0045 39.532 26.909 39.7502 26.7999 39.9593H40.4136V35.9502H35.009L32.7227 37.9684C32.709 37.9866 32.6908 37.9911 32.6727 38.0047C32.6318 38.0366 32.5863 38.0638 32.5408 38.0866C32.5181 38.1002 32.4999 38.1138 32.4727 38.1229C32.4136 38.1502 32.3499 38.1684 32.2818 38.1775C32.2636 38.182 32.2408 38.182 32.2227 38.1866C32.1954 38.1866 32.1681 38.1911 32.1363 38.1911C32.1181 38.1911 32.0954 38.1866 32.0727 38.1866C32.0408 38.182 32.0136 38.182 31.9818 38.1775C31.9227 38.1638 31.859 38.1456 31.7999 38.1229C31.7908 38.1184 31.7772 38.1184 31.7681 38.1138C31.4499 37.9684 31.2499 37.6593 31.2499 37.3093V35.9502H29.6227C29.5318 35.9502 29.4454 35.9411 29.359 35.9229C28.759 35.8002 28.309 35.2729 28.309 34.6366V24.1684C28.309 23.4456 28.8954 22.8593 29.6181 22.8593ZM21.7181 35.2366C20.5136 35.2366 19.5318 36.2229 19.5318 37.432C19.5318 38.6411 20.5136 39.6229 21.7181 39.6229C22.9272 39.6229 23.909 38.6411 23.909 37.432C23.909 36.2229 22.9272 35.2366 21.7181 35.2366ZM21.7181 35.2366C20.5136 35.2366 19.5318 36.2229 19.5318 37.432C19.5318 38.6411 20.5136 39.6229 21.7181 39.6229C22.9272 39.6229 23.909 38.6411 23.909 37.432C23.909 36.2229 22.9272 35.2366 21.7181 35.2366ZM27.3636 36.7366L26.7181 36.6047C26.5454 36.5729 26.409 36.4411 26.3681 36.2729C26.3181 36.0684 26.2545 35.8684 26.1818 35.682C26.1681 35.6547 26.1545 35.6275 26.1454 35.6002C26.0772 35.4411 26.009 35.282 25.9272 35.132C25.8818 35.0547 25.8636 34.9638 25.8727 34.882C25.8727 34.8456 25.8818 34.8093 25.8908 34.7775C25.8954 34.7684 25.8954 34.7638 25.8954 34.7593C25.9136 34.7138 25.9318 34.6775 25.959 34.6411L26.3227 34.1502L26.4454 33.982L25.8227 33.3229L25.3772 32.8593L24.6999 33.3138L24.6908 33.3184C24.659 33.3411 24.6227 33.3593 24.5863 33.3684C24.5818 33.3729 24.5818 33.3729 24.5772 33.3729C24.4545 33.4138 24.3181 33.4002 24.1999 33.332C24.0545 33.2411 23.9045 33.1684 23.7499 33.0956C23.5318 32.9956 23.3136 32.9093 23.0863 32.8411C23.0545 32.8275 23.0227 32.8138 22.9954 32.7956C22.9863 32.7911 22.9772 32.7911 22.9681 32.7866C22.859 32.7138 22.7818 32.6002 22.7636 32.4684L22.7045 32.0547L22.6408 31.6229H21.0863L20.9227 32.4411C20.8863 32.6093 20.7636 32.7456 20.5954 32.7866L20.5454 32.8047C20.1318 32.9138 19.7772 33.0547 19.4454 33.2366C19.2908 33.3229 19.0999 33.3093 18.959 33.2047L18.2954 32.7184L17.1681 33.7956L17.6227 34.482C17.7227 34.6275 17.7227 34.8229 17.6318 34.9729C17.5499 35.1002 17.4727 35.2411 17.3908 35.4138C17.2908 35.6275 17.209 35.8502 17.1408 36.0866C17.0908 36.2547 16.9454 36.3775 16.7727 36.4047L15.9545 36.532L15.9136 38.0866L16.7227 38.2456C16.8954 38.282 17.0363 38.4138 17.0772 38.5866C17.1681 38.9729 17.3136 39.3593 17.5136 39.7275C17.5954 39.882 17.5818 40.0684 17.4772 40.2093L16.9863 40.8775L18.059 42.0002L18.7499 41.5366C18.8954 41.4366 19.0908 41.432 19.2408 41.5229C19.5954 41.7411 19.9681 41.9047 20.3499 42.0184C20.5227 42.0638 20.6499 42.2093 20.6772 42.3866L20.7999 43.2411H22.3499L22.5181 42.4184C22.5499 42.2456 22.6818 42.1047 22.8545 42.0638C23.2499 41.9684 23.6318 41.8229 23.9954 41.6229C24.1499 41.5366 24.3408 41.5502 24.4818 41.6547L25.1408 42.1411L26.2727 41.0638L26.0318 40.7002L25.8136 40.3775C25.7136 40.2275 25.7136 40.0366 25.809 39.882C25.8545 39.8093 25.8863 39.7275 25.9272 39.6547C26.0545 39.4184 26.1636 39.1729 26.2454 38.9138C26.2636 38.8684 26.2818 38.8229 26.2999 38.7775C26.3363 38.6502 26.4227 38.5456 26.5408 38.4911H26.5499C26.5863 38.4729 26.6227 38.4593 26.6636 38.4547L27.4863 38.3229L27.5227 36.7684L27.3636 36.7366ZM21.7181 40.532C20.009 40.532 18.6227 39.1411 18.6227 37.432C18.6227 35.7184 20.009 34.3275 21.7181 34.3275C23.4272 34.3275 24.8181 35.7184 24.8181 37.432C24.8181 39.1411 23.4272 40.532 21.7181 40.532ZM21.7181 35.2366C20.5136 35.2366 19.5318 36.2229 19.5318 37.432C19.5318 38.6411 20.5136 39.6229 21.7181 39.6229C22.9272 39.6229 23.909 38.6411 23.909 37.432C23.909 36.2229 22.9272 35.2366 21.7181 35.2366ZM21.7181 35.2366C20.5136 35.2366 19.5318 36.2229 19.5318 37.432C19.5318 38.6411 20.5136 39.6229 21.7181 39.6229C22.9272 39.6229 23.909 38.6411 23.909 37.432C23.909 36.2229 22.9272 35.2366 21.7181 35.2366ZM21.7181 35.2366C20.5136 35.2366 19.5318 36.2229 19.5318 37.432C19.5318 38.6411 20.5136 39.6229 21.7181 39.6229C22.9272 39.6229 23.909 38.6411 23.909 37.432C23.909 36.2229 22.9272 35.2366 21.7181 35.2366ZM27.2363 40.8684L27.2408 40.8729C27.3636 41.0593 27.3363 41.3047 27.1772 41.4547L26.4681 42.1275L25.4954 43.0593C25.3363 43.2138 25.0908 43.2275 24.9136 43.0956L24.8045 43.0184C24.7863 43.0093 24.7681 42.9956 24.759 42.9866L24.1681 42.5547C23.8999 42.682 23.6272 42.7911 23.3545 42.8729L23.2818 43.2411H39.209C39.8727 43.2411 40.4136 42.7002 40.4136 42.032V40.8684H27.2363ZM32.9681 42.5456H29.7227C29.4727 42.5456 29.2681 42.3411 29.2681 42.0911C29.2681 41.8365 29.4727 41.6366 29.7227 41.6366H32.9681C33.2181 41.6366 33.4227 41.8365 33.4227 42.0911C33.4227 42.3411 33.2181 42.5456 32.9681 42.5456ZM43.6863 23.7684H40.8863C40.8818 23.7684 40.8727 23.7729 40.8681 23.7729H29.6227C29.3999 23.7729 29.2181 23.9502 29.2181 24.1684V34.6366C29.2181 34.7047 29.2408 34.7638 29.2681 34.8184C29.3363 34.9502 29.4636 35.0411 29.6181 35.0411H31.709C31.959 35.0411 32.1636 35.2456 32.1636 35.4956V37.2502L34.5363 35.1547C34.6181 35.082 34.7227 35.0411 34.8363 35.0411H43.6863C43.9045 35.0411 44.0863 34.8593 44.0863 34.6366V24.1684C44.0863 23.9502 43.9045 23.7684 43.6863 23.7684ZM34.6363 31.6229C34.5181 31.6229 34.4045 31.5775 34.3136 31.4911L32.6454 29.8229C32.559 29.7366 32.5136 29.6229 32.5136 29.5002C32.5136 29.382 32.559 29.2638 32.6454 29.182L34.3136 27.5093C34.4908 27.332 34.7818 27.332 34.959 27.5093C35.1363 27.6911 35.1363 27.9775 34.959 28.1547L33.609 29.5002L34.959 30.8456C35.1363 31.0229 35.1363 31.3138 34.959 31.4911C34.8681 31.5775 34.7545 31.6229 34.6363 31.6229ZM35.5227 34.0275C35.4818 34.0275 35.4408 34.0229 35.3999 34.0093C35.1545 33.9456 35.0136 33.6911 35.0818 33.4502L37.3454 25.3047C37.4136 25.0638 37.6681 24.9229 37.909 24.9911C38.1499 25.0547 38.2908 25.3093 38.2227 25.5502L35.959 33.6956C35.9045 33.8956 35.7181 34.0275 35.5227 34.0275ZM40.659 29.8229L38.9908 31.4911C38.8999 31.5775 38.7863 31.6229 38.6681 31.6229C38.5545 31.6229 38.4363 31.5775 38.3454 31.4911C38.1681 31.3138 38.1681 31.0229 38.3499 30.8456L39.6954 29.5002L38.3499 28.1547C38.1681 27.9775 38.1681 27.6911 38.3499 27.5093C38.5272 27.332 38.8136 27.332 38.9908 27.5093L40.659 29.182C40.7454 29.2638 40.7908 29.382 40.7908 29.5002C40.7908 29.6229 40.7454 29.7366 40.659 29.8229Z" fill="#C956FF"/>
</svg>
