<svg width="20" height="20" viewBox="0 0 20 20" fill="none" xmlns="http://www.w3.org/2000/svg">
<path fill-rule="evenodd" clip-rule="evenodd" d="M20 10C20 15.5228 15.5228 20 10 20C4.47715 20 0 15.5228 0 10C0 4.47715 4.47715 0 10 0C15.5228 0 20 4.47715 20 10ZM8.24536 5.58315C7.88936 5.50715 7.49576 5.46875 7.06457 5.46875H2.7998V14.5319H7.19257C7.59256 14.5327 7.99176 14.4815 8.37896 14.3799C8.76375 14.2783 9.10615 14.1223 9.40695 13.9103C9.70775 13.6991 9.94694 13.4263 10.1245 13.0919C10.3021 12.7575 10.3909 12.3615 10.3909 11.9047C10.3909 11.3375 10.2533 10.8527 9.97814 10.4511C9.70295 10.0495 9.28615 9.76792 8.72775 9.60712C9.13335 9.41272 9.44055 9.16313 9.64775 8.85833C9.85494 8.55353 9.95894 8.17273 9.95894 7.71594C9.95894 7.29274 9.88934 6.93754 9.74934 6.64954C9.60935 6.36154 9.41255 6.13115 9.15895 5.95755C8.90535 5.78395 8.60135 5.65915 8.24536 5.58315ZM7.68696 8.88313C7.45817 9.05193 7.16617 9.13673 6.81097 9.13673L4.79339 9.13833V7.01834H6.65817C6.83097 7.01754 7.00297 7.03274 7.17257 7.06234C7.33737 7.09194 7.48296 7.14474 7.61016 7.22074C7.73736 7.29674 7.83896 7.40314 7.91496 7.53834C7.99096 7.67354 8.02936 7.84713 8.02936 8.05833C8.03016 8.43913 7.91576 8.71353 7.68696 8.88313ZM7.48376 12.9255C7.30057 12.9639 7.11337 12.9831 6.92537 12.9823L4.79339 12.9831V10.4951H6.96377C7.39497 10.4951 7.74216 10.5943 8.00456 10.7935C8.26696 10.9919 8.39816 11.3247 8.39816 11.7895C8.39816 12.0263 8.35736 12.2215 8.27736 12.3735C8.19656 12.5255 8.08856 12.6463 7.95336 12.7351C7.81816 12.8239 7.66136 12.8871 7.48376 12.9255ZM14.0661 13.1855C13.5581 13.1855 13.1685 13.0543 12.8981 12.7919C12.6277 12.5303 12.4797 12.1071 12.4549 11.5255H17.1893C17.2229 11.0175 17.1805 10.5311 17.0621 10.0655C16.9437 9.59992 16.7509 9.18552 16.4845 8.82153C16.2181 8.45753 15.8773 8.16793 15.4629 7.95193C15.0477 7.73594 14.5613 7.62794 14.0029 7.62794C13.5037 7.62794 13.0485 7.71673 12.6381 7.89433C12.2277 8.07193 11.8741 8.31513 11.5781 8.62393C11.2821 8.93273 11.0533 9.29832 10.8925 9.72152C10.7317 10.1447 10.6517 10.6015 10.6517 11.0919C10.6517 11.5991 10.7301 12.0647 10.8861 12.4879C11.0421 12.9111 11.2645 13.2743 11.5525 13.5791C11.8405 13.8839 12.1917 14.1191 12.6061 14.2839C13.0205 14.4487 13.4861 14.5311 14.0021 14.5311C14.7469 14.5311 15.3813 14.3615 15.9061 14.0231C16.4309 13.6847 16.8205 13.1223 17.0741 12.3351H15.4877C15.4285 12.5383 15.2677 12.7311 15.0053 12.9127C14.7429 13.0943 14.4301 13.1855 14.0661 13.1855ZM13.9517 8.98473C14.3917 8.98473 14.7197 9.10313 14.9357 9.33992C15.1509 9.57672 15.3013 9.92392 15.3869 10.3799H12.4549C12.4629 10.2535 12.4909 10.1095 12.5373 9.94872C12.5837 9.78792 12.6637 9.63592 12.7781 9.49192C12.8925 9.34792 13.0445 9.22793 13.2349 9.13033C13.4245 9.03353 13.6637 8.98473 13.9517 8.98473ZM15.8093 5.92875H12.1461V6.94474H15.8093V5.92875Z" fill="#6B6E78"/>
</svg>
