<svg width="1921" height="472" viewBox="0 0 1921 472" fill="none" xmlns="http://www.w3.org/2000/svg">
<mask id="mask0_12755_58912" style="mask-type:alpha" maskUnits="userSpaceOnUse" x="0" y="0" width="652" height="472">
<rect width="651.36" height="472" fill="#C4C4C4"/>
</mask>
<g mask="url(#mask0_12755_58912)">
<g opacity="0.1">
<circle cx="29.713" cy="577.974" r="615.497" stroke="url(#paint0_linear_12755_58912)"/>
<circle cx="29.7124" cy="577.973" r="425.784" stroke="url(#paint1_linear_12755_58912)"/>
<circle cx="29.7128" cy="577.973" r="278.356" stroke="url(#paint2_linear_12755_58912)"/>
<circle cx="29.7123" cy="577.974" r="137.785" stroke="url(#paint3_linear_12755_58912)"/>
</g>
</g>
<circle cx="470.5" cy="309.5" r="4.5" fill="#4991FF"/>
<circle cx="258.5" cy="107.5" r="5.5" fill="#FFB156"/>
<mask id="mask1_12755_58912" style="mask-type:alpha" maskUnits="userSpaceOnUse" x="1269" y="0" width="652" height="472">
<rect x="1920.36" y="472" width="651.36" height="472" transform="rotate(-180 1920.36 472)" fill="#C4C4C4"/>
</mask>
<g mask="url(#mask1_12755_58912)">
<g opacity="0.1">
<circle cx="1890.65" cy="-105.974" r="615.497" transform="rotate(-180 1890.65 -105.974)" stroke="url(#paint4_linear_12755_58912)"/>
<circle cx="1890.65" cy="-105.973" r="425.784" transform="rotate(-180 1890.65 -105.973)" stroke="url(#paint5_linear_12755_58912)"/>
<circle cx="1890.65" cy="-105.973" r="278.356" transform="rotate(-180 1890.65 -105.973)" stroke="url(#paint6_linear_12755_58912)"/>
<circle cx="1890.65" cy="-105.974" r="137.785" transform="rotate(-180 1890.65 -105.974)" stroke="url(#paint7_linear_12755_58912)"/>
</g>
</g>
<circle cx="1631.5" cy="121.5" r="3.5" transform="rotate(-180 1631.5 121.5)" fill="#00FFA3"/>
<circle cx="1548.5" cy="278.5" r="5.5" transform="rotate(-180 1548.5 278.5)" fill="#FF317B"/>
<defs>
<linearGradient id="paint0_linear_12755_58912" x1="645.71" y1="545.974" x2="-54.2866" y2="-38.0234" gradientUnits="userSpaceOnUse">
<stop stop-color="white"/>
<stop offset="1" stop-color="white" stop-opacity="0"/>
</linearGradient>
<linearGradient id="paint1_linear_12755_58912" x1="455.996" y1="555.829" x2="-28.4172" y2="151.689" gradientUnits="userSpaceOnUse">
<stop stop-color="white"/>
<stop offset="1" stop-color="white" stop-opacity="0"/>
</linearGradient>
<linearGradient id="paint2_linear_12755_58912" x1="308.569" y1="563.487" x2="-8.31302" y2="299.117" gradientUnits="userSpaceOnUse">
<stop stop-color="white"/>
<stop offset="1" stop-color="white" stop-opacity="0"/>
</linearGradient>
<linearGradient id="paint3_linear_12755_58912" x1="167.997" y1="570.79" x2="10.8553" y2="439.688" gradientUnits="userSpaceOnUse">
<stop stop-color="white"/>
<stop offset="1" stop-color="white" stop-opacity="0"/>
</linearGradient>
<linearGradient id="paint4_linear_12755_58912" x1="2506.64" y1="-137.974" x2="1806.65" y2="-721.971" gradientUnits="userSpaceOnUse">
<stop stop-color="white"/>
<stop offset="1" stop-color="white" stop-opacity="0"/>
</linearGradient>
<linearGradient id="paint5_linear_12755_58912" x1="2316.93" y1="-128.118" x2="1832.52" y2="-532.257" gradientUnits="userSpaceOnUse">
<stop stop-color="white"/>
<stop offset="1" stop-color="white" stop-opacity="0"/>
</linearGradient>
<linearGradient id="paint6_linear_12755_58912" x1="2169.5" y1="-120.459" x2="1852.62" y2="-384.829" gradientUnits="userSpaceOnUse">
<stop stop-color="white"/>
<stop offset="1" stop-color="white" stop-opacity="0"/>
</linearGradient>
<linearGradient id="paint7_linear_12755_58912" x1="2028.93" y1="-113.157" x2="1871.79" y2="-244.259" gradientUnits="userSpaceOnUse">
<stop stop-color="white"/>
<stop offset="1" stop-color="white" stop-opacity="0"/>
</linearGradient>
</defs>
</svg>
