<svg width="500" height="500" viewBox="0 0 500 500" fill="none" xmlns="http://www.w3.org/2000/svg">
<g clip-path="url(#clip0_12401_59684)">
<path opacity="0.02" d="M300.615 413.811V452.404H287.359L315.929 485.683L342.731 453.09H329.185V413.811H300.615Z" fill="white"/>
<path opacity="0.03" d="M345.186 123.148V136.73H340.523L350.582 148.451L360.023 136.974H355.244V123.148H345.186Z" fill="white"/>
<path opacity="0.02" d="M470.992 249.147V277.043H461.41L482.061 301.101L501.433 277.531H491.643V249.147H470.992Z" fill="white"/>
<path opacity="0.02" d="M24.0853 361.869V389.753H14.5039L35.1551 413.811L54.5388 390.253H44.7365V361.869H24.0853Z" fill="white"/>
<path opacity="0.02" d="M195.596 407.462V428.276H188.445L203.864 446.229L218.317 428.648H211.015V407.462H195.596Z" fill="white"/>
<path d="M463.63 462.785C457.438 461.673 449.787 463.239 443.106 463.841C436.426 463.239 428.775 461.68 422.583 462.785C420.018 468.07 419.615 475.934 421.109 481.623C422.604 487.311 426.196 492.419 431.02 495.728C433.62 497.513 436.539 498.746 439.593 499.532H446.62C449.666 498.753 452.592 497.513 455.192 495.728C460.017 492.419 463.608 487.311 465.103 481.623C466.598 475.941 466.194 468.077 463.63 462.785Z" fill="#4991FF"/>
<path d="M443.117 469.409C454.768 469.409 464.214 466.799 464.214 463.578C464.214 460.358 454.768 457.748 443.117 457.748C431.465 457.748 422.02 460.358 422.02 463.578C422.02 466.799 431.465 469.409 443.117 469.409Z" fill="#121316"/>
<path d="M443.108 469.763C432.559 469.763 421.656 467.453 421.656 463.578C421.656 459.71 432.566 457.4 443.108 457.4C453.656 457.4 464.559 459.71 464.559 463.578C464.559 467.453 453.649 469.763 443.108 469.763ZM443.108 458.109C430.696 458.109 422.365 460.935 422.365 463.578C422.365 466.22 430.703 469.054 443.108 469.054C455.512 469.054 463.851 466.22 463.851 463.578C463.851 460.935 455.519 458.109 443.108 458.109Z" fill="#4991FF"/>
<path d="M431.719 465.412C431.719 465.412 403.374 448.136 407.885 431.396C412.395 414.655 424.407 415.848 428.156 425.31C432.837 437.126 439.129 427.972 436.233 411.032C432.227 387.607 444.597 383.434 453.616 387.607C462.635 391.78 446.573 412.891 457.334 414.298C462.773 415.009 466.001 394.722 474.209 396.92C481.208 398.8 482.71 400.731 479.922 410.108C477.134 419.486 475.683 444.087 464.089 455.161C452.495 466.234 449.112 465.412 449.112 465.412H431.719Z" fill="url(#paint0_linear_12401_59684)"/>
<path d="M447.422 386.63C446.896 392.153 446.298 397.665 445.675 403.175C445.078 408.461 444.46 413.743 443.881 419.033C443.327 424.09 442.808 429.152 442.393 434.227C441.997 439.069 441.695 443.924 441.565 448.785C441.441 453.413 441.474 458.05 441.746 462.674C441.78 463.25 441.818 463.824 441.859 464.399C441.897 464.936 442.641 464.946 442.602 464.399C442.284 459.783 442.173 455.152 442.269 450.524C442.356 445.689 442.623 440.858 442.992 436.041C443.378 430.993 443.878 425.957 444.419 420.926C444.984 415.664 445.596 410.409 446.195 405.152C446.815 399.695 447.421 394.237 447.959 388.769C448.029 388.058 448.098 387.346 448.165 386.634C448.217 386.096 447.473 386.099 447.422 386.634V386.63Z" fill="#00FFA3"/>
<path d="M413.065 422.905C415.051 425.169 416.909 427.539 418.633 430.004C420.508 432.656 422.271 435.385 423.96 438.156C425.703 441.008 427.364 443.906 428.977 446.83C430.542 449.665 432.067 452.522 433.551 455.401C434.994 458.184 436.369 461.009 437.83 463.776C438.042 464.18 438.262 464.579 438.489 464.974C438.756 465.439 439.482 465.021 439.213 464.555C438.356 463.067 437.615 461.514 436.84 459.983C436.156 458.639 435.47 457.295 434.779 455.953C433.306 453.097 431.802 450.258 430.266 447.433C428.665 444.506 427.017 441.602 425.296 438.742C423.598 435.919 421.83 433.134 419.951 430.429C418.219 427.907 416.358 425.474 414.376 423.139C414.139 422.863 413.901 422.59 413.661 422.319C413.303 421.915 412.711 422.505 413.067 422.906L413.065 422.905Z" fill="#00FFA3"/>
<path d="M477.384 399.022C474.779 402.965 472.552 407.15 470.442 411.365C468.233 415.784 466.175 420.273 464.13 424.768C462.172 429.078 460.146 433.358 458.205 437.676C455.816 442.986 453.647 448.394 451.817 453.917C451.137 455.977 450.572 458.062 449.872 460.108C449.393 461.507 448.91 462.909 448.361 464.282L448.309 464.412C448.264 464.521 448.315 464.382 448.298 464.438C448.247 464.599 448.161 464.521 448.384 464.409L448.712 464.367L449.004 464.658C448.915 464.442 448.725 464.301 448.485 464.364C448.286 464.416 448.103 464.669 448.19 464.877C448.35 465.259 448.793 465.276 448.997 464.93C449.085 464.755 449.161 464.574 449.222 464.388C449.479 463.731 449.719 463.065 449.959 462.401C450.513 460.858 451.023 459.309 451.496 457.741C453.212 452.023 455.317 446.422 457.683 440.943C459.663 436.35 461.84 431.84 463.91 427.288C465.981 422.737 468.036 418.185 470.23 413.699C472.378 409.305 474.633 404.943 477.244 400.798C477.529 400.345 477.821 399.894 478.12 399.446C478.417 398.995 477.682 398.579 477.391 399.025L477.384 399.022Z" fill="#00FFA3"/>
<g opacity="0.03">
<path d="M119.17 56.2721C119.994 50.2982 111.558 45.3837 105.231 44.8736C102.209 44.6284 99.0704 45.0894 96.2061 44.0987C90.0066 41.9406 87.5248 33.9264 81.4823 31.376C76.9602 29.473 71.7514 31.17 67.3667 33.3771C62.9819 35.5842 58.6462 38.3602 53.7513 38.6741C49.4941 38.9488 44.8641 37.3695 41.1366 39.4491C38.3605 40.999 36.8989 44.1968 34.3387 46.09C31.8373 47.9341 28.561 48.3265 25.4613 48.4933C22.3517 48.66 19.1343 48.6895 16.3092 49.9941C13.4743 51.2889 11.1397 54.2808 11.7282 57.3413L119.17 56.2721Z" fill="white"/>
</g>
<g opacity="0.03">
<path d="M428.65 212.952V223.861H424.172L433.828 233.273L442.876 224.055H438.306V212.952H428.65Z" fill="white"/>
</g>
<path opacity="0.03" d="M460.126 179.92C457.236 168.729 447.109 160.46 435.025 160.46C426.825 160.46 419.534 164.267 414.772 170.201C413.955 170.109 413.122 170.047 412.275 170.047C400.368 170.047 390.719 179.696 390.719 191.603C390.719 203.51 400.368 213.159 412.275 213.159H459.216C468.411 213.159 475.855 205.706 475.855 196.52C475.863 187.634 468.896 180.397 460.126 179.92Z" fill="white"/>
<path d="M465.095 207.347C465.056 207.285 465.989 206.699 467.222 205.466C468.455 204.241 469.95 202.276 470.86 199.771C471.769 197.266 471.869 194.8 471.707 193.066C471.545 191.324 471.206 190.276 471.276 190.261C471.299 190.253 471.407 190.508 471.553 190.978C471.7 191.448 471.869 192.149 471.985 193.035C472.224 194.792 472.17 197.328 471.237 199.91C470.305 202.492 468.732 204.48 467.422 205.674C466.767 206.276 466.189 206.707 465.773 206.977C465.357 207.247 465.11 207.37 465.095 207.347Z" fill="#252629"/>
<path d="M415.372 176.506C415.356 176.584 414.185 176.283 412.251 176.237C410.332 176.183 407.627 176.483 404.937 177.662C402.24 178.842 400.182 180.622 398.926 182.071C397.646 183.52 397.068 184.583 397.007 184.545C396.984 184.529 397.107 184.259 397.377 183.782C397.646 183.304 398.086 182.641 398.71 181.886C399.935 180.368 402.016 178.502 404.783 177.3C407.542 176.09 410.324 175.828 412.266 175.959C413.245 176.021 414.031 176.144 414.563 176.268C415.087 176.383 415.372 176.483 415.372 176.506Z" fill="#252629"/>
<path d="M436.969 184.099L437.817 184.079L440.177 181.605L440.271 180.577C435.681 176.715 428.828 177.305 424.966 181.895C423.892 183.17 423.126 184.675 422.729 186.293C422.995 186.176 423.293 186.151 423.576 186.222L428.389 185.31C428.389 185.31 428.625 184.898 428.752 184.921C430.846 182.509 434.457 182.149 436.987 184.099L436.969 184.099Z" fill="#26272B"/>
<path d="M443.719 185.796C443.115 183.764 441.932 181.952 440.313 180.584L437.003 184.054C438.462 185.19 439.319 186.934 439.328 188.784L439.343 189.386C441.01 189.347 442.392 190.666 442.432 192.332C442.471 194 441.151 195.382 439.485 195.421L433.449 195.564L432.861 196.189L432.946 199.809L433.563 200.397L439.6 200.254C443.061 200.199 446.078 197.884 447.027 194.555C447.974 191.226 446.631 187.667 443.719 185.796Z" fill="#26272B"/>
<path d="M427.517 200.507L433.553 200.364L433.439 195.532L427.402 195.675C426.972 195.685 426.545 195.603 426.149 195.433L425.307 195.715L422.932 198.189L422.74 199.042C424.128 200.04 425.806 200.554 427.517 200.507Z" fill="#26272B"/>
<path d="M427.147 184.832C423.794 184.931 420.875 187.149 419.881 190.351C418.886 193.554 420.035 197.036 422.741 199.017L426.16 195.433C424.624 194.782 423.907 193.011 424.558 191.475C425.208 189.94 426.979 189.223 428.515 189.873C429.191 190.16 429.74 190.684 430.058 191.345L433.477 187.761C431.94 185.85 429.598 184.766 427.147 184.832Z" fill="#26272B"/>
<g opacity="0.03">
<path d="M451.7 251.808C451.592 251.808 451.5 246.613 451.5 240.217C451.5 233.813 451.592 228.618 451.7 228.618C451.808 228.618 451.901 233.813 451.901 240.217C451.908 246.613 451.816 251.808 451.7 251.808Z" fill="white"/>
</g>
<g opacity="0.03">
<path d="M456.232 261.933C456.124 261.933 456.031 255.251 456.031 247.005C456.031 238.759 456.124 232.077 456.232 232.077C456.34 232.077 456.432 238.759 456.432 247.005C456.44 255.251 456.347 261.933 456.232 261.933Z" fill="white"/>
</g>
<g opacity="0.03">
<path d="M283.883 22.8181C284.301 19.8065 280.046 17.3297 276.848 17.0739C275.325 16.946 273.743 17.1786 272.301 16.6786C269.174 15.5855 267.929 11.5506 264.871 10.2599C262.592 9.29483 259.964 10.1553 257.755 11.2716C255.546 12.3879 253.36 13.7832 250.883 13.946C248.732 14.0855 246.406 13.2832 244.522 14.3413C243.127 15.1204 242.383 16.7367 241.092 17.6902C239.825 18.6204 238.185 18.8181 236.615 18.8995C235.046 18.9809 233.429 19.0041 231.999 19.6553C230.569 20.3065 229.394 21.8181 229.685 23.3646L283.883 22.8181Z" fill="white"/>
<path d="M174.831 129.347C175.15 127.049 171.902 125.158 169.462 124.963C168.3 124.866 167.093 125.043 165.993 124.662C163.606 123.827 162.656 120.748 160.323 119.763C158.583 119.027 156.578 119.684 154.892 120.535C153.206 121.387 151.538 122.452 149.648 122.576C148.006 122.683 146.231 122.071 144.794 122.878C143.729 123.473 143.161 124.706 142.176 125.434C141.209 126.143 139.958 126.294 138.76 126.356C137.562 126.419 136.329 126.436 135.237 126.933C134.146 127.43 133.25 128.584 133.471 129.764L174.831 129.347Z" fill="white"/>
</g>
<g opacity="0.03">
<path d="M169.391 486.096C170.511 478.023 159.098 471.376 150.534 470.681C146.447 470.358 142.207 470.969 138.341 469.629C129.964 466.712 126.606 455.876 118.432 452.416C112.31 449.839 105.272 452.128 99.337 455.113C93.4016 458.098 87.5511 461.845 80.9204 462.269C75.1546 462.642 68.897 460.506 63.8604 463.321C60.0957 465.423 58.1285 469.748 54.6691 472.309C51.2774 474.801 46.8683 475.344 42.6627 475.565C38.457 475.785 34.1157 475.836 30.2831 477.583C26.4506 479.329 23.2963 483.382 24.0764 487.52L169.391 486.096Z" fill="white"/>
</g>
<path d="M194.132 75.6325L183.774 64.415C179.175 66.2984 174.038 67.3125 168.88 67.3125C150.339 67.3125 135.258 54.8945 135.258 39.6411C135.258 24.3877 150.339 11.9697 168.88 11.9697C187.441 11.9697 202.522 24.3877 202.522 39.6411C202.522 47.0712 198.835 54.2529 192.392 59.4064L195.562 74.9082C195.645 75.2807 195.458 75.6532 195.127 75.8395C195.002 75.9016 194.878 75.9223 194.733 75.9223C194.526 75.9016 194.298 75.8188 194.132 75.6325ZM136.956 39.6411C136.956 53.9632 151.271 65.6154 168.88 65.6154C174.017 65.6154 179.134 64.5805 183.65 62.635C183.981 62.4902 184.354 62.573 184.603 62.842L193.304 72.259L190.631 59.2201C190.569 58.9097 190.693 58.5785 190.942 58.3715C197.219 53.5285 200.823 46.6779 200.823 39.6204C200.823 25.2983 186.488 13.6461 168.859 13.6461C151.271 13.6461 136.956 25.2983 136.956 39.6411Z" fill="#4991FF"/>
<path d="M177.59 39.2079C177.59 36.2069 180.034 33.7646 183.038 33.7646C186.042 33.7646 188.486 36.2069 188.486 39.2079C188.486 42.2089 186.042 44.6511 183.038 44.6511C180.034 44.6511 177.59 42.2089 177.59 39.2079ZM179.289 39.2079C179.289 41.2775 180.987 42.9746 183.059 42.9746C185.13 42.9746 186.829 41.2982 186.829 39.2079C186.829 37.1382 185.151 35.4411 183.059 35.4411C180.967 35.4411 179.289 37.1175 179.289 39.2079Z" fill="#4991FF"/>
<path d="M163.16 39.2079C163.16 36.2069 165.605 33.7646 168.608 33.7646C171.612 33.7646 174.057 36.2069 174.057 39.2079C174.057 42.2089 171.612 44.6511 168.608 44.6511C165.605 44.6511 163.16 42.2089 163.16 39.2079ZM164.838 39.2079C164.838 41.2775 166.537 42.9746 168.608 42.9746C170.68 42.9746 172.379 41.2982 172.379 39.2079C172.379 37.1382 170.701 35.4411 168.608 35.4411C166.537 35.4411 164.838 37.1175 164.838 39.2079Z" fill="#4991FF"/>
<path d="M148.699 39.2079C148.699 36.2069 151.144 33.7646 154.147 33.7646C157.151 33.7646 159.596 36.2069 159.596 39.2079C159.596 42.2089 157.151 44.6511 154.147 44.6511C151.164 44.6511 148.699 42.2089 148.699 39.2079ZM150.398 39.2079C150.398 41.2775 152.097 42.9746 154.168 42.9746C156.24 42.9746 157.938 41.2982 157.938 39.2079C157.938 37.1382 156.26 35.4411 154.168 35.4411C152.097 35.4411 150.398 37.1175 150.398 39.2079Z" fill="#4991FF"/>
<g opacity="0.03">
<path d="M403.555 90.6865V108.693H396.164L412.103 124.228L427.037 109.012H419.494V90.6865H403.555Z" fill="white"/>
</g>
<path opacity="0.03" d="M455.505 36.1629C450.734 17.6924 434.019 4.04297 414.073 4.04297C400.538 4.04297 388.504 10.327 380.643 20.122C379.294 19.9694 377.921 19.8676 376.521 19.8676C356.868 19.8676 340.941 35.794 340.941 55.4476C340.941 75.1012 356.868 91.0275 376.521 91.0275H454.004C469.179 91.0275 481.468 78.7266 481.468 63.5634C481.48 48.8964 469.981 36.9516 455.505 36.1629Z" fill="white"/>
<path d="M463.697 81.4366C463.634 81.3348 465.173 80.368 467.208 78.3327C469.243 76.3101 471.711 73.0663 473.212 68.9321C474.713 64.7978 474.879 60.7272 474.612 57.865C474.344 54.9901 473.785 53.2601 473.899 53.2347C473.937 53.2219 474.115 53.6417 474.357 54.4177C474.599 55.1937 474.879 56.3512 475.07 57.8141C475.464 60.7145 475.375 64.8996 473.836 69.161C472.296 73.4225 469.701 76.7045 467.539 78.6762C466.458 79.6684 465.504 80.3808 464.817 80.826C464.13 81.2712 463.723 81.4747 463.697 81.4366Z" fill="#252629"/>
<path d="M381.635 30.5278C381.609 30.655 379.676 30.1589 376.483 30.0826C373.315 29.9936 368.85 30.4897 364.411 32.4359C359.958 34.3822 356.562 37.3207 354.488 39.7122C352.377 42.1037 351.423 43.8592 351.321 43.7956C351.283 43.7701 351.486 43.3249 351.932 42.5362C352.377 41.7475 353.102 40.6535 354.132 39.4069C356.155 36.9009 359.589 33.8225 364.156 31.8381C368.71 29.8409 373.302 29.4084 376.508 29.6247C378.124 29.7264 379.421 29.93 380.299 30.1335C381.164 30.3243 381.635 30.4897 381.635 30.5278Z" fill="#252629"/>
<path d="M406.272 17.3297C406.283 17.4387 405.062 17.515 403.188 18.0054C401.313 18.4958 398.796 19.5093 396.398 21.2421C394.012 22.9857 392.268 25.0672 391.222 26.7019C390.176 28.3366 389.718 29.4699 389.62 29.4263C389.587 29.4155 389.675 29.1212 389.86 28.5981C390.034 28.075 390.383 27.3449 390.873 26.4839C391.364 25.623 392.05 24.6531 392.9 23.6505C393.772 22.6697 394.829 21.678 396.05 20.7735C397.281 19.8907 398.556 19.1933 399.766 18.6702C400.976 18.1689 402.109 17.8093 403.09 17.6131C404.06 17.406 404.855 17.308 405.411 17.2971C405.967 17.2862 406.272 17.2971 406.272 17.3297Z" fill="#252629"/>
<path d="M415.823 44.963L417.211 44.9301L421.071 40.8832L421.226 39.2011C413.716 32.8826 402.503 33.8477 396.185 41.3573C394.428 43.4435 393.176 45.9048 392.525 48.5522C392.961 48.3607 393.448 48.3206 393.911 48.4356L401.785 46.9448C401.785 46.9448 402.171 46.27 402.38 46.307C405.806 42.3619 411.714 41.772 415.852 44.9623L415.823 44.963Z" fill="#EA4335"/>
<path d="M426.865 47.7394C425.877 44.4155 423.941 41.4516 421.293 39.2122L415.877 44.8904C418.265 46.7488 419.667 49.6014 419.682 52.6279L419.705 53.6134C422.433 53.5488 424.694 55.7078 424.759 58.4337C424.823 61.1614 422.664 63.423 419.938 63.4875L410.062 63.721L409.101 64.7432L409.241 70.6658L410.249 71.628L420.125 71.3944C425.788 71.3043 430.724 67.5161 432.277 62.0704C433.827 56.6228 431.629 50.8004 426.865 47.7394Z" fill="#4285F4"/>
<path d="M400.354 71.8074L410.23 71.5738L410.043 63.6688L400.167 63.9024C399.464 63.919 398.765 63.7849 398.117 63.5064L396.74 63.9682L392.853 68.0157L392.539 69.4117C394.811 71.044 397.556 71.885 400.354 71.8074Z" fill="#34A853"/>
<path d="M399.751 46.163C394.266 46.3251 389.49 49.9532 387.863 55.1928C386.236 60.4324 388.116 66.1288 392.543 69.3694L398.136 63.5058C395.624 62.4418 394.451 59.5438 395.515 57.0316C396.579 54.5194 399.477 53.3465 401.989 54.4105C403.095 54.8802 403.992 55.7363 404.514 56.8188L410.107 50.9552C407.593 47.8276 403.762 46.0548 399.751 46.163Z" fill="#FBBC05"/>
<g opacity="0.03">
<path d="M441.604 154.823C441.426 154.823 441.273 146.249 441.273 135.691C441.273 125.12 441.426 116.546 441.604 116.546C441.782 116.546 441.935 125.12 441.935 135.691C441.948 146.249 441.795 154.823 441.604 154.823Z" fill="white"/>
</g>
<g opacity="0.03">
<path d="M449.081 171.537C448.903 171.537 448.75 160.508 448.75 146.897C448.75 133.286 448.903 122.257 449.081 122.257C449.259 122.257 449.411 133.286 449.411 146.897C449.424 160.508 449.272 171.537 449.081 171.537Z" fill="white"/>
</g>
<path opacity="0.05" d="M236.228 394.223V440.959H216.867L258.6 481.264L297.751 441.779H277.96V394.223H236.228Z" fill="white"/>
<path opacity="0.05" d="M372.319 250.567C359.831 202.195 316.04 166.404 263.773 166.404C228.331 166.404 196.773 182.869 176.203 208.532C172.657 208.125 169.063 207.858 165.412 207.858C113.924 207.858 72.1914 249.59 72.1914 301.079C72.1914 352.567 113.924 394.3 165.412 394.3H368.389C408.133 394.3 440.354 362.079 440.354 322.335C440.354 283.916 410.226 252.625 372.319 250.567Z" fill="white"/>
<path d="M188.401 267.532C188.377 267.532 188.354 267.323 188.319 266.916C188.284 266.439 188.25 265.858 188.203 265.148C188.18 264.753 188.156 264.334 188.133 263.881C188.098 263.416 188.017 262.916 187.947 262.369C187.796 261.288 187.703 260.055 187.401 258.718C187.273 258.044 187.133 257.346 186.994 256.613C186.843 255.881 186.61 255.137 186.412 254.358C186.04 252.788 185.447 251.183 184.866 249.462C183.575 246.09 181.866 242.486 179.668 238.939C177.412 235.427 174.889 232.334 172.401 229.718C171.11 228.462 169.901 227.23 168.645 226.218C168.029 225.706 167.459 225.172 166.866 224.73C166.273 224.288 165.691 223.858 165.145 223.451C164.063 222.602 162.994 221.986 162.087 221.393C161.622 221.102 161.203 220.823 160.808 220.579C160.401 220.358 160.029 220.16 159.691 219.962C159.075 219.613 158.563 219.334 158.145 219.102C157.796 218.893 157.61 218.776 157.622 218.765C157.633 218.741 157.831 218.823 158.191 218.997C158.622 219.206 159.145 219.451 159.796 219.765C160.145 219.939 160.529 220.125 160.947 220.334C161.366 220.555 161.784 220.834 162.261 221.102C163.191 221.672 164.296 222.265 165.401 223.102C165.97 223.509 166.552 223.927 167.168 224.358C167.773 224.8 168.354 225.323 168.994 225.834C170.273 226.834 171.505 228.067 172.819 229.323C175.354 231.951 177.924 235.055 180.203 238.613C182.436 242.195 184.145 245.846 185.412 249.265C185.982 250.997 186.575 252.637 186.924 254.218C187.11 255.009 187.343 255.765 187.482 256.497C187.61 257.241 187.738 257.951 187.854 258.625C188.133 259.974 188.191 261.23 188.319 262.311C188.366 262.858 188.424 263.358 188.447 263.834C188.459 264.3 188.459 264.718 188.47 265.113C188.47 265.823 188.47 266.416 188.47 266.881C188.424 267.323 188.412 267.532 188.401 267.532Z" fill="#263238"/>
<path d="M150.259 249.509C150.178 249.59 148.957 248.381 146.747 246.73C144.538 245.079 141.271 243.079 137.34 241.59C133.398 240.114 129.619 239.451 126.875 239.23C124.131 239.009 122.41 239.102 122.398 238.997C122.398 238.951 122.817 238.904 123.596 238.834C124.375 238.765 125.503 238.741 126.898 238.8C129.689 238.904 133.538 239.509 137.55 241.02C141.55 242.532 144.84 244.637 147.003 246.393C148.084 247.265 148.922 248.032 149.457 248.602C150.003 249.16 150.282 249.486 150.259 249.509Z" fill="#263238"/>
<path d="M192.957 329.079C192.957 329.125 192.294 329.137 191.12 329.137C189.934 329.137 188.224 329.102 186.096 329.021C181.864 328.87 176.015 328.532 169.573 327.893C163.131 327.253 157.329 326.463 153.143 325.777C151.05 325.439 149.364 325.137 148.201 324.916C147.038 324.684 146.399 324.544 146.41 324.498C146.422 324.451 147.073 324.521 148.248 324.684C149.527 324.858 151.201 325.079 153.213 325.358C157.41 325.928 163.213 326.66 169.643 327.288C176.073 327.916 181.899 328.335 186.131 328.591C188.166 328.718 189.852 328.811 191.131 328.893C192.306 328.986 192.957 329.044 192.957 329.079Z" fill="#263238"/>
<path d="M369.273 249.998C369.273 250.021 369.052 250.044 368.622 250.079C368.122 250.114 367.505 250.16 366.75 250.207C365.936 250.242 364.947 250.312 363.796 250.451C362.645 250.579 361.331 250.672 359.901 250.939C359.18 251.056 358.436 251.172 357.645 251.288C356.866 251.416 356.064 251.614 355.226 251.777C353.552 252.091 351.796 252.591 349.936 253.079C346.25 254.16 342.273 255.579 338.25 257.439C334.238 259.335 330.598 261.474 327.401 263.602C325.831 264.707 324.319 265.742 323.005 266.823C322.343 267.358 321.668 267.846 321.075 268.358C320.482 268.881 319.912 269.381 319.354 269.858C318.238 270.788 317.331 271.742 316.482 272.532C315.633 273.323 314.947 274.044 314.401 274.637C313.878 275.184 313.447 275.637 313.098 275.986C312.796 276.288 312.633 276.439 312.61 276.428C312.598 276.416 312.726 276.23 313.005 275.905C313.331 275.521 313.726 275.056 314.226 274.474C314.75 273.846 315.412 273.102 316.238 272.288C317.052 271.463 317.947 270.498 319.064 269.533C319.61 269.044 320.18 268.532 320.761 267.998C321.354 267.463 322.017 266.963 322.68 266.416C323.994 265.3 325.505 264.253 327.075 263.126C330.273 260.951 333.936 258.788 337.982 256.87C342.04 254.998 346.052 253.579 349.773 252.521C351.645 252.044 353.424 251.556 355.11 251.265C355.959 251.102 356.761 250.916 357.552 250.8C358.343 250.695 359.098 250.579 359.819 250.486C361.261 250.253 362.587 250.195 363.738 250.091C364.889 249.974 365.889 249.951 366.703 249.951C367.459 249.951 368.087 249.939 368.587 249.939C369.052 249.963 369.273 249.974 369.273 249.998Z" fill="#263238"/>
<g opacity="0.02">
<path d="M121.146 435.265C120.983 435.265 120.844 426.858 120.844 416.486C120.844 406.114 120.983 397.707 121.146 397.707C121.309 397.707 121.448 406.114 121.448 416.486C121.448 426.858 121.309 435.265 121.146 435.265Z" fill="white"/>
</g>
<path opacity="0.02" d="M128.771 469.893C128.608 469.893 128.469 458.067 128.469 443.486C128.469 428.905 128.608 417.079 128.771 417.079C128.934 417.079 129.073 428.905 129.073 443.486C129.073 458.067 128.934 469.893 128.771 469.893Z" fill="white"/>
<g opacity="0.03">
<path d="M48.1886 176.285V187.194H43.7109L53.3675 196.606L62.4153 187.388H57.8452V176.285H48.1886Z" fill="white"/>
</g>
<path opacity="0.03" d="M79.6649 143.253C76.7748 132.062 66.6481 123.793 54.564 123.793C46.364 123.793 39.0734 127.6 34.3106 133.534C33.4937 133.442 32.6614 133.38 31.8136 133.38C19.9067 133.38 10.2578 143.029 10.2578 154.936C10.2578 166.843 19.9067 176.492 31.8136 176.492H78.7554C87.9496 176.492 95.3944 169.039 95.3944 159.853C95.4021 150.967 88.4352 143.73 79.6649 143.253Z" fill="white"/>
<path d="M84.634 170.68C84.5954 170.618 85.5279 170.032 86.761 168.799C87.9941 167.574 89.4892 165.609 90.3986 163.104C91.308 160.599 91.4082 158.133 91.2464 156.399C91.0845 154.657 90.7454 153.609 90.8148 153.594C90.8379 153.586 90.9458 153.841 91.0922 154.311C91.2386 154.781 91.4082 155.482 91.5238 156.368C91.7627 158.125 91.7088 160.661 90.7763 163.243C89.8437 165.825 88.2715 167.813 86.9614 169.007C86.3063 169.609 85.7283 170.04 85.3121 170.31C84.896 170.58 84.6494 170.703 84.634 170.68Z" fill="#252629"/>
<path d="M34.9109 139.839C34.8955 139.917 33.7241 139.616 31.7897 139.57C29.8707 139.516 27.1656 139.816 24.476 140.995C21.7786 142.175 19.7209 143.955 18.4647 145.404C17.1854 146.853 16.6074 147.916 16.5457 147.878C16.5226 147.862 16.6459 147.592 16.9156 147.115C17.1854 146.637 17.6247 145.974 18.2489 145.219C19.4743 143.701 21.5551 141.836 24.3218 140.633C27.0809 139.423 29.863 139.161 31.8051 139.292C32.7839 139.354 33.5699 139.477 34.1017 139.601C34.6258 139.716 34.9109 139.816 34.9109 139.839Z" fill="#252629"/>
<path d="M56.5083 147.432L57.3565 147.412L59.7158 144.938L59.8104 143.91C55.2203 140.048 48.3667 140.638 44.5046 145.228C43.4307 146.503 42.6654 148.008 42.2677 149.626C42.5342 149.509 42.8321 149.484 43.1147 149.555L47.9276 148.643C47.9276 148.643 48.1639 148.231 48.2915 148.254C50.3853 145.842 53.9965 145.482 56.5257 147.432L56.5083 147.432Z" fill="#26272B"/>
<path d="M63.2581 149.129C62.654 147.097 61.471 145.285 59.852 143.917L56.5417 147.387C58.0013 148.523 58.8586 150.267 58.8673 152.117L58.8816 152.719C60.5489 152.68 61.9312 153.999 61.9706 155.665C62.0101 157.333 60.6904 158.715 59.0243 158.754L52.9878 158.897L52.3999 159.522L52.4855 163.142L53.1021 163.73L59.1386 163.587C62.5997 163.532 65.6167 161.217 66.5662 157.888C67.5134 154.559 66.1702 151 63.2581 149.129Z" fill="#26272B"/>
<path d="M47.0557 163.84L53.0923 163.697L52.978 158.865L46.9415 159.008C46.5115 159.018 46.0841 158.936 45.6884 158.766L44.8464 159.048L42.4707 161.522L42.2787 162.375C43.6674 163.373 45.3455 163.887 47.0557 163.84Z" fill="#26272B"/>
<path d="M46.6863 148.165C43.3335 148.264 40.4144 150.482 39.4199 153.684C38.4255 156.887 39.5745 160.369 42.2805 162.35L45.6989 158.766C44.1634 158.115 43.4465 156.344 44.0968 154.808C44.7471 153.273 46.5185 152.556 48.0541 153.206C48.73 153.493 49.2786 154.017 49.5974 154.678L53.0158 151.094C51.4795 149.183 49.1375 148.099 46.6863 148.165Z" fill="#26272B"/>
<g opacity="0.03">
<path d="M71.2394 215.141C71.1315 215.141 71.0391 209.946 71.0391 203.55C71.0391 197.146 71.1315 191.951 71.2394 191.951C71.3473 191.951 71.4398 197.146 71.4398 203.55C71.4475 209.946 71.355 215.141 71.2394 215.141Z" fill="white"/>
</g>
<g opacity="0.03">
<path d="M75.7707 225.266C75.6628 225.266 75.5703 218.584 75.5703 210.338C75.5703 202.092 75.6628 195.41 75.7707 195.41C75.8786 195.41 75.9711 202.092 75.9711 210.338C75.9788 218.584 75.8863 225.266 75.7707 225.266Z" fill="white"/>
</g>
<path d="M414.017 300.575C411.4 285.329 391.148 269.883 373.739 273.354C358.573 276.384 342.246 279.895 327.254 283.687C321.073 285.249 314.651 277.733 309.471 274.008C306.748 272.059 305.146 268.935 303.45 266.051C293.798 249.644 277.925 237.335 260.182 230.46C242.44 223.584 222.922 221.942 204.005 224.012C189.333 225.614 173.246 230.673 166.424 243.757C163.674 249.03 162.593 255.358 158.32 259.496C152.633 264.997 143.622 264.556 136.226 267.346C121.421 272.927 113.904 294.113 115.773 309.827C117.642 325.553 131.62 345.792 161.004 349.023C161.004 349.023 267.445 349.957 320.005 352.507C338.228 353.388 343.715 350.878 361.951 350.411C394.098 349.583 418.823 328.517 414.017 300.575Z" fill="#2F2F32"/>
<path d="M239.882 348.497C239.882 348.497 203.656 358.865 198.659 360.739C194.037 362.363 181.545 366.735 172.176 365.361C171.302 365.236 170.302 364.986 169.553 364.736C160.059 361.863 155.811 359.24 154.562 353.369C153.313 347.373 158.06 343 162.557 340.252C167.054 337.379 191.788 334.506 191.788 334.506L197.784 336.255L239.882 348.497Z" fill="#434347"/>
<path d="M177.564 358.244C177.453 358.741 176.909 359.2 176.193 359.345C175.356 359.51 174.63 359.178 174.567 358.586L174.086 354.438C174.023 353.846 174.629 353.238 175.466 353.074C176.304 352.909 177.029 353.24 177.092 353.833L177.574 357.98C177.577 358.066 177.58 358.153 177.564 358.244Z" fill="#454549"/>
<path d="M183.58 356.54C183.468 357.037 182.925 357.496 182.208 357.641C181.371 357.806 180.646 357.474 180.583 356.882L180.101 352.734C180.039 352.142 180.645 351.534 181.482 351.37C182.319 351.205 183.045 351.536 183.107 352.129L183.589 356.276C183.593 356.362 183.596 356.449 183.58 356.54Z" fill="#454549"/>
<path d="M189.588 354.835C189.476 355.332 188.933 355.791 188.216 355.936C187.379 356.101 186.654 355.769 186.591 355.177L186.109 351.029C186.046 350.437 186.653 349.829 187.49 349.664C188.327 349.5 189.053 349.831 189.115 350.423L189.597 354.571C189.62 354.652 189.604 354.743 189.588 354.835Z" fill="#454549"/>
<path d="M195.592 353.131C195.48 353.628 194.937 354.087 194.22 354.232C193.383 354.397 192.658 354.065 192.595 353.473L192.113 349.325C192.05 348.733 192.657 348.125 193.494 347.96C194.331 347.796 195.056 348.127 195.119 348.719L195.601 352.867C195.624 352.948 195.608 353.039 195.592 353.131Z" fill="#454549"/>
<path d="M201.603 351.427C201.492 351.923 200.948 352.382 200.232 352.528C199.395 352.692 198.669 352.361 198.607 351.769L198.125 347.621C198.062 347.029 198.668 346.421 199.506 346.256C200.343 346.091 201.068 346.423 201.131 347.015L201.613 351.163C201.639 351.257 201.623 351.349 201.603 351.427Z" fill="#454549"/>
<path d="M172.176 365.237C171.302 365.112 170.302 364.862 169.553 364.612C160.059 361.739 155.811 359.116 154.562 353.245C153.313 347.249 158.06 342.876 162.557 340.128C167.054 337.255 191.788 334.382 191.788 334.382L197.785 336.131C192.413 338.629 172.301 340.003 167.929 342.502C163.556 345 161.433 349.747 164.056 356.243C165.305 359.616 169.053 362.988 172.176 365.237Z" fill="#454549"/>
<path d="M350.186 366.986C349.811 370.733 348.562 374.231 344.814 376.479C342.316 377.978 338.818 378.853 333.697 378.728C320.955 378.603 297.095 369.484 297.095 369.484L274.734 357.117L286.352 338.754L289.475 333.757L297.72 335.631C297.72 335.631 304.465 339.503 311.336 342.501C318.206 345.624 334.821 346.249 340.692 350.996C346.563 355.618 350.811 360.74 350.186 366.986Z" fill="#434347"/>
<path d="M321.406 370.182C321.484 370.685 321.994 371.18 322.699 371.374C323.523 371.597 324.269 371.316 324.373 370.729L325.139 366.625C325.243 366.038 324.68 365.39 323.856 365.168C323.032 364.946 322.285 365.227 322.182 365.813L321.415 369.918C321.406 370.004 321.397 370.089 321.406 370.182Z" fill="#454549"/>
<path d="M315.527 368.067C315.605 368.57 316.115 369.065 316.82 369.259C317.644 369.481 318.39 369.201 318.494 368.614L319.26 364.51C319.364 363.923 318.801 363.275 317.977 363.053C317.153 362.831 316.406 363.112 316.303 363.698L315.536 367.803C315.527 367.888 315.518 367.974 315.527 368.067Z" fill="#454549"/>
<path d="M309.652 365.953C309.73 366.456 310.24 366.952 310.945 367.146C311.769 367.368 312.515 367.087 312.619 366.501L313.385 362.396C313.489 361.81 312.926 361.162 312.102 360.94C311.278 360.717 310.531 360.998 310.428 361.585L309.661 365.689C309.633 365.768 309.643 365.861 309.652 365.953Z" fill="#454549"/>
<path d="M303.778 363.838C303.855 364.341 304.365 364.837 305.07 365.031C305.894 365.253 306.64 364.972 306.744 364.386L307.51 360.281C307.614 359.695 307.051 359.047 306.227 358.824C305.403 358.602 304.656 358.883 304.553 359.469L303.786 363.574C303.758 363.653 303.768 363.746 303.778 363.838Z" fill="#454549"/>
<path d="M297.895 361.725C297.972 362.228 298.482 362.723 299.187 362.917C300.011 363.14 300.757 362.859 300.861 362.272L301.628 358.168C301.731 357.581 301.168 356.933 300.344 356.711C299.52 356.489 298.774 356.77 298.67 357.356L297.904 361.461C297.871 361.553 297.88 361.645 297.895 361.725Z" fill="#454549"/>
<path d="M350.186 366.986C349.811 370.733 348.562 374.231 344.814 376.479C345.564 373.606 346.063 369.609 344.189 365.362C341.691 359.74 333.571 354.868 322.828 353.994C312.21 353.119 303.965 348.123 299.718 345.874C296.345 344.125 289.35 340.378 286.352 338.754L289.475 333.757L297.719 335.631C297.719 335.631 304.465 339.503 311.336 342.501C318.206 345.624 334.82 346.249 340.692 350.996C346.563 355.618 350.81 360.74 350.186 366.986Z" fill="#454549"/>
<path d="M304.842 167.114L266.991 152.748L266.491 152.623C266.491 152.623 266.616 151.624 266.741 150.125C266.991 147.127 267.116 142.13 265.742 140.506C263.618 138.008 257.622 140.131 251.876 137.383C246.004 134.76 235.261 139.507 235.261 139.507C235.261 139.507 227.516 138.133 224.019 143.754C222.27 148.251 222.894 154.997 222.894 154.997C222.894 154.997 222.644 155.122 222.145 155.247C217.648 156.871 193.163 166.115 187.917 169.862C182.17 173.985 175.799 215.583 173.801 227.825C171.802 240.067 168.179 251.06 169.928 255.307C171.802 259.555 198.16 279.792 213.275 285.038C228.391 290.285 282.231 288.786 282.231 288.786C282.231 288.786 283.106 288.536 284.73 288.036C293.849 285.163 326.078 273.046 343.192 244.689C343.192 244.689 326.703 190.349 304.842 167.114ZM202.657 237.194C199.909 239.193 201.408 246.813 201.408 246.813L196.661 242.691L208.528 213.459L213.65 235.945C213.65 235.82 205.405 235.195 202.657 237.194ZM297.846 255.807C296.597 256.432 301.594 242.441 299.22 239.193C296.847 235.945 289.601 236.32 289.601 236.32L290.226 232.447C290.351 232.072 294.473 210.461 294.473 210.461L295.847 208.712C295.847 208.712 310.588 233.946 313.211 242.815C313.211 242.94 297.097 255.807 297.846 255.807Z" fill="#FFB156"/>
<path d="M233.511 75.9229L214.023 96.6595C214.023 96.6595 211.275 99.033 212.399 105.029C213.523 111.025 216.022 116.272 217.896 116.647C219.769 117.021 222.393 117.021 222.393 117.021C222.393 117.021 226.64 126.141 229.513 129.638C229.513 129.638 230.512 143.629 230.013 147.502C230.013 147.502 237.008 153.623 243.629 154.372C250.25 155.122 260.493 145.003 260.493 145.003L262.992 132.636C262.992 132.636 268.988 123.517 269.363 121.144C269.737 118.77 272.486 119.395 273.86 118.146C275.234 116.897 278.357 111.65 278.856 106.528C279.356 101.531 279.356 95.6602 273.485 97.4091C268.363 96.035 271.611 85.2918 271.611 85.2918L262.742 77.4219L233.511 75.9229Z" fill="url(#paint1_radial_12401_59684)"/>
<path d="M304.843 167.114L266.992 152.748L266.492 152.623C266.492 152.623 266.617 151.624 266.742 150.125L265.992 154.997L260.371 162.617C260.371 162.617 269.865 165.99 277.86 170.362C283.481 173.36 286.604 179.356 285.855 185.602L278.859 245.189L275.986 279.042L284.606 288.036C293.725 285.163 325.954 273.046 343.068 244.689C343.193 244.689 326.703 190.349 304.843 167.114ZM297.847 255.807C296.598 256.432 301.595 242.441 299.221 239.193C296.848 235.945 289.602 236.32 289.602 236.32L290.227 232.447C290.352 232.072 294.474 210.461 294.474 210.461L295.848 208.712C295.848 208.712 310.589 233.946 313.212 242.815C313.212 242.94 297.098 255.807 297.847 255.807Z" fill="#F99D44"/>
<path d="M229.391 130.388C229.391 130.388 230.515 140.256 229.391 145.128" stroke="#323235" stroke-width="1.38801" stroke-miterlimit="10" stroke-linecap="round" stroke-linejoin="round"/>
<path d="M261.371 143.629C261.371 143.629 261.369 139.132 262.493 134.135" stroke="#323235" stroke-width="1.38801" stroke-miterlimit="10" stroke-linecap="round" stroke-linejoin="round"/>
<path d="M248.878 107.653C248.504 109.902 248.379 112.15 248.379 114.399C248.379 116.273 248.754 118.271 250.003 119.646C250.752 120.395 251.752 120.895 251.876 121.894C252.001 122.769 251.377 123.643 250.502 124.018C249.753 124.517 248.878 124.767 248.129 125.392" stroke="#263238" stroke-width="1.38801" stroke-miterlimit="10" stroke-linecap="round" stroke-linejoin="round"/>
<path d="M241.805 128.392C241.805 128.392 246.555 132.194 250.891 129.47" stroke="white" stroke-width="1.88742" stroke-miterlimit="10" stroke-linecap="round" stroke-linejoin="round"/>
<path d="M239.256 111.275C239.256 112.649 238.631 113.773 237.882 113.773C237.132 113.773 236.508 112.649 236.508 111.275C236.508 109.901 237.132 108.776 237.882 108.776C238.756 108.776 239.256 109.901 239.256 111.275Z" fill="#263238"/>
<path d="M258.369 111.898C258.369 113.272 257.745 114.396 256.995 114.396C256.246 114.396 255.621 113.272 255.621 111.898C255.621 110.524 256.246 109.399 256.995 109.399C257.87 109.399 258.369 110.524 258.369 111.898Z" fill="#263238"/>
<path d="M254.625 105.902C254.625 105.902 260.871 99.6565 266.118 106.652" stroke="#263238" stroke-width="2.77601" stroke-miterlimit="10" stroke-linecap="round" stroke-linejoin="round"/>
<path d="M241.38 106.029C241.38 106.029 237.383 101.657 231.262 106.029" stroke="#263238" stroke-width="2.77601" stroke-miterlimit="10" stroke-linecap="round" stroke-linejoin="round"/>
<path d="M229.89 135.51C229.89 135.51 234.51 144.254 243.13 147.252C251.624 150.251 262.12 136.509 262.12 136.509L261.495 134.511C261.495 134.511 254.125 144.129 245.88 142.505C237.635 140.882 229.516 129.764 229.516 129.764L229.89 135.51Z" fill="#323235"/>
<path d="M221.269 111.275C222.643 111.15 225.017 109.901 225.766 108.652C226.516 107.403 226.766 106.029 227.015 104.654C227.515 102.031 227.765 99.2829 227.765 96.6596C227.765 95.6603 227.765 94.536 228.015 93.5366C228.39 92.5373 229.014 91.5379 229.764 90.7884C231.513 88.6647 233.636 86.9159 235.385 84.7922C237.009 82.6686 238.258 79.9204 237.883 77.297C237.883 77.297 249.376 87.7903 265.99 84.5424C274.86 82.7935 283.479 74.9236 282.48 65.1798C282.105 61.6821 279.482 59.1837 276.234 58.3092C271.862 57.185 267.864 59.5584 263.867 61.0575C256.621 63.8057 249.501 59.0588 242.131 58.3092C235.885 57.6846 228.14 58.4342 224.892 64.6801C224.892 64.6801 213.524 66.0543 208.652 75.2983C203.655 84.5424 213.149 97.4091 213.149 97.4091C213.149 97.4091 216.897 92.7871 221.769 102.156L221.269 111.275Z" fill="#E33D15"/>
<path d="M264.996 81.4195C264.996 81.4195 262.123 96.6597 269.743 104.03C269.743 104.03 271.367 99.4079 273.116 98.2836C273.116 98.2836 277.363 90.2888 271.742 81.4195C266.12 72.5501 264.996 81.4195 264.996 81.4195Z" fill="#E33D15"/>
<path opacity="0.2" d="M278.986 64.0547C277.861 68.302 274.363 71.5499 270.241 73.1738C259.623 77.546 249.38 72.6742 238.761 71.7997C230.142 71.0502 220.523 78.7952 219.898 87.7894" stroke="white" stroke-width="1.38801" stroke-miterlimit="10" stroke-linecap="round" stroke-linejoin="round"/>
<path opacity="0.2" d="M213.398 85.2912C213.523 78.2957 218.145 71.5501 224.641 68.9268" stroke="white" stroke-width="1.38801" stroke-miterlimit="10" stroke-linecap="round" stroke-linejoin="round"/>
<path d="M227.016 143.63C227.016 143.63 234.011 151.375 243.505 154.873C243.505 154.873 256.247 151.25 262.618 142.381" stroke="#F99D44" stroke-width="1.38801" stroke-miterlimit="10" stroke-linecap="round" stroke-linejoin="round"/>
<path d="M239.945 121.484C245.59 118.895 248.067 112.221 245.478 106.577C242.889 100.933 236.215 98.4557 230.571 101.044C224.927 103.633 222.45 110.307 225.039 115.951C227.627 121.595 234.301 124.072 239.945 121.484Z" stroke="white" stroke-width="1.38801" stroke-miterlimit="10" stroke-linecap="round" stroke-linejoin="round"/>
<path d="M261.716 122.422C267.879 121.665 272.261 116.056 271.504 109.893C270.747 103.73 265.138 99.3482 258.975 100.105C252.812 100.862 248.43 106.471 249.187 112.634C249.944 118.797 255.553 123.179 261.716 122.422Z" stroke="white" stroke-width="1.38801" stroke-miterlimit="10" stroke-linecap="round" stroke-linejoin="round"/>
<path d="M229.389 139.507C229.389 139.507 226.017 140.256 224.018 143.754C222.019 147.252 223.268 158.245 223.268 158.245C223.268 158.245 233.512 168.363 242.256 172.61L244.879 158.12L248.877 172.61C248.877 172.61 262.368 162.991 266.116 154.997C266.116 154.997 267.365 145.628 266.116 142.505C264.867 139.382 262.118 139.507 262.118 139.507" stroke="#F99D44" stroke-width="1.38801" stroke-miterlimit="10" stroke-linecap="round" stroke-linejoin="round"/>
<path d="M192.539 174.734C192.539 174.734 197.661 181.855 200.784 188.6" stroke="#F99D44" stroke-width="1.38801" stroke-miterlimit="10" stroke-linecap="round" stroke-linejoin="round"/>
<path d="M196.66 242.941C196.66 242.941 202.781 222.953 208.652 212.71" stroke="#F99D44" stroke-width="1.38801" stroke-miterlimit="10" stroke-linecap="round" stroke-linejoin="round"/>
<path d="M247.872 178.732C247.872 179.981 246.873 180.981 245.624 180.981C244.374 180.981 243.375 179.981 243.375 178.732C243.375 177.483 244.374 176.483 245.624 176.483C246.873 176.483 247.872 177.483 247.872 178.732Z" fill="#F99D44"/>
<path d="M286.731 296.408H210.53C209.531 296.408 208.781 295.658 208.781 294.659C208.781 293.66 209.531 292.91 210.53 292.91H286.731C287.731 292.91 288.48 293.66 288.48 294.659C288.48 295.533 287.606 296.408 286.731 296.408Z" fill="#263238"/>
<path d="M289.352 290.412L299.595 242.442C300.22 239.319 297.846 236.321 294.598 236.321H205.531C202.283 236.321 199.909 239.319 200.534 242.442L209.653 288.788C210.153 291.161 212.151 292.785 214.525 292.91L284.23 294.534C286.728 294.534 288.852 292.91 289.352 290.412Z" fill="#434347" stroke="#2F2F33" stroke-width="1.38801" stroke-miterlimit="10" stroke-linecap="round" stroke-linejoin="round"/>
<path d="M256.874 263.928C256.874 267.801 253.751 271.048 249.753 271.048C245.756 271.048 242.633 267.925 242.633 263.928C242.633 259.931 245.756 256.808 249.753 256.808C253.751 256.808 256.874 260.056 256.874 263.928Z" fill="#49494F"/>
<path d="M270.867 240.816H281.36" stroke="#49494F" stroke-width="1.38801" stroke-miterlimit="10" stroke-linecap="round" stroke-linejoin="round"/>
<path d="M220.27 240.816H260.494" stroke="#49494F" stroke-width="1.38801" stroke-miterlimit="10" stroke-linecap="round" stroke-linejoin="round"/>
<path d="M289.48 341.379L281.36 362.74C281.36 362.74 260.623 357.493 234.14 352.122C206.408 346.376 177.427 339.13 162.436 312.772C160.563 309.524 159.438 305.777 160.188 302.154C162.312 293.035 174.179 290.536 182.049 289.662C186.921 289.037 191.918 288.913 196.789 288.788C199.288 288.788 207.657 287.413 209.656 288.913C209.656 288.913 214.903 292.785 219.275 294.659C223.647 296.533 288.48 292.91 288.48 292.91C288.48 292.91 290.354 288.788 290.479 285.165C300.598 280.043 324.208 275.671 334.201 277.545C349.816 280.543 358.935 289.662 357.311 299.281C355.562 308.775 320.96 334.383 289.48 341.379Z" fill="#4B71F8"/>
<path d="M282.555 339.453C281.005 351.58 278.712 352.404 271.863 360.865C271.863 360.865 280.608 364.613 283.089 362.972C287.173 360.668 294.221 350.994 291.226 340.878C287.791 339.014 284.838 338.343 282.555 339.453Z" fill="#3639D9"/>
<path d="M289.479 341.379C289.479 341.379 269.742 336.133 253.752 325.265C237.638 314.397 225.146 301.78 202.66 304.403" stroke="#3639D9" stroke-width="1.38801" stroke-miterlimit="10" stroke-linecap="round" stroke-linejoin="round"/>
<path d="M250 322.639C260.119 319.766 267.614 313.145 275.733 306.775C284.353 300.029 293.472 293.658 303.341 288.661" stroke="#3639D9" stroke-width="1.38801" stroke-miterlimit="10" stroke-linecap="round" stroke-linejoin="round"/>
<path d="M246.504 113.149H249.502" stroke="#263238" stroke-width="1.38801" stroke-miterlimit="10" stroke-linecap="round" stroke-linejoin="round"/>
</g>
<defs>
<linearGradient id="paint0_linear_12401_59684" x1="444.32" y1="386.181" x2="444.32" y2="465.426" gradientUnits="userSpaceOnUse">
<stop stop-color="#00FFA3"/>
<stop offset="1" stop-color="#00FFA3" stop-opacity="0"/>
</linearGradient>
<radialGradient id="paint1_radial_12401_59684" cx="0" cy="0" r="1" gradientUnits="userSpaceOnUse" gradientTransform="translate(246.031 114.393) rotate(-11.3328) scale(37.95 35.5329)">
<stop stop-color="#FFC8AF"/>
<stop offset="1" stop-color="#FFBB9C"/>
</radialGradient>
<clipPath id="clip0_12401_59684">
<rect width="500" height="500" fill="white"/>
</clipPath>
</defs>
</svg>
