<svg width="14" height="14" viewBox="0 0 14 14" fill="none" xmlns="http://www.w3.org/2000/svg">
<path d="M8.08262 5.78294L9.18629 4.67927C8.7325 4.27403 8.16984 4.01073 7.56795 3.92197C6.96606 3.8332 6.35136 3.92286 5.7999 4.17985C5.24844 4.43684 4.78443 4.84988 4.4653 5.36786C4.14616 5.88584 3.98591 6.48603 4.00436 7.09415C4.02281 7.70227 4.21917 8.29163 4.56912 8.78931C4.91908 9.28698 5.40727 9.67113 5.9733 9.89421C6.53932 10.1173 7.15834 10.1695 7.75374 10.0444C8.34914 9.91932 8.89479 9.62239 9.32318 9.19038L8.30196 8.16605H8.1394C7.91702 8.36128 7.64357 8.48903 7.35114 8.53431C7.05871 8.57959 6.75943 8.54052 6.48842 8.42168C6.21741 8.30284 5.98592 8.10917 5.82112 7.86339C5.65632 7.61761 5.56504 7.32992 5.558 7.03409C5.55096 6.73826 5.62845 6.44655 5.78137 6.19321C5.93429 5.93987 6.1563 5.7354 6.42135 5.6038C6.68639 5.47221 6.98348 5.41894 7.27773 5.45026C7.57199 5.48157 7.85121 5.59617 8.08262 5.7806V5.78294Z" fill="#6B6E78"/>
<path fill-rule="evenodd" clip-rule="evenodd" d="M6.99999 0C8.38446 0 9.73784 0.410543 10.889 1.17971C12.0401 1.94888 12.9373 3.04213 13.4671 4.32121C13.997 5.60029 14.1356 7.00776 13.8655 8.36563C13.5954 9.72349 12.9287 10.9708 11.9497 11.9497C10.9708 12.9287 9.72349 13.5954 8.36563 13.8655C7.00776 14.1356 5.60029 13.997 4.32121 13.4671C3.04213 12.9373 1.94888 12.0401 1.17971 10.889C0.410543 9.73784 0 8.38446 0 6.99999C0 5.14348 0.737497 3.363 2.05025 2.05025C3.363 0.737497 5.14348 0 6.99999 0V0ZM6.99999 1.55555C8.0768 1.55555 9.12943 1.87487 10.0248 2.47311C10.9201 3.07135 11.6179 3.92166 12.03 4.9165C12.4421 5.91134 12.5499 7.00603 12.3398 8.06215C12.1297 9.11827 11.6112 10.0884 10.8498 10.8498C10.0884 11.6112 9.11827 12.1297 8.06215 12.3398C7.00603 12.5499 5.91134 12.4421 4.9165 12.03C3.92166 11.6179 3.07135 10.9201 2.47311 10.0248C1.87487 9.12943 1.55555 8.0768 1.55555 6.99999C1.55555 5.55604 2.12916 4.17122 3.15019 3.15019C4.17122 2.12916 5.55604 1.55555 6.99999 1.55555V1.55555Z" fill="#6B6E78"/>
</svg>
