<svg width="40" height="40" viewBox="0 0 40 40" fill="none" xmlns="http://www.w3.org/2000/svg">
<path d="M31.6673 15.0007C31.6673 17.4173 30.9507 19.634 29.7173 21.484C27.9173 24.1507 25.0673 26.034 21.7507 26.5173C21.184 26.6173 20.6007 26.6673 20.0007 26.6673C19.4007 26.6673 18.8173 26.6173 18.2507 26.5173C14.934 26.034 12.084 24.1507 10.284 21.484C9.05065 19.634 8.33398 17.4173 8.33398 15.0007C8.33398 8.55065 13.5507 3.33398 20.0007 3.33398C26.4507 3.33398 31.6673 8.55065 31.6673 15.0007Z" stroke="white" stroke-width="2" stroke-linecap="round" stroke-linejoin="round"/>
<path d="M35.4165 30.7833L32.6665 31.4333C32.0498 31.5833 31.5665 32.05 31.4331 32.6667L30.8498 35.1167C30.5331 36.45 28.8331 36.85 27.9498 35.8L19.9998 26.6667L12.0498 35.8167C11.1665 36.8667 9.46647 36.4667 9.14981 35.1333L8.56647 32.6833C8.41647 32.0667 7.93314 31.5833 7.33314 31.45L4.58314 30.8C3.31647 30.5 2.86647 28.9167 3.78314 28L10.2831 21.5C12.0831 24.1667 14.9331 26.05 18.2498 26.5334C18.8165 26.6334 19.3998 26.6834 19.9998 26.6834C20.5998 26.6834 21.1831 26.6334 21.7498 26.5334C25.0665 26.05 27.9165 24.1667 29.7165 21.5L36.2165 28C37.1331 28.9 36.6831 30.4833 35.4165 30.7833Z" stroke="white" stroke-width="2" stroke-linecap="round" stroke-linejoin="round"/>
<path d="M20.9663 9.96602L21.9496 11.9327C22.083 12.1993 22.433 12.466 22.7496 12.516L24.533 12.816C25.6663 12.9993 25.933 13.8327 25.1163 14.6493L23.733 16.0327C23.4996 16.266 23.3663 16.716 23.4496 17.0493L23.8496 18.766C24.1663 20.116 23.4496 20.6493 22.2496 19.9326L20.583 18.9493C20.283 18.766 19.783 18.766 19.483 18.9493L17.8163 19.9326C16.6163 20.6326 15.8996 20.116 16.2163 18.766L16.6163 17.0493C16.683 16.7327 16.5663 16.266 16.333 16.0327L14.9496 14.6493C14.133 13.8327 14.3996 13.016 15.533 12.816L17.3163 12.516C17.6163 12.466 17.9663 12.1993 18.0996 11.9327L19.083 9.96602C19.5663 8.89935 20.433 8.89935 20.9663 9.96602Z" stroke="url(#paint0_linear_13300_59908)" stroke-width="2" stroke-miterlimit="10" stroke-linecap="round" stroke-linejoin="round"/>
<defs>
<linearGradient id="paint0_linear_13300_59908" x1="13.7812" y1="8.24173" x2="26.2853" y2="8.24173" gradientUnits="userSpaceOnUse">
<stop stop-color="#00FFA3"/>
<stop offset="1" stop-color="#00FFA3" stop-opacity="0"/>
</linearGradient>
</defs>
</svg>
