<svg width="60" height="60" viewBox="0 0 60 60" fill="none" xmlns="http://www.w3.org/2000/svg">
<rect opacity="0.05" width="60" height="60" rx="16" fill="#4991FF"/>
<path d="M40.2702 38.5745C39.666 36.7763 37.2578 35.6507 35.5409 34.8962C34.8683 34.6016 33.0062 34.1018 32.7824 33.2549C32.7023 32.9498 32.7131 32.6621 32.7788 32.3864C32.6753 32.4062 32.5703 32.4179 32.4618 32.4179H31.3431C30.4499 32.4179 29.7242 31.6913 29.7242 30.7988C29.7242 29.9069 30.4502 29.1818 31.3431 29.1818H32.4618C32.8313 29.1818 33.1817 29.3069 33.4643 29.5301C33.8786 29.4749 34.2782 29.3864 34.6508 29.2703C35.1401 28.2452 35.5217 27.0194 35.6073 25.9643C35.9723 21.4499 33.2048 18.8087 29.2367 19.2653C26.3517 19.5974 24.6281 21.7487 24.4418 24.5183C24.2534 27.3413 25.3001 29.4263 26.412 30.9557C26.8988 31.6244 27.4103 32.0543 27.3317 32.8601C27.2405 33.8129 26.2217 34.0784 25.4931 34.3712C24.6297 34.718 23.6996 35.2442 23.2604 35.4875C21.7475 36.323 20.0871 37.3292 19.7139 38.7056C18.8874 41.756 21.6786 42.68 23.9829 43.1066C25.9604 43.4714 28.1903 43.5002 30.0245 43.5002C33.3422 43.5002 39.3081 43.3673 40.2702 40.8734C40.5438 40.1657 40.4265 39.038 40.2702 38.5745Z" fill="#4991FF"/>
<path d="M33.17 30.3429C33.0182 30.1116 32.7587 29.958 32.4626 29.958H31.3439C30.8771 29.958 30.5006 30.3351 30.5006 30.7995C30.5006 31.2657 30.8771 31.6434 31.3439 31.6434H32.4626C32.7893 31.6434 33.0665 31.4571 33.2063 31.1877C34.766 31.065 36.1226 30.5886 37.0748 29.8851C37.2935 30.0261 37.5521 30.1086 37.8311 30.1086H37.9013C38.6789 30.1086 39.3077 29.4792 39.3077 28.7007V25.8903C39.3077 25.3305 38.9795 24.8475 38.5061 24.6231C38.2997 20.1102 34.5638 16.5 30.0002 16.5C25.4366 16.5 21.7001 20.1102 21.4946 24.6231C21.0203 24.8478 20.6924 25.3305 20.6924 25.8903V28.7007C20.6924 29.4792 21.3218 30.1086 22.0976 30.1086H22.1687C22.9451 30.1086 23.5748 29.4792 23.5748 28.7007V25.8903C23.5748 25.3386 23.2559 24.8628 22.7924 24.6327C22.9931 20.8302 26.1485 17.7993 30.0002 17.7993C33.8504 17.7993 37.0073 20.8302 37.2071 24.6327C36.7442 24.8631 36.4256 25.3386 36.4256 25.8903V28.7007C36.4256 28.8873 36.4619 29.061 36.5258 29.2233C35.7062 29.8098 34.5131 30.2277 33.17 30.3429Z" fill="#4991FF"/>
</svg>
