<svg width="30" height="30" viewBox="0 0 30 30" fill="none" xmlns="http://www.w3.org/2000/svg">
<path d="M18.6003 22.7998H11.4192C11.1193 22.7998 10.8493 23.0158 10.8073 23.3098C10.7533 23.6818 11.0413 23.9998 11.4012 23.9998H18.5823C18.8823 23.9998 19.1522 23.7838 19.1942 23.4898C19.2482 23.1178 18.9603 22.7998 18.6003 22.7998Z" fill="url(#paint0_linear_10152_4290)"/>
<path d="M18.6003 24.5999H11.4192C11.1193 24.5999 10.8493 24.8158 10.8073 25.1099C10.7533 25.4818 11.0413 25.7999 11.4012 25.7999H18.5823C18.8823 25.7999 19.1522 25.5839 19.1942 25.2898C19.2482 24.9178 18.9603 24.5999 18.6003 24.5999Z" fill="url(#paint1_linear_10152_4290)"/>
<path d="M16.8002 26.3999H13.219C12.9191 26.3999 12.6491 26.6159 12.6071 26.9099C12.5531 27.2819 12.8411 27.5999 13.201 27.5999H16.7822C17.0821 27.5999 17.352 27.3839 17.3941 27.0899C17.448 26.7179 17.1601 26.3999 16.8002 26.3999Z" fill="url(#paint2_linear_10152_4290)"/>
<path d="M22.7639 8.28744C22.5562 7.72254 22.0735 6.39479 20.9115 5.11366C19.6822 3.7626 18.2171 2.9007 16.5611 2.55714C15.5339 2.34749 14.4729 2.34749 13.4457 2.55714C11.7897 2.9007 10.3246 3.7626 9.09529 5.11366C7.93332 6.389 7.44496 7.7226 7.24288 8.28744C6.97343 9.00957 6.48507 10.3489 6.62542 12.1193C6.77698 14.0644 7.59094 15.4795 7.86038 15.9453C8.02878 16.2365 8.36559 16.7839 9.04482 17.7739C9.21886 18.0243 9.35916 18.2281 9.4883 18.4087C9.80263 18.8513 9.97666 19.0958 10.1563 19.4802C10.3977 20.0043 10.5773 20.5575 10.6895 21.134C10.7457 21.4077 10.9702 21.5999 11.2396 21.5999H18.7672C19.0366 21.5999 19.2724 21.4019 19.3173 21.1224C19.4183 20.5575 19.5923 20.0043 19.8449 19.4918C20.0414 19.09 20.2211 18.8337 20.5466 18.3678C20.6645 18.199 20.7992 18.0068 20.962 17.7738C21.4279 17.0925 21.832 16.5043 22.1408 15.9453C22.4383 15.4212 23.2298 14.0235 23.3757 12.1192C23.5161 10.3489 23.0277 9.00957 22.7639 8.28744ZM22.2587 12.0261C22.1352 13.6625 21.4392 14.8913 21.1753 15.3571C20.889 15.8754 20.4961 16.4403 20.047 17.1042C19.8898 17.3313 19.7607 17.5176 19.6429 17.6865C19.3061 18.1699 19.0815 18.4843 18.8457 18.9677C18.6156 19.4336 18.4416 19.9286 18.3125 20.4352H11.6831C11.554 19.9344 11.38 19.4453 11.1667 18.9736C10.9421 18.4902 10.7232 18.1815 10.392 17.7157C10.2685 17.541 10.1282 17.343 9.95982 17.0984C9.30306 16.1433 8.98309 15.6192 8.8259 15.3513C8.59014 14.9437 7.87722 13.6975 7.7425 12.0261C7.62462 10.5237 8.03999 9.38223 8.28702 8.70089C8.4891 8.15346 8.89889 7.01788 9.9093 5.91146C10.9759 4.7351 12.2445 3.99555 13.6647 3.69856C14.546 3.51801 15.4553 3.51801 16.3422 3.69856C17.768 3.99555 19.031 4.74094 20.0976 5.91146C21.108 7.02372 21.5178 8.15352 21.7199 8.70089C21.9612 9.37645 22.3766 10.512 22.2587 12.0261Z" fill="white"/>
<path d="M12.2998 10.5L14.9998 13.2" stroke="url(#paint3_linear_10152_4290)" stroke-width="2" stroke-linecap="round" stroke-linejoin="round"/>
<path d="M17.7002 10.5L15.0002 13.2" stroke="url(#paint4_linear_10152_4290)" stroke-width="2" stroke-linecap="round" stroke-linejoin="round"/>
<defs>
<linearGradient id="paint0_linear_10152_4290" x1="10.8008" y1="23.6998" x2="19.2008" y2="23.6998" gradientUnits="userSpaceOnUse">
<stop stop-color="#00FFA3"/>
<stop offset="1" stop-color="#00FFA3" stop-opacity="0.1"/>
</linearGradient>
<linearGradient id="paint1_linear_10152_4290" x1="10.8008" y1="25.4999" x2="19.2008" y2="25.4999" gradientUnits="userSpaceOnUse">
<stop stop-color="#00FFA3"/>
<stop offset="1" stop-color="#00FFA3" stop-opacity="0.1"/>
</linearGradient>
<linearGradient id="paint2_linear_10152_4290" x1="12.6006" y1="27.2999" x2="17.4006" y2="27.2999" gradientUnits="userSpaceOnUse">
<stop stop-color="#00FFA3"/>
<stop offset="1" stop-color="#00FFA3" stop-opacity="0.1"/>
</linearGradient>
<linearGradient id="paint3_linear_10152_4290" x1="14.9998" y1="13.5" x2="11.6998" y2="10.2" gradientUnits="userSpaceOnUse">
<stop stop-color="#00FFA3"/>
<stop offset="1" stop-color="#00FFA3" stop-opacity="0"/>
</linearGradient>
<linearGradient id="paint4_linear_10152_4290" x1="15.6002" y1="12.6" x2="18.0002" y2="9.9" gradientUnits="userSpaceOnUse">
<stop stop-color="#00FFA3"/>
<stop offset="1" stop-color="#00FFA3" stop-opacity="0"/>
</linearGradient>
</defs>
</svg>
