<svg width="30" height="30" viewBox="0 0 30 30" fill="none" xmlns="http://www.w3.org/2000/svg">
<path d="M8.05 2.5H21.9375C26.3875 2.5 27.5 3.6125 27.5 8.05V15.9625C27.5 20.4125 26.3875 21.5125 21.95 21.5125H8.05C3.6125 21.525 2.5 20.4125 2.5 15.975V8.05C2.5 3.6125 3.6125 2.5 8.05 2.5Z" stroke="white" stroke-width="2" stroke-linecap="round" stroke-linejoin="round"/>
<path d="M15 21.5249V27.4999" stroke="white" stroke-width="2" stroke-linecap="round" stroke-linejoin="round"/>
<path d="M9.375 27.5H20.625" stroke="white" stroke-width="2" stroke-linecap="round" stroke-linejoin="round"/>
<path fill-rule="evenodd" clip-rule="evenodd" d="M14.448 8.45957C14.6652 8.42005 14.8889 8.39941 15.1175 8.39941C15.3461 8.39941 15.5699 8.42006 15.7871 8.4596C15.8874 8.77155 15.9745 9.08664 16.0485 9.40405C15.4286 9.36106 14.8064 9.36109 14.1866 9.40414C14.2605 9.0867 14.3477 8.77157 14.448 8.45957ZM12.6684 9.32085C12.5462 9.42809 12.4311 9.54322 12.3238 9.66545C12.4193 9.64515 12.5149 9.62591 12.6107 9.60773C12.6289 9.51194 12.6481 9.41631 12.6684 9.32085ZM11.4625 11.4452C11.423 11.6623 11.4023 11.886 11.4023 12.1145C11.4023 12.343 11.423 12.5667 11.4625 12.7838C11.7745 12.8842 12.0898 12.9714 12.4073 13.0454C12.3642 12.4255 12.3642 11.8034 12.4073 11.1836C12.0897 11.2576 11.7745 11.3448 11.4625 11.4452ZM12.3237 14.5635C12.431 14.6858 12.5462 14.801 12.6685 14.9083C12.6482 14.8128 12.629 14.7171 12.6108 14.6212C12.5149 14.603 12.4192 14.5838 12.3237 14.5635ZM14.4482 15.7695C14.6653 15.809 14.889 15.8296 15.1175 15.8296C15.346 15.8296 15.5697 15.809 15.7869 15.7695C15.8872 15.4575 15.9744 15.1424 16.0484 14.8249C15.4286 14.8679 14.8065 14.8679 14.1866 14.8248C14.2606 15.1423 14.3478 15.4575 14.4482 15.7695ZM17.5665 14.9082C17.6887 14.801 17.8037 14.686 17.9109 14.5639C17.8155 14.5841 17.7199 14.6033 17.6242 14.6215C17.606 14.7172 17.5868 14.8128 17.5665 14.9082ZM18.7724 12.7843C18.8119 12.567 18.8326 12.3432 18.8326 12.1145C18.8326 11.8858 18.8119 11.6619 18.7723 11.4446C18.4603 11.3443 18.1452 11.2572 17.8278 11.1832C17.8708 11.8033 17.8708 12.4257 17.8278 13.0457C18.1452 12.9718 18.4604 12.8846 18.7724 12.7843ZM17.9108 9.66505C17.8037 9.54303 17.6887 9.42808 17.5667 9.32099C17.5869 9.41632 17.6061 9.51181 17.6243 9.60746C17.7199 9.62561 17.8154 9.64481 17.9108 9.66505ZM15.1175 6.89941C12.2372 6.89941 9.90234 9.2343 9.90234 12.1145C9.90234 14.9948 12.2372 17.3296 15.1175 17.3296C17.9977 17.3296 20.3326 14.9948 20.3326 12.1145C20.3326 9.2343 17.9977 6.89941 15.1175 6.89941ZM13.9338 13.2983C13.8554 12.5111 13.8554 11.7179 13.9338 10.9307C14.7209 10.8523 15.5141 10.8522 16.3013 10.9306C16.3797 11.7178 16.3797 12.5111 16.3012 13.2984C15.5141 13.3767 14.721 13.3767 13.9338 13.2983Z" fill="url(#paint0_linear_10154_1446)"/>
<defs>
<linearGradient id="paint0_linear_10154_1446" x1="15.1175" y1="6.89941" x2="15.1175" y2="17.3296" gradientUnits="userSpaceOnUse">
<stop stop-color="#00FFA3"/>
<stop offset="1" stop-color="#00FFA3" stop-opacity="0"/>
</linearGradient>
</defs>
</svg>
