<svg width="30" height="30" viewBox="0 0 30 30" fill="none" xmlns="http://www.w3.org/2000/svg">
<g clip-path="url(#clip0_10154_1046)">
<path d="M14.9994 24.7561C15.6333 24.7561 16.1472 24.2422 16.1472 23.6083C16.1472 22.9743 15.6333 22.4604 14.9994 22.4604C14.3655 22.4604 13.8516 22.9743 13.8516 23.6083C13.8516 24.2422 14.3655 24.7561 14.9994 24.7561Z" fill="url(#paint0_linear_10154_1046)"/>
<path d="M20.7381 1.80029C20.6319 1.80029 9.26214 1.80029 9.26214 1.80029C9.26214 1.80029 9.26214 1.80029 9.26157 1.80029C8.49539 1.80029 7.77513 2.09873 7.23336 2.6405C6.69159 3.18228 6.39258 3.90368 6.39258 4.66986V5.81654C6.39258 5.81711 6.39258 5.81711 6.39258 5.81768C6.39258 5.81826 6.39258 5.81826 6.39258 5.81883V25.3307C6.39258 26.913 7.67987 28.2003 9.26214 28.2003H20.7404C22.3227 28.2003 23.61 26.913 23.61 25.3307V4.66986C23.61 3.08758 22.3227 1.80029 20.7381 1.80029ZM7.5404 4.66986C7.5404 4.21015 7.71946 3.77742 8.04487 3.45259C8.36971 3.12775 8.80186 2.94812 9.26157 2.94812H15.0007C18.8195 2.94812 20.1986 2.94812 20.7398 2.90393V2.94812C21.6891 2.94812 22.4616 3.72061 22.4616 4.66986V5.24377H7.5404V4.66986ZM22.4621 25.3307C22.4621 26.28 21.6897 27.0525 20.7404 27.0525H9.26214C8.31289 27.0525 7.5404 26.28 7.5404 25.3307V6.3916H22.4621V25.3307Z" fill="white"/>
<rect x="9.59863" y="11.9995" width="12" height="1.8" fill="url(#paint1_linear_10154_1046)"/>
<rect x="9.59863" y="10.1997" width="12" height="0.6" fill="url(#paint2_linear_10154_1046)"/>
<rect x="9.59863" y="14.9995" width="6" height="1.8" fill="url(#paint3_linear_10154_1046)"/>
</g>
<defs>
<linearGradient id="paint0_linear_10154_1046" x1="13.8516" y1="24.1822" x2="16.1472" y2="24.1822" gradientUnits="userSpaceOnUse">
<stop stop-color="#00FFA3"/>
<stop offset="1" stop-color="#00FFA3" stop-opacity="0.1"/>
</linearGradient>
<linearGradient id="paint1_linear_10154_1046" x1="9.59863" y1="12.8995" x2="21.5986" y2="12.8995" gradientUnits="userSpaceOnUse">
<stop stop-color="#00FFA3"/>
<stop offset="1" stop-color="#00FFA3" stop-opacity="0"/>
</linearGradient>
<linearGradient id="paint2_linear_10154_1046" x1="9.59863" y1="10.4997" x2="21.5986" y2="10.4997" gradientUnits="userSpaceOnUse">
<stop stop-color="#00FFA3"/>
<stop offset="1" stop-color="#00FFA3" stop-opacity="0"/>
</linearGradient>
<linearGradient id="paint3_linear_10154_1046" x1="9.59863" y1="15.8995" x2="15.5986" y2="15.8995" gradientUnits="userSpaceOnUse">
<stop stop-color="#00FFA3"/>
<stop offset="1" stop-color="#00FFA3" stop-opacity="0"/>
</linearGradient>
<clipPath id="clip0_10154_1046">
<rect width="26.4" height="26.4" fill="white" transform="translate(1.80078 1.7998)"/>
</clipPath>
</defs>
</svg>
