<svg width="40" height="40" viewBox="0 0 40 40" fill="none" xmlns="http://www.w3.org/2000/svg">
<path d="M21.5327 3.76641L32.3827 9.61641C33.6493 10.2997 33.6493 12.2497 32.3827 12.9331L21.5327 18.7831C20.566 19.2997 19.4327 19.2997 18.466 18.7831L7.61602 12.9331C6.34935 12.2497 6.34935 10.2997 7.61602 9.61641L18.466 3.76641C19.4327 3.24974 20.566 3.24974 21.5327 3.76641Z" stroke="white" stroke-width="2" stroke-linecap="round" stroke-linejoin="round"/>
<path d="M6.01732 16.8835L16.1007 21.9335C17.3507 22.5668 18.1507 23.8501 18.1507 25.2501V34.7835C18.1507 36.1668 16.7007 37.0501 15.4673 36.4335L5.38398 31.3835C4.13398 30.7501 3.33398 29.4668 3.33398 28.0668V18.5335C3.33398 17.1501 4.78398 16.2668 6.01732 16.8835Z" stroke="white" stroke-width="2" stroke-linecap="round" stroke-linejoin="round"/>
<path d="M33.9829 16.8835L23.8996 21.9335C22.6496 22.5668 21.8496 23.8501 21.8496 25.2501V34.7835C21.8496 36.1668 23.2996 37.0501 24.5329 36.4335L34.6163 31.3835C35.8663 30.7501 36.6663 29.4668 36.6663 28.0668V18.5335C36.6663 17.1501 35.2163 16.2668 33.9829 16.8835Z" stroke="url(#paint0_linear_12425_63171)" stroke-width="2" stroke-linecap="round" stroke-linejoin="round"/>
<defs>
<linearGradient id="paint0_linear_12425_63171" x1="20.9239" y1="15.0203" x2="37.5927" y2="15.0203" gradientUnits="userSpaceOnUse">
<stop stop-color="#00FFA3"/>
<stop offset="1" stop-color="#00FFA3" stop-opacity="0"/>
</linearGradient>
</defs>
</svg>
