<svg width="500" height="542" viewBox="0 0 500 542" fill="none" xmlns="http://www.w3.org/2000/svg">
<g opacity="0.1">
<path d="M200.059 231.463H196.752" stroke="white" stroke-miterlimit="10"/>
<path d="M409.453 223.94V227.783" stroke="white" stroke-miterlimit="10"/>
<path d="M409.336 235.766V246.86C409.336 252.209 405.607 256.553 401.007 256.553H300.033" stroke="white" stroke-miterlimit="10" stroke-dasharray="6.95 6.95"/>
<path d="M350.039 245.229V238.521C350.039 236.649 349.399 234.853 348.26 233.529C347.121 232.206 345.576 231.462 343.965 231.462H203.37" stroke="white" stroke-miterlimit="10" stroke-dasharray="7.02 7.02"/>
<path d="M296.902 256.776H293.596" stroke="white" stroke-miterlimit="10"/>
<path d="M350.039 256.777V252.935" stroke="white" stroke-miterlimit="10"/>
<path d="M366.93 256.776V260.619" stroke="white" stroke-miterlimit="10"/>
<path d="M366.93 267.854V271.059C366.93 273.272 366.173 275.394 364.827 276.959C363.481 278.524 361.655 279.403 359.751 279.403H339.574" stroke="white" stroke-miterlimit="10" stroke-dasharray="6.58 6.58"/>
<path d="M336.469 279.404H333.163" stroke="white" stroke-miterlimit="10"/>
</g>
<path d="M409.732 224.229H437.348C438.389 224.24 439.399 223.876 440.192 223.202C440.986 222.528 441.509 221.591 441.665 220.562C441.742 219.726 441.742 218.884 441.665 218.048C441.665 209.543 441.665 201.039 441.665 192.534V167.537C441.682 166.955 441.579 166.377 441.364 165.837C441.15 165.296 440.826 164.806 440.415 164.394C440.004 163.983 439.513 163.66 438.972 163.446C438.431 163.231 437.853 163.129 437.271 163.145C432.174 163.145 427.066 163.145 421.969 163.145C421.536 163.134 421.106 163.211 420.703 163.372C420.301 163.532 419.936 163.773 419.629 164.078C418.721 165.04 417.936 166.109 417.29 167.262C416.345 168.755 416.345 168.777 414.62 168.777H379.15C378.584 168.774 378.024 168.884 377.501 169.099C376.977 169.314 376.502 169.631 376.103 170.032C375.703 170.432 375.387 170.908 375.173 171.431C374.959 171.955 374.851 172.515 374.855 173.081C374.855 174.343 374.855 175.617 374.855 176.879C374.855 177.198 374.756 177.307 374.438 177.34C373.416 177.433 372.462 177.894 371.754 178.637C371.047 179.38 370.634 180.355 370.593 181.38C370.615 182.076 370.726 182.766 370.923 183.433C372.27 190.752 373.625 198.071 374.987 205.39C375.88 210.184 376.774 214.981 377.667 219.782C377.724 220.39 377.861 220.988 378.074 221.561C378.378 222.343 378.914 223.014 379.612 223.481C380.309 223.948 381.134 224.19 381.973 224.174H409.732V224.229ZM402.57 180.173H430.274C430.459 180.161 430.645 180.186 430.82 180.248C430.995 180.309 431.157 180.405 431.294 180.53C431.431 180.655 431.542 180.807 431.62 180.975C431.697 181.144 431.74 181.326 431.746 181.512V181.852C432.866 187.868 433.965 193.881 435.041 199.89L438.82 219.75C438.878 220.044 438.836 220.35 438.701 220.619C438.566 220.887 438.345 221.103 438.073 221.232C437.786 221.357 437.474 221.413 437.161 221.396H382.237C381.997 221.408 381.757 221.385 381.523 221.33C381.294 221.297 381.081 221.192 380.916 221.03C380.75 220.868 380.639 220.658 380.6 220.43C380.512 219.563 380.282 218.729 380.117 217.883C379.092 212.262 378.055 206.641 377.008 201.021C375.837 194.675 374.665 188.33 373.493 181.984C373.419 181.759 373.404 181.519 373.449 181.286C373.494 181.054 373.598 180.837 373.752 180.656C373.905 180.475 374.102 180.337 374.324 180.254C374.546 180.172 374.786 180.147 375.02 180.184H402.57V180.173ZM438.82 204.138H438.754C438.754 203.963 438.677 203.787 438.644 203.611C438.058 200.457 437.472 197.306 436.886 194.159C436.074 189.768 435.239 185.376 434.437 180.985C434.288 179.938 433.757 178.983 432.946 178.304C432.135 177.625 431.101 177.27 430.043 177.307C423.76 177.307 417.465 177.307 411.171 177.307H378.096C377.788 177.307 377.678 177.23 377.689 176.901C377.689 175.683 377.689 174.464 377.689 173.245C377.656 173.026 377.674 172.801 377.744 172.59C377.813 172.379 377.931 172.187 378.088 172.03C378.245 171.873 378.437 171.755 378.648 171.686C378.86 171.617 379.084 171.598 379.304 171.632C383.028 171.632 386.752 171.632 390.476 171.632H415.894C416.328 171.636 416.758 171.553 417.158 171.387C417.558 171.221 417.921 170.975 418.223 170.665C418.83 170.047 419.364 169.362 419.816 168.623C420.301 167.804 420.837 167.016 421.42 166.263C421.499 166.156 421.604 166.069 421.725 166.012C421.845 165.954 421.978 165.928 422.112 165.934H437.37C437.569 165.919 437.77 165.947 437.957 166.017C438.145 166.087 438.315 166.197 438.456 166.339C438.597 166.481 438.705 166.651 438.774 166.839C438.842 167.027 438.869 167.228 438.853 167.427V204.116L438.82 204.138Z" fill="#202124"/>
<g opacity="0.15">
<path opacity="0.2" d="M218.653 93.6175C212.518 93.4631 206.338 93.3969 200.115 93.441C151.321 93.838 106.125 100.918 68.4092 112.784C30.738 122.841 28.4428 83.4498 41.5957 59.1005C50.9529 41.7648 63.6423 37.0228 68.4092 35.2363C106.125 23.3704 151.321 16.2906 200.115 15.8936C206.338 15.8495 212.54 15.8936 218.653 16.07C262.922 19.3342 274.53 61.8354 253.83 81.6633C248.048 87.1993 237.256 93.7718 218.653 93.6175Z" fill="#4991FF"/>
<path d="M204.376 15.0545C202.963 15.0545 201.529 15.0545 200.117 15.0766C152.868 15.4736 107.252 22.1564 68.1681 34.4635C63.2688 36.2941 50.3807 41.1243 40.8691 58.7246C33.0127 73.2592 29.8127 95.2266 39.3685 107.313C43.5615 112.628 52.0579 118.032 68.6315 113.599C107.583 101.336 153.044 94.6752 200.139 94.2782C206.318 94.2341 212.541 94.2782 218.654 94.4547H218.676C237.567 94.5208 248.557 87.9041 254.428 82.28C264.116 72.9946 267.205 58.2394 262.306 44.6752C256.237 27.8247 239.95 16.819 218.743 15.2751C213.976 15.1207 209.165 15.0545 204.376 15.0545ZM57.3324 113.555C50.16 113.555 44.4884 111.107 40.6705 106.276C31.5562 94.7634 34.7341 73.568 42.3477 59.4965C51.5724 42.4476 64.0192 37.7718 68.7198 36.0073C107.605 23.7886 153.066 17.1057 200.139 16.7087C206.34 16.6646 212.563 16.7087 218.654 16.8852C239.156 18.407 254.913 28.9716 260.739 45.2045C265.396 58.1732 262.483 72.2447 253.28 81.0669C247.675 86.4264 237.258 92.8005 219.294 92.8005C219.096 92.8005 218.897 92.8005 218.676 92.8005C212.541 92.624 206.296 92.5799 200.117 92.624C152.868 92.999 107.252 99.7039 68.1681 112.011C64.2619 113.048 60.6427 113.555 57.3324 113.555Z" fill="#4991FF"/>
</g>
<g opacity="0.05">
<path d="M198.796 54.2211L98.4355 54.0723C97.8344 54.0723 97.342 53.4601 97.3477 52.7105C97.3477 51.961 97.8401 51.3545 98.4412 51.3545L198.802 51.5033C199.403 51.5033 199.89 52.1155 199.89 52.865C199.89 53.6146 199.397 54.2211 198.796 54.2211Z" fill="white"/>
<path d="M169.651 70.3402L98.0989 70.2315C97.6695 70.2315 97.3203 69.625 97.3203 68.8697C97.3203 68.1202 97.6695 67.5137 98.0989 67.5137L169.651 67.6224C170.08 67.6224 170.43 68.2289 170.43 68.9841C170.43 69.7337 170.08 70.3402 169.651 70.3402Z" fill="white"/>
<path d="M139.037 61.9555L98.4237 61.8926C97.8225 61.8926 97.3359 61.2804 97.3359 60.5308C97.3359 59.7813 97.8283 59.1748 98.4294 59.1748L139.043 59.2377C139.644 59.2377 140.131 59.85 140.131 60.5995C140.131 61.349 139.639 61.9613 139.037 61.9555Z" fill="white"/>
<path d="M158.071 61.985L146.014 61.9678C145.412 61.9678 144.926 61.3556 144.926 60.606C144.926 59.8565 145.418 59.25 146.019 59.25L158.076 59.2672C158.677 59.2672 159.164 59.8794 159.164 60.6289C159.164 61.3785 158.672 61.9907 158.071 61.985Z" fill="white"/>
</g>
<path d="M267.836 120.593H225.756C221.44 120.593 217.94 124.093 217.94 128.409V149.169C217.94 153.485 221.44 156.985 225.756 156.985V163.144L233.35 156.985H267.836C272.152 156.985 275.652 153.485 275.652 149.169V128.409C275.652 124.093 272.152 120.593 267.836 120.593Z" fill="#4991FF"/>
<path opacity="0.5" d="M233.526 137.875C233.526 136.128 234.938 134.716 236.685 134.716C238.431 134.716 239.844 136.128 239.844 137.875C239.844 139.621 238.431 141.034 236.685 141.034C234.938 141.034 233.526 139.618 233.526 137.875Z" fill="white"/>
<path opacity="0.5" d="M243.635 137.875C243.635 136.128 245.048 134.716 246.794 134.716C248.54 134.716 249.953 136.128 249.953 137.875C249.953 139.621 248.54 141.034 246.794 141.034C245.051 141.034 243.635 139.618 243.635 137.875Z" fill="white"/>
<path opacity="0.5" d="M256.907 140.904C255.163 140.904 253.748 139.49 253.748 137.745C253.748 136 255.163 134.586 256.907 134.586C258.652 134.586 260.066 136 260.066 137.745C260.066 139.49 258.652 140.904 256.907 140.904Z" fill="white"/>
<path opacity="0.3" d="M273.28 541.073H273.126C272.869 541.054 272.619 540.984 272.389 540.867C272.159 540.751 271.954 540.59 271.787 540.394C271.62 540.198 271.493 539.971 271.413 539.726C271.334 539.481 271.304 539.222 271.325 538.966L288.318 323.055C288.359 322.535 288.605 322.053 289.002 321.714C289.398 321.376 289.913 321.208 290.433 321.249C290.953 321.29 291.436 321.536 291.775 321.932C292.113 322.328 292.281 322.843 292.24 323.363L275.247 539.262C275.205 539.755 274.98 540.215 274.616 540.55C274.252 540.886 273.775 541.072 273.28 541.073Z" fill="#2F2F33"/>
<path d="M67.5005 319.914H432.273V326.501H67.5005V319.914Z" fill="#434347"/>
<path opacity="0.3" d="M437.448 541.073H437.602C437.861 541.055 438.114 540.986 438.346 540.869C438.578 540.753 438.784 540.591 438.953 540.394C439.122 540.197 439.249 539.968 439.329 539.721C439.408 539.474 439.437 539.213 439.415 538.955L422.41 323.055C422.39 322.798 422.319 322.547 422.202 322.317C422.085 322.087 421.923 321.882 421.727 321.714C421.531 321.547 421.303 321.419 421.058 321.34C420.812 321.26 420.553 321.229 420.295 321.249C420.038 321.269 419.787 321.34 419.557 321.457C419.327 321.574 419.122 321.736 418.954 321.932C418.786 322.128 418.659 322.355 418.579 322.601C418.499 322.846 418.468 323.105 418.488 323.363L435.482 539.262C435.523 539.755 435.748 540.215 436.112 540.55C436.476 540.886 436.953 541.072 437.448 541.073Z" fill="#2F2F33"/>
<path opacity="0.3" d="M263.918 541.073H264.072C264.33 541.055 264.582 540.986 264.813 540.87C265.044 540.754 265.25 540.594 265.418 540.397C265.587 540.201 265.715 539.974 265.795 539.728C265.875 539.482 265.905 539.223 265.884 538.965L248.891 323.066C248.87 322.809 248.8 322.558 248.683 322.328C248.565 322.098 248.404 321.893 248.208 321.725C248.011 321.558 247.784 321.43 247.538 321.35C247.293 321.27 247.034 321.24 246.776 321.26C246.519 321.28 246.268 321.351 246.037 321.468C245.807 321.585 245.602 321.746 245.435 321.943C245.267 322.139 245.139 322.366 245.059 322.612C244.98 322.857 244.949 323.116 244.969 323.373L261.963 539.262C262.001 539.754 262.224 540.214 262.586 540.549C262.948 540.885 263.424 541.072 263.918 541.073Z" fill="#2F2F33"/>
<path d="M196.639 315.458H285.682L300.281 255.044L297.777 253.046H211.722L196.639 315.458Z" fill="#2F2F33"/>
<path d="M193.652 315.458H282.695L297.777 253.046H208.734L193.652 315.458Z" fill="#343439"/>
<path d="M195.492 314.36H281.371L295.926 254.155H210.035L195.492 314.36Z" fill="#29292D"/>
<path opacity="0.06" d="M213.711 303.722H245.172L244.667 305.687H213.228L213.711 303.722Z" fill="white"/>
<path d="M210.5 315.469H285.68V319.915H210.5V315.469Z" fill="#36363D"/>
<path d="M134.32 315.469H210.5V319.915H134.32V315.469Z" fill="#34343C"/>
<path opacity="0.08" d="M1.41824 541.804H498.821C499.471 541.804 500 541.286 500 540.649C500 540.012 499.471 539.494 498.821 539.494H1.41824C0.767609 539.494 0.238983 540.012 0.238983 540.649C0.233154 541.286 0.76181 541.804 1.41824 541.804Z" fill="white"/>
<path d="M243.432 280.877L238.365 273.623C237.916 272.984 237.969 271.93 238.47 271.282L243.161 265.22C243.662 264.572 244.442 264.558 244.886 265.207L249.953 272.461C250.402 273.1 250.349 274.154 249.848 274.802L245.158 280.864C244.647 281.507 243.881 281.516 243.432 280.877Z" fill="#F1511B"/>
<path d="M252.26 293.521L247.193 286.268C246.745 285.628 246.797 284.575 247.298 283.927L251.989 277.864C252.49 277.217 253.27 277.203 253.714 277.852L258.782 285.106C259.23 285.745 259.177 286.799 258.677 287.447L253.986 293.509C253.475 294.152 252.709 294.161 252.26 293.521Z" fill="#80CC28"/>
<path d="M235.093 291.638L230.025 284.384C229.577 283.745 229.629 282.691 230.13 282.043L234.821 275.981C235.322 275.333 236.102 275.319 236.546 275.968L241.614 283.222C242.062 283.861 242.009 284.915 241.509 285.563L236.818 291.625C236.317 292.273 235.541 292.277 235.093 291.638Z" fill="#00ADEF"/>
<path d="M243.936 304.288L238.869 297.034C238.42 296.395 238.473 295.341 238.974 294.693L243.665 288.631C244.166 287.983 244.946 287.969 245.39 288.619L250.457 295.872C250.906 296.512 250.853 297.565 250.352 298.213L245.662 304.276C245.161 304.923 244.385 304.927 243.936 304.288Z" fill="#FBBC09"/>
<path d="M362.77 315.458H371.306C372.737 315.455 374.109 314.885 375.12 313.872C376.131 312.86 376.699 311.487 376.699 310.057V300.374C376.699 298.943 376.131 297.571 375.12 296.559C374.109 295.546 372.737 294.976 371.306 294.973H362.803C361.371 294.976 359.998 295.546 358.985 296.558C357.972 297.57 357.402 298.942 357.399 300.374V310.057C357.402 311.483 357.968 312.85 358.973 313.861C359.979 314.873 361.344 315.447 362.77 315.458ZM371.306 296.938C372.216 296.941 373.087 297.304 373.73 297.948C374.372 298.592 374.733 299.465 374.733 300.374V310.057C374.733 310.966 374.372 311.839 373.73 312.483C373.087 313.127 372.216 313.49 371.306 313.493H362.803C361.893 313.49 361.022 313.127 360.379 312.483C359.737 311.839 359.376 310.966 359.376 310.057V300.374C359.376 299.465 359.737 298.592 360.379 297.948C361.022 297.304 361.893 296.941 362.803 296.938H371.306Z" fill="#2F2F33"/>
<path d="M368.694 290.515H385.929C387.476 290.515 388.73 291.768 388.73 293.314V317.115C388.73 318.661 387.476 319.915 385.929 319.915H368.694C367.147 319.915 365.893 318.661 365.893 317.115V293.314C365.893 291.768 367.147 290.515 368.694 290.515Z" fill="#2F2F33"/>
<path d="M321.644 319.914H345.898L340.362 296.574H316.108L321.644 319.914Z" fill="#202124"/>
<path d="M305.243 319.936H333.957C334.17 319.937 334.377 319.866 334.545 319.734C334.712 319.603 334.83 319.419 334.88 319.211L344.689 278.592C344.722 278.452 344.723 278.307 344.692 278.167C344.662 278.027 344.6 277.895 344.511 277.782C344.422 277.669 344.309 277.578 344.18 277.515C344.052 277.452 343.91 277.418 343.767 277.417H315.03C314.817 277.416 314.61 277.487 314.443 277.619C314.275 277.75 314.157 277.935 314.107 278.142L304.309 318.761C304.274 318.902 304.271 319.049 304.302 319.191C304.332 319.333 304.395 319.466 304.485 319.579C304.576 319.693 304.691 319.784 304.822 319.846C304.954 319.908 305.098 319.939 305.243 319.936Z" fill="#2F2F33"/>
<path d="M306.494 319.191H333.078C333.292 319.189 333.499 319.116 333.666 318.982C333.833 318.849 333.951 318.663 334 318.455L343.436 279.405C343.471 279.265 343.474 279.119 343.444 278.978C343.414 278.837 343.352 278.705 343.263 278.592C343.174 278.478 343.06 278.387 342.93 278.324C342.8 278.261 342.658 278.229 342.514 278.23H315.93C315.718 278.232 315.512 278.303 315.345 278.435C315.177 278.566 315.059 278.749 315.008 278.955L305.572 318.016C305.539 318.156 305.537 318.301 305.568 318.441C305.599 318.581 305.661 318.712 305.75 318.825C305.839 318.938 305.952 319.03 306.08 319.093C306.209 319.156 306.351 319.189 306.494 319.191Z" fill="#29292D"/>
<path opacity="0.06" d="M311.923 304.5H325.555L325.335 305.356H311.714L311.923 304.5Z" fill="white"/>
<path opacity="0.1" d="M333.902 304.5L333.694 305.356H325.334L325.554 304.5H333.902Z" fill="white"/>
<path opacity="0.06" d="M319.405 290.855C319.365 291.634 319.036 292.37 318.482 292.919C318.255 293.244 317.949 293.505 317.592 293.677C316.428 294.017 316.56 294.852 316.384 295.565C316.384 295.796 316.461 295.895 316.658 295.982C316.926 296.087 317.17 296.244 317.375 296.446C317.58 296.647 317.742 296.888 317.851 297.154C317.96 297.42 318.014 297.706 318.009 297.993C318.004 298.28 317.941 298.564 317.823 298.826C317.724 299.155 317.823 299.353 318.043 299.462C318.195 299.529 318.339 299.614 318.471 299.715C318.811 299.989 319.141 299.989 319.657 299.627C320.104 299.293 320.642 299.103 321.2 299.084C321.758 299.064 322.308 299.215 322.777 299.517C323.074 299.77 323.326 299.759 323.711 299.517C323.917 299.383 324.134 299.266 324.359 299.166C324.514 299.106 324.648 299.001 324.742 298.864C324.836 298.726 324.886 298.564 324.886 298.398C324.972 297.766 325.219 297.168 325.604 296.66C325.989 296.152 326.498 295.753 327.083 295.499C327.264 295.452 327.426 295.349 327.546 295.206C327.666 295.062 327.739 294.885 327.753 294.698C327.777 294.494 327.818 294.292 327.874 294.094C327.911 294.018 327.93 293.934 327.93 293.85C327.93 293.765 327.91 293.682 327.873 293.606C327.836 293.53 327.783 293.463 327.716 293.411C327.65 293.358 327.572 293.322 327.489 293.304C327.01 293.097 326.628 292.714 326.423 292.234C326.219 291.753 326.207 291.212 326.391 290.724C326.545 290.23 326.468 289.966 326.061 289.813C325.925 289.751 325.796 289.673 325.677 289.582C325.38 289.362 325.117 289.373 324.688 289.681C324.236 290.042 323.681 290.25 323.102 290.276C322.524 290.302 321.952 290.143 321.47 289.824C321.348 289.712 321.19 289.651 321.025 289.651C320.86 289.651 320.701 289.712 320.58 289.824C320.305 290.01 320.02 290.153 319.723 290.318C319.623 290.367 319.54 290.444 319.484 290.539C319.427 290.635 319.4 290.745 319.405 290.855ZM319.229 294.654C319.461 293.851 319.938 293.139 320.594 292.62C321.25 292.1 322.051 291.798 322.887 291.756C323.247 291.736 323.606 291.805 323.932 291.957C324.259 292.108 324.544 292.338 324.761 292.625C324.978 292.913 325.121 293.249 325.177 293.605C325.233 293.961 325.201 294.325 325.084 294.665C324.851 295.479 324.368 296.199 323.704 296.725C323.04 297.251 322.228 297.555 321.382 297.596C321.022 297.611 320.664 297.536 320.339 297.38C320.015 297.223 319.734 296.989 319.521 296.698C319.308 296.408 319.17 296.069 319.119 295.713C319.068 295.356 319.106 294.993 319.229 294.654Z" fill="white"/>
<path opacity="0.06" d="M332.015 296.553C331.257 296.553 330.697 296.19 330.565 295.455C330.489 295.038 330.181 295.125 329.884 295.114C329.733 295.082 329.576 295.097 329.433 295.155C329.289 295.214 329.167 295.315 329.082 295.444C328.868 295.796 328.558 296.081 328.189 296.265C327.82 296.449 327.406 296.526 326.995 296.487C326.633 296.487 326.468 296.64 326.281 296.893C326.095 297.145 325.765 297.365 325.941 297.727C326.093 298.106 326.119 298.524 326.017 298.919C325.914 299.314 325.687 299.666 325.37 299.923C325.269 300.005 325.204 300.121 325.185 300.249C325.167 300.378 325.197 300.508 325.271 300.615C325.359 300.845 325.271 301.174 325.754 301.131C325.935 301.087 326.123 301.082 326.306 301.115C326.489 301.147 326.663 301.217 326.817 301.32C326.972 301.423 327.104 301.557 327.204 301.713C327.305 301.87 327.372 302.045 327.402 302.228C327.479 302.613 327.83 302.47 328.094 302.481C328.224 302.521 328.363 302.516 328.49 302.469C328.617 302.421 328.725 302.333 328.797 302.217C329.026 301.85 329.353 301.553 329.74 301.359C330.128 301.165 330.562 301.082 330.994 301.12C331.466 301.12 331.587 300.812 331.829 300.56C332.07 300.307 332.147 300.142 332.015 299.868C331.876 299.517 331.848 299.133 331.934 298.766C332.021 298.399 332.218 298.067 332.499 297.815C332.623 297.71 332.708 297.567 332.742 297.408C332.776 297.249 332.756 297.083 332.685 296.937C332.576 296.662 332.488 296.366 332.015 296.553ZM328.467 300.801C328.226 300.81 327.986 300.759 327.768 300.654C327.551 300.548 327.362 300.391 327.219 300.196C327.076 300.002 326.983 299.775 326.948 299.536C326.913 299.297 326.937 299.053 327.017 298.825C327.178 298.294 327.496 297.824 327.929 297.477C328.363 297.13 328.891 296.923 329.445 296.882C329.687 296.869 329.928 296.916 330.147 297.018C330.367 297.12 330.558 297.274 330.704 297.466C330.851 297.659 330.948 297.885 330.986 298.123C331.025 298.362 331.005 298.607 330.928 298.836C330.775 299.38 330.455 299.861 330.014 300.214C329.572 300.566 329.032 300.772 328.467 300.801Z" fill="white"/>
<path opacity="0.06" d="M331.445 292.042C332.192 292.042 332.642 291.526 332.543 291.032C332.47 290.758 332.47 290.47 332.543 290.196C332.616 289.923 332.76 289.673 332.961 289.473C333.345 289.023 333.169 288.463 332.642 288.463C332.397 288.473 332.156 288.4 331.957 288.257C331.758 288.114 331.612 287.908 331.544 287.672C331.39 287.2 330.775 287.2 330.445 287.672C330.26 287.912 330.025 288.107 329.755 288.244C329.485 288.381 329.188 288.455 328.885 288.463C328.762 288.459 328.639 288.483 328.526 288.533C328.412 288.583 328.312 288.657 328.231 288.751C328.15 288.844 328.091 288.955 328.058 289.074C328.024 289.193 328.018 289.318 328.04 289.44C328.113 289.714 328.114 290.003 328.043 290.278C327.972 290.553 327.831 290.805 327.633 291.01C327.238 291.482 327.402 291.998 327.941 292.02C328.187 292.011 328.43 292.085 328.629 292.23C328.828 292.376 328.973 292.584 329.039 292.821C329.193 293.271 329.808 293.271 330.138 292.821C330.455 292.401 330.924 292.121 331.445 292.042ZM329.797 291.756C329.616 291.754 329.439 291.71 329.278 291.627C329.117 291.544 328.978 291.425 328.872 291.279C328.765 291.133 328.694 290.964 328.664 290.786C328.634 290.608 328.646 290.425 328.699 290.252C328.828 289.828 329.084 289.453 329.431 289.177C329.778 288.901 330.2 288.736 330.643 288.704C330.826 288.704 331.006 288.747 331.169 288.83C331.332 288.912 331.473 289.033 331.58 289.181C331.688 289.329 331.758 289.5 331.786 289.681C331.814 289.861 331.799 290.046 331.741 290.219C331.631 290.658 331.383 291.05 331.032 291.336C330.682 291.623 330.249 291.79 329.797 291.811V291.756Z" fill="white"/>
<path d="M100.454 347.7C100.454 347.7 190.178 344.813 206.38 367.461C222.583 390.109 137.571 491.9 137.571 491.9L111.735 480.318L158.047 391.284C158.047 391.284 58.261 419.751 74.8481 366.66C74.8481 366.66 81.3731 348.666 100.454 347.7Z" fill="#2B2B30"/>
<path d="M110.682 488.926L114.988 481.801L135.859 491.132L130.367 499.597C126.511 499.267 122.678 499.454 118.789 498.126C116.45 494.757 113.73 491.67 110.682 488.926Z" fill="url(#paint0_linear_12400_57954)"/>
<path d="M104.758 498.729L110.679 488.926C113.715 491.672 116.425 494.759 118.753 498.126C122.609 499.454 126.442 499.223 130.331 499.597L130.166 499.849L150.829 530.523C150.994 530.807 151.055 531.139 151 531.463C150.945 531.787 150.779 532.082 150.529 532.295C150.28 532.509 149.964 532.629 149.635 532.634C149.306 532.639 148.986 532.529 148.731 532.323L104.758 498.729Z" fill="#434347"/>
<path d="M140.691 347.975C140.691 347.975 230.415 344.945 246.629 368.724C262.842 392.503 177.787 499.3 177.787 499.3L151.939 487.158L198.252 393.7C198.252 393.7 50.6155 427.425 65.8075 366.199C65.8075 366.199 78.7916 327.731 140.691 347.975Z" fill="#2F2F33"/>
<path d="M150.885 496.15L155.191 488.674L176.062 498.466L170.57 507.337C166.714 506.986 162.881 507.194 158.992 505.789C156.67 502.275 153.95 499.041 150.885 496.15Z" fill="url(#paint1_linear_12400_57954)"/>
<path d="M144.964 506.436L150.885 496.149C153.938 499.042 156.647 502.276 158.959 505.788C162.826 507.194 166.648 506.985 170.537 507.336L170.372 507.611L191.035 539.788C191.222 540.073 191.301 540.416 191.258 540.755C191.214 541.093 191.051 541.405 190.797 541.633C190.543 541.861 190.216 541.991 189.875 541.999C189.533 542.007 189.201 541.893 188.936 541.676L144.964 506.436Z" fill="#434347"/>
<path d="M123.699 275.76L132.048 282.555L175.558 250.927C180.476 252.817 184.461 256.551 186.664 261.334C171.835 276.956 156.796 293.105 141.923 308.848C140.369 310.487 138.383 311.653 136.194 312.21C134.005 312.768 131.703 312.695 129.554 311.999C122.991 309.884 116.554 307.396 110.276 304.545C116.851 296.076 121.439 286.239 123.699 275.76Z" fill="url(#paint2_linear_12400_57954)"/>
<path d="M183.884 262.081C188.277 262.268 191.496 259.787 193.902 255.769C196.769 250.993 196.329 249.094 199.68 246.657C197.076 243.528 193.462 233.79 190.002 235.92C187.19 237.643 178.479 244.241 175.074 250.356C173.975 252.387 173.063 254.846 173.975 256.943C174.351 257.693 174.881 258.355 175.53 258.887C176.18 259.418 176.933 259.807 177.743 260.028C179.347 260.566 182.214 262.015 183.884 262.081Z" fill="url(#paint3_linear_12400_57954)"/>
<path d="M194.187 246.184C196.551 244.505 199.347 243.538 202.244 243.398C205.141 243.258 208.017 243.95 210.532 245.394C212.092 246.316 210.785 248.819 209.214 247.886C207.134 246.677 204.746 246.1 202.343 246.225C199.94 246.349 197.625 247.171 195.681 248.589C195.362 248.769 194.987 248.819 194.632 248.729C194.277 248.638 193.971 248.414 193.778 248.104C193.585 247.793 193.52 247.42 193.596 247.062C193.672 246.704 193.884 246.39 194.187 246.184Z" fill="url(#paint4_linear_12400_57954)"/>
<path d="M189.938 247.82C191.668 244.481 194.498 241.841 197.95 240.344C201.402 238.848 205.265 238.589 208.886 239.609C211.083 240.245 210.27 243.682 208.084 243.045C205.226 242.198 202.162 242.375 199.42 243.546C196.679 244.716 194.432 246.807 193.068 249.456C192.838 249.847 192.467 250.135 192.03 250.259C191.594 250.384 191.127 250.337 190.724 250.126C190.322 249.916 190.016 249.56 189.87 249.131C189.723 248.701 189.748 248.232 189.938 247.82Z" fill="url(#paint5_linear_12400_57954)"/>
<path d="M189.022 247.501C189.14 245.406 189.732 243.365 190.754 241.532C191.775 239.699 193.2 238.121 194.921 236.918C196.641 235.76 198.602 235.01 200.656 234.724C202.71 234.439 204.803 234.626 206.773 235.272C207.223 235.389 207.61 235.674 207.856 236.068C208.101 236.462 208.185 236.936 208.092 237.39C207.982 237.842 207.7 238.232 207.306 238.478C206.911 238.725 206.437 238.807 205.982 238.708C204.502 238.195 202.923 238.028 201.368 238.218C199.812 238.408 198.321 238.951 197.008 239.806C195.74 240.67 194.686 241.811 193.925 243.142C193.164 244.473 192.715 245.96 192.614 247.49C192.615 247.954 192.437 248.401 192.118 248.738C191.8 249.075 191.364 249.276 190.9 249.302C190.657 249.315 190.413 249.279 190.184 249.194C189.955 249.109 189.746 248.979 189.569 248.81C189.393 248.641 189.254 248.437 189.16 248.212C189.065 247.987 189.018 247.745 189.022 247.501Z" fill="url(#paint6_linear_12400_57954)"/>
<path d="M185.358 245.987C185.819 242.186 187.467 238.628 190.068 235.817C192.669 233.006 196.091 231.087 199.847 230.332C200.296 230.217 200.773 230.276 201.181 230.498C201.589 230.72 201.897 231.088 202.044 231.529C202.173 231.979 202.12 232.461 201.896 232.872C201.672 233.283 201.295 233.59 200.846 233.724C197.694 234.304 194.813 235.887 192.635 238.238C190.457 240.589 189.099 243.581 188.763 246.767C188.653 247.22 188.37 247.613 187.973 247.859C187.576 248.106 187.099 248.186 186.643 248.084C186.203 247.962 185.825 247.678 185.586 247.289C185.348 246.9 185.266 246.434 185.358 245.987Z" fill="url(#paint7_linear_12400_57954)"/>
<path d="M147.377 188.207C146.729 189.305 145.334 189.623 144.081 189.854C142.829 190.084 141.533 190.161 140.907 189.195C140.738 188.817 140.651 188.407 140.651 187.993C140.651 187.579 140.738 187.169 140.907 186.791C141.335 185.265 142.005 179.359 144.828 180.511C146.498 181.203 148.377 186.637 147.377 188.207Z" fill="#FF8A65"/>
<path d="M145.484 189.493C146.33 189.493 147.23 188.823 148.043 187.572C149.012 185.989 149.675 184.239 149.998 182.412C150.395 180.608 150.45 178.747 150.163 176.923C149.845 175.276 149.153 174.266 148.219 174.079C147.285 173.893 146.253 174.563 145.341 175.968C144.371 177.554 143.707 179.308 143.386 181.139C142.997 182.943 142.945 184.804 143.232 186.628C143.539 188.274 144.231 189.284 145.176 189.471C145.278 189.49 145.381 189.497 145.484 189.493ZM147.911 174.672H148.087C148.735 174.804 149.251 175.649 149.515 176.989C149.784 178.74 149.728 180.527 149.35 182.258C149.048 184.004 148.418 185.676 147.494 187.188C146.747 188.34 145.945 188.922 145.297 188.79C144.649 188.659 144.133 187.824 143.869 186.474C143.6 184.722 143.656 182.936 144.034 181.204C144.341 179.46 144.971 177.789 145.89 176.275C146.571 175.254 147.285 174.672 147.911 174.672Z" fill="#6B6E78"/>
<path d="M90.3394 209.66C95.5791 215.665 103.73 218.223 111.716 218.3C113.451 214.907 115.176 211.35 116.901 207.837C117.878 205.872 118.845 203.918 119.812 202.019L120.295 202.282C120.625 202.458 120.943 202.623 121.273 202.776C121.602 202.93 122.151 203.15 122.602 203.303L123.074 203.446C124.032 203.742 125.019 203.937 126.018 204.028C126.882 204.097 127.75 204.082 128.61 203.984C131.143 203.736 133.587 202.923 135.763 201.607C137.94 200.29 139.794 198.503 141.188 196.376C141.309 196.189 141.441 196.003 141.551 195.816C141.66 195.629 141.726 195.542 141.803 195.399C142.679 193.663 143.314 191.816 143.693 189.91C144.379 186.892 144.903 183.839 145.263 180.765C145.538 178.569 145.758 176.22 145.923 173.848C145.923 173.201 145.999 172.553 146.032 171.894C146.175 169.194 146.219 166.482 146.142 163.902C146.11 160.584 145.768 157.276 145.121 154.022C138.299 151.826 125.282 150.64 118.636 153.088C118.285 156.667 111.123 172.169 103.741 186.408C98.6549 196.2 93.4591 205.367 90.3394 209.66Z" fill="url(#paint8_linear_12400_57954)"/>
<path style="mix-blend-mode:multiply" d="M116.647 196.771C120.448 199.812 123.534 203.555 128.609 203.983C125.541 204.239 122.47 203.533 119.822 201.963C118.855 203.863 117.888 205.817 116.911 207.793C116.476 204.135 116.388 200.445 116.647 196.771Z" fill="url(#paint9_linear_12400_57954)"/>
<path d="M131.487 185.497C129.295 184.593 127.395 183.104 125.995 181.193C125.295 180.232 124.831 179.121 124.641 177.948C124.45 176.775 124.537 175.574 124.896 174.441C125.29 173.323 126.041 172.364 127.034 171.714C128.026 171.063 129.205 170.756 130.388 170.841C132.52 171.104 134.156 172.773 135.606 174.343C138.517 171.049 141.395 167.459 144.306 164.111C146.638 163.979 148.929 163.452 151.084 162.552C152.006 162.136 152.786 161.461 153.331 160.609C153.875 159.757 154.159 158.765 154.149 157.754C154.043 156.876 153.644 156.059 153.016 155.435C152.388 154.812 151.568 154.418 150.688 154.318C154.39 152.221 156.444 146.776 154.687 142.901C153.744 140.986 152.148 139.472 150.186 138.631C148.224 137.789 146.026 137.676 143.988 138.312C144.099 136.197 143.515 134.104 142.325 132.352C141.135 130.599 139.404 129.284 137.397 128.607C135.331 128.038 133.136 128.15 131.139 128.927C129.142 129.705 127.449 131.105 126.313 132.921C124.226 131.198 122.271 129.76 119.579 129.518C118.23 129.374 116.866 129.51 115.571 129.916C114.277 130.322 113.08 130.99 112.055 131.878C111.049 132.786 110.295 133.939 109.865 135.223C109.436 136.508 109.347 137.882 109.605 139.212C108.392 138.958 107.129 139.081 105.988 139.566C104.847 140.051 103.882 140.874 103.223 141.924C102.649 142.995 102.422 144.219 102.576 145.425C102.73 146.631 103.255 147.76 104.08 148.653C101.597 149.049 99.9166 151.947 99.3893 154.362C98.9879 156.856 99.3398 159.413 100.4 161.707C101.334 164.034 102.597 166.208 103.542 168.546C105.766 174.27 105.766 180.618 103.542 186.342C108.803 188.801 114.735 191.985 120.019 194.444C123.907 191.611 127.598 188.34 131.487 185.497Z" fill="#E33D15"/>
<path d="M135.618 174.342C135.355 174.057 135.08 173.771 134.794 173.486C135.893 172.805 136.991 172.114 138.09 171.422L135.618 174.342Z" fill="#E33D15"/>
<path d="M99.3859 154.383C99.9132 151.924 101.583 149.069 104.076 148.674C103.252 147.78 102.726 146.652 102.573 145.446C102.419 144.24 102.645 143.016 103.22 141.944C103.875 140.891 104.839 140.063 105.98 139.574C107.122 139.085 108.386 138.959 109.602 139.211C109.339 137.878 109.427 136.499 109.856 135.21C110.286 133.921 111.042 132.765 112.051 131.855C113.076 130.967 114.273 130.299 115.568 129.893C116.863 129.487 118.227 129.351 119.576 129.495H119.895C122.092 131.12 123.684 133.886 125.585 135.742C125.585 133.305 128.023 132.448 129.649 131.68C136.152 130.055 139.415 137.367 140.227 142.241C141.434 141.446 142.847 141.022 144.292 141.022C145.737 141.022 147.15 141.446 148.356 142.241C150.795 146.303 145.918 150.376 145.918 153.625C145.918 156.063 149.982 158.5 148.356 161.749C147.933 162.424 147.474 163.076 146.983 163.703C146.027 163.868 145.105 163.978 144.314 164.044C142.238 166.426 140.184 168.907 138.118 171.355C137.02 172.047 135.921 172.739 134.823 173.419C133.698 172.069 132.15 171.137 130.429 170.774C129.245 170.689 128.066 170.996 127.074 171.647C126.082 172.297 125.331 173.256 124.937 174.374C124.578 175.507 124.49 176.708 124.681 177.881C124.872 179.054 125.336 180.165 126.035 181.126C127.436 183.037 129.336 184.526 131.527 185.43C127.639 188.273 123.948 191.544 120.059 194.399C114.798 191.94 108.866 188.756 103.582 186.297C105.806 180.573 105.806 174.225 103.582 168.501C102.659 166.163 101.385 163.989 100.44 161.662C99.3784 159.392 99.0115 156.86 99.3859 154.383Z" fill="#E33D15"/>
<path d="M128.61 173.618C129.779 173.671 130.903 174.086 131.826 174.806C132.749 175.526 133.426 176.515 133.762 177.636C133.915 178.13 133.124 178.349 132.982 177.844C132.687 176.896 132.107 176.062 131.321 175.455C130.534 174.848 129.58 174.498 128.588 174.452C128.115 174.408 128.104 173.596 128.61 173.618Z" fill="#FF8A65"/>
<path d="M133.871 189.713C135.357 192.804 137.965 195.215 141.165 196.453C141.286 196.267 141.417 196.08 141.527 195.893C138.415 194.716 135.877 192.384 134.442 189.383C134.255 188.955 133.695 189.295 133.871 189.713Z" fill="#FF8A65"/>
<path d="M149.845 179.535L150.207 178.986C145.841 176.193 140.959 174.304 135.85 173.431L135.74 174.078C140.759 174.937 145.555 176.792 149.845 179.535Z" fill="#6B6E78"/>
<path d="M135.814 271.797C141.493 252.267 136.572 231.057 122.226 216.631C121.062 215.456 119.853 214.326 118.579 213.25C107.133 203.49 90.1283 198.649 76.7488 205.565C62.4685 212.953 56.9761 229.717 53.4939 244.285C48.6056 264.804 49.3416 286.212 51.0772 307.081C52.1208 319.685 55.2295 360.601 62.7761 371.283C82.7575 388.42 107.331 343.409 140.691 347.976C133.233 324.252 128.322 297.519 135.814 271.797Z" fill="#FFB156"/>
<path d="M151.941 290.514L155.424 300.702L209.084 296.848C212.265 301.055 213.673 306.339 213.006 311.57C192.135 316.993 170.846 322.757 149.898 328.257C147.711 328.828 145.408 328.768 143.253 328.084C141.099 327.4 139.183 326.12 137.727 324.393C133.275 319.148 129.13 313.649 125.314 307.925C135.381 304.185 144.48 298.235 151.941 290.514Z" fill="url(#paint10_linear_12400_57954)"/>
<path d="M131.323 230.255C138.185 250.345 145.058 270.432 151.941 290.515C144.473 298.208 135.374 304.132 125.314 307.85C116.67 294.766 109.483 280.777 103.883 266.132C98.1707 251.333 116.526 235.821 131.323 230.255Z" fill="#FFB156"/>
<path d="M210.259 310.725C213.917 313.217 218.948 312.394 222.936 310.462C226.923 308.53 226.462 306.213 231.724 305.598C232.921 300.998 232.295 295.795 228.956 293.467C223.221 289.46 215.06 292.721 208.93 296.113C206.909 297.211 204.855 298.858 204.536 301.152C204.457 301.988 204.556 302.831 204.827 303.626C205.098 304.421 205.534 305.149 206.107 305.763C207.206 307.026 208.875 309.781 210.259 310.725Z" fill="url(#paint11_linear_12400_57954)"/>
<path d="M227.404 302.678C230.296 302.503 233.178 303.16 235.709 304.57C238.239 305.981 240.313 308.086 241.684 310.637C242.519 312.251 240.08 313.678 239.245 312.065C238.121 309.934 236.401 308.177 234.294 307.007C232.187 305.837 229.785 305.306 227.382 305.478C227.186 305.495 226.989 305.471 226.802 305.408C226.616 305.345 226.445 305.244 226.3 305.111C226.155 304.979 226.039 304.817 225.96 304.637C225.881 304.458 225.84 304.263 225.84 304.067C225.84 303.87 225.881 303.676 225.96 303.496C226.039 303.316 226.155 303.155 226.3 303.022C226.445 302.89 226.616 302.789 226.802 302.726C226.989 302.662 227.186 302.639 227.382 302.656L227.404 302.678Z" fill="url(#paint12_linear_12400_57954)"/>
<path d="M222.942 300.109C226.174 298.189 229.97 297.444 233.688 297.998C237.407 298.552 240.82 300.372 243.352 303.15C244.867 304.841 242.385 307.344 240.858 305.653C238.881 303.423 236.187 301.952 233.241 301.495C230.295 301.038 227.282 301.624 224.721 303.15C224.321 303.342 223.863 303.376 223.439 303.246C223.015 303.116 222.655 302.831 222.431 302.448C222.207 302.065 222.135 301.612 222.23 301.179C222.325 300.746 222.579 300.364 222.942 300.109Z" fill="url(#paint13_linear_12400_57954)"/>
<path d="M221.703 298.397C222.908 296.676 224.488 295.251 226.325 294.23C228.161 293.209 230.205 292.618 232.304 292.502C234.377 292.429 236.439 292.83 238.333 293.675C240.227 294.519 241.903 295.785 243.234 297.376C243.553 297.712 243.73 298.158 243.73 298.622C243.73 299.086 243.553 299.532 243.234 299.868C242.901 300.195 242.453 300.377 241.987 300.377C241.52 300.377 241.073 300.195 240.74 299.868C239.76 298.651 238.516 297.672 237.102 297.007C235.688 296.341 234.141 296.005 232.578 296.026C231.043 296.075 229.539 296.475 228.181 297.194C226.824 297.913 225.649 298.933 224.746 300.175C224.502 300.571 224.115 300.858 223.665 300.977C223.215 301.095 222.737 301.036 222.329 300.812C221.929 300.572 221.639 300.185 221.521 299.733C221.404 299.281 221.47 298.801 221.703 298.397Z" fill="url(#paint14_linear_12400_57954)"/>
<path d="M218.464 295.104C220.868 292.13 224.149 289.988 227.84 288.982C231.532 287.977 235.446 288.16 239.028 289.505C239.479 289.638 239.861 289.943 240.091 290.353C240.321 290.763 240.381 291.247 240.258 291.701C240.196 291.927 240.09 292.138 239.945 292.322C239.801 292.507 239.621 292.661 239.417 292.775C239.213 292.889 238.987 292.962 238.755 292.989C238.522 293.016 238.286 292.996 238.061 292.931C235.081 291.766 231.804 291.593 228.718 292.44C225.633 293.287 222.903 295.107 220.936 297.629C220.603 297.956 220.155 298.139 219.689 298.139C219.223 298.139 218.775 297.956 218.442 297.629C218.116 297.289 217.936 296.834 217.941 296.362C217.945 295.891 218.133 295.44 218.464 295.104Z" fill="url(#paint15_linear_12400_57954)"/>
<path d="M95.3801 263.751C98.6463 269.811 102.143 275.739 105.871 281.536C109.598 287.332 113.556 292.953 117.745 298.398C120.096 301.472 122.52 304.499 125.017 307.477C125.259 307.763 124.841 308.191 124.589 307.895C120.151 302.603 115.925 297.136 111.912 291.493C107.899 285.85 104.139 280.101 100.631 274.246C98.6316 270.894 96.7093 267.498 94.8638 264.058C94.6771 263.707 95.1934 263.4 95.3801 263.751Z" fill="#F5A548"/>
<path d="M64.5115 364.135C69.0274 366.148 74.0819 366.615 78.8906 365.463C83.8443 364.297 88.5524 362.264 92.7974 359.458C97.2902 356.648 101.486 353.398 105.979 350.5C110.173 347.619 114.796 345.418 119.677 343.979C124.361 342.557 129.362 342.557 134.045 343.979C134.609 344.176 135.159 344.396 135.693 344.637C136.045 344.791 135.693 345.307 135.386 345.153C130.783 343.287 125.697 342.967 120.897 344.242C115.948 345.516 111.256 347.629 107.023 350.489C102.563 353.343 98.3557 356.593 93.8958 359.458C89.6954 362.298 85.0513 364.421 80.1539 365.738C75.4594 367.036 70.4817 366.887 65.8736 365.309C65.3243 365.101 64.7751 364.859 64.2478 364.607C63.7974 364.486 64.1599 363.97 64.5115 364.135Z" fill="#F5A548"/>
<path d="M188.259 258.481H209.603C209.76 258.48 209.913 258.427 210.036 258.329C210.16 258.232 210.247 258.096 210.284 257.943L220.027 215.907C220.137 215.457 219.093 213.393 218.632 213.393H197.289C197.131 213.391 196.977 213.444 196.853 213.542C196.729 213.639 196.643 213.777 196.607 213.931L186.831 255.967C186.754 256.417 187.798 258.481 188.259 258.481Z" fill="#2F2F33"/>
<path d="M188.472 256.286H208.244C208.401 256.283 208.553 256.229 208.676 256.132C208.799 256.035 208.887 255.9 208.926 255.748L218.394 214.82C218.419 214.717 218.421 214.61 218.398 214.506C218.375 214.403 218.33 214.305 218.264 214.222C218.199 214.139 218.115 214.071 218.02 214.024C217.924 213.978 217.82 213.953 217.713 213.953H197.941C197.783 213.954 197.631 214.007 197.507 214.104C197.384 214.202 197.297 214.338 197.26 214.491L187.791 255.407C187.764 255.511 187.761 255.62 187.783 255.725C187.805 255.83 187.85 255.929 187.916 256.013C187.982 256.098 188.066 256.167 188.162 256.214C188.259 256.261 188.364 256.286 188.472 256.286Z" fill="#29292D"/>
<path opacity="0.47" d="M194.017 238.017H204.145L203.98 238.653H193.863L194.017 238.017Z" fill="#36363A"/>
<path d="M210.348 238.017L210.194 238.653H203.976L204.141 238.017H210.348Z" fill="#3E3E42"/>
<path d="M199.571 227.884C199.538 228.462 199.296 229.008 198.89 229.421C198.719 229.662 198.488 229.855 198.22 229.981C197.363 230.233 197.462 230.848 197.33 231.386C197.33 231.55 197.385 231.627 197.528 231.693C197.728 231.769 197.91 231.884 198.064 232.033C198.217 232.182 198.338 232.361 198.42 232.559C198.501 232.756 198.541 232.969 198.537 233.182C198.533 233.396 198.484 233.607 198.395 233.801C198.329 234.054 198.395 234.196 198.56 234.284C198.672 234.332 198.779 234.391 198.879 234.46C199.131 234.668 199.373 234.668 199.758 234.394C200.091 234.149 200.491 234.011 200.905 233.997C201.318 233.984 201.726 234.095 202.075 234.317C202.168 234.408 202.292 234.458 202.421 234.458C202.551 234.458 202.675 234.408 202.767 234.317C202.92 234.211 203.081 234.119 203.251 234.043C203.369 234.003 203.472 233.925 203.543 233.823C203.614 233.72 203.65 233.597 203.646 233.472C203.696 232.997 203.871 232.544 204.153 232.158C204.434 231.773 204.813 231.469 205.25 231.276C205.386 231.239 205.507 231.161 205.597 231.053C205.687 230.945 205.742 230.812 205.755 230.672C205.77 230.52 205.799 230.369 205.843 230.222C205.871 230.166 205.886 230.104 205.887 230.041C205.887 229.979 205.873 229.917 205.845 229.86C205.818 229.804 205.777 229.755 205.727 229.716C205.677 229.678 205.619 229.652 205.557 229.64C205.208 229.479 204.932 229.191 204.787 228.834C204.642 228.477 204.639 228.078 204.778 227.719C204.898 227.357 204.778 227.159 204.536 227.038C204.433 226.998 204.337 226.943 204.25 226.874C204.031 226.72 203.833 226.72 203.514 226.951C203.177 227.217 202.764 227.371 202.335 227.391C201.905 227.41 201.48 227.295 201.12 227.06C200.911 226.885 200.735 226.885 200.461 227.06C200.186 227.236 200.043 227.302 199.823 227.423C199.736 227.46 199.664 227.526 199.618 227.61C199.572 227.693 199.556 227.79 199.571 227.884ZM199.439 230.705C199.604 230.101 199.954 229.564 200.441 229.17C200.928 228.776 201.527 228.545 202.152 228.509C202.423 228.495 202.693 228.547 202.938 228.663C203.183 228.778 203.396 228.952 203.557 229.17C203.718 229.387 203.822 229.642 203.861 229.91C203.9 230.178 203.871 230.451 203.778 230.705C203.61 231.313 203.254 231.853 202.761 232.248C202.268 232.642 201.663 232.87 201.032 232.901C200.764 232.91 200.498 232.853 200.257 232.735C200.017 232.618 199.809 232.443 199.651 232.226C199.494 232.009 199.392 231.757 199.355 231.492C199.318 231.227 199.347 230.957 199.439 230.705Z" fill="#36363A"/>
<path d="M208.938 232.111C208.366 232.111 207.96 231.847 207.839 231.32C207.773 231.013 207.554 231.068 207.334 231.068C207.222 231.041 207.105 231.05 206.998 231.093C206.892 231.137 206.802 231.212 206.741 231.309C206.575 231.568 206.343 231.777 206.068 231.914C205.794 232.051 205.487 232.112 205.181 232.089C205.073 232.078 204.965 232.101 204.87 232.154C204.776 232.207 204.7 232.288 204.654 232.385C204.511 232.583 204.269 232.737 204.401 233.011C204.518 233.291 204.539 233.602 204.462 233.896C204.384 234.19 204.212 234.45 203.973 234.636C203.899 234.698 203.851 234.785 203.839 234.881C203.827 234.977 203.851 235.073 203.907 235.152C203.973 235.317 203.907 235.558 204.258 235.536C204.395 235.506 204.536 235.504 204.674 235.531C204.811 235.558 204.942 235.612 205.057 235.692C205.172 235.771 205.27 235.873 205.344 235.992C205.419 236.11 205.468 236.243 205.488 236.381C205.543 236.667 205.807 236.568 206.005 236.568C206.099 236.596 206.201 236.593 206.294 236.56C206.387 236.526 206.466 236.464 206.521 236.381C206.686 236.106 206.924 235.881 207.209 235.732C207.494 235.582 207.815 235.515 208.136 235.536C208.487 235.536 208.586 235.306 208.762 235.119C208.839 235.061 208.895 234.978 208.921 234.885C208.947 234.792 208.941 234.693 208.905 234.603C208.801 234.343 208.778 234.058 208.841 233.785C208.904 233.512 209.049 233.265 209.256 233.077C209.35 232.999 209.415 232.891 209.441 232.772C209.467 232.653 209.452 232.528 209.399 232.418C209.344 232.199 209.289 231.979 208.938 232.111ZM206.301 235.273C206.119 235.284 205.938 235.249 205.773 235.172C205.607 235.096 205.464 234.979 205.355 234.833C205.246 234.687 205.175 234.517 205.148 234.337C205.122 234.156 205.141 233.973 205.203 233.802C205.321 233.406 205.557 233.056 205.879 232.798C206.2 232.539 206.593 232.384 207.004 232.352C207.185 232.342 207.365 232.377 207.529 232.453C207.693 232.529 207.836 232.644 207.944 232.789C208.053 232.933 208.124 233.102 208.152 233.281C208.18 233.459 208.163 233.642 208.103 233.812C207.992 234.213 207.758 234.569 207.436 234.83C207.113 235.092 206.716 235.247 206.301 235.273Z" fill="#36363A"/>
<path d="M208.51 228.762C209.07 228.762 209.4 228.378 209.29 228.015C209.237 227.81 209.239 227.595 209.295 227.391C209.351 227.187 209.459 227.001 209.608 226.852C209.894 226.522 209.762 226.105 209.367 226.105C209.178 226.124 208.989 226.075 208.834 225.966C208.678 225.857 208.567 225.696 208.521 225.512C208.411 225.172 207.95 225.161 207.664 225.512C207.528 225.69 207.354 225.835 207.154 225.935C206.954 226.036 206.734 226.09 206.511 226.094C206.418 226.093 206.326 226.112 206.242 226.15C206.157 226.188 206.082 226.244 206.021 226.314C205.961 226.384 205.916 226.467 205.89 226.556C205.865 226.645 205.859 226.738 205.873 226.83C205.93 227.033 205.932 227.247 205.88 227.451C205.828 227.655 205.724 227.842 205.577 227.993C205.28 228.345 205.401 228.729 205.808 228.74C205.995 228.728 206.181 228.78 206.335 228.887C206.489 228.995 206.601 229.152 206.653 229.333C206.774 229.673 207.225 229.673 207.521 229.333C207.765 229.023 208.119 228.818 208.51 228.762ZM207.291 228.553C207.156 228.555 207.023 228.525 206.902 228.466C206.781 228.408 206.676 228.322 206.594 228.215C206.512 228.109 206.456 227.985 206.43 227.853C206.404 227.721 206.409 227.585 206.445 227.455C206.546 227.149 206.738 226.88 206.994 226.684C207.251 226.488 207.561 226.375 207.884 226.358C208.018 226.356 208.151 226.386 208.272 226.445C208.393 226.503 208.499 226.589 208.581 226.696C208.663 226.802 208.719 226.926 208.745 227.058C208.77 227.19 208.765 227.326 208.73 227.455C208.631 227.764 208.44 228.034 208.183 228.23C207.925 228.427 207.614 228.539 207.291 228.553Z" fill="#36363A"/>
<path d="M205.942 216.047C205.587 216.004 205.342 215.617 205.395 215.184C205.448 214.751 205.779 214.435 206.134 214.478C206.489 214.521 206.734 214.908 206.681 215.341C206.628 215.775 206.298 216.091 205.942 216.047Z" fill="#36363A"/>
<path d="M109 410.278C109 403.318 119.82 403.307 119.82 410.278V530.04H109V410.278Z" fill="#242428"/>
<path d="M64.049 539.108V533.476C64.049 528.92 164.758 528.909 164.758 533.476V539.108H64.049Z" fill="#2F2F33"/>
<path d="M28.8755 282.326C29.6554 276.705 38.1907 279.098 37.4108 284.675C33.8627 309.98 30.0619 336.635 36.9054 361.732C42.244 381.262 54.1186 399.278 72.9247 407.961C78.0875 410.344 73.5947 417.974 68.4538 415.646C48.1429 406.26 34.8513 386.543 28.7657 365.519C20.9555 338.392 25.0418 309.695 28.8755 282.326Z" fill="#2F2F33"/>
<path d="M22.9124 266.526H50.0779C62.7331 266.526 72.9922 276.779 72.9922 289.427V295.773C72.9922 308.42 62.7331 318.673 50.0779 318.673H22.9124C10.2572 318.673 -0.00193024 308.42 -0.00193024 295.773V289.427C-0.00193024 276.779 10.2572 266.526 22.9124 266.526Z" fill="#434347"/>
<path d="M180.909 256.307C181.88 256.48 182.878 256.432 183.828 256.168C184.779 255.904 185.658 255.43 186.401 254.781C187.518 253.752 188.235 252.361 188.426 250.855C188.617 249.348 188.269 247.823 187.445 246.547C187.406 246.478 187.395 246.397 187.413 246.32C187.431 246.243 187.478 246.175 187.543 246.13C189.163 245.326 190.57 244.153 191.652 242.705C192.037 242.134 192.276 241.476 192.347 240.791C192.418 240.105 192.319 239.413 192.058 238.775L183.534 244.934C183.226 245.164 182.908 244.648 183.215 244.418L192.003 238.072C192.071 238.03 192.152 238.016 192.23 238.032C192.308 238.048 192.376 238.094 192.421 238.16C192.813 238.874 193.008 239.679 192.987 240.493C192.965 241.307 192.728 242.1 192.3 242.793C191.24 244.364 189.795 245.637 188.104 246.493C188.61 247.364 188.927 248.333 189.033 249.336C189.139 250.339 189.032 251.353 188.719 252.311C188.371 253.322 187.793 254.239 187.031 254.99C186.268 255.741 185.342 256.304 184.325 256.636C183.177 257.03 181.948 257.121 180.755 256.9C180.392 256.823 180.524 256.241 180.909 256.307Z" fill="#FF6737"/>
<path d="M183.413 244.68L192.113 238.335C192.113 238.335 194.991 242.386 187.774 246.382C188.752 249.105 190.949 256.076 180.898 256.603" fill="url(#paint16_linear_12400_57954)"/>
<path d="M69.4207 398.389H161.902C168.066 398.389 173.062 403.38 173.062 409.537C173.062 415.694 168.066 420.686 161.902 420.686H69.4207C63.2569 420.686 58.2601 415.694 58.2601 409.537C58.2601 403.38 63.2569 398.389 69.4207 398.389Z" fill="#434347"/>
<path d="M402.298 441.136C403.111 434.848 396.429 431.403 392.096 429.843C392.806 423.126 394.593 416.88 396.825 411.347C401.136 418.01 408.897 428.367 410.072 418.73C411.06 410.654 404.871 406.731 399.76 404.886C405.309 393.933 411.7 387.077 411.7 387.077C411.7 387.077 414.676 388.748 418.918 391.971C417.464 395.5 416.199 400.374 418.925 402.758C421.769 405.24 422.722 399.763 423.034 395.292C428.472 399.944 434.863 406.509 439.87 414.883C436.108 417.351 429.794 422.211 433.208 425.198C436.769 428.311 440.913 423.029 442.735 420.249C444.446 423.833 445.871 427.687 446.852 431.819C447.241 433.469 447.526 435.022 447.721 436.505C442.923 436.29 428.653 436.318 431.88 444.519C434.821 451.992 443.799 446.453 447.93 443.382C446.379 461.115 427.436 460.755 420.941 445.975C419.008 464.782 394.732 469.94 392.006 441.226C395.135 443.791 401.408 448.027 402.298 441.136Z" fill="url(#paint17_linear_12400_57954)"/>
<path d="M413.659 393.345C413.659 393.345 425.126 458.537 423.269 510.447" stroke="#00FFA3" stroke-miterlimit="10" stroke-linecap="round" stroke-linejoin="round"/>
<path d="M431.007 445.108C434.852 440.893 429.853 434.64 426.911 431.597C430.868 426.987 435.402 423.229 439.908 420.207C440.339 426.508 441.966 440.124 447.87 433.531C452.988 427.812 447.961 421.212 444.171 417.538C454.574 411.486 463.739 409.281 463.739 409.281C463.739 409.281 465.958 413.039 468.28 419.118C465.318 420.782 461.389 423.701 462.696 426.917C464.003 430.141 467.508 426.508 469.831 423.52C471.806 429.676 473.503 437.351 473.523 445.607C469.163 445.552 463.127 446.065 464.504 449.441C465.832 452.72 470.22 452.13 473.266 451.257C472.905 454.987 472.16 458.779 470.909 462.564C470.777 462.959 470.644 463.34 470.505 463.721C465.777 460.844 455.464 455.409 454.518 462.078C453.621 468.408 462.898 469.253 467.988 469.247C458.016 486.744 439.901 476.449 441.987 460.463C430.819 474.439 407.44 465.787 420.36 441.212C420.805 440.373 421.264 439.548 421.751 438.751C422.676 441.247 426.473 450.078 431.007 445.108Z" fill="url(#paint18_linear_12400_57954)"/>
<path d="M390.509 464.084C389.375 458.947 382.421 458.968 378.103 459.502C376.747 454.074 376.49 448.583 376.837 443.46C382.637 446.836 392.588 451.675 390.787 443.828C389.278 437.249 382.616 436.715 377.533 437.339C379.223 426.746 382.88 418.947 382.88 418.947C382.88 418.947 386.017 419.037 390.738 419.814C390.488 423.093 390.808 427.329 393.93 428.07C397.192 428.84 396.42 424.264 395.377 420.722C401.58 422.115 409.201 424.59 416.127 429.006C413.513 432.396 409.34 438.635 413.255 439.557C417.337 440.521 419.458 434.829 420.258 431.973C422.838 434.039 425.244 436.417 427.33 439.19C428.165 440.292 428.874 441.374 429.486 442.427C425.16 444.174 412.49 449.887 417.782 454.878C422.601 459.426 428.943 451.613 431.704 447.606C435.564 461.796 418.624 469.075 408.492 460.341C412.33 475.509 392.282 489.131 381.378 468.237C384.925 468.971 391.747 469.713 390.509 464.084Z" fill="url(#paint19_linear_12400_57954)"/>
<path d="M461.074 414.35C461.074 414.35 439.997 456.062 426.673 510.44" stroke="#00FFA3" stroke-miterlimit="10" stroke-linecap="round" stroke-linejoin="round"/>
<path d="M386.069 424.242C386.069 424.242 419.545 461.629 421.715 512.61" stroke="#00FFA3" stroke-miterlimit="10" stroke-linecap="round" stroke-linejoin="round"/>
<path d="M405.36 496.554H444.017C444.017 496.554 444.177 498.668 444.107 501.919H405.263C405.207 498.668 405.36 496.554 405.36 496.554Z" fill="#4991FF"/>
<path d="M435.155 533.629V534.093H414.223V533.629C406.122 528.402 406.435 516.942 405.566 507.32H443.812C442.943 516.936 443.256 528.395 435.155 533.629Z" fill="#4991FF"/>
<path d="M443.818 507.32H405.571C405.391 505.324 405.307 503.494 405.272 501.92H444.117C444.082 503.487 443.999 505.324 443.818 507.32Z" fill="#4991FF"/>
<path d="M414.229 534.093H435.16V539.493H414.229V534.093Z" fill="#4991FF"/>
<g opacity="0.03">
<path d="M398.206 112.973V136.45H388.551L409.373 156.707L428.882 136.867H419.028V112.973H398.206Z" fill="white"/>
</g>
<path opacity="0.03" d="M466.08 41.8804C459.849 17.7971 438.013 0 411.957 0C394.276 0 378.555 8.19362 368.286 20.9651C366.524 20.766 364.729 20.6333 362.901 20.6333C337.227 20.6333 316.422 41.3994 316.422 67.0252C316.422 92.651 337.227 113.417 362.901 113.417H464.119C483.944 113.417 499.997 97.3781 499.997 77.6072C500.014 58.4832 484.991 42.9087 466.08 41.8804Z" fill="white"/>
<path d="M476.799 100.909C476.716 100.776 478.727 99.5156 481.386 96.8618C484.045 94.2246 487.268 89.9951 489.229 84.6045C491.19 79.214 491.406 73.9064 491.057 70.1745C490.708 66.426 489.977 64.1703 490.127 64.1371C490.177 64.1205 490.409 64.6678 490.725 65.6796C491.041 66.6914 491.406 68.2007 491.655 70.1081C492.171 73.8898 492.054 79.3467 490.044 84.9031C488.033 90.4595 484.643 94.7388 481.818 97.3096C480.405 98.6034 479.159 99.5322 478.262 100.113C477.364 100.693 476.833 100.959 476.799 100.909Z" fill="#252629"/>
<path d="M369.586 34.5334C369.553 34.6993 367.027 34.0524 362.856 33.9529C358.718 33.8368 352.885 34.4837 347.086 37.0214C341.27 39.5591 336.833 43.3905 334.124 46.5087C331.366 49.6269 330.119 51.9159 329.986 51.8329C329.937 51.7997 330.202 51.2192 330.784 50.1909C331.366 49.1625 332.313 47.7361 333.659 46.1106C336.301 42.8431 340.788 38.8293 346.754 36.2418C352.703 33.6378 358.702 33.0738 362.889 33.3558C365 33.4885 366.695 33.7539 367.841 34.0193C368.971 34.268 369.586 34.4837 369.586 34.5334Z" fill="#252629"/>
<path d="M408.208 96.432L368.934 73.8034L408.208 51.1748L447.483 73.8034L408.208 96.432ZM372.339 73.7866L408.208 94.4467L444.078 73.7866L408.208 53.1264L372.339 73.7866Z" fill="#252629"/>
<g clip-path="url(#clip0_12400_57954)">
<path d="M410.655 27.29L390.532 45.1445L373.367 76.6802H388.847L410.655 27.29ZM413.331 31.4669L404.744 56.2333L421.207 77.4017L389.265 83.018H441.614L413.331 31.4669Z" fill="#0072C6"/>
</g>
<defs>
<linearGradient id="paint0_linear_12400_57954" x1="135.815" y1="490.704" x2="110.682" y2="490.704" gradientUnits="userSpaceOnUse">
<stop stop-color="#CE846D"/>
<stop offset="1" stop-color="#CE694A"/>
</linearGradient>
<linearGradient id="paint1_linear_12400_57954" x1="176.019" y1="498.005" x2="150.885" y2="498.005" gradientUnits="userSpaceOnUse">
<stop stop-color="#FFCCBC"/>
<stop offset="1" stop-color="#FFAB91"/>
</linearGradient>
<linearGradient id="paint2_linear_12400_57954" x1="180.772" y1="225.471" x2="116.778" y2="333.41" gradientUnits="userSpaceOnUse">
<stop stop-color="#FFA98E"/>
<stop offset="1" stop-color="#FF8863"/>
</linearGradient>
<linearGradient id="paint3_linear_12400_57954" x1="196.285" y1="233.518" x2="130.286" y2="344.842" gradientUnits="userSpaceOnUse">
<stop stop-color="#FFA98E"/>
<stop offset="1" stop-color="#FF8863"/>
</linearGradient>
<linearGradient id="paint4_linear_12400_57954" x1="206.233" y1="240.568" x2="142.239" y2="348.507" gradientUnits="userSpaceOnUse">
<stop stop-color="#FFA98E"/>
<stop offset="1" stop-color="#FF8863"/>
</linearGradient>
<linearGradient id="paint5_linear_12400_57954" x1="203.148" y1="239.645" x2="139.154" y2="347.584" gradientUnits="userSpaceOnUse">
<stop stop-color="#FFA98E"/>
<stop offset="1" stop-color="#FF8863"/>
</linearGradient>
<linearGradient id="paint6_linear_12400_57954" x1="200.4" y1="237.9" x2="136.405" y2="345.839" gradientUnits="userSpaceOnUse">
<stop stop-color="#FFA98E"/>
<stop offset="1" stop-color="#FF8863"/>
</linearGradient>
<linearGradient id="paint7_linear_12400_57954" x1="195.829" y1="234.257" x2="131.834" y2="342.196" gradientUnits="userSpaceOnUse">
<stop stop-color="#FFA98E"/>
<stop offset="1" stop-color="#FF8863"/>
</linearGradient>
<linearGradient id="paint8_linear_12400_57954" x1="139.617" y1="188.428" x2="127.062" y2="186.065" gradientUnits="userSpaceOnUse">
<stop stop-color="#FFCCBC"/>
<stop offset="1" stop-color="#FFAB91"/>
</linearGradient>
<linearGradient id="paint9_linear_12400_57954" x1="127.357" y1="204.291" x2="123.996" y2="203.664" gradientUnits="userSpaceOnUse">
<stop stop-color="#FFCCBC"/>
<stop offset="1" stop-color="#FFAB91"/>
</linearGradient>
<linearGradient id="paint10_linear_12400_57954" x1="226.99" y1="277.987" x2="115.544" y2="335.754" gradientUnits="userSpaceOnUse">
<stop stop-color="#FFCCBC"/>
<stop offset="1" stop-color="#FFAB91"/>
</linearGradient>
<linearGradient id="paint11_linear_12400_57954" x1="234.481" y1="293.676" x2="125.045" y2="350.421" gradientUnits="userSpaceOnUse">
<stop stop-color="#FFCCBC"/>
<stop offset="1" stop-color="#FFAB91"/>
</linearGradient>
<linearGradient id="paint12_linear_12400_57954" x1="240.596" y1="304.259" x2="129.161" y2="362.026" gradientUnits="userSpaceOnUse">
<stop stop-color="#FFCCBC"/>
<stop offset="1" stop-color="#FFAB91"/>
</linearGradient>
<linearGradient id="paint13_linear_12400_57954" x1="238.463" y1="300.142" x2="127.028" y2="357.92" gradientUnits="userSpaceOnUse">
<stop stop-color="#FFCCBC"/>
<stop offset="1" stop-color="#FFAB91"/>
</linearGradient>
<linearGradient id="paint14_linear_12400_57954" x1="236.412" y1="296.179" x2="124.977" y2="353.957" gradientUnits="userSpaceOnUse">
<stop stop-color="#FFCCBC"/>
<stop offset="1" stop-color="#FFAB91"/>
</linearGradient>
<linearGradient id="paint15_linear_12400_57954" x1="233.557" y1="290.658" x2="122.111" y2="348.436" gradientUnits="userSpaceOnUse">
<stop stop-color="#FFCCBC"/>
<stop offset="1" stop-color="#FFAB91"/>
</linearGradient>
<linearGradient id="paint16_linear_12400_57954" x1="178.701" y1="246.624" x2="206.459" y2="249.635" gradientUnits="userSpaceOnUse">
<stop stop-color="#FFA98E"/>
<stop offset="1" stop-color="#FF8863"/>
</linearGradient>
<linearGradient id="paint17_linear_12400_57954" x1="419.968" y1="387.077" x2="419.968" y2="461.421" gradientUnits="userSpaceOnUse">
<stop stop-color="#00FFA3"/>
<stop offset="1" stop-color="#00FFA3" stop-opacity="0"/>
</linearGradient>
<linearGradient id="paint18_linear_12400_57954" x1="445.048" y1="409.281" x2="445.048" y2="478.374" gradientUnits="userSpaceOnUse">
<stop stop-color="#00FFA3"/>
<stop offset="1" stop-color="#00FFA3" stop-opacity="0"/>
</linearGradient>
<linearGradient id="paint19_linear_12400_57954" x1="404.482" y1="418.947" x2="404.482" y2="478.924" gradientUnits="userSpaceOnUse">
<stop stop-color="#00FFA3"/>
<stop offset="1" stop-color="#00FFA3" stop-opacity="0"/>
</linearGradient>
<clipPath id="clip0_12400_57954">
<rect width="68.2466" height="55.7328" fill="white" transform="translate(373.367 27.2881)"/>
</clipPath>
</defs>
</svg>
