<svg width="32" height="32" viewBox="0 0 32 32" fill="none" xmlns="http://www.w3.org/2000/svg">
<path d="M16.5293 5.07246L15.7639 0H4.53379C2.84277 0 1.5 1.37773 1.5 3.06855V24.3045C1.5 25.9953 2.84277 27.3451 4.53379 27.3451H15.1865L22.8611 15.725V7.43828L16.5293 5.07246Z" fill="#00ACEA"/>
<path d="M15.7656 0.00708008L22.842 7.43833H18.1314C16.8232 7.43833 15.7656 6.38071 15.7656 5.07251V0.00708008Z" fill="#00EFD1"/>
<path d="M15.4926 15.9337H6.42637C6.04375 15.9337 5.73047 16.247 5.73047 16.6296C5.73047 17.0124 6.04375 17.3253 6.42637 17.3253H15.4926C15.8752 17.3253 16.1885 17.0124 16.1885 16.6296C16.1885 16.247 15.8824 15.9337 15.4926 15.9337Z" fill="#083863"/>
<path d="M6.42637 13.8464H13.4748C13.8574 13.8464 14.1707 13.5333 14.1707 13.1505C14.1707 12.7679 13.8574 12.4548 13.4748 12.4548H6.42637C6.04375 12.4548 5.73047 12.7679 5.73047 13.1505C5.73047 13.5333 6.04375 13.8464 6.42637 13.8464Z" fill="#083863"/>
<path d="M13.2033 19.4824H6.42637C6.04375 19.4824 5.73047 19.7957 5.73047 20.1781C5.73047 20.5609 6.04375 20.874 6.42637 20.874H13.2033C13.5861 20.874 13.8992 20.5609 13.8992 20.1781C13.8992 19.7957 13.5861 19.4824 13.2033 19.4824Z" fill="#083863"/>
<path d="M22.8404 14.3406C27.1545 14.9457 30.4732 18.6475 30.4732 23.1283C30.4732 28.0268 26.5004 32 21.602 32C18.2344 32 15.298 30.1213 13.802 27.352C13.1201 26.0926 12.7305 24.6523 12.7305 23.1215C12.7305 18.223 16.7035 14.25 21.602 14.25C22.0195 14.257 22.4299 14.285 22.8404 14.3406Z" fill="#FEDB41"/>
<path d="M22.0963 17.9934C21.9643 17.8543 21.7832 17.7708 21.5885 17.7708C21.3936 17.7708 21.2127 17.8543 21.0805 17.9934L17.0029 22.3702C16.7387 22.6485 16.7596 23.0938 17.0379 23.351C17.1699 23.4764 17.3441 23.5391 17.5111 23.5391C17.6988 23.5391 17.8936 23.4624 18.0328 23.3165L20.9135 20.2338V27.8323C20.9135 28.2149 21.2266 28.5282 21.6092 28.5282C21.992 28.5282 22.3051 28.2149 22.3051 27.8323V20.2338L25.1649 23.3165C25.4293 23.5948 25.8608 23.6155 26.1459 23.351C26.4242 23.0868 26.4381 22.6485 26.1807 22.3702L22.0963 17.9934Z" fill="#083863"/>
</svg>
