<svg width="101" height="31" viewBox="0 0 101 31" fill="none" xmlns="http://www.w3.org/2000/svg">
<g clip-path="url(#clip0_10063_18203)">
<path d="M30.7311 19.3965C30.7311 19.9084 30.8241 20.3212 31.1005 20.7368C31.6267 21.4716 32.5808 21.9835 33.6598 22.1734C34.4917 22.333 35.2624 22.333 36.0969 22.1734C37.2371 22.0137 38.2869 21.5349 38.9646 20.5441L40.2908 21.3753C39.3951 22.8751 37.8856 23.5164 36.3122 23.7723C35.3873 23.9319 34.5528 23.9649 33.6279 23.8026C32.0546 23.5466 30.6354 22.8118 29.8354 21.6945C29.3411 20.9597 29.1577 20.1616 29.1577 19.2672V12.1779C29.1577 10.0699 30.6992 8.75989 32.7057 8.18472C34.1568 7.76916 35.7302 7.76916 37.1786 8.18472C41.1891 9.43139 41.8668 14.9547 38.1354 16.9995C35.9773 18.2132 32.7987 17.7646 30.7311 17.7646V19.3965V19.3965ZM30.7311 16.361C32.0572 16.2977 35.3262 16.6473 37.3939 15.6262C40.0144 14.3493 39.5227 10.5157 36.7773 9.7176C35.6053 9.39837 34.2791 9.39837 33.107 9.7176C31.7808 10.1001 30.7311 10.9313 30.7311 12.1779V16.361Z" fill="white"/>
<path d="M46.4936 1.31836V8.05812H50.1639V9.49468C48.9307 9.49468 47.7268 9.49468 46.4936 9.52771V19.3332C46.4936 22.0165 48.4072 22.2724 50.4429 22.3357V23.8053C47.6364 23.9649 44.9522 22.9109 44.9522 19.3663V9.49468H42.2998V8.05812H44.9522V1.31836H46.4936Z" fill="white"/>
<path d="M57.382 23.8989L53.5257 19.8093C52.5397 18.7553 52.3218 18.1801 52.3218 17.0958V8.08838H53.8951V17.0958C53.8951 17.7673 53.9881 17.9902 54.4187 18.4691L57.6584 21.9834L60.8981 18.4691C61.3606 17.9902 61.4536 17.7646 61.4536 17.0958V8.08838H62.995V17.0958C62.995 17.7673 63.0881 17.9902 63.5505 18.4691L66.7902 21.9834L70.0299 18.4691C70.4605 17.9902 70.5535 17.7646 70.5535 17.0958V8.08838H72.1269V17.0958C72.1269 18.1829 71.9116 18.758 70.9256 19.8093L67.0693 23.8989H66.4819L62.2243 19.2369L57.9667 23.8989H57.382V23.8989Z" fill="#00FFA3"/>
<path d="M76.6927 19.3965C76.6927 19.9084 76.7857 20.3212 77.0621 20.7368C77.5857 21.4716 78.5424 21.9835 79.6215 22.1734C80.4533 22.333 81.2241 22.333 82.0586 22.1734C83.1987 22.0137 84.2485 21.5349 84.9262 20.5442L86.2524 21.3753C85.3567 22.8751 83.8472 23.5164 82.2738 23.7723C81.349 23.9319 80.5171 23.9649 79.5896 23.8026C78.0162 23.5466 76.597 22.8118 75.7971 21.6945C75.3027 20.9597 75.1167 20.1616 75.1167 19.2672V12.1779C75.1167 10.0699 76.6581 8.75989 78.6647 8.18472C80.1158 7.76916 81.6891 7.76916 83.1376 8.18472C87.148 9.43139 87.8257 14.9547 84.0943 16.9995C81.9363 18.2132 78.7577 17.7646 76.6927 17.7646V19.3965ZM76.6927 16.361C78.0189 16.2977 81.2878 16.6473 83.3555 15.6262C85.976 14.3493 85.4843 10.5157 82.7389 9.71761C81.5669 9.39837 80.2407 9.39837 79.0687 9.71761C77.7425 10.1001 76.6927 10.9313 76.6927 12.1779V16.361Z" fill="#00FFA3"/>
<path d="M91.0072 1.25226V9.90744C93.5373 6.80864 101 7.95899 101 12.7173V19.7763C101 21.8843 99.4586 23.2246 97.452 23.7695C95.1691 24.408 92.1154 23.7998 90.8822 21.9807V23.7365H89.4312C89.4312 16.2316 89.4312 8.72406 89.4312 1.24951H91.0072V1.25226ZM91.0072 19.0773C91.0072 21.5046 93.2901 22.4623 95.2329 22.4623C95.8495 22.4623 96.4979 22.399 97.0534 22.2394C98.3796 21.8568 99.4294 21.0257 99.4294 19.779V12.6567C99.4294 8.63325 91.0072 8.95248 91.0072 12.4338V19.0773Z" fill="#00FFA3"/>
<path d="M16.855 13.9721V15.1115H20.0921C19.5606 18.4222 16.7859 20.9568 13.4426 20.9568C9.72181 20.9568 6.69737 17.8222 6.69737 13.9721C6.69737 10.1193 9.72447 6.98744 13.4426 6.98744C13.6286 6.98744 13.812 7.0012 13.9927 7.01771V3.20888C13.8093 3.20063 13.6286 3.18136 13.4426 3.18136C8.4541 3.18136 4.29216 6.81131 3.26895 11.6549H1.25708C2.31484 5.68297 7.37508 1.1421 13.4426 1.1421V0C6.37313 0 0.579375 5.63068 0 12.7942H4.19914C4.74131 8.21485 8.38765 4.62343 12.8898 4.34823V5.87286C8.81554 6.16733 5.59443 9.67343 5.59443 13.9694C5.59443 18.458 9.10789 22.0962 13.4426 22.0962C17.7773 22.0962 21.2907 18.458 21.2907 13.9694H16.855V13.9721Z" fill="white"/>
<path d="M4.34805 16.0664H0.101074C0.874461 21.3916 4.55535 25.7233 9.4136 27.2975V30.3027H10.5139V26.4334C6.09681 25.3215 2.59664 21.7549 1.45118 17.2058H3.50557C4.79189 21.4439 8.52859 24.551 13.0015 24.7436V27.2452H14.1018V23.5877C13.8812 23.6043 13.6606 23.6235 13.4373 23.6235C8.99635 23.6235 5.27559 20.3844 4.34805 16.0664Z" fill="white"/>
<path d="M25.7584 13.4492H24.6421C24.6501 13.6309 24.6687 13.8097 24.6687 13.9941C24.6687 18.0837 22.6276 21.6861 19.5474 23.7776V25.1261C23.2655 22.908 25.769 18.7579 25.769 13.9941C25.7717 13.8125 25.7663 13.6281 25.7584 13.4492Z" fill="white"/>
<path d="M15.332 12.5413C14.6702 12.0432 14.4098 12.2936 14.3088 12.5C14.2636 12.5991 14.1653 12.6596 14.0643 12.6596C14.0536 12.6596 14.0457 12.6596 14.035 12.6569C13.8995 12.6431 13.7932 12.5275 13.7905 12.3872C13.7746 11.7982 14.1467 11.2065 14.1467 11.2065C14.6224 11.5616 15.029 12.0184 15.332 12.5413Z" fill="#00FFA3"/>
<path d="M15.9438 14.8363C15.9438 15.3675 15.8561 15.8766 15.6913 16.3472C15.5531 16.105 15.5027 15.816 15.4867 15.5629C15.4708 15.2821 15.2263 15.0702 14.9578 15.1143C14.9525 15.1143 14.9472 15.117 14.9419 15.117C14.5698 15.1721 14.227 14.8996 14.1791 14.5143C14.1552 14.3409 14.1499 14.1841 14.1552 14.041C14.1552 14.041 14.2084 13.3585 14.522 13.031C14.5857 12.9649 14.6389 12.9126 14.6894 12.8769C14.7585 12.8246 14.8462 12.8026 14.9312 12.8136C15.2395 12.8548 15.4708 12.7998 15.4708 12.7998C15.7737 13.4135 15.9438 14.1043 15.9438 14.8363Z" fill="#00FFA3"/>
<path d="M12.324 11.1046L11.8031 11.8091C11.734 11.2697 11.1174 10.8073 11.2795 10.8211C12.0954 10.8927 12.324 11.1046 12.324 11.1046Z" fill="#00FFA3"/>
<path d="M11.2417 11.8502C11.4065 12.0786 11.3268 12.4061 11.0743 12.5244C10.6916 12.706 10.168 12.9923 9.92882 13.3005C9.82782 13.4298 9.66305 13.4876 9.50624 13.4491C9.30958 13.3968 9.06241 13.4023 8.91358 13.6693C8.6425 14.1619 9.69494 14.726 9.63381 15.3563C9.63381 15.3535 9.63381 15.3508 9.63116 15.3508C9.59395 15.1966 9.4903 15.0701 9.34678 15.0068C8.97736 14.8416 8.64515 14.5857 8.4352 14.1894C7.97542 13.3225 8.30231 12.2905 8.62389 11.619C9.02255 11.2199 9.49296 10.9035 10.0165 10.686C10.0192 10.6833 10.7368 11.1456 11.2417 11.8502Z" fill="#00FFA3"/>
<path d="M12.2545 16.1683C12.6585 16.4215 12.7542 16.9884 12.4539 17.3654C12.2864 17.5773 12.0924 17.8058 11.8984 18.0259L11.226 18.7635C10.9071 19.1075 10.7848 19.2231 10.7848 19.2231C10.3835 18.6204 10.527 17.4755 10.527 17.4755L10.1071 17.17C9.79884 16.9471 9.62875 16.5673 9.67393 16.1793C9.71379 15.8188 9.67924 15.5381 9.63672 15.3509C9.99285 15.2353 10.3543 15.1775 10.6094 15.15C10.8088 15.128 11.0054 15.1968 11.1489 15.3399C11.4333 15.6261 11.8771 15.9316 12.2545 16.1683Z" fill="#00FFA3"/>
</g>
<defs>
<clipPath id="clip0_10063_18203">
<rect width="101" height="30.3" fill="white"/>
</clipPath>
</defs>
</svg>
