<svg width="18" height="18" viewBox="0 0 18 18" fill="none" xmlns="http://www.w3.org/2000/svg">
<rect width="18" height="18" rx="9" fill="#00FFA3"/>
<path d="M5.75172 8.44253C5.44384 8.16544 4.96962 8.19039 4.69253 8.49828C4.41544 8.80616 4.44039 9.28038 4.74828 9.55747L5.75172 8.44253ZM7.75 11.25L7.24828 11.8075C7.53351 12.0642 7.96649 12.0642 8.25172 11.8075L7.75 11.25ZM13.2517 7.30747C13.5596 7.03038 13.5846 6.55616 13.3075 6.24828C13.0304 5.94039 12.5562 5.91544 12.2483 6.19253L13.2517 7.30747ZM4.74828 9.55747L7.24828 11.8075L8.25172 10.6925L5.75172 8.44253L4.74828 9.55747ZM8.25172 11.8075L13.2517 7.30747L12.2483 6.19253L7.24828 10.6925L8.25172 11.8075Z" fill="#121316"/>
</svg>
