<svg width="100" height="100" viewBox="0 0 100 100" fill="none" xmlns="http://www.w3.org/2000/svg">
<rect opacity="0.05" width="100" height="100" rx="16" fill="#FFB156"/>
<g clip-path="url(#clip0_9951_984)">
<path d="M72.8808 43.1364H62.5078L56.6891 29.8129C56.3654 29.0716 55.5019 28.7328 54.7605 29.0567C54.0191 29.3804 53.6805 30.244 54.0043 30.9854L59.311 43.1365H40.6891L45.9957 30.9854C46.3195 30.244 45.981 29.3805 45.2396 29.0567C44.4983 28.7328 43.6346 29.0714 43.311 29.8129L37.4922 43.1364H27.1193C25.7624 43.1364 24.7553 44.3648 25.0522 45.6579L30.5146 69.4499C30.7315 70.3946 31.5903 71.0661 32.5817 71.0661H67.4184C68.4098 71.0661 69.2686 70.3946 69.4855 69.4499L74.9479 45.6579C75.2448 44.3649 74.2376 43.1364 72.8808 43.1364ZM37.7678 47.629C37.5721 47.629 37.3732 47.5895 37.1823 47.5061C36.4409 47.1824 36.1023 46.3189 36.4261 45.5774L37.5265 43.0577H40.7234L39.1109 46.7499C38.8705 47.3006 38.3325 47.629 37.7678 47.629ZM42.6758 63.2536C42.6758 64.0626 42.02 64.7185 41.211 64.7185C40.402 64.7185 39.7461 64.0626 39.7461 63.2536V52.5114C39.7461 51.7024 40.402 51.0466 41.211 51.0466C42.02 51.0466 42.6758 51.7024 42.6758 52.5114V63.2536ZM51.4649 63.2536C51.4649 64.0626 50.809 64.7185 50 64.7185C49.1911 64.7185 48.5352 64.0626 48.5352 63.2536V52.5114C48.5352 51.7024 49.1911 51.0466 50 51.0466C50.809 51.0466 51.4649 51.7024 51.4649 52.5114V63.2536ZM60.2539 63.2536C60.2539 64.0626 59.5981 64.7185 58.7891 64.7185C57.9801 64.7185 57.3243 64.0626 57.3243 63.2536V52.5114C57.3243 51.7024 57.9801 51.0466 58.7891 51.0466C59.5981 51.0466 60.2539 51.7024 60.2539 52.5114V63.2536ZM62.8177 47.5061C62.6269 47.5895 62.428 47.629 62.2323 47.629C61.6676 47.629 61.1295 47.3007 60.8891 46.75L59.2766 43.0578H62.4735L63.5739 45.5775C63.8977 46.3189 63.5591 47.1824 62.8177 47.5061Z" fill="#FFB156"/>
</g>
<defs>
<clipPath id="clip0_9951_984">
<rect width="50" height="50" fill="white" transform="translate(25 25)"/>
</clipPath>
</defs>
</svg>
