<svg width="100" height="100" viewBox="0 0 100 100" fill="none" xmlns="http://www.w3.org/2000/svg">
<rect opacity="0.05" width="100" height="100" rx="16" fill="#00CE60"/>
<path d="M49.9858 31.591C39.0873 22.0587 25.23 30.434 25.0028 41.7882C24.9449 44.6818 25.7802 47.5004 27.4429 50.0989H38.2198L40.1366 46.9041C40.6932 45.9765 42.0402 45.9466 42.6283 46.8714L46.6726 53.2266L52.568 40.7812C53.0821 39.6953 54.6143 39.6608 55.1814 40.7138L60.2349 50.0989H72.5287C81.6356 35.8657 63.6373 19.651 49.9858 31.591Z" fill="#00CE60"/>
<path d="M58.0702 52.2581L53.9752 44.6531L48.1845 56.8777C47.6919 57.9178 46.2429 58.0081 45.6251 57.0371L41.4291 50.4436L40.3049 52.3172C40.0401 52.7584 39.5634 53.0283 39.0489 53.0283H29.7598C30.051 53.3331 28.499 51.7843 48.9524 72.1318C49.5237 72.7002 50.4472 72.7003 51.0185 72.1318C71.1572 52.0973 69.9206 53.3325 70.2112 53.0283H59.3599C58.8209 53.0284 58.3257 52.7325 58.0702 52.2581Z" fill="#00CE60"/>
</svg>
