<svg width="100" height="100" viewBox="0 0 100 100" fill="none" xmlns="http://www.w3.org/2000/svg">
<rect opacity="0.05" width="100" height="100" rx="16" fill="#FF317B"/>
<path d="M68.75 65.4844V65.625C68.75 66.8682 68.2561 68.0605 67.3771 68.9396C66.498 69.8186 65.3057 70.3125 64.0625 70.3125C62.8193 70.3125 61.627 69.8186 60.7479 68.9396C59.8689 68.0605 59.375 66.8682 59.375 65.625H67.1875C67.7115 65.6261 68.2346 65.5791 68.75 65.4844Z" fill="#FF317B"/>
<path d="M40.625 65.625C40.625 66.8682 40.1311 68.0605 39.2521 68.9396C38.373 69.8186 37.1807 70.3125 35.9375 70.3125C34.6943 70.3125 33.502 69.8186 32.6229 68.9396C31.7439 68.0605 31.25 66.8682 31.25 65.625V65.4844C31.7654 65.5791 32.2885 65.6261 32.8125 65.625H40.625Z" fill="#FF317B"/>
<path d="M67.1875 50H32.8125C31.6966 49.8912 30.5823 50.2222 29.7068 50.9226C28.8313 51.623 28.2638 52.6374 28.125 53.75V58.75C28.2638 59.8625 28.8313 60.877 29.7068 61.5774C30.5823 62.2778 31.6966 62.6088 32.8125 62.5H67.1875C68.3034 62.6088 69.4177 62.2778 70.2932 61.5774C71.1687 60.877 71.7362 59.8625 71.875 58.75V53.75C71.7362 52.6374 71.1687 51.623 70.2932 50.9226C69.4177 50.2222 68.3034 49.8912 67.1875 50ZM39.0625 58.6914C38.5796 58.6914 38.1076 58.5482 37.7061 58.2799C37.3046 58.0117 36.9917 57.6304 36.8069 57.1843C36.6222 56.7382 36.5738 56.2473 36.668 55.7737C36.7622 55.3001 36.9947 54.8651 37.3362 54.5237C37.6776 54.1822 38.1126 53.9497 38.5862 53.8555C39.0598 53.7613 39.5507 53.8096 39.9968 53.9944C40.4429 54.1792 40.8242 54.4921 41.0925 54.8936C41.3607 55.2951 41.5039 55.7671 41.5039 56.25C41.5039 56.8975 41.2466 57.5184 40.7888 57.9763C40.3309 58.4341 39.71 58.6914 39.0625 58.6914ZM54.6875 57.8125H45.3125C44.8981 57.8125 44.5007 57.6479 44.2076 57.3548C43.9146 57.0618 43.75 56.6644 43.75 56.25C43.75 55.8356 43.9146 55.4382 44.2076 55.1451C44.5007 54.8521 44.8981 54.6875 45.3125 54.6875H54.6875C55.1019 54.6875 55.4993 54.8521 55.7924 55.1451C56.0854 55.4382 56.25 55.8356 56.25 56.25C56.25 56.6644 56.0854 57.0618 55.7924 57.3548C55.4993 57.6479 55.1019 57.8125 54.6875 57.8125ZM60.9375 58.6914C60.4546 58.6914 59.9826 58.5482 59.5811 58.2799C59.1796 58.0117 58.8667 57.6304 58.6819 57.1843C58.4972 56.7382 58.4488 56.2473 58.543 55.7737C58.6372 55.3001 58.8697 54.8651 59.2112 54.5237C59.5526 54.1822 59.9876 53.9497 60.4612 53.8555C60.9348 53.7613 61.4257 53.8096 61.8718 53.9944C62.3179 54.1792 62.6992 54.4921 62.9675 54.8936C63.2357 55.2951 63.3789 55.7671 63.3789 56.25C63.3789 56.8975 63.1216 57.5184 62.6638 57.9763C62.2059 58.4341 61.585 58.6914 60.9375 58.6914Z" fill="#FF317B"/>
<path d="M68.2656 46.9532C67.9092 46.8955 67.5485 46.8694 67.1875 46.875H32.8125C32.4515 46.8694 32.0908 46.8955 31.7344 46.9532L33.9688 33.6094C34.143 32.5134 34.7033 31.5157 35.5486 30.7965C36.3938 30.0773 37.4683 29.684 38.5781 29.6875H61.4219C62.5317 29.684 63.6062 30.0773 64.4514 30.7965C65.2967 31.5157 65.857 32.5134 66.0313 33.6094L68.2656 46.9532Z" fill="#FF317B"/>
<path d="M32.8125 45.8656C32.447 45.8659 32.093 45.7377 31.8125 45.5033L29.1222 43.2617H26.5625C26.1481 43.2617 25.7507 43.0971 25.4576 42.8041C25.1646 42.511 25 42.1136 25 41.6992C25 41.2848 25.1646 40.8874 25.4576 40.5944C25.7507 40.3013 26.1481 40.1367 26.5625 40.1367H29.6875C30.053 40.1367 30.4069 40.265 30.6875 40.4991L33.8125 43.103C34.0591 43.3085 34.2364 43.5851 34.3202 43.895C34.4041 44.2049 34.3905 44.5331 34.2812 44.8349C34.1719 45.1368 33.9723 45.3977 33.7095 45.5821C33.4468 45.7665 33.1335 45.8655 32.8125 45.8656Z" fill="#FF317B"/>
<path d="M67.189 45.8656C66.8677 45.866 66.5542 45.7674 66.291 45.5832C66.0278 45.399 65.8278 45.1381 65.7182 44.8361C65.6086 44.5341 65.5948 44.2057 65.6786 43.8956C65.7624 43.5854 65.9397 43.3087 66.1865 43.103L69.3115 40.4991C69.5925 40.265 69.9467 40.1368 70.3124 40.1367H73.4374C73.8518 40.1367 74.2493 40.3013 74.5423 40.5944C74.8353 40.8874 74.9999 41.2848 74.9999 41.6992C74.9999 42.1136 74.8353 42.511 74.5423 42.8041C74.2493 43.0971 73.8518 43.2617 73.4374 43.2617H70.8785L68.1884 45.5033C67.908 45.7374 67.5543 45.8657 67.189 45.8656Z" fill="#FF317B"/>
</svg>
