<svg width="100" height="100" viewBox="0 0 100 100" fill="none" xmlns="http://www.w3.org/2000/svg">
<rect opacity="0.05" width="100" height="100" rx="16" fill="#4DFFFF"/>
<path d="M69.1404 63.2812C68.0539 63.2812 67.0371 63.5781 66.1648 64.0934L62.3768 60.3054C61.7501 61.0567 61.0565 61.7503 60.3052 62.3769L64.0933 66.165C63.5779 67.0373 63.2811 68.0541 63.2811 69.1406C63.2811 72.3766 65.9044 75 69.1404 75C72.3765 75 74.9998 72.3766 74.9998 69.1406C74.9998 65.9046 72.3765 63.2812 69.1404 63.2812Z" fill="#4DFFFF"/>
<path d="M30.8594 36.7188C31.9459 36.7188 32.9627 36.4219 33.835 35.9065L37.623 39.6946C38.2497 38.9433 38.9433 38.2497 39.6946 37.623L35.9065 33.835C36.4219 32.9627 36.7188 31.9459 36.7188 30.8594C36.7188 27.6233 34.0954 25 30.8594 25C27.6233 25 25 27.6233 25 30.8594C25 34.0954 27.6233 36.7188 30.8594 36.7188Z" fill="#4DFFFF"/>
<path d="M52.0251 54.3945H47.9749C45.5914 54.3945 43.6523 56.3336 43.6523 58.7171V61.5516C45.5365 62.5911 47.7002 63.1836 50 63.1836C52.2998 63.1836 54.4635 62.5911 56.3477 61.5516V58.7171C56.3477 56.3336 54.4086 54.3945 52.0251 54.3945Z" fill="#4DFFFF"/>
<path d="M63.1836 50C63.1836 42.7306 57.2694 36.8164 50 36.8164C42.7306 36.8164 36.8164 42.7306 36.8164 50C36.8164 53.6551 38.3119 56.9671 40.7227 59.3574V58.7171C40.7227 55.6736 42.608 53.0639 45.2713 51.9896C44.5612 51.0202 44.1406 49.8262 44.1406 48.5352C44.1406 45.3043 46.7691 42.6758 50 42.6758C53.2309 42.6758 55.8594 45.3043 55.8594 48.5352C55.8594 49.8262 55.4388 51.0202 54.7287 51.9896C57.392 53.0639 59.2773 55.6737 59.2773 58.7171V59.3574C61.6881 56.9671 63.1836 53.6551 63.1836 50Z" fill="#4DFFFF"/>
<path d="M50 51.4648C51.618 51.4648 52.9297 50.1532 52.9297 48.5352C52.9297 46.9171 51.618 45.6055 50 45.6055C48.382 45.6055 47.0703 46.9171 47.0703 48.5352C47.0703 50.1532 48.382 51.4648 50 51.4648Z" fill="#4DFFFF"/>
<path d="M62.3768 39.6946L66.1648 35.9065C67.0371 36.4219 68.0539 36.7188 69.1404 36.7188C72.3765 36.7188 74.9998 34.0954 74.9998 30.8594C74.9998 27.6233 72.3765 25 69.1404 25C65.9044 25 63.2811 27.6233 63.2811 30.8594C63.2811 31.9459 63.5779 32.9627 64.0933 33.835L60.3052 37.623C61.0565 38.2497 61.7501 38.9433 62.3768 39.6946Z" fill="#4DFFFF"/>
<path d="M37.623 60.3054L33.835 64.0934C32.9627 63.5781 31.9459 63.2812 30.8594 63.2812C27.6233 63.2812 25 65.9046 25 69.1406C25 72.3766 27.6233 75 30.8594 75C34.0954 75 36.7188 72.3766 36.7188 69.1406C36.7188 68.0541 36.4219 67.0373 35.9065 66.165L39.6946 62.3769C38.9433 61.7503 38.2497 61.0567 37.623 60.3054Z" fill="#4DFFFF"/>
</svg>
