<svg width="100" height="100" viewBox="0 0 100 100" fill="none" xmlns="http://www.w3.org/2000/svg">
<rect opacity="0.05" width="100" height="100" rx="16" fill="#00FFA3"/>
<g clip-path="url(#clip0_9951_1114)">
<path d="M70.5291 39.2972C63.9251 28.447 53.9765 35.9956 53.9765 35.9956C53.3313 36.4832 52.1416 36.8842 51.3332 36.886L48.6685 36.8879C47.8601 36.8888 46.6704 36.4879 46.0261 36.0003C46.0261 36.0003 36.0766 28.4498 29.4716 39.3C22.8685 50.1464 25.5295 61.9587 25.5295 61.9587C25.9957 64.851 27.5323 66.781 30.432 66.5386C33.3233 66.2971 39.5992 58.7495 39.5992 58.7495C40.1176 58.1276 41.2038 57.6194 42.0103 57.6194L57.9858 57.6166C58.7932 57.6166 59.8785 58.1248 60.396 58.7467C60.396 58.7467 66.6728 66.2943 69.5688 66.5358C72.4648 66.7782 74.0051 64.8463 74.4685 61.956C74.4675 61.956 77.1332 50.1454 70.5291 39.2972ZM43.9963 48.1287H40.5707V51.4303C40.5707 51.4303 39.8453 51.9841 38.7227 51.9701C37.602 51.9533 37.0948 51.3659 37.0948 51.3659V48.1296H33.8594C33.8594 48.1296 33.4557 47.7157 33.3475 46.6257C33.2413 45.5357 33.7942 44.6546 33.7942 44.6546H37.2207V41.2291C37.2207 41.2291 37.9255 40.8514 38.9391 40.8804C39.9535 40.9121 40.6966 41.2934 40.6966 41.2934L40.6826 44.6537H43.918C43.918 44.6537 44.483 45.3791 44.5296 46.2555C44.5762 47.1329 43.9963 48.1287 43.9963 48.1287ZM59.7088 51.8918C58.2086 51.8918 56.9993 50.6788 56.9993 49.1804C56.9993 47.6793 58.2086 46.4691 59.7088 46.4691C61.2025 46.4691 62.4211 47.6793 62.4211 49.1804C62.4211 50.6797 61.2025 51.8918 59.7088 51.8918ZM59.7088 44.4318C58.2086 44.4318 56.9993 43.2197 56.9993 41.7214C56.9993 40.2202 58.2086 39.01 59.7088 39.01C61.2025 39.01 62.4211 40.2202 62.4211 41.7214C62.4211 43.2206 61.2025 44.4318 59.7088 44.4318ZM66.4611 48.4364C64.9609 48.4364 63.7516 47.2243 63.7516 45.725C63.7516 44.2248 64.9609 43.0136 66.4611 43.0136C67.9548 43.0136 69.1735 44.2248 69.1735 45.725C69.1735 47.2243 67.9548 48.4364 66.4611 48.4364Z" fill="#00FFA3"/>
</g>
<defs>
<clipPath id="clip0_9951_1114">
<rect width="50" height="50" fill="white" transform="translate(25 25)"/>
</clipPath>
</defs>
</svg>
