<svg width="100" height="100" viewBox="0 0 100 100" fill="none" xmlns="http://www.w3.org/2000/svg">
<rect opacity="0.05" width="100" height="100" rx="16" fill="#4991FF"/>
<path d="M32.3242 74.9023C30.7062 74.9023 29.3945 73.5907 29.3945 71.9727V58.7891C29.3945 57.9801 30.0504 57.3242 30.8594 57.3242H33.7891C34.598 57.3242 35.2539 57.9801 35.2539 58.7891V71.9727C35.2539 73.5907 33.9423 74.9023 32.3242 74.9023Z" fill="#4991FF"/>
<path d="M38.1836 25.0977C37.3746 25.0977 36.7188 25.7535 36.7188 26.5625V32.4219H33.7891V26.5625C33.7891 25.7535 33.1332 25.0977 32.3242 25.0977C31.5152 25.0977 30.8594 25.7535 30.8594 26.5625V32.4219H27.9297V26.5625C27.9297 25.7535 27.2738 25.0977 26.4648 25.0977C25.6559 25.0977 25 25.7535 25 26.5625V33.0814C25 37.0447 27.3154 40.5865 30.8594 42.2046V54.3945H33.7891V42.2046C37.333 40.5865 39.6484 37.0447 39.6484 33.0814V26.5625C39.6484 25.7535 38.9926 25.0977 38.1836 25.0977Z" fill="#4991FF"/>
<path d="M56.9336 74.9023C55.3155 74.9023 54.0039 73.5907 54.0039 71.9727V57.3242H59.8633V71.9727C59.8633 73.5907 58.5517 74.9023 56.9336 74.9023Z" fill="#4991FF"/>
<path d="M49.1211 52.9297V32.2344C46.0475 33.4207 43.2965 35.4013 41.1931 37.9782C38.4338 41.359 36.9141 45.6284 36.9141 50C36.9141 54.7164 38.6521 59.2412 41.8082 62.7407C44.3037 65.5079 47.5255 67.4623 51.0742 68.4016V56.5816C49.8974 55.7923 49.1211 54.4501 49.1211 52.9297Z" fill="#4991FF"/>
<path d="M70.7723 38.0451C68.6642 35.4407 65.8924 33.436 62.793 32.2396V54.3945V57.3242V67.7605C65.8924 66.564 68.6642 64.5593 70.7723 61.9549C73.4985 58.5868 75 54.3412 75 50C75 45.6588 73.4985 41.4132 70.7723 38.0451Z" fill="#4991FF"/>
<path d="M59.8633 54.3945H53.5156C52.7066 54.3945 52.0508 53.7387 52.0508 52.9297V31.4453C52.0508 27.9396 54.8927 25.0977 58.3984 25.0977C59.2074 25.0977 59.8633 25.7535 59.8633 26.5625V54.3945Z" fill="#4991FF"/>
</svg>
