<svg width="100" height="100" viewBox="0 0 100 100" fill="none" xmlns="http://www.w3.org/2000/svg">
<rect opacity="0.05" width="100" height="100" rx="16" fill="#4CFFFF"/>
<g clip-path="url(#clip0_9951_988)">
<path d="M65.8352 34.1924C61.152 29.5093 54.7784 27.1755 48.9957 26.0399C48.7144 28.8181 47.5147 31.586 45.6021 33.8907L49.8861 38.1748L52.1392 35.9217C52.7114 35.3493 53.6393 35.3494 54.2115 35.9217C54.7839 36.4939 54.7839 37.4218 54.2115 37.994L51.9585 40.2472L54.8333 43.122L57.0863 40.8689C57.6587 40.2967 58.5865 40.2967 59.1587 40.8689C59.7311 41.4412 59.7311 42.369 59.1587 42.9413L56.9057 45.1943L59.7805 48.0691L62.0336 45.816C62.6059 45.2436 63.5337 45.2436 64.106 45.816C64.6783 46.3883 64.6783 47.3161 64.106 47.8884L61.8528 50.1415L66.136 54.4247C68.4416 52.504 71.1805 51.3135 73.9876 51.0312C72.8519 45.2485 70.5181 38.8753 65.8352 34.1924Z" fill="#4DFFFF"/>
<path d="M64.0628 56.496L59.7806 52.2138L57.5098 54.4846C57.2236 54.7707 56.8486 54.9137 56.4736 54.9137C56.0986 54.9137 55.7235 54.7707 55.4375 54.4846C54.8651 53.9123 54.8651 52.9845 55.4375 52.4122L57.7083 50.1414L54.8335 47.2666L52.5627 49.5374C52.2766 49.8235 51.9016 49.9666 51.5266 49.9666C51.1516 49.9666 50.7765 49.8235 50.4904 49.5374C49.9181 48.9651 49.9181 48.0373 50.4904 47.465L52.7612 45.1942L49.8864 42.3194L47.6157 44.5902C47.3296 44.8764 46.9546 45.0194 46.5796 45.0194C46.2046 45.0194 45.8295 44.8764 45.5435 44.5902C44.9711 44.018 44.9711 43.0901 45.5435 42.5179L47.8142 40.2471L43.5316 35.9645C41.2246 37.8845 38.4461 39.0925 35.6616 39.3748C36.1804 42.0162 36.9488 44.7806 38.0773 47.4512C41.7211 47.6347 45.3111 49.1144 48.088 51.8912C50.8722 54.6754 52.3526 58.2769 52.5298 61.9305C55.215 63.07 57.9965 63.8445 60.6534 64.3663C60.9353 61.5803 62.1407 58.8045 64.0628 56.496Z" fill="#4DFFFF"/>
<path d="M74.4691 53.9222C74.4287 53.9295 74.3883 53.9361 74.3468 53.94C71.7295 54.1859 69.1613 55.4481 67.1153 57.4941C65.0477 59.5618 63.7651 62.2195 63.5513 64.8489C66.2078 65.215 68.6373 65.3489 70.5836 65.3783C71.7685 65.3949 72.8843 64.9434 73.7244 64.1032C74.5647 63.2631 75.0174 62.1475 74.9996 60.9623C74.97 59.014 74.8359 56.5818 74.4691 53.9222Z" fill="#4DFFFF"/>
<path d="M35.1788 36.4761C37.8071 36.262 40.4689 34.977 42.5337 32.9121C44.6015 30.8443 45.884 28.1866 46.0978 25.5573C43.4411 25.1912 41.0117 25.0574 39.0654 25.028C39.0428 25.0276 39.0203 25.0275 38.9978 25.0275C37.8378 25.0275 36.7487 25.4789 35.9246 26.3031C35.0844 27.1432 34.6317 28.2586 34.6494 29.4439C34.6788 31.3903 34.8127 33.8196 35.1788 36.4761Z" fill="#4DFFFF"/>
<path d="M42.3783 67.7514C40.4957 69.634 39.4961 72.1553 39.5606 74.7838C41.9269 74.3463 44.1886 73.215 46.0153 71.3883C47.8417 69.5619 48.9729 67.2999 49.4106 64.9338C46.7831 64.8718 44.254 65.8758 42.3783 67.7514Z" fill="#4DFFFF"/>
<path d="M36.6334 74.9725C36.5148 71.5009 37.8212 68.1638 40.3061 65.679C42.7817 63.2034 46.1289 61.8918 49.5997 62.0077C49.4421 59.0789 48.2478 56.1959 46.0153 53.9635C43.783 51.7312 40.9 50.5369 37.9712 50.3793C38.0871 53.8503 36.7756 57.1972 34.2998 59.6729C31.9187 62.0541 28.7549 63.3535 25.4401 63.3535C25.2937 63.3535 25.147 63.3503 25 63.3452C25.1616 66.3847 26.4218 69.2196 28.5905 71.3884C30.8225 73.62 33.7053 74.8142 36.6334 74.9725Z" fill="#4DFFFF"/>
<path d="M32.2276 57.6005C34.1033 55.7248 35.1076 53.1965 35.0453 50.5682C32.6791 51.0059 30.4172 52.1371 28.5907 53.9636C26.8051 55.7493 25.6358 57.9868 25.188 60.4181C27.8188 60.4844 30.3432 59.4848 32.2276 57.6005Z" fill="#4DFFFF"/>
</g>
<defs>
<clipPath id="clip0_9951_988">
<rect width="50" height="50" fill="white" transform="translate(25 25)"/>
</clipPath>
</defs>
</svg>
