<svg width="100" height="100" viewBox="0 0 100 100" fill="none" xmlns="http://www.w3.org/2000/svg">
<rect opacity="0.05" width="100" height="100" rx="16" fill="#C956FF"/>
<g clip-path="url(#clip0_9951_1117)">
<path d="M75 49.1562C75 60.6392 66.5301 70.181 55.5098 71.8635C55.6028 71.3538 55.6288 70.8261 55.5663 70.2913C55.5663 70.2913 55.5004 69.7285 55.4143 68.992C59.327 68.3254 62.8595 66.5301 65.6594 63.9481C65.4913 63.8083 65.3239 63.627 65.1589 63.3864C64.4153 62.3013 65.3877 61.2247 65.3877 60.2758C65.3877 59.3451 63.5113 59.4216 63.4426 58.8052C63.2055 56.6704 64.7526 56.6413 65.5774 55.8165C66.4023 54.9917 64.7622 53.1164 63.7028 53.2374C62.6362 53.3513 59.634 52.7449 59.9083 50.4479C60.2426 47.6502 56.344 47.8971 55.7858 46.5913C54.972 44.6879 56.3248 42.3533 58.0894 41.8229C60.5887 41.0717 63.0509 39.0327 62.8586 36.7629C62.6407 34.1922 61.4771 31.8739 59.5607 30.4967C57.5664 29.6887 55.416 29.1891 53.1662 29.0631C51.1582 29.1425 49.3929 29.5887 49.4734 30.508C49.6709 32.7608 56.077 33.3459 55.002 35.4518C54.4416 36.5496 50.2354 38.099 51.0209 39.7329C51.5319 40.7954 52.7893 39.8847 52.3198 41.9245C52.1038 42.8631 51.2809 44.6266 50.0153 44.7404C48.7211 44.8612 47.6434 41.4326 44.1207 41.3202C42.4553 41.2669 40.1091 43.9186 42.1013 45.7998C43.3077 46.939 45.5715 44.4306 46.2396 46.39C46.7105 47.7708 46.1762 50.6715 48.3737 51.8837C49.1747 52.3257 50.4028 52.7109 51.6173 53.328C49.8146 53.6962 47.5996 54.3831 44.984 55.3906L42.7802 54.8092C43.7028 54.0412 45.2017 53.5006 44.8246 51.8225C44.2706 49.357 39.9898 50.2868 37.0386 47.3357C36.1332 46.4305 34.202 43.4245 34.21 39.8131C32.7389 42.6074 31.9016 45.7851 31.9016 49.1563C31.9016 50.194 31.9808 51.2136 32.133 52.2094C32.0983 52.2088 32.064 52.2028 32.0293 52.2028C31.0999 52.2028 30.1884 52.398 29.3436 52.7672C29.157 51.5904 29.0574 50.385 29.0574 49.1564C29.0574 36.4901 39.3624 26.1848 52.0286 26.1848C64.695 26.1847 75 36.49 75 49.1562ZM57.7687 55.8516L52.1584 58.4305L52.2454 57.208L55.8799 55.5673C55.3615 55.5302 54.8244 55.5161 54.2881 55.5161C52.2801 55.5161 48.8873 56.5326 45.1349 58.0221L33.1 54.8476C31.9753 54.5509 30.7779 54.7337 29.7929 55.3525L29.2011 55.7243C28.6234 56.0872 28.6173 56.927 29.1896 57.2985L36.424 61.9919C34.6958 62.8757 33.0562 63.7734 31.6108 64.6306L27.8985 62.6653C27.2922 62.3443 26.5752 62.3062 25.9384 62.5613L25.587 62.7021C25.063 62.9118 24.8435 63.535 25.1204 64.027L27.1654 67.6603L27.1663 67.66C26.3948 68.3238 25.9551 68.8743 25.9551 69.2552C25.9551 70.3954 27.3582 70.6804 28.5949 70.6804C30.8008 70.6804 59.9321 64.0104 59.9321 57.9676C59.9319 56.7708 59.1135 56.1723 57.7687 55.8516ZM45.4862 67.6498L51.8966 65.3916C52.1789 65.2921 52.4806 65.4803 52.5154 65.7777L53.0774 70.5828C53.2179 71.7836 52.5721 72.9391 51.4758 73.4487L50.8746 73.7281C50.4991 73.9026 50.0537 73.8091 49.7801 73.4984L45.2908 68.3987C45.0723 68.1503 45.1741 67.7597 45.4862 67.6498Z" fill="#C956FF"/>
</g>
<defs>
<clipPath id="clip0_9951_1117">
<rect width="50" height="50" fill="white" transform="translate(25 25)"/>
</clipPath>
</defs>
</svg>
