<svg width="100" height="100" viewBox="0 0 100 100" fill="none" xmlns="http://www.w3.org/2000/svg">
<rect opacity="0.05" width="100" height="100" rx="16" fill="#C956FF"/>
<path d="M71.615 32.0444C68.2583 28.4487 64.5858 26.6263 60.6977 26.6263C56.2873 26.6263 52.309 29.3153 49.9801 33.7582C47.6571 29.3153 43.708 26.6263 39.3419 26.6263C35.4747 26.6263 31.9058 28.3961 28.4322 32.0377C24.4489 36.2124 22.7584 45.8235 29.948 53.0115C33.3615 56.4258 49.2582 72.9508 49.4178 73.1171C49.5758 73.2809 49.7938 73.3737 50.0203 73.3737C50.2476 73.3737 50.4649 73.2809 50.6229 73.1171C50.7825 72.9508 66.68 56.4258 70.0934 53.0115C77.2119 45.893 75.5515 36.26 71.615 32.0444ZM64.9977 48.7232C64.9977 50.3358 63.6858 51.6478 62.073 51.6478C61.5617 51.6478 61.0887 51.5041 60.6701 51.2735C60.294 52.455 59.1994 53.3191 57.895 53.3191C56.2823 53.3191 54.9704 52.0072 54.9704 50.3944V49.1878H44.943V50.3944C44.943 52.0071 43.6311 53.3191 42.0183 53.3191C40.7139 53.3191 39.6193 52.4551 39.2433 51.2735C38.8247 51.5041 38.3517 51.6478 37.8404 51.6478C36.2277 51.6478 34.9157 50.3359 34.9157 48.7232V44.5451C34.9157 42.9324 36.2276 41.6204 37.8404 41.6204C38.3517 41.6204 38.8247 41.7641 39.2433 41.9947C39.6193 40.8132 40.714 39.9491 42.0183 39.9491C43.631 39.9491 44.943 41.261 44.943 42.8738V44.174H54.9704V42.8739C54.9704 41.2612 56.2822 39.9492 57.895 39.9492C59.1995 39.9492 60.294 40.8132 60.6701 41.9948C61.0887 41.7642 61.5617 41.6205 62.073 41.6205C63.6857 41.6205 64.9977 42.9324 64.9977 44.5452V48.7232Z" fill="#C956FF"/>
</svg>
