<svg width="100" height="100" viewBox="0 0 100 100" fill="none" xmlns="http://www.w3.org/2000/svg">
<rect opacity="0.05" width="100" height="100" rx="16" fill="#FF317B"/>
<path d="M29.4922 33.8867L50 42.6758L70.5078 33.8867L50 25L29.4922 33.8867Z" fill="#FF317B"/>
<path d="M63.1836 46.458V40.2132L50 45.863L36.8164 40.2132V46.458L50 52.1086L63.1836 46.458Z" fill="#FF317B"/>
<path d="M26.5625 60.2539V63.1836H45.6055V54.3945H26.5625V57.3242C27.3707 57.3242 28.0273 57.9809 28.0273 58.7891C28.0273 59.5973 27.3707 60.2539 26.5625 60.2539Z" fill="#FF317B"/>
<path d="M67.5782 63.1836C70.0052 63.1836 71.9727 61.2161 71.9727 58.7891C71.9727 56.362 70.0052 54.3945 67.5782 54.3945C65.6138 54.3945 48.2299 54.3945 48.5352 54.3945V63.1836C48.8361 63.1836 67.8791 63.1836 67.5782 63.1836Z" fill="#FF317B"/>
<path d="M73.4375 69.043V66.1133H48.5352V69.043H45.6055V66.1133H32.4219C29.9948 66.1133 28.0273 68.0808 28.0273 70.5078C28.0273 72.9349 29.9948 75 32.4219 75H73.4375V71.9727C72.6293 71.9727 71.9727 71.316 71.9727 70.5078C71.9727 69.6996 72.6293 69.043 73.4375 69.043Z" fill="#FF317B"/>
<path d="M69.043 37.7023L66.1133 38.9577V51.4649H69.043V37.7023Z" fill="#FF317B"/>
</svg>
