<svg width="100" height="100" viewBox="0 0 100 100" fill="none" xmlns="http://www.w3.org/2000/svg">
<rect opacity="0.05" width="100" height="100" rx="16" fill="#FFB156"/>
<path d="M25.2935 75L54.5477 65.2323C46.1989 65.2323 36.572 65.2323 28.5439 65.2323L25.2935 75Z" fill="#FFB156"/>
<path d="M52.2475 49.6872C52.066 49.6872 33.9081 49.6872 33.7171 49.6872L32.2539 54.084H56.6369L52.2475 49.6872Z" fill="#FFB156"/>
<path d="M31.2786 57.0152L29.5195 62.3011H63.3269L64.462 61.9221L59.5633 57.0152C56.1963 57.0152 34.7574 57.0152 31.2786 57.0152Z" fill="#FFB156"/>
<path d="M38.3496 35.7661L34.6924 46.7561H49.3211L38.3496 35.7661Z" fill="#FFB156"/>
<path d="M69.1444 33.7937C71.57 33.7937 73.5363 31.8251 73.5363 29.3968C73.5363 26.9685 71.57 25 69.1444 25C66.7188 25 64.7524 26.9685 64.7524 29.3968C64.7524 31.8251 66.7188 33.7937 69.1444 33.7937Z" fill="#FFB156"/>
<path d="M63.7876 35.7478H66.7139V38.679H63.7876V35.7478Z" fill="#FFB156"/>
<path d="M58.9023 29.7877H61.8287V32.7189H58.9023V29.7877Z" fill="#FFB156"/>
<path d="M58.4116 40.1446H61.338V43.0758H58.4116V40.1446Z" fill="#FFB156"/>
<path d="M46.3348 39.6159C48.1529 41.2925 50.6641 41.4332 53.3775 40.0404C52.8725 41.4821 51.5548 43.0146 50.5199 43.8082L52.6033 45.8949C52.8412 45.6977 53.079 45.4823 53.3152 45.2461C56.9321 41.629 56.7661 38.457 56.3453 36.8882C56.341 36.872 56.3365 36.8557 56.3321 36.8397C57.7369 33.3816 56.4163 29.0841 53.6613 26.329L52.3738 25.0393L50.2993 27.1103L51.5877 28.4008C52.9092 29.7223 53.7958 31.5193 53.9426 33.312C51.5384 31.4158 48.1715 31.2184 46.161 33.2324C44.4961 34.8998 44.4517 37.5846 46.0265 39.3072L46.3348 39.6159ZM48.2354 35.3033C48.6819 34.8559 49.2534 34.7335 49.7453 34.7335C50.9373 34.7335 52.3241 35.4394 53.0865 36.6678C53.0072 36.7731 52.9226 36.8743 52.8329 36.9711C51.4387 37.8738 49.5211 38.6657 48.2353 37.3777C47.6644 36.8058 47.6643 35.8753 48.2354 35.3033Z" fill="#FFB156"/>
<path d="M68.1831 45.2326C69.0611 44.5163 70.2749 43.8619 71.7789 43.8619L74.7069 43.8575L74.7025 40.9263L71.7767 40.9307C68.8878 40.9307 66.3883 42.4577 64.6256 44.7065C62.8108 44.8937 60.5374 45.7812 58.0575 48.2611C57.4995 48.8192 57.0317 49.3824 56.6377 49.9359L58.7469 52.0486C59.7097 50.5367 61.2871 49.1236 62.6835 48.3661C62.1922 49.9159 62.0651 51.5074 62.3575 52.9493C63.0411 56.3215 65.3199 57.7347 67.4011 57.7346C70.3155 57.7346 72.9304 55.0121 72.3888 50.8563C72.0635 48.3594 70.4361 46.2065 68.1831 45.2326ZM67.6634 54.782C66.5214 54.9718 65.5663 54.0239 65.2303 52.3668C64.9418 50.9444 65.3043 49.2125 66.1679 47.6653C67.9465 47.9936 69.2536 49.4808 69.4822 51.2349C69.7665 53.417 68.7387 54.6032 67.6634 54.782Z" fill="#FFB156"/>
</svg>
