<svg width="520" height="520" viewBox="0 0 520 520" fill="none" xmlns="http://www.w3.org/2000/svg">
<g clip-path="url(#clip0_12398_57533)">
<path opacity="0.03" d="M259.202 520.25C402.504 520.25 518.674 504.987 518.674 486.159C518.674 467.331 402.504 452.067 259.202 452.067C115.9 452.067 -0.269531 467.331 -0.269531 486.159C-0.269531 504.987 115.9 520.25 259.202 520.25Z" fill="white"/>
<path d="M41.3319 462.547L87.0137 353.466L79.7029 350.563L38.1319 461.276C37.7137 462.401 38.0712 463.588 38.9306 463.93C39.7902 464.271 40.8651 463.652 41.3319 462.547Z" fill="#242428"/>
<path opacity="0.37" d="M78.4278 353.945L83.0793 355.791L40.1406 463.841C40.6277 463.606 41.0697 463.154 41.3261 462.547L87.008 353.466L79.6971 350.563L78.4278 353.945Z" fill="#242428"/>
<path d="M113.615 461.852L115.827 343.612H107.961L110.172 461.852C110.198 463.051 110.969 464.023 111.894 464.023C112.818 464.023 113.589 463.051 113.615 461.852Z" fill="#242428"/>
<path opacity="0.37" d="M108.019 346.725H113.88L111.687 463.996C111.755 464.007 111.823 464.023 111.894 464.023C112.818 464.023 113.589 463.051 113.615 461.852L115.827 343.612H107.961L108.019 346.725Z" fill="#242428"/>
<path d="M182.455 462.547L136.773 353.466L144.084 350.563L185.655 461.276C186.073 462.401 185.716 463.588 184.856 463.93C183.997 464.271 182.922 463.652 182.455 462.547Z" fill="#242428"/>
<g opacity="0.37">
<path d="M185.655 461.276L144.084 350.563L136.773 353.466L137.613 355.472L142.138 353.676L183.47 463.753C183.914 464.023 184.413 464.105 184.856 463.93C185.716 463.588 186.073 462.401 185.655 461.276Z" fill="#242428"/>
</g>
<path d="M366.13 486.844L404.169 387.45L398.081 384.806L363.466 485.686C363.118 486.711 363.415 487.793 364.131 488.104C364.847 488.415 365.742 487.851 366.13 486.844Z" fill="#242428"/>
<path opacity="0.37" d="M397.025 387.886L400.899 389.569L365.145 488.023C365.55 487.809 365.918 487.397 366.132 486.844L404.17 387.45L398.082 384.806L397.025 387.886Z" fill="#242428"/>
<path d="M426.325 486.21L428.167 378.472H421.617L423.458 486.21C423.48 487.303 424.122 488.189 424.892 488.189C425.662 488.189 426.304 487.303 426.325 486.21Z" fill="#242428"/>
<path opacity="0.37" d="M421.665 381.308H426.546L424.72 488.164C424.776 488.174 424.833 488.189 424.892 488.189C425.662 488.189 426.304 487.303 426.325 486.21L428.167 378.472H421.617L421.665 381.308Z" fill="#242428"/>
<path d="M483.644 486.844L445.605 387.45L451.693 384.806L486.308 485.686C486.656 486.711 486.359 487.793 485.643 488.104C484.927 488.415 484.032 487.851 483.644 486.844Z" fill="#242428"/>
<g opacity="0.37">
<path d="M486.308 485.686L451.693 384.806L445.605 387.45L446.305 389.278L450.072 387.642L484.488 487.943C484.859 488.189 485.274 488.264 485.643 488.104C486.358 487.793 486.656 486.711 486.308 485.686Z" fill="#242428"/>
</g>
<path d="M164.053 353.268C156.075 359.759 144.254 365.733 114.23 366.324C74.735 367.103 54.0595 362.619 42.8376 342.251C24.0964 308.236 47.5473 198.339 84.5397 222.684C115.463 243.035 121.657 308 125.744 316.982C129.832 325.963 183.411 337.517 164.053 353.268Z" fill="#434347"/>
<path d="M121.076 357.91C81.5809 358.688 60.9054 354.206 49.6834 333.838C36.8915 310.619 43.7575 252.051 61.1687 224.948C38.8846 245.604 28.4804 316.193 42.8377 342.251C54.0595 362.619 74.7351 367.102 114.23 366.324C144.254 365.732 156.075 359.758 164.053 353.268C166.769 351.057 168.049 348.93 168.231 346.88C160.227 352.542 147.939 357.381 121.076 357.91Z" fill="#2F2F33"/>
<path d="M170.815 434.277C171.327 437.156 165.879 444.772 173.189 451.177C180.495 457.572 197.106 464.32 186.099 464.575C175.093 464.829 164.538 462.277 158.931 459.514C153.336 456.746 157.802 452.397 150.861 450.209C141.712 447.319 141.816 446.733 146.239 436.774C152.329 423.071 169.169 424.965 170.815 434.277Z" fill="#434347"/>
<path d="M181.408 444.017C182.685 446.501 188.8 452.246 197.276 456.035C205.745 459.815 223.703 461.595 213.727 464.926C203.753 468.256 192.122 466.239 186.227 465.296C180.341 464.344 174.631 464.22 167.679 464.177C158.515 464.115 158.444 463.551 159.679 453.215C161.379 438.993 177.284 435.981 181.408 444.017Z" fill="#434347"/>
<path d="M159.859 438.268L163.413 446.976C163.413 446.976 172.185 449.111 176.381 446.882C180.578 444.652 178.894 442.743 178.894 442.743L175.217 429.841L159.859 438.268Z" fill="#FFADAD"/>
<path d="M120.027 321.615C120.027 321.615 157.652 329.808 171.306 333.145C184.96 336.483 195.579 342.248 189.207 365.004C182.835 387.761 172.216 429.33 172.216 429.33H147.942L160.686 354.557L89.685 346.192L76.6055 317.165L120.027 321.615Z" fill="#2B2B30"/>
<path d="M64.6016 321.615C66.2197 333.347 62.7809 346.84 80.9862 352.129C99.1916 357.418 127.615 357.823 127.615 357.823L156.111 443.208C156.111 443.208 164.06 444.403 173.771 441.405C177.764 440.172 179.194 435.094 179.194 435.094L153.411 347.802C151.393 340.971 145.929 335.706 139.027 333.944L95.3113 320.658L64.6016 321.615Z" fill="#2F2F33"/>
<path d="M71.1406 282.279C72.9002 286.844 73.321 291.827 72.2555 296.614C70.1444 306.116 72.5469 306.753 72.5469 306.753C72.5469 306.753 85.4251 314.927 96.1362 318.268C103.812 320.656 110.355 320.252 110.172 311.777L110.166 311.661C110.153 311.146 110.14 310.654 110.128 310.174C109.766 291.126 113.738 290.157 114.717 268.828C115.728 246.947 109.878 234.742 104.086 229.449C98.2838 224.168 90.3641 223.971 75.4674 227.492C64.2769 230.128 60.5905 233.099 60.6813 241.379C60.7112 244.132 61.1566 247.473 61.8855 251.574C63.7336 261.995 68.1453 274.504 71.1406 282.279Z" fill="#FFB156"/>
<path d="M71.139 282.279C72.8986 286.845 73.3194 291.828 72.2539 296.614C70.1427 306.116 72.5453 306.754 72.5453 306.754C72.5453 306.754 85.4235 314.928 96.1346 318.268L106.142 317.319L110.148 314.171L110.165 311.661C110.151 311.146 110.139 310.654 110.127 310.174C107.841 310.392 102.639 310.659 95.0139 309.78C89.1218 309.109 83.7657 307.427 80.1949 306.068C77.5919 305.082 76.0652 302.392 76.5513 299.649C77.1994 295.902 77.9667 290.533 77.9373 286.362C77.9069 282.168 75.9649 275.08 74.3775 269.967C73.1651 266.042 72.7524 261.938 73.0432 257.846C73.5391 250.767 73.0324 244.03 73.0324 244.03L65.0986 239.732L60.6797 241.379C60.7096 244.132 61.155 247.473 61.8839 251.574C63.732 261.995 68.1437 274.504 71.139 282.279Z" fill="#F5A548"/>
<path d="M107.136 190.308C107.136 190.308 108.129 193.085 106.626 195.29L100.484 186.975L104.768 186.936L107.136 190.308Z" fill="#E33D15"/>
<path d="M73.7837 201.304C74.0551 212.027 83.3046 218.241 83.3046 218.241L82.6862 228.001L88.9258 232.045L93.2076 234.817L95.6653 229.682L96.0027 223.39C96.0867 221.926 97.1342 220.707 98.5778 220.4C100.175 220.058 102.394 219.126 104.662 216.722C104.796 216.575 104.934 216.416 105.051 216.241C105.065 216.233 105.065 216.233 105.065 216.233C109.12 210.708 110.654 189.55 96.774 183.543C82.4401 177.324 73.5045 190.566 73.7837 201.304Z" fill="#FFB9B0"/>
<path d="M89.3417 226.192L88.9219 232.045L93.2036 234.817L95.6613 229.683L95.9987 223.391C96.0827 221.926 97.1303 220.708 98.5738 220.4C100.171 220.058 102.39 219.127 104.658 216.722C104.793 216.575 104.93 216.417 105.047 216.241C104.768 216.407 101.413 218.372 96.3151 218.942C92.5476 219.363 89.6124 222.41 89.3417 226.192Z" fill="#F29E9E"/>
<path d="M88.7522 204.609C88.2092 204.831 87.6916 203.993 87.6916 203.993C87.6916 203.993 84.6816 197.233 83.6459 196.197C81.7954 194.322 77.4292 194.495 77.0841 200.292C76.8124 204.782 82.1163 214.353 83.7444 217.165C83.9908 217.609 83.8925 218.202 83.473 218.522C83.3006 218.645 83.0786 218.719 82.881 218.744H82.8071C82.5603 218.744 82.3137 218.67 82.1163 218.497C78.6874 215.488 63.5902 201.008 75.579 187.391C75.579 187.391 85.1012 188.007 86.5566 192.596C88.0121 197.209 89.0482 203.425 89.0482 203.425C89.0482 203.425 89.3195 204.363 88.7522 204.609Z" fill="#E33D15"/>
<path d="M107.138 190.308C107.138 190.308 98.8047 183.813 86.1508 191.727L75.7887 189.083C75.7887 189.083 75.3529 188.941 75.5824 187.389C75.812 185.837 76.9565 170.602 95.1078 174.026C105.543 175.995 111.936 183.228 107.138 190.308Z" fill="#E33D15"/>
<path d="M82.7497 223.452C82.7497 223.452 81.2424 224.292 79.7422 226.547C79.7422 226.547 81.8006 227.468 83.5952 228.564C85.234 229.565 93.1095 235.128 93.1095 235.128L95.4254 230.371C95.4254 230.371 87.2026 224.699 82.7497 223.452Z" fill="#F5A548"/>
<path d="M95.4297 230.371C95.4297 230.371 98.1855 231.314 99.0322 233.372C99.0322 233.372 100.441 230.671 98.6407 225.865C98.6407 225.865 97.1298 224.435 95.9667 223.925L95.4297 230.371Z" fill="#F5A548"/>
<path d="M73.5273 315.983C73.5273 315.983 74.9918 317.821 75.4255 318.06C75.8589 318.299 75.9334 317.791 75.7692 317.433C75.6047 317.074 73.5919 315.497 73.5273 315.983Z" fill="#E5BB98"/>
<path d="M82.881 218.744H82.8071C82.5603 218.744 82.3137 218.67 82.1163 218.497C78.6874 215.488 63.5902 201.008 75.579 187.391C75.579 187.391 74.987 189.759 75.234 191.732C75.234 191.732 67.5864 204.091 82.881 218.744Z" fill="#E33D15"/>
<path d="M49.33 268.392C49.33 268.392 41.3161 305.282 45.0871 308.099C48.8579 310.916 91.6531 311.338 95.6307 311.979C99.6081 312.621 115.929 315.266 124.267 307.918C125.344 306.97 119.195 307.384 117.745 304.174C116.294 300.963 118.51 301.334 117.74 299.982C114.788 294.798 97.9115 301.106 97.9115 301.106C97.9115 301.106 70.2845 296.331 62.2765 298.614C67.0841 292.793 68.1827 271.092 68.1827 271.092L49.33 268.392Z" fill="#FFB9B0"/>
<path d="M47.1367 270.284C47.1367 270.284 52.5088 236.456 62.7241 231.901C72.9391 227.345 80.1622 241.953 76.4057 256.959C72.6493 271.966 71.6706 277.469 71.6706 277.469C71.6706 277.469 56.3498 279 47.1367 270.284Z" fill="#F5A548"/>
<path d="M37.2791 480.393H31.5586L36.0874 313.429H47.5289L37.2791 480.393Z" fill="#242428"/>
<path opacity="0.2" d="M35.5234 334.145H46.255L47.5267 313.429H36.0853L35.5234 334.145Z" fill="#242428"/>
<path d="M371.265 480.393H376.986L372.457 313.429H361.016L371.265 480.393Z" fill="#242428"/>
<path opacity="0.2" d="M373.019 334.145H362.287L361.016 313.429H372.457L373.019 334.145Z" fill="#242428"/>
<path d="M383.615 320.794H24.9452C22.2271 320.794 20.0234 317.989 20.0234 314.529V313.322C20.0234 309.862 22.2271 307.057 24.9452 307.057H383.615C386.333 307.057 388.536 309.862 388.536 313.322V314.529C388.536 317.989 386.333 320.794 383.615 320.794Z" fill="#242428"/>
<path d="M72.2695 307.057H177.521V304.174H74.6501C73.3354 304.174 72.2695 305.24 72.2695 306.554V307.057Z" fill="#2F2F33"/>
<path d="M108.07 307.056H179.214L186.064 263.507C186.414 261.277 184.907 259.47 182.695 259.47H119.558C117.347 259.47 115.27 261.277 114.919 263.507L108.07 307.056Z" fill="#2F2F33"/>
<path opacity="0.2" d="M119.558 259.47H121.494C119.282 259.47 117.206 261.277 116.855 263.508L110.006 307.056H108.07L114.92 263.508C115.271 261.277 117.348 259.47 119.558 259.47Z" fill="#212226"/>
<path d="M139.637 283.263C138.958 287.577 141.876 291.075 146.155 291.075C150.433 291.075 154.451 287.577 155.129 283.263C155.808 278.948 152.89 275.45 148.612 275.45C144.334 275.45 140.316 278.948 139.637 283.263Z" fill="#343437"/>
<path d="M380.68 448.324L382.052 456.555H388.328L391.029 456.092L389.052 443.3L380.68 448.324Z" fill="#FFE1BD"/>
<path d="M389.909 445.968C389.309 446.245 388.674 446.487 388.015 446.718C384.55 447.885 379.881 448.517 379.881 448.517C372.374 436.206 352.904 376.233 352.904 376.233C351.114 368.657 362.491 378.358 367.226 378.069C368.866 377.977 370.426 378.208 371.592 378.704C376.119 380.621 382.76 393.43 382.76 393.43C382.76 393.43 384.781 397.853 386.895 407C389.008 416.135 389.909 445.968 389.909 445.968Z" fill="#2B2B30"/>
<path opacity="0.1" d="M389.91 445.967C389.309 446.245 388.674 446.487 388.015 446.718C387.542 443.069 386.838 437.248 385.798 427.973C383.477 407.185 370.299 383.382 367.227 378.069C368.867 377.976 370.426 378.208 371.592 378.704C376.119 380.621 382.761 393.429 382.761 393.429C382.761 393.429 384.782 397.853 386.895 407C389.009 416.135 389.91 445.967 389.91 445.967Z" fill="#121316"/>
<path d="M381.638 455.358C381.638 455.358 384.321 455.409 386.435 454.621C388.971 453.676 390.475 452.062 390.475 452.062C390.475 452.062 397.137 456.13 397.128 463.435C397.128 463.816 396.875 464.158 396.519 464.291C396.519 464.291 380.543 471.388 375.048 473.33C371.68 474.52 366.232 475.61 366.232 475.61C365.83 475.7 365.436 475.555 365.293 475.188C365.005 474.445 364.861 473.144 366.491 471.895C368.967 469.996 371.676 468.446 373.554 466.872C375.432 465.299 377.354 460.961 378.875 459.726C380.807 458.158 381.638 455.358 381.638 455.358Z" fill="#434347"/>
<path d="M354.483 303.69H278.246L263.153 256.243C262.394 253.853 264.177 251.414 266.684 251.414H335.145C336.759 251.414 338.187 252.459 338.676 253.996L354.483 303.69Z" fill="#2F2F33"/>
<path d="M353.249 303.691H280.254L265.304 257.12C264.551 254.774 266.318 252.381 268.802 252.381H334.094C335.693 252.381 337.107 253.406 337.592 254.915L353.249 303.691Z" fill="#29292D"/>
<path d="M307.454 261.184H274.198C273.703 261.184 273.301 260.782 273.301 260.287C273.301 259.791 273.703 259.39 274.198 259.39H307.454C307.95 259.39 308.351 259.791 308.351 260.287C308.351 260.782 307.95 261.184 307.454 261.184Z" fill="#303035"/>
<path d="M312.602 265.332H275.518C275.023 265.332 274.621 264.93 274.621 264.434C274.621 263.939 275.023 263.537 275.518 263.537H312.602C313.098 263.537 313.499 263.939 313.499 264.434C313.499 264.93 313.098 265.332 312.602 265.332Z" fill="#303035"/>
<path d="M309.169 269.478H276.87C276.374 269.478 275.973 269.076 275.973 268.581C275.973 268.085 276.374 267.684 276.87 267.684H309.169C309.664 267.684 310.066 268.085 310.066 268.581C310.066 269.076 309.664 269.478 309.169 269.478Z" fill="#303035"/>
<path d="M303.79 273.625H278.19C277.695 273.625 277.293 273.223 277.293 272.727C277.293 272.232 277.695 271.83 278.19 271.83H303.79C304.285 271.83 304.687 272.232 304.687 272.727C304.687 273.223 304.285 273.625 303.79 273.625Z" fill="#303035"/>
<path d="M316.621 277.772H279.538C279.042 277.772 278.641 277.37 278.641 276.875C278.641 276.379 279.042 275.978 279.538 275.978H316.621C317.117 275.978 317.518 276.379 317.518 276.875C317.518 277.37 317.117 277.772 316.621 277.772Z" fill="#303035"/>
<path d="M313.168 281.918H280.87C280.374 281.918 279.973 281.517 279.973 281.021C279.973 280.526 280.374 280.124 280.87 280.124H313.168C313.664 280.124 314.066 280.526 314.066 281.021C314.066 281.517 313.664 281.918 313.168 281.918Z" fill="#303035"/>
<path d="M320.598 290.213H283.514C283.019 290.213 282.617 289.811 282.617 289.316C282.617 288.821 283.019 288.419 283.514 288.419H320.598C321.094 288.419 321.495 288.821 321.495 289.316C321.495 289.811 321.094 290.213 320.598 290.213Z" fill="#303035"/>
<path d="M321.949 294.36H284.866C284.37 294.36 283.969 293.958 283.969 293.463C283.969 292.967 284.37 292.565 284.866 292.565H321.949C322.445 292.565 322.847 292.967 322.847 293.463C322.847 293.958 322.445 294.36 321.949 294.36Z" fill="#303035"/>
<path d="M341.67 294.36H329.692C328.575 294.36 327.588 293.636 327.252 292.572L317.265 260.964C316.744 259.315 317.975 257.635 319.705 257.635H331.684C332.8 257.635 333.788 258.358 334.124 259.423L344.11 291.03C344.631 292.679 343.4 294.36 341.67 294.36Z" fill="#303035"/>
<path d="M360.87 307.145H277.964C276.61 307.145 275.512 306.047 275.512 304.692C275.512 303.338 276.61 302.24 277.964 302.24H360.87C362.224 302.24 363.322 303.338 363.322 304.692C363.322 306.047 362.224 307.145 360.87 307.145Z" fill="#303035"/>
<path d="M384.808 241.586C384.083 241.586 383.375 241.208 382.995 240.54L380.238 235.69C379.957 235.198 379.891 234.627 380.048 234.083C380.208 233.54 380.571 233.094 381.072 232.83L388.749 228.776C389.744 228.248 390.998 228.625 391.539 229.618L394.159 234.428C394.424 234.915 394.483 235.476 394.327 236.007C394.17 236.539 393.815 236.978 393.327 237.243L385.789 241.337C385.479 241.505 385.141 241.586 384.808 241.586ZM389.713 229.493C389.538 229.493 389.36 229.535 389.196 229.622L381.519 233.676C381.249 233.819 381.053 234.058 380.967 234.351C380.882 234.644 380.918 234.951 381.069 235.216V235.217L383.827 240.067C384.126 240.592 384.798 240.784 385.333 240.496L392.871 236.402C393.133 236.259 393.324 236.023 393.408 235.736C393.493 235.45 393.461 235.148 393.318 234.886L390.698 230.076C390.496 229.705 390.11 229.493 389.713 229.493Z" fill="#6B6E78"/>
<path d="M353.349 291.733C352.813 292.422 352.382 292.862 352.382 292.862C352.382 292.862 348.363 289.819 347.244 289.532C346.133 289.254 343.741 290.134 342.382 290.211C341.023 290.297 340.909 289.483 340.909 289.483C340.909 289.483 335.721 291.646 334.889 291.848C334.047 292.049 333.491 291.771 334.008 290.451C334.123 290.163 334.468 289.704 334.965 289.149L334.975 289.14C336.746 287.139 340.392 283.943 341.703 283.311C343.378 282.517 345.655 281.359 347.483 282.038C349.32 282.717 355.263 287.177 355.263 287.177C355.435 288.709 354.249 290.575 353.349 291.733Z" fill="#FFE1BD"/>
<path d="M354.584 287.445L353.349 291.732C352.813 292.421 352.382 292.861 352.382 292.861C352.382 292.861 348.363 289.818 347.244 289.531C346.133 289.253 343.741 290.134 342.382 290.21C341.023 290.297 340.909 289.483 340.909 289.483C340.909 289.483 335.721 291.646 334.889 291.847C334.047 292.048 333.491 291.77 334.008 290.45C334.123 290.163 334.468 289.703 334.965 289.148C334.525 289.757 334.038 290.384 334.327 291.159C334.678 292.104 340.245 289.449 344.267 287.024C344.33 286.986 344.653 286.826 344.766 287.013C344.838 287.141 344.605 287.399 344.545 287.464C343.874 288.183 340.503 288.437 341.186 289.512C342.147 291.025 345.607 288.249 347.502 288.871C349.397 289.493 351.77 291.225 351.77 291.225C351.77 291.225 352.852 288 354.584 287.445Z" fill="#FFD19F"/>
<path d="M351.77 292.864C351.77 292.864 371.488 310.111 386.241 311.865C400.995 313.62 425.877 285.627 425.877 285.627C425.877 285.627 424.311 270.715 415.111 272.468C405.911 274.221 393.578 296.393 388.235 297.43C382.892 298.467 355.109 286.693 355.109 286.693C355.109 286.693 354.32 287.249 353.39 288.809C352.388 290.492 351.77 292.864 351.77 292.864Z" fill="#FFB156"/>
<path d="M418.858 207.871C413.463 201.694 405.487 201.03 399.329 201.711C391.246 202.605 384.22 208.056 381.886 215.847C380.877 219.214 380.683 223.153 382.253 227.489C387.277 241.366 392.541 250.218 397.446 252.85C399.318 253.854 402.897 253.185 406.721 251.841C407.225 251.664 407.782 251.873 408.034 252.343L409.647 255.362L423.843 252.292C423.843 252.292 422.016 248.337 421.048 244.186C423.111 241.581 428.732 219.171 418.858 207.871Z" fill="#FFE1BD"/>
<path d="M390.171 227.669C391.935 227.529 393.61 228.459 394.296 230.09C395.463 232.867 397.265 236.753 398.681 238.016C398.973 238.276 399.611 238.364 400.242 238.031C400.864 237.702 400.99 237.17 400.954 236.82C400.832 235.621 399.943 233.02 399.314 231.29C398.507 229.073 399.464 226.727 402.111 226.134C402.588 226.026 403.804 226.09 404.419 226.276C408.615 227.549 405.725 234.13 405.64 237.568C405.58 239.99 408.48 245.606 409.767 246.111C413.983 247.766 420.374 246.271 423.763 242.084C427.152 237.897 427.89 223.901 426.036 215.527C424.182 207.153 417.482 202.428 415.27 201.89C414.176 201.624 413.273 201.621 412.638 201.686C411.964 201.754 411.299 201.526 410.788 201.081C408.557 199.14 401.891 194.704 391.344 199.258C378.186 204.94 375.973 217.082 376.212 222.585C376.367 226.161 379.176 225.897 381.124 225.274C382.195 224.931 383.361 225.212 384.216 225.943C385.319 226.886 387.22 227.903 390.171 227.669Z" fill="#E33D15"/>
<path d="M409.202 257.635C409.202 257.635 407.981 256.274 408.445 255.442C409.02 254.409 415.25 249.48 422.521 249.739C423.651 249.78 425.033 249.779 426.388 252.73C427.744 255.681 428.063 257.635 428.063 257.635H409.202Z" fill="#F5A548"/>
<path d="M436.881 376.883C436.441 376.989 435.962 377.094 435.465 377.19C429.292 378.338 419.253 378.472 419.253 378.472C399.462 378.118 389.459 359.68 386.243 354.178C385.114 352.245 384.664 350.952 384.664 350.952C385.794 350.35 399.237 343.101 398.52 318.347C398.371 313.218 398.443 301.734 395.888 297.274C394.481 294.824 390.319 289.857 387.706 284.623C385.562 280.316 384.452 275.828 386.797 272.402C392.615 263.856 401.793 259.31 401.793 259.31C401.793 259.31 418.636 252.563 432.982 254.094C442.082 255.051 450.188 259.339 452.351 270.794C457.93 300.298 436.881 376.883 436.881 376.883Z" fill="#FFB156"/>
<path d="M404.023 311.867C406.468 336.22 389.889 351.554 386.243 354.177C385.114 352.244 384.664 350.952 384.664 350.952C385.794 350.349 398.432 339.377 398.52 318.347C398.542 313.215 398.443 301.733 395.888 297.273C394.481 294.823 390.319 289.857 387.706 284.622L388.816 284.191L395.572 283.071L398.998 285.866C398.998 285.866 402.438 296.092 404.023 311.867Z" fill="#F5A548"/>
<path d="M436.88 376.883C436.44 376.988 435.961 377.093 435.464 377.189C436.727 370.538 444.723 328.768 447.326 313.619C452.465 283.713 447.116 268.564 444.1 263.137C441.663 258.751 436.971 256.429 432.98 254.094C442.081 255.051 450.187 259.338 452.35 270.794C457.929 300.297 436.88 376.883 436.88 376.883Z" fill="#F5A548"/>
<path d="M339.774 466.125C339.774 466.125 337.683 467.03 335.067 467.03C332.16 467.03 331.316 465.944 331.316 465.944V459.317L340.89 458.085L339.774 466.125Z" fill="#FFE1BD"/>
<path d="M414.998 373.45C414.94 377.758 413.797 384.63 407.341 386.57C397.708 389.458 390.594 387.818 379.426 385.889C370.071 384.283 345.434 378.98 340.906 377.259C340.317 377.04 339.74 377.536 339.856 378.148C341.992 388.589 343.7 393.101 345.085 408.769C346.248 421.932 341.191 459.19 341.191 459.19C341.191 459.19 339.655 459.664 338.003 459.929C337.379 460.022 336.744 460.091 336.167 460.091C333.741 460.091 330.82 459.64 330.82 459.64C330.82 459.64 320.83 404.769 319.479 382.536C318.139 360.304 320.253 358.468 330.359 353.755C340.464 349.043 385.639 350.79 385.639 350.79L385.651 350.802C385.778 351.194 388.319 358.136 395.814 364.419C400.272 368.172 406.498 371.683 414.998 373.45Z" fill="#2F2F33"/>
<path d="M387.526 354.631C386.285 352.492 385.708 350.977 385.651 350.802L385.64 350.79C385.64 350.79 385.116 350.77 384.211 350.741C385.131 351.981 386.218 353.293 387.526 354.631Z" fill="#33305B"/>
<path opacity="0.1" d="M408.768 371.719C407.861 374.981 405.907 378.16 401.84 379.382C392.208 382.27 385.093 380.63 373.925 378.701C364.57 377.096 339.933 371.792 335.405 370.072C334.817 369.852 334.239 370.349 334.355 370.961C336.491 381.401 338.199 385.914 339.584 401.581C340.49 411.831 340.104 445.244 339.888 459.538C340.644 459.353 341.188 459.191 341.188 459.191C341.188 459.191 346.246 421.932 345.082 408.769C343.697 393.102 341.989 388.589 339.852 378.149C339.737 377.537 340.314 377.04 340.904 377.259C345.431 378.98 370.068 384.284 379.423 385.889C390.592 387.818 397.706 389.458 407.338 386.57C413.794 384.63 414.937 377.758 414.995 373.45C412.762 372.986 410.696 372.396 408.768 371.719Z" fill="#121316"/>
<path d="M331.154 465.02C331.154 465.02 333.65 466.006 335.906 466.006C338.613 466.006 340.586 465.02 340.586 465.02C340.586 465.02 345.407 471.159 342.846 478C342.712 478.357 342.356 478.59 341.975 478.59H309.643C309.25 478.59 308.915 478.282 308.91 477.889C308.9 477.092 309.22 475.823 311.183 475.222C314.167 474.307 317.247 473.802 319.556 472.984C321.866 472.166 325.182 468.773 327.039 468.148C329.397 467.354 331.154 465.02 331.154 465.02Z" fill="#434347"/>
<path d="M316.492 302.973C316.492 302.973 313.616 302.221 312.124 301.916C311.528 301.795 310.977 301.727 310.527 301.682C309.9 301.624 309.257 301.655 308.632 301.742L293.17 303.881C292.725 303.943 292.313 303.623 292.251 303.177C292.168 302.571 292.394 301.97 292.851 301.578L294.363 300.277L298.877 296.387C301.113 294.464 302.884 294.12 305.839 293.972C306.395 293.943 308.609 294.541 309.027 294.618C312.056 295.173 312.746 295.521 314.765 295.937C315.561 296.107 316.102 296.177 316.454 296.206C317.001 296.246 317.127 296.18 317.127 296.18C318.204 300.05 316.492 302.973 316.492 302.973Z" fill="#FFE1BD"/>
<path d="M340.091 304.508C340.068 304.54 340.036 304.549 339.999 304.533C339.603 304.37 337.188 303.375 335.873 302.91C335.388 302.74 334.931 302.612 334.535 302.512C333.964 302.369 333.016 302.259 332.427 302.259H316.911C316.432 302.259 316.007 301.882 316.016 301.403C316.027 300.803 316.331 300.253 316.829 299.934L318.503 298.852C316.919 300.057 316.663 300.963 317.458 301.058C318.092 301.135 319.596 300.969 323.405 299.908C323.49 299.885 323.524 300.019 323.449 300.065C322.572 300.603 322.897 301.73 323.977 301.677C324.617 301.645 327.338 301.473 327.965 301.438C330.397 301.298 333.942 301.069 334.624 301.194C336 301.447 337.051 301.863 338.033 302.375C338.7 302.721 339.333 301.962 339.576 301.251C339.921 300.242 340.425 298.878 340.945 297.848C341.481 297.963 341.615 297.915 341.615 297.915C342.108 301.582 340.369 304.129 340.091 304.508Z" fill="#F4F4F4"/>
<path d="M401.173 267.271C399.127 266.022 392.942 262.587 384.967 275.024C376.992 287.462 370.612 296.793 367.821 298.467C365.03 300.142 358.171 298.946 355.699 298.946C353.227 298.946 317.034 296.123 317.034 296.123C317.034 296.123 315.299 299.861 315 303.091C315 303.091 348.162 311.786 368.718 311.865C389.274 311.945 404.905 280.842 405.622 277.094C406.34 273.346 406.061 270.255 401.173 267.271Z" fill="#F5A548"/>
<path d="M381.327 238.307C381.153 238.307 380.985 238.212 380.9 238.047C380.78 237.812 380.873 237.524 381.108 237.403L398.94 228.263C400.958 227.229 405.089 225.114 408.155 229.612C408.304 229.83 408.248 230.128 408.029 230.277C407.813 230.425 407.514 230.371 407.364 230.151C404.974 226.642 402.123 227.707 399.41 229.099L381.545 238.255C381.475 238.291 381.4 238.307 381.327 238.307Z" fill="#6B6E78"/>
<path d="M399.238 229.403L401.392 236.282C401.392 236.282 403.066 237.901 404.682 236.043C406.297 234.184 407.702 227.729 404.741 226.652C401.78 225.575 399.986 227.101 399.238 229.403Z" fill="#FFE1BD"/>
<path d="M480.288 329.013C480.288 294.277 479.47 269.8 457.468 266.118C427.53 261.109 404.115 287.028 408.907 336.691C411.653 365.147 399.984 374.914 390.047 380.472C383.621 384.066 371.182 383.295 371.182 383.295C371.182 383.295 365.421 382.611 361.555 382.248C363.947 383.351 415.203 408.609 451.778 389.947C484.197 373.405 480.288 349.448 480.288 329.013Z" fill="#434347"/>
<path d="M480.288 329.013C480.288 294.277 479.47 269.8 457.468 266.118C456.411 265.941 455.362 265.807 454.322 265.707C430.337 268.082 414.621 293.341 418.806 336.706C421.551 365.162 409.882 374.929 399.945 380.487C393.52 384.08 381.081 383.31 381.081 383.31C381.081 383.31 380.789 383.218 380.255 383.057C375.437 383.557 371.182 383.295 371.182 383.295C371.182 383.295 365.421 382.611 361.555 382.248C363.947 383.351 415.203 408.609 451.778 389.946C484.197 373.405 480.288 349.448 480.288 329.013Z" fill="#2F2F33"/>
<path opacity="0.03" d="M369.516 75.3324C365.372 75.3324 361.463 76.2967 357.957 77.9697C356.584 55.5778 337.998 37.839 315.26 37.839C309.783 37.839 304.552 38.8794 299.739 40.7545C292.635 22.7756 275.114 10.0498 254.609 10.0498C228.403 10.0498 207.062 30.8283 206.133 56.8075C206.118 56.8075 206.103 56.8063 206.088 56.8063C186.112 56.8063 169.918 73.0002 169.918 92.9764C169.918 112.953 186.112 129.147 206.088 129.147H369.516C384.376 129.147 396.423 117.1 396.423 102.24C396.423 87.3793 384.376 75.3324 369.516 75.3324ZM278.339 102.24H275.777C276.444 101.915 277.105 101.579 277.755 101.225C277.944 101.567 278.141 101.903 278.339 102.24Z" fill="white"/>
<path d="M359.684 66.4742C355.54 66.4742 351.631 67.4385 348.125 69.1115C346.752 46.7194 328.166 28.9808 305.428 28.9808C299.952 28.9808 294.721 30.021 289.907 31.8963C282.803 13.9174 265.282 1.19141 244.777 1.19141C218.571 1.19141 197.231 21.9701 196.301 47.9493C196.286 47.9493 196.271 47.9481 196.256 47.9481C176.28 47.9481 160.086 64.142 160.086 84.1182C160.086 104.095 176.28 120.289 196.256 120.289H359.684C374.544 120.289 386.591 108.242 386.591 93.3812C386.591 78.5209 374.544 66.4742 359.684 66.4742ZM268.507 93.3812H265.945C266.613 93.0571 267.273 92.7203 267.923 92.3667C268.112 92.7089 268.31 93.0449 268.507 93.3812Z" fill="#27282C"/>
<path d="M254.677 71.2895C254.677 71.9689 254.751 72.5197 254.879 72.9237C255.026 73.3276 255.21 73.7683 255.467 74.2456C255.559 74.3925 255.595 74.5394 255.595 74.6679C255.595 74.8516 255.485 75.0352 255.247 75.2188L254.09 75.9899C253.925 76.1001 253.759 76.1552 253.612 76.1552C253.429 76.1552 253.245 76.0634 253.062 75.8981C252.805 75.6227 252.584 75.3289 252.401 75.0352C252.217 74.723 252.033 74.3742 251.831 73.9519C250.399 75.6411 248.6 76.4857 246.433 76.4857C244.891 76.4857 243.661 76.045 242.761 75.1637C241.861 74.2824 241.402 73.1073 241.402 71.6384C241.402 70.0777 241.953 68.8108 243.073 67.856C244.193 66.9012 245.68 66.4239 247.572 66.4239C248.196 66.4239 248.839 66.4789 249.518 66.5708C250.197 66.6626 250.895 66.8094 251.629 66.9747V65.6343C251.629 64.2389 251.336 63.2658 250.766 62.6966C250.179 62.1274 249.187 61.852 247.774 61.852C247.131 61.852 246.47 61.9254 245.791 62.0907C245.111 62.2559 244.45 62.4579 243.808 62.7149C243.514 62.8435 243.294 62.9169 243.165 62.9536C243.036 62.9904 242.945 63.0087 242.871 63.0087C242.614 63.0087 242.486 62.8251 242.486 62.4395V61.5398C242.486 61.2461 242.522 61.0257 242.614 60.8972C242.706 60.7687 242.871 60.6402 243.128 60.5116C243.771 60.1811 244.542 59.9057 245.442 59.6854C246.341 59.4467 247.296 59.3365 248.306 59.3365C250.491 59.3365 252.088 59.8323 253.117 60.8238C254.127 61.8153 254.641 63.3209 254.641 65.3406V71.2895H254.677ZM247.223 74.0804C247.829 74.0804 248.453 73.9702 249.114 73.7499C249.775 73.5296 250.363 73.1256 250.858 72.5748C251.152 72.2259 251.372 71.8404 251.483 71.3997C251.593 70.959 251.666 70.4266 251.666 69.8023V69.0311C251.134 68.9026 250.564 68.7924 249.977 68.719C249.389 68.6455 248.82 68.6088 248.251 68.6088C247.021 68.6088 246.121 68.8475 245.515 69.3433C244.909 69.839 244.616 70.5367 244.616 71.4548C244.616 72.3177 244.836 72.9604 245.295 73.401C245.736 73.8601 246.378 74.0804 247.223 74.0804ZM261.967 76.0634C261.636 76.0634 261.416 76.0083 261.269 75.8798C261.122 75.7696 260.994 75.5126 260.883 75.1637L256.569 60.9707C256.458 60.6034 256.403 60.3647 256.403 60.2362C256.403 59.9424 256.55 59.7772 256.844 59.7772H258.643C258.992 59.7772 259.231 59.8323 259.359 59.9608C259.506 60.071 259.616 60.328 259.727 60.6769L262.811 72.8318L265.676 60.6769C265.767 60.3097 265.878 60.071 266.024 59.9608C266.171 59.8506 266.428 59.7772 266.759 59.7772H268.228C268.577 59.7772 268.815 59.8323 268.962 59.9608C269.109 60.071 269.238 60.328 269.311 60.6769L272.212 72.9787L275.389 60.6769C275.499 60.3097 275.627 60.071 275.756 59.9608C275.903 59.8506 276.141 59.7772 276.472 59.7772H278.179C278.473 59.7772 278.638 59.9241 278.638 60.2362C278.638 60.328 278.62 60.4198 278.602 60.53C278.583 60.6402 278.547 60.787 278.473 60.989L274.048 75.1821C273.938 75.5493 273.809 75.788 273.663 75.8981C273.516 76.0083 273.277 76.0817 272.965 76.0817H271.386C271.037 76.0817 270.798 76.0267 270.651 75.8981C270.504 75.7696 270.376 75.5309 270.303 75.1637L267.457 63.3209L264.629 75.1453C264.537 75.5126 264.427 75.7512 264.28 75.8798C264.133 76.0083 263.876 76.0634 263.546 76.0634H261.967ZM285.56 76.5591C284.606 76.5591 283.651 76.449 282.733 76.2286C281.815 76.0083 281.099 75.7696 280.621 75.4942C280.328 75.3289 280.126 75.1453 280.052 74.9801C279.979 74.8148 279.942 74.6312 279.942 74.466V73.5296C279.942 73.144 280.089 72.9604 280.364 72.9604C280.475 72.9604 280.585 72.9787 280.695 73.0155C280.805 73.0522 280.97 73.1256 281.154 73.1991C281.778 73.4745 282.457 73.6948 283.174 73.8417C283.908 73.9886 284.624 74.062 285.359 74.062C286.515 74.062 287.415 73.8601 288.039 73.4561C288.664 73.0522 288.994 72.4646 288.994 71.7118C288.994 71.1977 288.829 70.7754 288.498 70.4266C288.168 70.0777 287.543 69.7656 286.644 69.4718L283.981 68.6455C282.641 68.2232 281.65 67.599 281.044 66.7727C280.438 65.9648 280.126 65.0652 280.126 64.1104C280.126 63.3392 280.291 62.6599 280.621 62.0723C280.952 61.4848 281.393 60.9707 281.943 60.5667C282.494 60.1444 283.118 59.8323 283.853 59.6119C284.587 59.3916 285.359 59.2998 286.166 59.2998C286.57 59.2998 286.993 59.3182 287.397 59.3732C287.819 59.4283 288.204 59.5018 288.59 59.5752C288.957 59.667 289.306 59.7588 289.637 59.869C289.967 59.9792 290.224 60.0893 290.408 60.1995C290.665 60.3464 290.848 60.4933 290.959 60.6585C291.069 60.8054 291.124 61.0074 291.124 61.2644V62.1274C291.124 62.513 290.977 62.7149 290.702 62.7149C290.555 62.7149 290.316 62.6415 290.004 62.4946C288.957 62.0172 287.782 61.7785 286.479 61.7785C285.432 61.7785 284.606 61.9438 284.037 62.2926C283.467 62.6415 283.174 63.174 283.174 63.9268C283.174 64.4409 283.357 64.8815 283.724 65.2304C284.092 65.5793 284.771 65.9281 285.744 66.2403L288.351 67.0665C289.673 67.4888 290.628 68.0764 291.197 68.8292C291.767 69.582 292.042 70.4449 292.042 71.3997C292.042 72.1892 291.877 72.9053 291.565 73.5296C291.234 74.1538 290.793 74.7047 290.224 75.1453C289.655 75.6044 288.976 75.9349 288.186 76.1735C287.36 76.4306 286.497 76.5591 285.56 76.5591Z" fill="white"/>
<path d="M289.032 85.4825C282.991 89.9443 274.215 92.3128 266.668 92.3128C256.093 92.3128 246.563 88.4019 239.366 81.9022C238.796 81.388 239.311 80.6903 239.99 81.0943C247.775 85.6111 257.378 88.3469 267.311 88.3469C274.013 88.3469 281.376 86.9514 288.151 84.0871C289.161 83.6281 290.024 84.7481 289.032 85.4825Z" fill="#FF9900"/>
<path d="M291.552 82.6171C290.78 81.6256 286.447 82.1397 284.483 82.3784C283.895 82.4518 283.803 81.9377 284.336 81.5522C287.788 79.1285 293.461 79.8262 294.122 80.6341C294.783 81.4604 293.938 87.1339 290.707 89.8513C290.211 90.2736 289.734 90.0533 289.954 89.5025C290.689 87.6847 292.323 83.5902 291.552 82.6171Z" fill="#FF9900"/>
<g opacity="0.1">
<path d="M259.738 131.411V241.646" stroke="white" stroke-linecap="round" stroke-linejoin="round" stroke-dasharray="2.03 2.03"/>
<path d="M259.738 244.736V246.771" stroke="white" stroke-linecap="round" stroke-linejoin="round"/>
</g>
<g opacity="0.1">
<path d="M148.281 246.771V244.736" stroke="white" stroke-linecap="round" stroke-linejoin="round"/>
<path d="M148.281 238.695V197.362C148.281 168.792 171.442 145.632 200.011 145.632H323.243C350.01 145.632 371.709 167.33 371.709 194.097V241.716" stroke="white" stroke-linecap="round" stroke-linejoin="round" stroke-dasharray="1.98 1.98"/>
<path d="M371.711 244.736V246.771" stroke="white" stroke-linecap="round" stroke-linejoin="round"/>
</g>
<path opacity="0.03" d="M16.838 116.836C16.8239 116.458 16.8093 116.08 16.8093 115.699V115.397L17.0437 115.418C19.1431 103.28 29.7172 94.0459 42.4552 94.0459C44.2194 94.0459 45.9419 94.2239 47.6068 94.5615C53.1666 86.1679 62.6915 80.6299 73.5134 80.6299C89.8217 80.6299 103.185 93.2022 104.462 109.182C107.288 107.587 110.548 106.673 114.024 106.673C124.785 106.673 133.508 115.396 133.508 126.156V126.351C133.508 137.004 124.872 145.64 114.219 145.64H46.7503C46.0091 145.64 45.2767 145.604 44.549 145.551C43.858 145.607 43.1606 145.64 42.4552 145.64C28.2077 145.64 16.658 134.09 16.658 119.843C16.658 118.825 16.7234 117.823 16.838 116.836Z" fill="white"/>
<path d="M22.1936 112.012C22.1793 111.634 22.1649 111.256 22.1649 110.875V110.572L22.3992 110.594C24.4984 98.456 35.0727 89.2214 47.8105 89.2214C49.5749 89.2214 51.2974 89.3997 52.9621 89.7371C58.5222 81.3437 68.0469 75.8057 78.8689 75.8057C95.1771 75.8057 108.54 88.3778 109.818 104.357C112.643 102.763 115.904 101.848 119.379 101.848C130.14 101.848 138.863 110.571 138.863 121.332V121.527C138.863 132.18 130.227 140.816 119.574 140.816H52.1059C51.3646 140.816 50.6322 140.78 49.9044 140.727C49.2134 140.782 48.516 140.816 47.8105 140.816C33.5631 140.816 22.0132 129.266 22.0132 115.019C22.0132 114.001 22.0787 112.999 22.1936 112.012Z" fill="#232528"/>
<path d="M30.3342 107.942C30.3199 107.565 30.3055 107.187 30.3055 106.805V106.503L30.5398 106.525C32.639 94.3867 43.2133 85.1521 55.9512 85.1521C57.7155 85.1521 59.438 85.3303 61.1028 85.6677C66.6628 77.2744 76.1876 71.7363 87.0095 71.7363C103.318 71.7363 116.681 84.3084 117.958 100.288C120.784 98.6932 124.044 97.7788 127.52 97.7788C138.281 97.7788 147.004 106.502 147.004 117.263V117.457C147.004 128.111 138.368 136.747 127.715 136.747H60.2465C59.5052 136.747 58.7728 136.71 58.045 136.657C57.354 136.713 56.6566 136.747 55.9512 136.747C41.7037 136.747 30.1538 125.197 30.1538 110.949C30.1538 109.932 30.2193 108.929 30.3342 107.942Z" stroke="#2C2D31" stroke-miterlimit="10"/>
<path opacity="0.03" d="M518.494 149.341C518.508 148.963 518.523 148.585 518.523 148.204V147.901L518.288 147.923C516.189 135.785 505.615 126.551 492.877 126.551C491.113 126.551 489.39 126.729 487.725 127.066C482.165 118.673 472.641 113.135 461.819 113.135C445.51 113.135 432.147 125.707 430.87 141.687C428.044 140.092 424.784 139.177 421.308 139.177C410.547 139.177 401.824 147.9 401.824 158.661V158.856C401.824 169.509 410.46 178.145 421.113 178.145H488.582C489.323 178.145 490.055 178.109 490.783 178.056C491.474 178.112 492.171 178.145 492.877 178.145C507.124 178.145 518.674 166.595 518.674 152.348C518.674 151.33 518.609 150.328 518.494 149.341Z" fill="white"/>
<path d="M513.138 144.516C513.153 144.139 513.167 143.761 513.167 143.38V143.077L512.933 143.099C510.834 130.961 500.259 121.726 487.521 121.726C485.757 121.726 484.035 121.905 482.37 122.242C476.81 113.849 467.285 108.311 456.463 108.311C440.155 108.311 426.792 120.883 425.514 136.862C422.689 135.267 419.428 134.353 415.953 134.353C405.192 134.353 396.469 143.076 396.469 153.837V154.032C396.469 164.685 405.105 173.321 415.758 173.321H483.226C483.967 173.321 484.7 173.284 485.428 173.232C486.119 173.287 486.816 173.321 487.521 173.321C501.769 173.321 513.319 161.771 513.319 147.524C513.319 146.506 513.253 145.504 513.138 144.516Z" fill="#232528"/>
<path d="M504.998 140.447C505.012 140.069 505.027 139.692 505.027 139.31V139.008L504.792 139.029C502.693 126.892 492.119 117.657 479.381 117.657C477.617 117.657 475.894 117.835 474.229 118.173C468.669 109.779 459.144 104.241 448.323 104.241C432.014 104.241 418.651 116.813 417.374 132.793C414.548 131.198 411.288 130.284 407.812 130.284C397.051 130.284 388.328 139.007 388.328 149.768V149.962C388.328 160.615 396.964 169.252 407.617 169.252H475.085C475.827 169.252 476.559 169.215 477.287 169.162C477.978 169.218 478.675 169.252 479.381 169.252C493.628 169.252 505.178 157.702 505.178 143.454C505.178 142.436 505.113 141.434 504.998 140.447Z" stroke="#2C2D31" stroke-miterlimit="10"/>
<path d="M488.273 458.773C482.329 457.705 474.984 459.208 468.571 459.786C462.157 459.208 454.812 457.712 448.868 458.773C446.406 463.846 446.019 471.396 447.454 476.857C448.889 482.318 452.337 487.221 456.968 490.398C459.464 492.111 462.266 493.295 465.198 494.05H471.944C474.869 493.302 477.677 492.111 480.173 490.398C484.805 487.221 488.253 482.318 489.688 476.857C491.123 471.402 490.735 463.853 488.273 458.773Z" fill="#4991FF"/>
<path d="M468.582 465.132C479.767 465.132 488.835 462.626 488.835 459.535C488.835 456.443 479.767 453.938 468.582 453.938C457.396 453.938 448.328 456.443 448.328 459.535C448.328 462.626 457.396 465.132 468.582 465.132Z" fill="#121316"/>
<path d="M468.574 465.471C458.447 465.471 447.98 463.254 447.98 459.534C447.98 455.821 458.454 453.604 468.574 453.604C478.701 453.604 489.167 455.821 489.167 459.534C489.167 463.254 478.694 465.471 468.574 465.471ZM468.574 454.284C456.659 454.284 448.661 456.997 448.661 459.534C448.661 462.071 456.665 464.791 468.574 464.791C480.482 464.791 488.487 462.071 488.487 459.534C488.487 456.997 480.489 454.284 468.574 454.284Z" fill="#4991FF"/>
<path d="M457.637 461.295C457.637 461.295 430.426 444.71 434.756 428.639C439.086 412.568 450.617 413.714 454.216 422.797C458.71 434.141 464.751 425.353 461.971 409.09C458.124 386.602 470 382.595 478.658 386.602C487.317 390.608 471.897 410.875 482.227 412.225C487.449 412.908 490.548 393.432 498.428 395.542C505.146 397.347 506.588 399.201 503.912 408.203C501.236 417.206 499.843 440.823 488.712 451.454C477.582 462.084 474.334 461.295 474.334 461.295H457.637Z" fill="url(#paint0_linear_12398_57533)"/>
<path d="M472.712 385.664C472.208 390.966 471.633 396.258 471.035 401.547C470.462 406.621 469.869 411.692 469.313 416.771C468.781 421.625 468.283 426.485 467.884 431.357C467.504 436.006 467.214 440.666 467.089 445.333C466.971 449.776 467.002 454.228 467.263 458.667C467.296 459.219 467.332 459.771 467.372 460.323C467.409 460.838 468.122 460.848 468.085 460.323C467.78 455.892 467.673 451.446 467.766 447.003C467.849 442.361 468.105 437.724 468.46 433.099C468.83 428.252 469.31 423.418 469.829 418.588C470.372 413.537 470.959 408.492 471.534 403.445C472.13 398.206 472.711 392.966 473.227 387.717C473.295 387.034 473.361 386.351 473.425 385.667C473.475 385.151 472.761 385.154 472.712 385.667V385.664Z" fill="#00FFA3"/>
<path d="M439.728 420.489C441.635 422.662 443.419 424.937 445.074 427.303C446.874 429.849 448.566 432.469 450.188 435.129C451.861 437.868 453.456 440.649 455.004 443.456C456.507 446.178 457.971 448.921 459.396 451.685C460.78 454.357 462.101 457.068 463.503 459.725C463.707 460.112 463.917 460.496 464.136 460.875C464.392 461.322 465.089 460.92 464.831 460.473C464.008 459.044 463.297 457.553 462.553 456.084C461.897 454.793 461.237 453.504 460.574 452.215C459.161 449.473 457.717 446.747 456.242 444.036C454.705 441.225 453.123 438.438 451.471 435.692C449.841 432.982 448.143 430.309 446.339 427.711C444.676 425.29 442.89 422.954 440.987 420.714C440.76 420.448 440.531 420.186 440.3 419.926C439.957 419.538 439.389 420.105 439.731 420.49L439.728 420.489Z" fill="#00FFA3"/>
<path d="M501.478 397.561C498.977 401.346 496.838 405.364 494.813 409.41C492.693 413.652 490.717 417.962 488.754 422.277C486.874 426.415 484.928 430.523 483.065 434.668C480.772 439.766 478.689 444.958 476.933 450.26C476.28 452.237 475.738 454.239 475.066 456.203C474.606 457.546 474.142 458.892 473.615 460.211L473.565 460.335C473.522 460.44 473.571 460.306 473.554 460.36C473.506 460.514 473.423 460.44 473.637 460.332L473.952 460.292L474.233 460.572C474.147 460.364 473.965 460.228 473.734 460.289C473.543 460.339 473.367 460.582 473.451 460.782C473.605 461.148 474.03 461.165 474.225 460.833C474.31 460.665 474.383 460.491 474.442 460.313C474.689 459.681 474.919 459.042 475.149 458.405C475.681 456.923 476.171 455.436 476.624 453.931C478.272 448.442 480.293 443.065 482.564 437.805C484.465 433.396 486.555 429.066 488.543 424.696C490.53 420.326 492.503 415.957 494.609 411.651C496.671 407.432 498.836 403.244 501.343 399.265C501.617 398.83 501.897 398.398 502.183 397.968C502.469 397.535 501.763 397.135 501.484 397.563L501.478 397.561Z" fill="#00FFA3"/>
<path d="M233.613 223.452H281.455C283.815 223.452 285.734 221.786 285.734 219.737V188.857C285.734 186.809 283.815 185.143 281.455 185.143H233.613C231.254 185.143 229.334 186.809 229.334 188.857V219.737C229.334 221.795 231.243 223.452 233.613 223.452Z" fill="#4991FF"/>
<path d="M265.527 210.734C265.815 210.734 266.114 210.613 266.337 210.38L271.5 204.86C271.948 204.385 271.948 203.603 271.5 203.128L266.244 197.514C265.797 197.04 265.07 197.04 264.623 197.514C264.175 197.989 264.175 198.762 264.623 199.246L269.068 203.994L264.716 208.649C264.268 209.123 264.268 209.896 264.716 210.38C264.939 210.622 265.228 210.734 265.527 210.734Z" fill="#A8C0E4"/>
<path d="M248.977 210.734C249.266 210.734 249.564 210.613 249.788 210.38C250.235 209.906 250.235 209.133 249.788 208.649L245.426 203.994L249.872 199.246C250.319 198.771 250.319 197.998 249.872 197.514C249.424 197.04 248.697 197.04 248.25 197.514L242.994 203.128C242.779 203.361 242.658 203.668 242.658 203.994C242.658 204.32 242.779 204.627 242.994 204.86L248.157 210.38C248.39 210.622 248.688 210.734 248.977 210.734Z" fill="#A8C0E4"/>
<path d="M259.817 212.252C259.956 212.252 260.106 212.224 260.245 212.159C260.832 211.908 261.112 211.191 260.87 210.567L255.744 197.105C255.502 196.481 254.84 196.174 254.253 196.435C253.666 196.686 253.386 197.403 253.628 198.027L258.754 211.489C258.941 211.963 259.369 212.252 259.817 212.252Z" fill="#A8C0E4"/>
</g>
<defs>
<linearGradient id="paint0_linear_12398_57533" x1="469.734" y1="385.232" x2="469.734" y2="461.308" gradientUnits="userSpaceOnUse">
<stop stop-color="#00FFA3"/>
<stop offset="1" stop-color="#00FFA3" stop-opacity="0"/>
</linearGradient>
<clipPath id="clip0_12398_57533">
<rect width="520" height="520" fill="white"/>
</clipPath>
</defs>
</svg>
