<svg width="20" height="20" viewBox="0 0 20 20" fill="none" xmlns="http://www.w3.org/2000/svg">
<g clip-path="url(#clip0_10583_9609)">
<path d="M10 0C4.47712 0 0 4.47708 0 9.99992C0 15.5228 4.47712 19.9998 10 19.9998C15.5229 19.9998 20.0001 15.5228 20.0001 9.99992C20 4.47708 15.5228 0 10 0ZM7.33199 14.8344H5.13638V7.74112H7.33199V14.8344ZM6.22372 6.81219C5.50666 6.81219 4.92536 6.22616 4.92536 5.50336C4.92536 4.78048 5.50674 4.19448 6.22372 4.19448C6.9407 4.19448 7.52201 4.78048 7.52201 5.50336C7.52205 6.2262 6.94074 6.81219 6.22372 6.81219V6.81219ZM15.56 14.8344H13.375V11.111C13.375 10.0898 12.9871 9.51975 12.1796 9.51975C11.3008 9.51975 10.8417 10.1135 10.8417 11.111V14.8344H8.73582V7.74112H10.8417V8.69647C10.8417 8.69647 11.4751 7.52475 12.9792 7.52475C14.4833 7.52475 15.56 8.44315 15.56 10.343L15.56 14.8344V14.8344Z" fill="#6B6E78"/>
</g>
<defs>
<clipPath id="clip0_10583_9609">
<rect width="20" height="20" fill="white"/>
</clipPath>
</defs>
</svg>
