<svg width="18" height="18" viewBox="0 0 18 18" fill="none" xmlns="http://www.w3.org/2000/svg">
<rect x="1.125" y="1.125" width="15.75" height="15.75" rx="7.875" fill="white"/>
<path d="M7.09794 5.45183C7.09794 5.97752 6.64229 6.40367 6.08022 6.40367C5.51815 6.40367 5.0625 5.97752 5.0625 5.45183C5.0625 4.92615 5.51815 4.5 6.08022 4.5C6.64229 4.5 7.09794 4.92615 7.09794 5.45183Z" fill="#0077B5"/>
<path d="M5.20168 7.10331H6.94137V12.375H5.20168V7.10331Z" fill="#0077B5"/>
<path d="M9.74227 7.10331H8.00258V12.375H9.74227C9.74227 12.375 9.74227 10.7154 9.74227 9.67773C9.74227 9.05491 9.95493 8.42936 10.8035 8.42936C11.7624 8.42936 11.7567 9.24442 11.7522 9.87587C11.7464 10.7012 11.7603 11.5435 11.7603 12.375H13.5V9.59272C13.4853 7.81615 13.0223 6.99755 11.4994 6.99755C10.5949 6.99755 10.0343 7.40816 9.74227 7.77965V7.10331Z" fill="#0077B5"/>
</svg>
