<svg width="140" height="42" viewBox="0 0 140 42" fill="none" xmlns="http://www.w3.org/2000/svg">
<path d="M42.5974 26.886C42.5974 27.5955 42.7263 28.1677 43.1094 28.7438C43.8389 29.7623 45.1614 30.4718 46.6571 30.7351C47.8101 30.9563 48.8785 30.9563 50.0352 30.7351C51.6156 30.5138 53.0708 29.85 54.0102 28.4767L55.8484 29.6288C54.607 31.7078 52.5145 32.5966 50.3336 32.9514C49.0516 33.1727 47.8949 33.2184 46.6129 32.9934C44.432 32.6386 42.4648 31.6201 41.3559 30.0713C40.6707 29.0528 40.4165 27.9465 40.4165 26.7067V16.88C40.4165 13.9579 42.5532 12.1421 45.3345 11.3449C47.346 10.7688 49.5268 10.7688 51.5346 11.3449C57.0936 13.0729 58.033 20.7291 52.8608 23.5634C49.8694 25.2457 45.4635 24.6239 42.5974 24.6239V26.886ZM42.5974 22.6784C44.4357 22.5906 48.9669 23.0751 51.833 21.6598C55.4653 19.8898 54.7838 14.5759 50.9783 13.4697C49.3537 13.0271 47.5154 13.0271 45.8908 13.4697C44.0525 13.9999 42.5974 15.1519 42.5974 16.88V22.6784Z" fill="white"/>
<path d="M64.4465 1.82715V11.1694H69.534V13.1607C67.8247 13.1607 66.1559 13.1607 64.4465 13.2064V26.7983C64.4465 30.5176 67.099 30.8724 69.9208 30.9601V32.9972C66.0306 33.2184 62.3099 31.7574 62.3099 26.844V13.1607H58.6333V11.1694H62.3099V1.82715H64.4465Z" fill="white"/>
<path d="M79.5396 33.1269L74.1942 27.4583C72.8275 25.9973 72.5254 25.2 72.5254 23.697V11.2114H74.7063V23.697C74.7063 24.6278 74.8352 24.9368 75.432 25.6005L79.9227 30.4719L84.4134 25.6005C85.0544 24.9368 85.1833 24.624 85.1833 23.697V11.2114H87.32V23.697C87.32 24.6278 87.449 24.9368 88.09 25.6005L92.5807 30.4719L97.0714 25.6005C97.6681 24.9368 97.7971 24.624 97.7971 23.697V11.2114H99.978V23.697C99.978 25.2038 99.6796 26.0011 98.3128 27.4583L92.9675 33.1269H92.1533L86.2517 26.6648L80.35 33.1269H79.5396Z" fill="#00FFA3"/>
<path d="M106.307 26.886C106.307 27.5955 106.436 28.1678 106.819 28.7438C107.544 29.7623 108.871 30.4718 110.366 30.7351C111.519 30.9563 112.588 30.9563 113.744 30.7351C115.325 30.5138 116.78 29.85 117.719 28.4767L119.558 29.6288C118.316 31.7078 116.224 32.5966 114.043 32.9514C112.761 33.1727 111.608 33.2184 110.322 32.9934C108.141 32.6386 106.174 31.6201 105.065 30.0713C104.38 29.0528 104.122 27.9465 104.122 26.7067V16.88C104.122 13.9579 106.259 12.1421 109.04 11.3449C111.052 10.7688 113.232 10.7688 115.24 11.3449C120.799 13.0729 121.739 20.7291 116.566 23.5634C113.575 25.2457 109.169 24.6239 106.307 24.6239V26.886ZM106.307 22.6784C108.145 22.5906 112.676 23.0751 115.542 21.6598C119.175 19.8898 118.493 14.5759 114.688 13.4697C113.063 13.0271 111.225 13.0271 109.6 13.4697C107.762 13.9999 106.307 15.1519 106.307 16.88V22.6784Z" fill="#00FFA3"/>
<path d="M126.148 1.73575V13.733C129.656 9.43766 140 11.0322 140 17.6278V27.4126C140 30.3347 137.863 32.1924 135.082 32.9477C131.917 33.8328 127.685 32.9897 125.975 30.4682V32.902H123.964C123.964 22.4992 123.964 12.0927 123.964 1.73193H126.148V1.73575ZM126.148 26.4437C126.148 29.8082 129.313 31.1358 132.006 31.1358C132.861 31.1358 133.759 31.048 134.529 30.8268C136.368 30.2965 137.823 29.1445 137.823 27.4164V17.5439C137.823 11.9668 126.148 12.4093 126.148 17.2349V26.4437Z" fill="#00FFA3"/>
<path d="M23.3634 19.3673V20.9466H27.8504C27.1136 25.5357 23.2676 29.049 18.6333 29.049C13.4758 29.049 9.28348 24.7041 9.28348 19.3673C9.28348 14.0267 13.4795 9.68556 18.6333 9.68556C18.8911 9.68556 19.1453 9.70463 19.3958 9.72752V4.44796C19.1416 4.43651 18.8911 4.40981 18.6333 4.40981C11.7185 4.40981 5.94953 9.44142 4.53122 16.1553H1.74249C3.20869 7.87738 10.2229 1.58311 18.6333 1.58311V0C8.83404 0 0.803094 7.8049 0 17.7346H5.82059C6.57211 11.3869 11.6264 6.40872 17.867 6.02725V8.1406C12.2196 8.54877 7.75465 13.4087 7.75465 19.3635C7.75465 25.5853 12.6248 30.6283 18.6333 30.6283C24.6417 30.6283 29.5119 25.5853 29.5119 19.3635H23.3634V19.3673Z" fill="white"/>
<path d="M6.02704 22.2703H0.140137C1.21216 29.6517 6.31438 35.6561 13.0486 37.8381V42.0038H14.5737V36.6403C8.45106 35.0991 3.59934 30.1553 2.01157 23.8496H4.85924C6.64225 29.7242 11.8218 34.031 18.0219 34.2981V37.7656H19.547V32.6959C19.2413 32.7188 18.9355 32.7455 18.626 32.7455C12.4702 32.7455 7.31273 28.2555 6.02704 22.2703Z" fill="white"/>
<path d="M35.7045 18.6426H34.1573C34.1683 18.8943 34.1941 19.1423 34.1941 19.3979C34.1941 25.0666 31.3649 30.06 27.0952 32.9592V34.8284C32.249 31.7538 35.7193 26.0012 35.7193 19.3979C35.723 19.1461 35.7156 18.8905 35.7045 18.6426Z" fill="white"/>
<path d="M21.2526 17.3836C20.3353 16.6931 19.9743 17.0403 19.8343 17.3264C19.7717 17.4637 19.6354 17.5476 19.4954 17.5476C19.4806 17.5476 19.4696 17.5476 19.4548 17.5438C19.267 17.5247 19.1196 17.3645 19.1159 17.17C19.0938 16.3536 19.6096 15.5334 19.6096 15.5334C20.269 16.0255 20.8326 16.6588 21.2526 17.3836Z" fill="#00FFA3"/>
<path d="M22.1001 20.5651C22.1001 21.3013 21.9785 22.007 21.7501 22.6594C21.5585 22.3237 21.4885 21.9231 21.4664 21.5722C21.4443 21.1831 21.1054 20.8893 20.7333 20.9504C20.726 20.9504 20.7186 20.9542 20.7112 20.9542C20.1955 21.0305 19.7202 20.6528 19.6539 20.1188C19.6208 19.8784 19.6134 19.661 19.6208 19.4626C19.6208 19.4626 19.6945 18.5166 20.1292 18.0626C20.2176 17.9711 20.2912 17.8986 20.3612 17.849C20.457 17.7765 20.5786 17.746 20.6965 17.7613C21.1238 17.8185 21.4443 17.7422 21.4443 17.7422C21.8643 18.5929 22.1001 19.5504 22.1001 20.5651Z" fill="#00FFA3"/>
<path d="M17.0824 15.3924L16.3604 16.3689C16.2646 15.6212 15.4099 14.9804 15.6347 14.9994C16.7656 15.0986 17.0824 15.3924 17.0824 15.3924Z" fill="#00FFA3"/>
<path d="M15.5828 16.4261C15.8112 16.7428 15.7007 17.1967 15.3507 17.3607C14.8202 17.6125 14.0945 18.0092 13.7629 18.4365C13.6229 18.6158 13.3945 18.6959 13.1772 18.6425C12.9046 18.57 12.562 18.5776 12.3557 18.9477C11.9799 19.6305 13.4387 20.4125 13.354 21.2861C13.354 21.2823 13.354 21.2785 13.3503 21.2785C13.2987 21.0648 13.1551 20.8894 12.9561 20.8016C12.4441 20.5727 11.9836 20.218 11.6925 19.6686C11.0552 18.467 11.5083 17.0365 11.9541 16.1057C12.5067 15.5526 13.1587 15.1139 13.8845 14.8125C13.8882 14.8087 14.8828 15.4496 15.5828 16.4261Z" fill="#00FFA3"/>
<path d="M16.9866 22.4114C17.5465 22.7624 17.6792 23.5482 17.2629 24.0708C17.0308 24.3646 16.7619 24.6812 16.4929 24.9864L15.5609 26.0087C15.1188 26.4855 14.9494 26.6458 14.9494 26.6458C14.3931 25.8103 14.592 24.2234 14.592 24.2234L14.01 23.8C13.5826 23.491 13.3469 22.9646 13.4095 22.4267C13.4647 21.927 13.4169 21.5378 13.3579 21.2784C13.8516 21.1182 14.3526 21.0381 14.7062 21C14.9825 20.9695 15.2551 21.0648 15.4541 21.2632C15.8482 21.6599 16.4635 22.0834 16.9866 22.4114Z" fill="#00FFA3"/>
</svg>
