<svg width="50" height="50" viewBox="0 0 50 50" fill="none" xmlns="http://www.w3.org/2000/svg">
<path d="M41.3743 16.8542C41.3743 17.7292 41.3118 18.5833 41.2077 19.3958C40.2493 18.9792 39.2077 18.75 38.1035 18.75C35.5619 18.75 33.3119 19.9791 31.916 21.8541C30.4994 19.9791 28.2493 18.75 25.7077 18.75C21.4368 18.75 17.9785 22.2291 17.9785 26.5416C17.9785 32.125 20.9369 36.3958 24.2285 39.2916C24.1244 39.3541 24.0202 39.375 23.916 39.4167C23.291 39.6459 22.2494 39.6459 21.6244 39.4167C16.2285 37.5625 4.16602 29.8958 4.16602 16.8542C4.16602 11.1042 8.791 6.45834 14.4993 6.45834C17.8952 6.45834 20.8952 8.08332 22.7702 10.6042C24.666 8.08332 27.666 6.45834 31.041 6.45834C36.7493 6.45834 41.3743 11.1042 41.3743 16.8542Z" stroke="white" stroke-width="2" stroke-linecap="round" stroke-linejoin="round"/>
<path d="M45.8327 26.5416C45.8327 36.2916 36.8119 42.0417 32.7702 43.4167C32.291 43.5833 31.5202 43.5833 31.041 43.4167C29.3118 42.8333 26.666 41.4375 24.2285 39.2916C20.9368 36.3958 17.9785 32.125 17.9785 26.5416C17.9785 22.2291 21.4368 18.75 25.7077 18.75C28.2493 18.75 30.4994 19.9791 31.916 21.8541C33.3119 19.9791 35.5619 18.75 38.1035 18.75C39.2077 18.75 40.2493 18.9792 41.2077 19.3958C43.9368 20.6042 45.8327 23.3333 45.8327 26.5416Z" stroke="url(#paint0_linear_10553_8589)" stroke-width="2" stroke-linecap="round" stroke-linejoin="round"/>
<defs>
<linearGradient id="paint0_linear_10553_8589" x1="16.2383" y1="16.683" x2="47.5742" y2="16.683" gradientUnits="userSpaceOnUse">
<stop stop-color="#00FFA3"/>
<stop offset="1" stop-color="#00FFA3" stop-opacity="0"/>
</linearGradient>
</defs>
</svg>
