<svg width="20" height="21" viewBox="0 0 20 21" fill="none" xmlns="http://www.w3.org/2000/svg">
<g clip-path="url(#clip0_10551_7345)">
<ellipse cx="6.07143" cy="6.21429" rx="6.07143" ry="5.71429" fill="#184AA9"/>
<circle cx="14.2866" cy="14.7858" r="5.71429" fill="#2173F0"/>
<circle cx="10.0006" cy="10.5001" r="9.28571" fill="url(#paint0_linear_10551_7345)"/>
<path d="M10.0483 5.5C11.5578 5.5 13.5706 6.21429 13.0674 7.16667C12.3796 8.46838 11.0547 7.16667 10.0483 7.16667C9.04191 7.16667 8.53872 7.64286 8.53872 8.11905C8.53872 8.59524 8.79031 9.07143 10.0483 9.54762C11.3062 10.0238 13.5706 10.7381 13.5706 12.6429C13.5706 14.5476 11.8094 15.5 9.54509 15.5C7.51668 15.5 6.02278 14.5476 6.52597 13.5952C7.10464 12.5 8.53872 13.8333 9.54509 13.8333C10.5515 13.8333 11.5578 13.5952 11.5578 12.6429C11.5578 11.6905 10.0483 11.4524 9.04189 10.9762C7.7839 10.3809 6.52595 9.78571 6.52595 8.11905C6.52595 6.45238 8.53872 5.5 10.0483 5.5Z" fill="white"/>
</g>
<defs>
<linearGradient id="paint0_linear_10551_7345" x1="2.77834" y1="4.82547" x2="16.7069" y2="16.4326" gradientUnits="userSpaceOnUse">
<stop stop-color="#297AC0"/>
<stop offset="1" stop-color="#48B0F9"/>
</linearGradient>
<clipPath id="clip0_10551_7345">
<rect width="20" height="20" fill="white" transform="translate(0 0.5)"/>
</clipPath>
</defs>
</svg>
