<svg width="120" height="120" viewBox="0 0 120 120" fill="none" xmlns="http://www.w3.org/2000/svg">
<path d="M19.1804 80.689H14L15.9203 87.4444L14 94.2H19.1357L19.1804 86.8087V80.689Z" fill="#00539F"/>
<path d="M100.133 80.689H105.269L103.348 87.4444L105.269 94.2H100.133V86.8087L100.133 80.689Z" fill="#00539F"/>
<g filter="url(#filter0_i_10553_8923)">
<path d="M19.0684 22.481L59.4959 3L100.135 22.481V97.2785L59.7076 117L19.0684 97.2785V22.481Z" fill="white"/>
</g>
<path d="M21.5996 24.7043L59.5274 6.37775L97.6534 24.7043V95.0695L59.7257 113.622L21.5996 95.0695V24.7043Z" fill="url(#paint0_linear_10553_8923)"/>
<path d="M59.0324 37.3169L58.0215 36.5972H59.2624L59.6758 35.3016L60.0436 36.5972H61.2842L60.2733 37.3169L60.6408 38.5644L59.6299 37.7968L58.573 38.5644L59.0324 37.3169Z" fill="#2AD2FF"/>
<path d="M65.1589 37.3169L64.2012 36.5972H65.3764L65.7682 35.3016L66.1166 36.5972H67.2918L66.3341 37.3169L66.6824 38.5644L65.7247 37.7968L64.7235 38.5644L65.1589 37.3169Z" fill="#2AD2FF"/>
<path d="M53.2922 37.3169L52.2812 36.5972H53.5219L53.9353 35.3016L54.3031 36.5972H55.5437L54.5328 37.3169L54.9003 38.5644L53.8894 37.7968L52.8785 38.5644L53.2922 37.3169Z" fill="#2AD2FF"/>
<path d="M59.8111 29.1777C59.7634 29.1777 59.7634 29.1305 59.8111 29.1777L59.5729 29.0357L59.5252 28.9886L53.9052 25.0136C53.9052 25.0136 53.8575 25.0136 53.8575 24.9665L53.7623 24.8718L53.7146 24.8245H53.6193L52 23.6888L55.191 24.162C55.334 24.162 55.3816 24.2094 55.5245 24.2567C55.5722 24.2567 55.6674 24.304 55.6674 24.304C55.8104 24.3513 55.8578 24.3986 55.9531 24.4459C56.0483 24.4933 56.096 24.5406 56.1913 24.5879C56.2389 24.6352 56.3342 24.6825 56.3342 24.7298C56.3818 24.7772 56.4295 24.7772 56.4771 24.8245C56.5724 24.8718 56.62 24.9191 56.62 24.9665C56.7627 25.1084 56.858 25.2504 57.0009 25.345L59.5252 28.8938L59.5729 28.9412L59.8111 29.1777Z" fill="#18AAD1"/>
<path d="M59.7634 34.6667L59.5252 34.288L59.4776 34.2408L52 23.6888L53.6193 24.8245L53.9052 25.0136L59.5252 28.9886H59.5729L59.7634 29.1305C59.7634 29.1305 59.8111 29.1305 59.8111 29.1777L60.0493 28.9886L67.6221 23.6888L60.0016 34.288L59.954 34.3354L59.7634 34.6667Z" fill="url(#paint1_linear_10553_8923)"/>
<path d="M59.8543 27.4889L59.6452 27.1194L59.6037 27.0733L57.9746 24.5795L59.6037 24.9491H59.6452L59.8543 24.9953L60.0631 24.9491L61.6503 24.5333L60.0631 27.1194V27.1656L59.8543 27.4889Z" fill="#18AAD1"/>
<path d="M67.6236 23.6888L65.2709 24.0173L64.3769 24.158C63.671 24.2518 63.0123 24.6271 62.5888 25.237L60.0949 28.8024L60.0478 28.8493L59.8125 29.1777L60.0949 28.8962L60.1419 28.8493L59.8125 29.1777L66.1649 24.674L67.6236 23.6888Z" fill="#18AAD1"/>
<path d="M60.7295 16.3208C60.7295 18.4141 57.1664 19.5083 57.1664 21.7443C57.1194 22.2676 57.2599 22.7909 57.4945 23.2666C57.4945 23.2666 56.1348 21.9346 56.1348 20.5073C56.1348 19.0801 57.4476 16.9392 57.4476 16.9392C57.4476 17.8907 57.8226 18.1762 58.1977 18.2238H58.2446C58.6666 18.2238 58.9009 17.8907 58.9009 17.415C58.9009 16.9392 58.3854 16.4635 58.3854 15.512C58.3854 14.6081 59.5105 13.1333 59.5105 13.1333C60.3076 14.0848 60.7295 15.179 60.7295 16.3208Z" fill="#2AD2FF"/>
<path d="M60.1102 23.6889C58.8898 23.6889 57.9746 22.8294 57.9746 21.7889V21.7437C57.9746 19.4365 61.5847 19.2104 61.5847 16.0889C61.6865 16.2246 62.6525 17.4008 62.6525 18.6675C62.6525 20.2508 60.9746 20.658 60.9746 21.427C60.9746 21.7437 61.1272 21.9699 61.6355 21.9699C61.6865 21.9699 61.7373 21.9699 61.7881 21.9246C62.7543 21.5627 63.4153 20.7484 63.4661 19.7984C63.4661 19.8437 63.9746 23.6889 60.1102 23.6889Z" fill="#2AD2FF"/>
<path d="M61.699 21.9703C61.7873 21.9425 61.5714 22.078 61.4611 22.1056C60.8087 22.2687 59.9929 22.595 59.7734 21.5668C59.7734 20.0425 62.1803 19.7091 62.1803 18.423C62.1803 17.6132 62.0053 16.8034 61.6113 16.0889C61.699 16.2318 62.603 17.3461 62.603 18.6798C62.603 20.347 61.0863 20.589 61.0863 21.3988C61.13 21.7322 61.305 21.9703 61.699 21.9703Z" fill="#18AAD1"/>
<path d="M59.3882 17.1392C59.3882 18.3174 58.091 18.2231 58.0098 18.176H58.1315C58.4964 18.176 58.6991 17.8461 58.6991 17.3749C58.6991 16.9036 58.2531 16.4323 58.2531 15.4897C58.2531 14.5943 59.5034 13.1333 59.5034 13.1333C59.1792 13.746 58.7397 14.4058 58.6991 15.0656C58.6991 16.1495 59.3882 16.2438 59.3882 17.1392Z" fill="#18AAD1"/>
<path d="M37.7468 64.2221C40.7472 64.2221 42.9149 62.3991 42.9149 59.4276C42.9149 56.4558 40.7472 54.6471 37.7324 54.6471H33.7129V64.2221H37.7468ZM37.7324 62.0688H36.182V56.8005H37.7468C39.4981 56.8005 40.3882 57.9487 40.3882 59.4276C40.3882 60.8486 39.412 62.0688 37.7324 62.0688Z" fill="white"/>
<path d="M51.305 64.2221V62.0688H46.7545V60.4468H51.2046V58.2934H46.7545V56.8005H51.305V54.6471H44.2852V64.2221H51.305Z" fill="white"/>
<path d="M56.4427 64.3945C59.0122 64.3945 60.4334 63.1169 60.4334 61.1933C60.4334 57.633 55.0215 58.5231 55.0215 57.3459C55.0215 56.9296 55.3372 56.6855 56.055 56.6855C57.0025 56.6855 58.0504 57.0159 58.8545 57.6904L60.2037 55.8387C59.1845 54.9629 57.8496 54.5035 56.3134 54.5035C53.8586 54.5035 52.5094 55.9391 52.5094 57.547C52.5094 61.2363 57.9213 60.1884 57.9213 61.4516C57.9213 61.9254 57.4045 62.2125 56.5718 62.2125C55.2512 62.2125 54.1887 61.6383 53.4999 60.9492L52.1934 62.8729C53.1552 63.7771 54.5047 64.3945 56.4427 64.3945Z" fill="white"/>
<path d="M64.2015 64.2221V54.6471H61.7324V64.2221H64.2015Z" fill="white"/>
<path d="M70.7606 64.3944C72.5693 64.3944 73.9762 63.6623 74.9954 62.5281V58.7241H70.3729V60.8918H72.5263V61.6383C72.1819 61.9253 71.4641 62.2124 70.7606 62.2124C69.1957 62.2124 68.0905 61.0065 68.0905 59.4419C68.0905 57.8626 69.1957 56.6711 70.7606 56.6711C71.6938 56.6711 72.4259 57.2598 72.7847 57.8913L74.852 56.8148C74.1916 55.6232 72.8996 54.4891 70.7606 54.4891C67.9038 54.4891 65.5781 56.3984 65.5781 59.4419C65.5781 62.4851 67.9038 64.3944 70.7606 64.3944Z" fill="white"/>
<path d="M85.4845 64.2221V54.6471H83.001V59.9156L79.125 54.6471H76.584V64.2221H79.0533V58.6808L83.1014 64.2221H85.4845Z" fill="white"/>
<path d="M46.8577 73.9333L44.6321 68.0192H42.708L40.4824 73.9333H42.2114L42.504 73.0821H44.8361L45.1285 73.9333H46.8577ZM44.4192 71.7522H42.9207L43.6744 69.5267L44.4192 71.7522Z" fill="white"/>
<path d="M53.1379 73.9333L54.8314 68.0192H53.1112L52.2247 71.9649L51.2138 68.0192H50.0434L49.0327 71.9649L48.137 68.0192H46.4258L48.1193 73.9333H49.733L50.6287 70.227L51.5242 73.9333H53.1379Z" fill="white"/>
<path d="M60.7678 73.9333L58.5423 68.0192H56.6181L54.3926 73.9333H56.1218L56.4142 73.0821H58.7462L59.0389 73.9333H60.7678ZM58.3296 71.7522H56.8311L57.5846 69.5267L58.3296 71.7522Z" fill="white"/>
<path d="M66.3381 73.9333L65.1323 71.761C65.6908 71.5661 66.3114 71.0162 66.3114 69.9878C66.3114 68.8881 65.5666 68.0192 64.2543 68.0192H61.293V73.9333H62.818V71.9472H63.5983L64.5914 73.9333H66.3381ZM64.0239 70.6171H62.818V69.3492H64.0239C64.4317 69.3492 64.7599 69.5709 64.7599 69.9788C64.7599 70.3957 64.4317 70.6171 64.0239 70.6171Z" fill="white"/>
<path d="M69.7359 73.9333C71.5888 73.9333 72.9279 72.8072 72.9279 70.972C72.9279 69.1366 71.5888 68.0192 69.7269 68.0192H67.2441V73.9333H69.7359ZM69.7269 72.6032H68.7692V69.3492H69.7359C70.8175 69.3492 71.3671 70.0585 71.3671 70.972C71.3671 71.8497 70.7643 72.6032 69.7269 72.6032Z" fill="white"/>
<path d="M75.9743 74.0398C77.5613 74.0398 78.4393 73.2505 78.4393 72.0624C78.4393 69.8636 75.0966 70.4131 75.0966 69.6861C75.0966 69.4289 75.2915 69.2782 75.7349 69.2782C76.3202 69.2782 76.9672 69.4822 77.4638 69.899L78.2973 68.7552C77.6677 68.2143 76.8433 67.9307 75.8946 67.9307C74.3783 67.9307 73.5448 68.8171 73.5448 69.8103C73.5448 72.0891 76.8875 71.4418 76.8875 72.2221C76.8875 72.5147 76.5683 72.6919 76.054 72.6919C75.2383 72.6919 74.5822 72.3373 74.1566 71.9117L73.3496 73.0998C73.9437 73.6584 74.7772 74.0398 75.9743 74.0398Z" fill="white"/>
<path d="M55.1987 103.067V102.328H53.5908C54.6134 101.583 55.169 100.998 55.169 100.324C55.169 99.5378 54.5011 99.0648 53.6618 99.0648C53.1122 99.0648 52.5269 99.2658 52.1426 99.7092L52.6214 100.265C52.8873 99.987 53.2303 99.8096 53.6795 99.8096C54.0047 99.8096 54.3181 99.981 54.3181 100.324C54.3181 100.809 53.845 101.216 52.2313 102.41V103.067H55.1987Z" fill="#2AD2FF"/>
<path d="M57.8014 103.138C58.9246 103.138 59.4329 102.115 59.4329 101.098C59.4329 100.082 58.9246 99.0648 57.8014 99.0648C56.6723 99.0648 56.1699 100.082 56.1699 101.098C56.1699 102.115 56.6723 103.138 57.8014 103.138ZM57.8014 102.393C57.2338 102.393 57.0212 101.825 57.0212 101.098C57.0212 100.371 57.2338 99.8096 57.8014 99.8096C58.3629 99.8096 58.5758 100.371 58.5758 101.098C58.5758 101.825 58.3629 102.393 57.8014 102.393Z" fill="#2AD2FF"/>
<path d="M63.353 103.067V102.328H61.7451C62.7677 101.583 63.3233 100.998 63.3233 100.324C63.3233 99.5378 62.6554 99.0648 61.8161 99.0648C61.2662 99.0648 60.6812 99.2658 60.2969 99.7092L60.7757 100.265C61.0416 99.987 61.3846 99.8096 61.8338 99.8096C62.159 99.8096 62.4721 99.981 62.4721 100.324C62.4721 100.809 61.9993 101.216 60.3856 102.41V103.067H63.353Z" fill="#2AD2FF"/>
<path d="M67.3706 103.067V102.328H65.7627C66.7853 101.583 67.3409 100.998 67.3409 100.324C67.3409 99.5378 66.673 99.0648 65.8336 99.0648C65.2841 99.0648 64.6987 99.2658 64.3145 99.7092L64.7933 100.265C65.0592 99.987 65.4022 99.8096 65.8514 99.8096C66.1766 99.8096 66.4899 99.981 66.4899 100.324C66.4899 100.809 66.0169 101.216 64.4032 102.41V103.067H67.3706Z" fill="#2AD2FF"/>
<path d="M100.177 79.0001H19.0684V92.5112H100.177V79.0001Z" fill="#0460B5"/>
<path d="M27.0747 88.2888C28.7513 88.2888 29.9146 87.2299 29.9146 85.6174C29.9146 84.0049 28.7513 82.938 27.0747 82.938H24.9648V88.2888H27.0747ZM27.0747 87.2861H26.104V83.9407H27.0747C28.1737 83.9407 28.7513 84.6707 28.7513 85.6174C28.7513 86.5238 28.1336 87.2861 27.0747 87.2861Z" fill="white"/>
<path d="M34.6712 88.2888V87.2861H32.0239V86.0746H34.6151V85.072H32.0239V83.9407H34.6712V82.938H30.8848V88.2888H34.6712Z" fill="white"/>
<path d="M37.6216 88.385C39.0656 88.385 39.7635 87.647 39.7635 86.6682C39.7635 84.6706 36.6911 85.2404 36.6911 84.3899C36.6911 84.069 36.9638 83.8524 37.4532 83.8524C37.9987 83.8524 38.5763 84.0369 39.0095 84.438L39.6432 83.6038C39.1138 83.1145 38.4079 82.8578 37.5575 82.8578C36.298 82.8578 35.5278 83.5958 35.5278 84.4861C35.5278 86.4997 38.6084 85.85 38.6084 86.7965C38.6084 87.1016 38.3036 87.3903 37.6778 87.3903C36.9397 87.3903 36.3541 87.0614 35.9771 86.6682L35.3594 87.5347C35.8567 88.04 36.5948 88.385 37.6216 88.385Z" fill="white"/>
<path d="M41.8304 88.2888V82.938H40.6914V88.2888H41.8304Z" fill="white"/>
<path d="M45.6447 88.393C46.6153 88.393 47.3775 87.9919 47.923 87.3823V85.3286H45.372V86.3233H46.7837V86.9652C46.5671 87.1658 46.1179 87.3743 45.6447 87.3743C44.6739 87.3743 43.968 86.6281 43.968 85.6174C43.968 84.6065 44.6739 83.8605 45.6447 83.8605C46.2142 83.8605 46.6714 84.1813 46.9121 84.5583L47.8588 84.045C47.4578 83.4113 46.7596 82.8498 45.6447 82.8498C44.0803 82.8498 42.7969 83.9246 42.7969 85.6174C42.7969 87.3021 44.0803 88.393 45.6447 88.393Z" fill="white"/>
<path d="M53.7758 88.2888V82.938H52.6365V86.2992L50.1577 82.938H48.9863V88.2888H50.1256V84.7992L52.6766 88.2888H53.7758Z" fill="white"/>
<path d="M59.3242 88.2888L58.121 86.2511C58.6985 86.1147 59.2921 85.6094 59.2921 84.6626C59.2921 83.668 58.6103 82.938 57.4951 82.938H54.9922V88.2888H56.1315V86.3875H56.9657L58.0167 88.2888H59.3242ZM57.3266 85.3848H56.1315V83.9407H57.3266C57.7839 83.9407 58.129 84.2134 58.129 84.6626C58.129 85.1121 57.7839 85.3848 57.3266 85.3848Z" fill="white"/>
<path d="M62.7233 88.385C64.3518 88.385 65.1379 87.4786 65.1379 86.1468V82.938H63.9746V86.1147C63.9746 86.8607 63.5494 87.3743 62.7233 87.3743C61.8968 87.3743 61.4637 86.8607 61.4637 86.1147V82.938H60.3086V86.1548C60.3086 87.4706 61.0947 88.385 62.7233 88.385Z" fill="white"/>
<path d="M68.2525 88.385C69.6966 88.385 70.3944 87.647 70.3944 86.6682C70.3944 84.6706 67.322 85.2404 67.322 84.3899C67.322 84.069 67.5947 83.8524 68.084 83.8524C68.6297 83.8524 69.2073 84.0369 69.6404 84.438L70.2741 83.6038C69.7447 83.1145 69.0388 82.8578 68.1883 82.8578C66.929 82.8578 66.1587 83.5958 66.1587 84.4861C66.1587 86.4997 69.2394 85.85 69.2394 86.7965C69.2394 87.1016 68.9345 87.3903 68.3089 87.3903C67.5707 87.3903 66.9851 87.0614 66.6081 86.6682L65.9902 87.5347C66.4878 88.04 67.2258 88.385 68.2525 88.385Z" fill="white"/>
<path d="M76.1355 88.2888V82.938H74.9885V85.0399H72.4615V82.938H71.3223V88.2888H72.4615V86.0425H74.9885V88.2888H76.1355Z" fill="white"/>
<path d="M77.8472 88.3771C78.2002 88.3771 78.497 88.0803 78.497 87.7274C78.497 87.3744 78.2002 87.0776 77.8472 87.0776C77.4943 87.0776 77.1973 87.3744 77.1973 87.7274C77.1973 88.0803 77.4943 88.3771 77.8472 88.3771Z" fill="white"/>
<path d="M81.3135 88.385C82.1076 88.385 82.5889 88.0401 82.8455 87.6791L82.1798 87.0615C81.9953 87.3181 81.7145 87.4786 81.3616 87.4786C80.7437 87.4786 80.3106 87.0214 80.3106 86.3473C80.3106 85.6735 80.7437 85.2243 81.3616 85.2243C81.7145 85.2243 81.9953 85.3687 82.1798 85.6414L82.8455 85.0158C82.5889 84.6626 82.1076 84.3177 81.3135 84.3177C80.118 84.3177 79.2598 85.1602 79.2598 86.3473C79.2598 87.5427 80.118 88.385 81.3135 88.385Z" fill="white"/>
<path d="M85.4693 88.385C86.7529 88.385 87.523 87.4545 87.523 86.3473C87.523 85.2484 86.7529 84.3177 85.4693 84.3177C84.1939 84.3177 83.4238 85.2484 83.4238 86.3473C83.4238 87.4545 84.1939 88.385 85.4693 88.385ZM85.4693 87.4786C84.8356 87.4786 84.4826 86.9572 84.4826 86.3473C84.4826 85.7457 84.8356 85.2243 85.4693 85.2243C86.1032 85.2243 86.4642 85.7457 86.4642 86.3473C86.4642 86.9572 86.1032 87.4786 85.4693 87.4786Z" fill="white"/>
<path d="M94.2697 88.2887V85.489C94.2697 84.6947 93.8446 84.3177 93.1305 84.3177C92.5369 84.3177 92.0235 84.6706 91.7989 85.0238C91.6545 84.5824 91.2933 84.3177 90.7238 84.3177C90.1302 84.3177 89.6169 84.6867 89.4564 84.9195V84.4139H88.4375V88.2887H89.4564V85.6816C89.6089 85.465 89.9056 85.2243 90.2586 85.2243C90.6757 85.2243 90.8361 85.481 90.8361 85.842V88.2887H91.8631V85.6735C92.0075 85.465 92.3043 85.2243 92.6652 85.2243C93.0823 85.2243 93.2428 85.481 93.2428 85.842V88.2887H94.2697Z" fill="white"/>
<path opacity="0.2" fill-rule="evenodd" clip-rule="evenodd" d="M44.6748 49.0222H40.1777V48.6H44.6748V49.0222Z" fill="white"/>
<path opacity="0.2" fill-rule="evenodd" clip-rule="evenodd" d="M79.7509 49.0222H75.2539V48.6H79.7509V49.0222Z" fill="white"/>
<path d="M53.8362 50.711C54.7008 50.711 55.1468 50.1707 55.1468 49.4884C55.1468 48.9276 54.7683 48.4614 54.2819 48.387C54.7076 48.2993 55.0588 47.9142 55.0588 47.3535C55.0588 46.7524 54.6198 46.205 53.7618 46.205H51.3906V50.711H53.8362ZM53.5525 47.9952H52.35V47.0494H53.5525C53.8767 47.0494 54.0795 47.2453 54.0795 47.5224C54.0795 47.8129 53.8767 47.9952 53.5525 47.9952ZM53.5928 49.8666H52.35V48.8398H53.5928C53.9645 48.8398 54.1672 49.0693 54.1672 49.3532C54.1672 49.6775 53.9509 49.8666 53.5928 49.8666Z" fill="#2AD2FF"/>
<path d="M59.5306 50.711V49.8666H57.3012V48.8398H59.4832V47.9952H57.3012V47.0494H59.5306V46.205H56.3418V50.711H59.5306Z" fill="#2AD2FF"/>
<path d="M62.3619 50.7923C63.5712 50.7923 64.1655 50.1707 64.1655 49.3465C64.1655 47.6644 61.5783 48.144 61.5783 47.4347C61.5783 47.1644 61.808 46.9887 62.2132 46.9887C62.6726 46.9887 63.1589 47.1442 63.5238 47.4819L64.0576 46.7658C63.6115 46.3538 63.0172 46.1375 62.3011 46.1375C61.2404 46.1375 60.5919 46.759 60.5919 47.5089C60.5919 49.2045 63.1862 48.6574 63.1862 49.441C63.1862 49.7045 62.936 49.941 62.4025 49.941C61.781 49.941 61.2878 49.6571 60.9703 49.3263L60.4434 50.0762C60.869 50.5015 61.4905 50.7923 62.3619 50.7923Z" fill="#2AD2FF"/>
<path d="M67.1975 50.711V47.0494H68.5081V46.205H64.9141V47.0494H66.2315V50.711H67.1975Z" fill="#2AD2FF"/>
<defs>
<filter id="filter0_i_10553_8923" x="19.0684" y="3" width="81.0664" height="114" filterUnits="userSpaceOnUse" color-interpolation-filters="sRGB">
<feFlood flood-opacity="0" result="BackgroundImageFix"/>
<feBlend mode="normal" in="SourceGraphic" in2="BackgroundImageFix" result="shape"/>
<feColorMatrix in="SourceAlpha" type="matrix" values="0 0 0 0 0 0 0 0 0 0 0 0 0 0 0 0 0 0 127 0" result="hardAlpha"/>
<feOffset/>
<feGaussianBlur stdDeviation="5"/>
<feComposite in2="hardAlpha" operator="arithmetic" k2="-1" k3="1"/>
<feColorMatrix type="matrix" values="0 0 0 0 0 0 0 0 0 0 0 0 0 0 0 0 0 0 0.1 0"/>
<feBlend mode="normal" in2="shape" result="effect1_innerShadow_10553_8923"/>
</filter>
<linearGradient id="paint0_linear_10553_8923" x1="59.6265" y1="8.98395" x2="59.6265" y2="103.197" gradientUnits="userSpaceOnUse">
<stop stop-color="#0460B5"/>
<stop offset="1" stop-color="#001D51"/>
</linearGradient>
<linearGradient id="paint1_linear_10553_8923" x1="59.8111" y1="34.699" x2="59.8111" y2="28.8911" gradientUnits="userSpaceOnUse">
<stop offset="1" stop-color="#2AD2FF"/>
</linearGradient>
</defs>
</svg>
