<svg width="120" height="120" viewBox="0 0 120 120" fill="none" xmlns="http://www.w3.org/2000/svg">
<path d="M15.3376 59.9822C15.6362 59.8359 17.8942 58.6891 18.5289 55.9901C19.2091 53.0994 17.4375 50.9362 17.2397 50.7029C15.2783 48.3915 12.437 48.613 12.1621 48.6387H0.00195312V71.7885H13.3465C13.3465 71.7885 19.221 71.0707 19.7192 65.9358C19.9189 64.5003 19.1221 61.0104 15.3376 59.9822ZM7.80621 54.2343H9.70043C10.5526 54.2343 11.2506 54.9323 11.2506 55.7845C11.2506 56.6367 10.5526 57.3347 9.70043 57.3347H7.80621V54.2343ZM10.1097 66.2205H7.80621V62.4498H10.1097C11.1458 62.4498 11.9941 63.2981 11.9941 64.3362C11.9941 65.3722 11.1458 66.2205 10.1097 66.2205Z" fill="#808285"/>
<path d="M37.7704 48.793H28.7343L20.584 71.6086H29.2602L30.0907 68.8543H36.8687L37.7209 71.6086H45.7644L37.7704 48.793ZM31.6527 63.2349L33.3551 56.1642L34.9923 63.2349H31.6527Z" fill="#808285"/>
<path d="M76.8837 48.8459H68.6484V71.4163H76.8837V48.8459Z" fill="#808285"/>
<path d="M113.673 65.9985L108.757 69.0198L103.842 72.043V65.9985V59.954L108.757 62.9773L113.673 65.9985Z" fill="#6EC8BF"/>
<path d="M113.673 54.0524L108.757 57.0757L103.842 60.0969V54.0524V48.0079L108.757 51.0312L113.673 54.0524Z" fill="#008C44"/>
<path d="M119.515 60.0478L114.653 63.0057L109.789 65.9618V60.0478V54.1357L114.653 57.0918L119.515 60.0478Z" fill="#ED1C24"/>
<path d="M116.918 54.1138C115.22 54.1138 113.838 52.7574 113.838 51.0886C113.838 49.4198 115.22 48.0634 116.918 48.0634C118.617 48.0634 119.999 49.4198 119.999 51.0886C119.997 52.7574 118.615 54.1138 116.918 54.1138ZM116.918 48.4786C115.449 48.4786 114.255 49.6491 114.255 51.0886C114.255 52.528 115.449 53.6986 116.918 53.6986C118.388 53.6986 119.582 52.528 119.582 51.0886C119.582 49.6491 118.386 48.4786 116.918 48.4786Z" fill="#808285"/>
<path d="M118.299 51.4048C118.264 51.7686 118.135 52.0513 117.914 52.249C117.692 52.4468 117.396 52.5456 117.022 52.5456C116.619 52.5456 116.296 52.4072 116.057 52.1324C115.818 51.8575 115.699 51.4858 115.699 51.0192C115.699 50.5684 115.826 50.2046 116.079 49.9277C116.332 49.6509 116.664 49.5125 117.077 49.5125C117.412 49.5125 117.682 49.5936 117.89 49.7577C118.098 49.9218 118.224 50.1531 118.272 50.4517H117.884C117.854 50.2619 117.769 50.1156 117.629 50.0128C117.489 49.9099 117.305 49.8585 117.075 49.8585C116.777 49.8585 116.54 49.9653 116.368 50.1769C116.194 50.3884 116.107 50.6771 116.107 51.0429C116.107 51.4146 116.19 51.6994 116.358 51.8971C116.526 52.0968 116.765 52.1957 117.075 52.1957C117.317 52.1957 117.51 52.1265 117.657 51.988C117.801 51.8496 117.886 51.6539 117.912 51.4008H118.299V51.4048Z" fill="#808285"/>
<path d="M62.7684 55.9803L64.9117 50.3629C63.7985 49.6847 61.8766 48.7218 59.3497 48.4786C58.713 48.4173 52.101 47.8735 49.1727 52.2848C48.8425 52.7831 47.668 54.6101 47.9587 57.0421C48.1979 59.049 49.2498 61.1311 50.9423 61.8923C55.3774 63.8874 56.2632 63.0016 57.4475 64.0357C58.6299 65.0698 55.1559 67.8043 49.317 63.5176C48.5044 66.1039 47.0254 69.8745 47.0254 69.8745C47.0254 69.8745 57.669 74.6793 63.2864 69.135C63.8242 68.6032 65.9181 66.3708 65.6828 63.3199C65.6631 63.053 65.412 60.3382 63.3161 58.7109C62.3432 57.9556 61.2182 57.6254 61.0462 57.576C60.0971 57.3051 58.0743 56.9571 57.7916 56.9096C57.325 56.8305 56.7832 56.7435 56.4372 56.3026C56.4036 56.2611 56.0279 55.7668 56.192 55.2645C56.192 55.2645 56.3146 54.8869 56.8287 54.6239C58.0704 53.9872 62.3808 55.8142 62.7684 55.9803Z" fill="#808285"/>
<path d="M95.5828 55.9803L97.7262 50.3629C96.613 49.6847 94.6911 48.7218 92.1641 48.4786C91.5275 48.4173 84.9155 47.8735 81.9871 52.2848C81.6569 52.7831 80.4825 54.6101 80.7731 57.0421C81.0124 59.049 82.0643 61.1311 83.7568 61.8923C88.1918 63.8874 89.0776 63.0016 90.262 64.0357C91.4444 65.0698 87.9704 67.8043 82.1315 63.5176C81.3188 66.1039 79.8398 69.8745 79.8398 69.8745C79.8398 69.8745 90.4835 74.6793 96.1009 69.135C96.6387 68.6032 98.7326 66.3708 98.4973 63.3199C98.4775 63.053 98.2264 60.3382 96.1305 58.7109C95.1577 57.9556 94.0326 57.6254 93.8606 57.576C92.9115 57.3051 90.8888 56.9571 90.6041 56.9096C90.1374 56.8305 89.5957 56.7435 89.2496 56.3026C89.216 56.2611 88.8404 55.7668 89.0045 55.2645C89.0045 55.2645 89.1271 54.8869 89.6411 54.6239C90.8829 53.9872 95.1933 55.8142 95.5828 55.9803Z" fill="#808285"/>
</svg>
