<svg width="120" height="120" viewBox="0 0 120 120" fill="none" xmlns="http://www.w3.org/2000/svg">
<path d="M60.2192 107.587C86.6806 107.587 108.132 86.2417 108.132 59.9114C108.132 33.5811 86.6806 12.2362 60.2192 12.2362C33.7578 12.2362 12.3066 33.5811 12.3066 59.9114C12.3066 86.2417 33.7578 107.587 60.2192 107.587Z" fill="white"/>
<path d="M60.2186 13.2874C71.0489 13.2945 81.5417 17.0439 89.9095 23.8967C98.2772 30.7495 104.002 40.2818 106.109 50.8697C108.216 61.4576 106.574 72.446 101.464 81.9629C96.3535 91.4798 88.0905 98.9363 78.0826 103.062C68.0747 107.188 56.941 107.728 46.5784 104.59C36.2158 101.452 27.2653 94.8308 21.2519 85.8535C15.2384 76.8762 12.5339 66.0986 13.5993 55.3568C14.6646 44.6151 19.4338 34.5737 27.0943 26.9435C31.4378 22.597 36.6023 19.1514 42.2896 16.8057C47.9768 14.46 54.0741 13.2606 60.2291 13.2769L60.2186 13.2874ZM60.2291 11.1744C33.184 11.1744 11.2617 32.9883 11.2617 59.8833C11.2617 86.7784 33.1735 108.652 60.2186 108.652C87.2637 108.652 109.186 86.838 109.186 59.9429C109.186 33.0479 87.2637 11.1849 60.2186 11.1849L60.2291 11.1744Z" fill="#4385F4"/>
<path d="M60.169 105.099C85.2205 105.099 105.525 84.8896 105.525 59.9604C105.525 35.0313 85.2205 14.8258 60.169 14.8258C35.1174 14.8258 14.8125 35.0348 14.8125 59.9604C14.8125 84.8861 35.1209 105.099 60.169 105.099Z" stroke="#4385F4" stroke-width="2" stroke-miterlimit="10" stroke-dasharray="3 3"/>
<path d="M63.7877 60.3705H58.2324L59.1817 58.359L60.001 56.4738H62.0227L62.8419 58.359L63.7877 60.3705Z" fill="#FF7058"/>
<path d="M67.3222 60.3704H54.6997C54.3659 60.3714 54.0459 60.5037 53.8095 60.7387C53.573 60.9737 53.4394 61.2922 53.4375 61.625V65.7074H68.5247V61.625C68.536 61.4621 68.513 61.2986 68.4574 61.1451C68.4017 60.9915 68.3145 60.8512 68.2013 60.7331C68.0881 60.6151 67.9515 60.5218 67.8001 60.4594C67.6488 60.3969 67.486 60.3666 67.3222 60.3704Z" fill="#FFD15C"/>
<path d="M64.6 54.6584H57.4238V60.8645H64.6V54.6584Z" fill="#F1543F"/>
<path d="M70.8586 35.5569H51.1689C50.9684 35.5596 50.7768 35.6402 50.6349 35.7816C50.4931 35.923 50.4122 36.1139 50.4095 36.3138C50.4048 36.4173 50.4208 36.5207 50.4565 36.618C50.4923 36.7153 50.5471 36.8045 50.6177 36.8805C50.6884 36.9564 50.7735 37.0177 50.8682 37.0605C50.9628 37.1034 51.065 37.1271 51.1689 37.1303H70.8586C71.0585 37.1267 71.2492 37.0456 71.3903 36.9044C71.5314 36.7631 71.6118 36.5727 71.6145 36.3734C71.6192 36.2702 71.6033 36.167 71.5678 36.07C71.5323 35.9729 71.4778 35.8838 71.4075 35.8079C71.3372 35.732 71.2525 35.6707 71.1582 35.6276C71.064 35.5845 70.9622 35.5605 70.8586 35.5569ZM45.8633 39.0121V41.5877C45.8736 44.5779 46.7725 47.498 48.4464 49.9796C50.1203 52.4611 52.4942 54.3929 55.2686 55.5311C58.9478 57.0402 63.0762 57.0402 66.7554 55.5311C69.5298 54.3929 71.9037 52.4611 73.5776 49.9796C75.2515 47.498 76.1503 44.5779 76.1607 41.5877V39.0121H45.8633ZM73.6397 41.5877C73.6404 44.5045 72.6125 47.3289 70.7355 49.5668C69.5494 50.9923 68.0643 52.1414 66.3847 52.9332C64.7051 53.7251 62.8718 54.1406 61.0137 54.1504C59.1539 54.1544 57.3165 53.7451 55.6354 52.9522C53.9542 52.1593 52.4716 51.0028 51.2955 49.5668C49.4338 47.3201 48.4079 44.5015 48.3913 41.5877V41.5246H73.5764V41.5877H73.6397Z" fill="#F8B64C"/>
<path d="M70.8595 37.1303V43.911C70.8545 47.0004 69.9113 50.0158 68.1541 52.5609C66.3969 55.1059 63.908 57.0612 61.0147 58.1698C58.1189 57.0473 55.6302 55.0803 53.8738 52.5258C52.1175 49.9713 51.1751 46.9482 51.1699 43.8514V37.1303H70.8595Z" fill="#FFD15C"/>
<path d="M72.554 35.3782H49.4082V39.8251H72.554V35.3782Z" fill="#FFC952"/>
<path d="M60.1458 44.279C60.1458 44.279 59.5797 44.2229 59.5797 44.7205V46.9317H63.3102V47.594C63.3124 47.6398 63.3047 47.6856 63.2876 47.7282C63.2705 47.7708 63.2443 47.8092 63.211 47.8408C63.1776 47.8724 63.1378 47.8964 63.0942 47.9113C63.0506 47.9262 63.0044 47.9315 62.9586 47.9269H59.5832V50.8004H63.6618C63.6618 50.8004 66.123 50.4254 66.1476 47.9269V44.279H60.1458ZM65.9261 40.6976H58.669C56.0426 41.3179 55.9863 43.501 55.9863 43.501V50.8179H58.7991V44.1598C58.7979 44.0016 58.8503 43.8477 58.948 43.723C59.0457 43.5983 59.1828 43.5102 59.3371 43.473H65.9296L65.9261 40.6976Z" fill="white"/>
<path opacity="0.5" d="M37.3401 94.719L37.3014 94.6944C37.3014 94.6944 37.3155 94.7049 37.3401 94.719ZM31.936 90.3422L31.9079 90.3141C31.9079 90.3141 31.9184 90.3281 31.936 90.3422ZM27.5305 85.1734L27.5094 85.1489L27.5305 85.1734ZM20.4316 61.1904V61.1694C20.4316 61.1694 20.4316 61.1799 20.4316 61.1939V61.1904ZM20.9907 55.1491C20.9907 55.1245 20.9907 55.1105 20.9907 55.114C20.9907 55.1175 20.9872 55.1315 20.9907 55.1526V55.1491ZM24.2254 43.3748C24.2254 43.3748 24.2254 43.3678 24.2254 43.3748V43.3748Z" fill="#4385F4"/>
<g opacity="0.5">
<path opacity="0.5" d="M59.3179 96.3134C55.8622 96.4681 52.4045 96.0562 49.0828 95.0939C50.2712 93.5591 48.3093 92.0312 46.4282 90.5594L42.4868 87.6264C42.441 87.6614 44.8073 90.0093 44.5964 92.0558C44.5197 92.5212 44.5328 92.9969 44.635 93.4574C44.0971 93.2086 43.5802 92.9528 43.0458 92.6795C44.4276 91.3584 42.863 89.4661 41.3581 87.6719C39.7689 85.8603 38.1656 84.0836 38.1621 84.0801C38.1586 84.0766 39.9201 86.8414 39.3364 88.8564C39.1794 89.3067 39.1055 89.7816 39.1184 90.2581C38.6508 89.9076 38.1937 89.5783 37.7507 89.2068C39.3048 88.1135 38.1726 85.9549 37.0475 83.9294C35.8661 81.8724 34.6461 79.875 34.6461 79.8715C34.6461 79.868 35.8345 82.8746 34.8992 84.7985C34.666 85.2234 34.5101 85.6861 34.4386 86.1651C34.0519 85.754 33.6768 85.337 33.3135 84.9141C34.9766 84.0626 34.3296 81.7603 33.6229 79.5666C32.8388 77.3414 31.995 75.2564 32.002 75.2249C32.0091 75.1933 32.6314 78.3507 31.3797 80.1308C31.0756 80.5179 30.838 80.9524 30.6765 81.4169C30.3765 80.9496 30.0882 80.4824 29.8116 80.0152C31.5696 79.3984 31.3551 77.0296 31.0422 74.7869C30.6589 72.4951 30.1878 70.3365 30.1878 70.3119C30.1878 70.2874 30.2897 73.4658 28.7603 75.0286C28.4024 75.3693 28.101 75.7643 27.8672 76.1991C27.7301 75.8802 27.593 75.5613 27.4629 75.2389C27.3644 74.9901 27.266 74.7413 27.1746 74.489C28.9572 74.1596 29.1154 71.9134 29.1646 69.7828C29.1646 67.6067 29.038 65.5497 29.0275 65.5286C29.0169 65.5076 28.6759 68.4477 26.9917 69.7337C26.5997 70.0063 26.2542 70.34 25.9686 70.7219C25.7928 70.0491 25.617 69.3763 25.4974 68.6965C27.2554 68.6474 27.7441 66.5939 28.0922 64.6C28.4403 62.6061 28.5669 60.6437 28.5493 60.6437C28.5317 60.6437 27.8461 63.2964 26.0881 64.2496C25.6712 64.4578 25.2912 64.7324 24.963 65.0626C24.8786 64.2963 24.8165 63.5289 24.7766 62.7603C26.4714 62.9635 27.1921 61.1133 27.7723 59.3156C28.1334 58.1285 28.4339 56.9238 28.6724 55.7063C28.6513 55.7063 27.6844 58.0821 25.9158 58.7339C25.4904 58.8728 25.0912 59.0812 24.7344 59.3507C24.7555 58.6673 24.7907 57.984 24.8399 57.3077C24.8399 57.1465 24.8681 56.9853 24.8786 56.8276C26.4081 57.2516 27.3609 55.6081 28.0922 54.0242C28.8236 52.4403 29.3404 50.7618 29.3404 50.7583C29.3404 50.7548 28.1555 52.8608 26.4256 53.2358C26.0186 53.3053 25.6256 53.4402 25.2619 53.6353C25.4025 52.7417 25.5748 51.8516 25.7717 50.965C27.1148 51.5082 28.1766 50.124 29.0134 48.7398C29.5718 47.7802 30.0788 46.7918 30.5323 45.7787C30.5323 45.7787 29.2033 47.6535 27.5683 47.7727C27.2165 47.7869 26.869 47.8555 26.5382 47.9759C26.8054 47.0555 27.1007 46.135 27.4242 45.2146C28.5634 45.7928 29.6604 44.6504 30.5605 43.4624C31.1906 42.5968 31.7705 41.6959 32.2974 40.7642C32.2974 40.7642 30.8628 42.4462 29.351 42.3481C29.0715 42.3245 28.7902 42.3374 28.5142 42.3866C28.8869 41.4942 29.2842 40.5995 29.7061 39.7024L29.7799 39.5272C30.7257 40.1089 31.8192 39.1768 32.758 38.1255C33.4512 37.328 34.1026 36.4952 34.7094 35.6305C34.7094 35.6305 33.1623 37.1653 31.8087 36.8955C31.5316 36.8282 31.2453 36.8069 30.9613 36.8324C31.9014 34.8392 32.958 32.9027 34.1257 31.0329C32.8072 32.9602 31.6364 34.8525 30.6097 36.7273C30.4882 36.3882 30.3164 36.0693 30.0999 35.7811C29.6674 35.1994 29.6569 34.2603 29.8116 33.4578C29.9088 32.9585 30.0561 32.4701 30.2511 32.0001C29.5527 33.122 28.9942 34.3247 28.588 35.5814C28.05 37.3545 28.0676 39.0331 29.2912 39.2433C28.8025 40.2245 28.3559 41.2092 27.941 42.1869C27.7705 41.9136 27.5662 41.6629 27.3328 41.4405C26.7737 40.9114 26.6296 39.9722 26.6542 39.1557C26.6766 38.6466 26.7544 38.1413 26.8862 37.6489C26.3205 38.8539 25.9106 40.1256 25.6662 41.4335C25.3638 43.2277 25.5888 44.9027 26.837 45.0394C26.5206 45.9411 26.2311 46.8429 25.9686 47.7446C25.759 47.5166 25.5229 47.3143 25.2654 47.1419C23.9082 46.2763 24.1754 43.5781 24.2246 43.3748C23.7974 44.6666 23.5409 46.0083 23.4617 47.3662C23.3878 49.2164 23.8379 50.9019 25.1423 50.916C25.1423 50.916 25.1423 50.916 25.1423 50.937C24.9665 51.7617 24.8118 52.5922 24.6782 53.4285C24.4275 53.2332 24.1549 53.0673 23.866 52.9344C22.3225 52.2336 22.2416 49.4302 22.2662 49.2094C21.987 50.5997 21.896 52.0211 21.9955 53.4355C22.1643 55.3699 22.8675 57.0764 24.2492 56.8942C24.186 57.6721 24.1414 58.4501 24.1156 59.228C23.8206 59.0494 23.5055 58.9059 23.1769 58.8005C21.4997 58.2854 21.0145 55.5205 20.9899 55.1736C20.8881 56.6528 20.9851 58.1389 21.2782 59.5925C21.6931 61.5899 22.7479 63.349 24.1578 62.9075C24.1953 63.6223 24.2539 64.3372 24.3336 65.0521C23.9852 64.8871 23.6163 64.7693 23.2366 64.7016C21.3767 64.3968 20.4801 61.4672 20.4238 61.1974C20.521 62.7831 20.8369 64.3478 21.3626 65.8475C22.101 67.9255 23.4933 69.6672 24.9313 68.9032C25.0685 69.555 25.2197 70.2068 25.3919 70.8551C24.9794 70.7203 24.5496 70.6448 24.1156 70.6308C22.0834 70.5748 20.6981 67.498 20.6524 67.3088C20.987 68.9786 21.5576 70.5926 22.3471 72.1026C23.4687 74.2297 25.2443 75.8977 26.6436 74.7658C26.8616 75.3405 27.096 75.9094 27.3468 76.4724C26.8771 76.3788 26.3958 76.3563 25.9193 76.4058C23.757 76.6441 21.788 73.5113 21.7669 73.3957C22.3775 75.1164 23.2401 76.7377 24.3266 78.207C25.8736 80.3095 28.0571 81.8199 29.3228 80.3446C29.6041 80.8118 29.8971 81.279 30.2018 81.7463C29.721 81.7189 29.2388 81.7626 28.7708 81.8759C26.6155 82.4226 24.091 79.4685 24.1332 79.423C25.0146 81.0697 26.1473 82.5699 27.491 83.8698C29.3967 85.7446 31.8473 86.929 32.867 85.2715C33.2186 85.6991 33.6159 86.1231 34.0097 86.5366C33.527 86.5782 33.0532 86.6904 32.6033 86.8695C30.6097 87.7175 27.7969 85.4538 27.5297 85.1734C28.7065 86.6725 30.0999 87.9892 31.6645 89.0807C33.9604 90.6646 36.615 91.3935 37.3604 89.6518C37.8128 90.021 38.2816 90.3714 38.7668 90.7031C38.2737 90.8174 37.7999 91.0028 37.3604 91.2533C35.518 92.3466 32.2622 90.57 31.9317 90.3282C33.393 91.6252 35.0387 92.6998 36.8154 93.517C39.4349 94.705 42.2793 94.9643 42.7188 93.1666C43.2462 93.4469 43.7736 93.7098 44.3362 93.9621C43.8672 94.1538 43.428 94.411 43.0317 94.726C41.3616 96.0961 37.7577 94.9082 37.3358 94.726C39.07 95.7643 40.951 96.5369 42.9157 97.0178C45.7953 97.7186 48.7488 97.4593 48.8929 95.6581C52.2587 96.6411 55.7653 97.058 59.2686 96.8916L59.3179 96.3134Z" fill="#4385F4"/>
</g>
<path d="M73.8585 87.9768C73.9474 87.8588 73.9933 87.7142 73.9886 87.5668C73.9886 87.5388 73.9886 87.4862 73.9886 87.4056C73.9886 87.325 73.9886 87.2689 73.9886 87.2409C73.9931 87.0929 73.9459 86.948 73.855 86.8309C73.8114 86.7818 73.7569 86.7436 73.6958 86.7193C73.6348 86.695 73.5689 86.6852 73.5034 86.6907C73.4379 86.6857 73.3721 86.6957 73.3112 86.72C73.2502 86.7444 73.1957 86.7823 73.1518 86.8309C73.0621 86.9484 73.0161 87.0933 73.0217 87.2409V87.4056V87.5668C73.0165 87.7148 73.0638 87.86 73.1553 87.9768C73.1999 88.0244 73.2546 88.0613 73.3155 88.085C73.3763 88.1087 73.4417 88.1184 73.5069 88.1134C73.572 88.1186 73.6375 88.109 73.6984 88.0854C73.7593 88.0617 73.814 88.0246 73.8585 87.9768ZM72.7474 88.2887C72.6547 88.1969 72.5811 88.0877 72.531 87.9674C72.4809 87.8471 72.4553 87.7181 72.4556 87.5878V87.2199C72.4554 87.0893 72.4814 86.96 72.5321 86.8397C72.5828 86.7193 72.6572 86.6103 72.7509 86.519C72.9708 86.3555 73.2378 86.2671 73.5121 86.2671C73.7865 86.2671 74.0535 86.3555 74.2734 86.519C74.367 86.6103 74.4414 86.7193 74.4922 86.8397C74.5429 86.96 74.5689 87.0893 74.5687 87.2199C74.5687 87.2514 74.5687 87.3145 74.5687 87.4056C74.5687 87.4967 74.5687 87.5563 74.5687 87.5878C74.5698 87.7182 74.5445 87.8474 74.4944 87.9678C74.4442 88.0882 74.3702 88.1974 74.2769 88.2887C74.0557 88.4522 73.7876 88.5405 73.5121 88.5405C73.2367 88.5405 72.9686 88.4522 72.7474 88.2887ZM70.3354 88.2887C70.2419 88.1975 70.1678 88.0884 70.1177 87.9679C70.0675 87.8475 70.0423 87.7182 70.0436 87.5878V87.4196V87.2514C70.0429 87.1211 70.0684 86.992 70.1185 86.8716C70.1686 86.7513 70.2424 86.6421 70.3354 86.5506C70.5405 86.3733 70.8062 86.2817 71.0773 86.2947C71.2713 86.289 71.464 86.3287 71.6399 86.4104C71.7796 86.4749 71.9006 86.5738 71.9915 86.6977C72.0595 86.7939 72.1008 86.9064 72.111 87.0236C72.1124 87.0372 72.1106 87.051 72.1057 87.0638C72.1008 87.0765 72.093 87.088 72.0829 87.0972C72.0625 87.1152 72.0363 87.1251 72.0091 87.1253H71.6364C71.6134 87.1323 71.5889 87.1323 71.566 87.1253C71.5474 87.105 71.533 87.0811 71.5238 87.0552C71.4926 86.9636 71.4352 86.8832 71.3586 86.8239C71.2802 86.7737 71.188 86.7492 71.0949 86.7538C71.0299 86.7465 70.9641 86.7548 70.9029 86.778C70.8418 86.8011 70.7871 86.8385 70.7433 86.887C70.6534 87.0057 70.6074 87.1518 70.6132 87.3005V87.5948C70.632 87.9593 70.7867 88.1415 71.0773 88.1415C71.1714 88.1448 71.2643 88.1205 71.3445 88.0714C71.4205 88.0108 71.4768 87.9291 71.5063 87.8366C71.5148 87.8114 71.5293 87.7886 71.5485 87.77C71.5683 87.7543 71.5935 87.7467 71.6188 87.749H71.9915C72.0187 87.7492 72.0449 87.7591 72.0653 87.777C72.0754 87.7863 72.0832 87.7977 72.0881 87.8105C72.093 87.8233 72.0948 87.837 72.0934 87.8506C72.0828 87.964 72.0428 88.0726 71.9774 88.166C71.8884 88.2934 71.7671 88.395 71.6258 88.4604C71.4487 88.5466 71.2532 88.5887 71.0562 88.583C70.7905 88.5803 70.5356 88.4776 70.3425 88.2957L70.3354 88.2887ZM69.0451 88.4744C69.036 88.4651 69.0288 88.4542 69.024 88.4421C69.0191 88.4301 69.0167 88.4173 69.0169 88.4043V87.9768C69.0159 87.9632 69.0178 87.9495 69.0225 87.9367C69.0273 87.9239 69.0348 87.9122 69.0445 87.9026C69.0541 87.8929 69.0658 87.8855 69.0787 87.8807C69.0915 87.876 69.1052 87.8741 69.1189 87.8752H69.5443C69.5573 87.875 69.5702 87.8774 69.5823 87.8822C69.5944 87.887 69.6054 87.8941 69.6147 87.9032C69.6247 87.9127 69.6326 87.9241 69.6381 87.9367C69.6435 87.9494 69.6463 87.963 69.6463 87.9768V88.4008C69.6465 88.4138 69.6441 88.4266 69.6393 88.4386C69.6344 88.4507 69.6273 88.4616 69.6182 88.4709C69.6091 88.4814 69.5977 88.4897 69.5849 88.4952C69.5721 88.5006 69.5582 88.5031 69.5443 88.5024H69.1189C69.1041 88.5053 69.0889 88.505 69.0743 88.5013C69.0598 88.4977 69.0462 88.4909 69.0345 88.4814L69.0451 88.4744ZM67.0937 88.4499C66.9711 88.4007 66.8616 88.3239 66.7737 88.2256C66.7163 88.1652 66.6805 88.0876 66.6718 88.0048C66.6707 87.9926 66.6724 87.9803 66.6767 87.9688C66.6809 87.9573 66.6877 87.9469 66.6964 87.9382C66.7144 87.9211 66.7382 87.9111 66.7632 87.9102H67.1148C67.1268 87.911 67.1384 87.9146 67.1488 87.9207C67.1592 87.9268 67.168 87.9352 67.1746 87.9452L67.2695 88.0258C67.3754 88.1151 67.5105 88.1625 67.6492 88.159C67.7447 88.1631 67.8395 88.1413 67.9235 88.0959C67.9563 88.0766 67.9835 88.0489 68.002 88.0156C68.0206 87.9823 68.0298 87.9447 68.0289 87.9067C68.0307 87.8565 68.0131 87.8076 67.9797 87.77C67.9305 87.7255 67.8715 87.6931 67.8074 87.6754C67.6842 87.634 67.5586 87.6001 67.4312 87.5738C67.2377 87.5456 67.0554 87.4657 66.9038 87.3425C66.8464 87.2912 66.8012 87.2278 66.7714 87.1568C66.7416 87.0859 66.728 87.0093 66.7315 86.9325C66.7328 86.8185 66.7683 86.7074 66.8335 86.6136C66.9108 86.5075 67.0152 86.424 67.1359 86.3718C67.2862 86.3052 67.4496 86.2729 67.614 86.2772C67.7824 86.2725 67.95 86.3024 68.1063 86.3648C68.2263 86.4135 68.3343 86.4876 68.4227 86.5821C68.4828 86.6425 68.5201 86.7217 68.5282 86.8064C68.5287 86.818 68.5268 86.8296 68.5225 86.8405C68.5183 86.8513 68.5119 86.8612 68.5036 86.8694C68.4951 86.8786 68.4847 86.8858 68.4732 86.8906C68.4617 86.8955 68.4493 86.8978 68.4368 86.8975H68.1203C68.1069 86.8985 68.0935 86.8961 68.0812 86.8906C68.0689 86.8851 68.0582 86.8766 68.05 86.8659C68.0167 86.8411 67.985 86.8142 67.9551 86.7853C67.9101 86.7495 67.8604 86.7201 67.8074 86.6977C67.7463 86.6721 67.6803 86.6601 67.614 86.6627C67.5289 86.6552 67.4439 86.6788 67.375 86.7293C67.3479 86.7505 67.3262 86.7777 67.3116 86.8087C67.2969 86.8397 67.2898 86.8737 67.2906 86.908C67.2882 86.9533 67.3019 86.9979 67.3293 87.0341C67.3755 87.0772 67.4307 87.1095 67.491 87.1288C67.6058 87.1668 67.7233 87.1961 67.8426 87.2164C68.3489 87.3145 68.602 87.5352 68.602 87.8787C68.6029 87.9746 68.5795 88.0691 68.534 88.1536C68.4886 88.2382 68.4225 88.3099 68.3419 88.3623C68.1255 88.4973 67.8725 88.5622 67.6176 88.548C67.435 88.5551 67.2529 88.5241 67.0831 88.4569L67.0937 88.4499ZM63.0116 88.4744C63.0025 88.4651 62.9953 88.4542 62.9905 88.4421C62.9857 88.4301 62.9833 88.4173 62.9835 88.4043V86.4174C62.9836 86.3903 62.9936 86.3641 63.0116 86.3438C63.0323 86.3268 63.0586 86.3181 63.0854 86.3193H63.4159C63.4293 86.3181 63.4427 86.3197 63.4554 86.324C63.4681 86.3282 63.4798 86.3349 63.4898 86.3438C63.4993 86.3535 63.5067 86.365 63.5116 86.3777C63.5164 86.3903 63.5186 86.4039 63.5179 86.4174V86.5751C63.5901 86.4829 63.6832 86.4092 63.7895 86.3598C63.8959 86.3105 64.0125 86.287 64.1297 86.2912C64.2636 86.28 64.3978 86.3095 64.5145 86.3758C64.6313 86.4421 64.7251 86.5421 64.7837 86.6627C64.8544 86.5492 64.9538 86.4561 65.072 86.3929C65.1942 86.3242 65.3325 86.2891 65.4728 86.2912C65.5785 86.2879 65.6837 86.3071 65.7813 86.3476C65.8789 86.3881 65.9668 86.4489 66.0389 86.526C66.1954 86.7182 66.2733 86.9623 66.2569 87.2094V88.4183C66.2571 88.4313 66.2547 88.4441 66.2498 88.4562C66.245 88.4682 66.2378 88.4792 66.2287 88.4884C66.2197 88.4989 66.2083 88.5072 66.1955 88.5127C66.1827 88.5182 66.1688 88.5206 66.1549 88.5199H65.8033C65.7895 88.5199 65.7758 88.5171 65.7631 88.5117C65.7505 88.5063 65.739 88.4984 65.7295 88.4884C65.7204 88.4792 65.7132 88.4682 65.7084 88.4562C65.7035 88.4441 65.7012 88.4313 65.7013 88.4183V87.2444C65.7133 87.1075 65.6732 86.9711 65.5888 86.8624C65.5517 86.8227 65.5064 86.7915 65.456 86.7709C65.4057 86.7503 65.3514 86.7409 65.297 86.7433C65.2444 86.7429 65.1923 86.7532 65.1439 86.7737C65.0955 86.7942 65.0519 86.8244 65.0157 86.8624C64.9292 86.9701 64.8876 87.1069 64.8997 87.2444V88.4183C64.8999 88.4313 64.8975 88.4441 64.8927 88.4562C64.8878 88.4682 64.8807 88.4792 64.8716 88.4884C64.8625 88.4989 64.8511 88.5072 64.8383 88.5127C64.8255 88.5182 64.8116 88.5206 64.7977 88.5199H64.4461C64.4196 88.5183 64.3947 88.507 64.3759 88.4883C64.3571 88.4696 64.3458 88.4447 64.3442 88.4183V87.2444C64.3572 87.1074 64.3169 86.9706 64.2317 86.8624C64.1939 86.8236 64.1484 86.793 64.0982 86.7725C64.048 86.752 63.9941 86.742 63.9398 86.7433C63.8873 86.7431 63.8352 86.7535 63.7869 86.774C63.7385 86.7945 63.6949 86.8246 63.6585 86.8624C63.572 86.9701 63.5304 87.1069 63.5425 87.2444V88.4183C63.5434 88.431 63.5416 88.4438 63.5374 88.4559C63.5332 88.4679 63.5265 88.479 63.5179 88.4884C63.5084 88.4984 63.4969 88.5063 63.4842 88.5117C63.4715 88.5171 63.4579 88.5199 63.4441 88.5199H63.0925C63.0752 88.5218 63.0577 88.5193 63.0417 88.5125C63.0257 88.5058 63.0117 88.495 63.0011 88.4814L63.0116 88.4744ZM61.2536 88.4744C61.2445 88.4651 61.2373 88.4542 61.2325 88.4421C61.2277 88.4301 61.2253 88.4173 61.2255 88.4043V86.4244C61.2251 86.3961 61.2351 86.3687 61.2536 86.3473C61.2633 86.3378 61.2749 86.3304 61.2876 86.3256C61.3003 86.3208 61.3139 86.3186 61.3274 86.3193H61.679C61.6932 86.3183 61.7074 86.3203 61.7207 86.3252C61.734 86.33 61.7462 86.3375 61.7564 86.3473C61.7749 86.3687 61.7849 86.3961 61.7845 86.4244V86.5961C61.8549 86.5033 61.9473 86.4294 62.0535 86.381C62.1597 86.3327 62.2763 86.3115 62.3928 86.3193H62.5686C62.5819 86.3181 62.5953 86.3197 62.608 86.324C62.6207 86.3282 62.6324 86.3349 62.6424 86.3438C62.652 86.3535 62.6594 86.365 62.6642 86.3777C62.6691 86.3903 62.6712 86.4039 62.6705 86.4174V86.7258C62.6717 86.7388 62.6697 86.752 62.6648 86.7641C62.6599 86.7763 62.6523 86.7872 62.6424 86.7959C62.6333 86.8064 62.622 86.8147 62.6092 86.8201C62.5964 86.8256 62.5825 86.8281 62.5686 86.8274H62.2381C62.181 86.8242 62.1239 86.8325 62.0702 86.8517C62.0164 86.871 61.9671 86.9008 61.9252 86.9395C61.8854 86.9808 61.8545 87.0298 61.8346 87.0834C61.8146 87.1371 61.806 87.1943 61.8091 87.2514V88.4043C61.8102 88.4174 61.8083 88.4305 61.8034 88.4427C61.7985 88.4548 61.7908 88.4657 61.781 88.4744C61.7721 88.4843 61.7613 88.4922 61.7492 88.4976C61.7371 88.503 61.724 88.5059 61.7107 88.5059H61.3063C61.2794 88.5078 61.2529 88.499 61.2325 88.4814L61.2536 88.4744ZM58.8908 88.4744C58.8817 88.4651 58.8746 88.4542 58.8697 88.4421C58.8649 88.4301 58.8625 88.4173 58.8627 88.4043V86.7678H58.5111C58.4975 86.7689 58.4837 86.767 58.4709 86.7622C58.458 86.7575 58.4464 86.75 58.4367 86.7404C58.427 86.7307 58.4195 86.7191 58.4148 86.7063C58.41 86.6935 58.4081 86.6798 58.4092 86.6662V86.4174C58.4095 86.3914 58.4195 86.3664 58.4373 86.3473C58.447 86.3378 58.4585 86.3304 58.4713 86.3256C58.484 86.3208 58.4975 86.3186 58.5111 86.3193H58.8627V86.1511C58.8547 86.0466 58.8691 85.9417 58.9049 85.8433C58.9406 85.7448 58.997 85.655 59.0702 85.5799C59.2467 85.442 59.469 85.3757 59.6925 85.3942H60.568C60.5813 85.393 60.5947 85.3946 60.6074 85.3988C60.6201 85.4031 60.6318 85.4098 60.6418 85.4187C60.6598 85.439 60.6698 85.4652 60.6699 85.4923V85.7411C60.6699 85.7548 60.6671 85.7685 60.6617 85.7811C60.6563 85.7938 60.6483 85.8052 60.6383 85.8147C60.629 85.8237 60.618 85.8309 60.606 85.8357C60.5939 85.8405 60.581 85.8429 60.568 85.8427H59.7136C59.6714 85.8387 59.6288 85.8439 59.5888 85.8578C59.5487 85.8717 59.5121 85.894 59.4815 85.9233C59.4323 85.9966 59.4088 86.0841 59.4147 86.1721V86.3193H60.568C60.5813 86.3181 60.5947 86.3197 60.6074 86.324C60.6201 86.3282 60.6318 86.3349 60.6418 86.3438C60.6598 86.3641 60.6698 86.3903 60.6699 86.4174V88.4043C60.6701 88.4173 60.6677 88.4301 60.6629 88.4421C60.6581 88.4542 60.6509 88.4651 60.6418 88.4744C60.6327 88.4849 60.6214 88.4932 60.6086 88.4987C60.5958 88.5041 60.5819 88.5066 60.568 88.5059H60.2164C60.1899 88.5043 60.1649 88.493 60.1461 88.4743C60.1273 88.4556 60.1161 88.4307 60.1144 88.4043V86.7678H59.4112V88.4043C59.4123 88.4174 59.4104 88.4305 59.4055 88.4427C59.4006 88.4548 59.3929 88.4657 59.3831 88.4744C59.374 88.4849 59.3626 88.4932 59.3498 88.4987C59.337 88.5041 59.3232 88.5066 59.3092 88.5059H58.9576C58.9421 88.5089 58.926 88.5083 58.9108 88.504C58.8955 88.4997 58.8815 88.492 58.8697 88.4814L58.8908 88.4744ZM57.3333 87.9452C57.4135 87.8351 57.4577 87.7029 57.4598 87.5668C57.4598 87.5317 57.4598 87.4792 57.4598 87.4056C57.4598 87.332 57.4598 87.2759 57.4598 87.2409C57.4571 87.1128 57.4113 86.9894 57.3297 86.8905C57.2862 86.841 57.2319 86.802 57.1709 86.7765C57.11 86.751 57.0441 86.7397 56.9781 86.7433C56.6793 86.7433 56.5175 86.929 56.4964 87.3005V87.5528C56.5175 87.9032 56.6793 88.1064 56.9781 88.1064C57.046 88.11 57.1137 88.0973 57.1755 88.0692C57.2373 88.0412 57.2915 87.9986 57.3333 87.9452ZM56.1624 88.2957C55.9989 88.0892 55.9108 87.8333 55.9128 87.5703V87.2759C55.9103 87.0145 55.9971 86.7599 56.1589 86.5541C56.2405 86.4617 56.3421 86.3891 56.456 86.3417C56.5699 86.2944 56.6932 86.2735 56.8164 86.2807C56.9376 86.2756 57.0585 86.2978 57.1699 86.3457C57.2813 86.3937 57.3804 86.4661 57.4598 86.5576V85.6219C57.4598 85.6082 57.4626 85.5945 57.4681 85.5819C57.4735 85.5692 57.4815 85.5578 57.4915 85.5483C57.5009 85.5397 57.512 85.5331 57.5241 85.5289C57.5362 85.5247 57.549 85.523 57.5618 85.5238H57.9134C57.9267 85.5227 57.9402 85.5243 57.9528 85.5285C57.9655 85.5327 57.9772 85.5395 57.9872 85.5483C57.9968 85.558 58.0042 85.5695 58.009 85.5822C58.0139 85.5949 58.016 85.6084 58.0154 85.6219V88.4253C58.0165 88.4384 58.0145 88.4515 58.0096 88.4637C58.0047 88.4759 57.9971 88.4867 57.9872 88.4954C57.9781 88.5059 57.9668 88.5142 57.954 88.5197C57.9412 88.5252 57.9273 88.5276 57.9134 88.527H57.5618C57.5353 88.5253 57.5103 88.5141 57.4915 88.4953C57.4728 88.4766 57.4615 88.4517 57.4598 88.4253V88.2676C57.3772 88.3599 57.2764 88.4342 57.1638 88.4859C57.0511 88.5376 56.929 88.5657 56.8049 88.5683C56.6809 88.5709 56.5577 88.5481 56.4429 88.5012C56.3281 88.4543 56.2243 88.3843 56.1378 88.2957H56.1624ZM54.8158 88.0048C54.9047 87.8869 54.9506 87.7423 54.9459 87.5948C54.9459 87.5668 54.9459 87.5142 54.9459 87.4336C54.9459 87.353 54.9459 87.297 54.9459 87.2689C54.95 87.1216 54.9042 86.9771 54.8158 86.8589C54.772 86.8101 54.7175 86.772 54.6565 86.7477C54.5955 86.7234 54.5297 86.7135 54.4642 86.7188C54.3988 86.714 54.3331 86.7242 54.2722 86.7484C54.2113 86.7727 54.1567 86.8105 54.1126 86.8589C54.0242 86.9771 53.9784 87.1216 53.9825 87.2689V87.5948C53.9778 87.7423 54.0237 87.8869 54.1126 88.0048C54.1573 88.0522 54.2121 88.089 54.2729 88.1127C54.3337 88.1363 54.3991 88.1462 54.4642 88.1415C54.534 88.1461 54.604 88.1335 54.6677 88.1048C54.7315 88.0761 54.7872 88.0321 54.8299 87.9768L54.8158 88.0048ZM53.7047 88.3167C53.612 88.2249 53.5385 88.1157 53.4884 87.9954C53.4383 87.8751 53.4126 87.7461 53.4129 87.6158V87.2479C53.4127 87.1173 53.4387 86.9881 53.4894 86.8677C53.5402 86.7473 53.6146 86.6383 53.7083 86.5471C53.9219 86.3683 54.1963 86.278 54.4747 86.2947C54.751 86.2784 55.023 86.3687 55.2342 86.5471C55.3279 86.6383 55.4023 86.7473 55.453 86.8677C55.5037 86.9881 55.5298 87.1173 55.5295 87.2479C55.5295 87.2794 55.5295 87.3425 55.5295 87.4336C55.5295 87.5247 55.5295 87.5843 55.5295 87.6158C55.5298 87.7461 55.5042 87.8751 55.4541 87.9954C55.404 88.1157 55.3304 88.2249 55.2377 88.3167C55.016 88.4806 54.7473 88.569 54.4712 88.569C54.1952 88.569 53.9265 88.4806 53.7047 88.3167ZM52.3159 88.0048C52.4051 87.8872 52.45 87.7421 52.4425 87.5948C52.4456 87.5411 52.4456 87.4873 52.4425 87.4336C52.4456 87.3788 52.4456 87.3238 52.4425 87.2689C52.4481 87.1214 52.4021 86.9765 52.3124 86.8589C52.2688 86.8099 52.2143 86.7717 52.1533 86.7473C52.0922 86.723 52.0263 86.7132 51.9608 86.7188C51.8953 86.7137 51.8296 86.7238 51.7686 86.7481C51.7077 86.7724 51.6531 86.8103 51.6092 86.8589C51.5183 86.976 51.471 87.1209 51.4756 87.2689V87.5948C51.4704 87.7429 51.5177 87.888 51.6092 88.0048C51.7032 88.0964 51.8294 88.1477 51.9608 88.1477C52.0922 88.1477 52.2184 88.0964 52.3124 88.0048H52.3159ZM51.2049 88.3167C51.1115 88.2254 51.0375 88.1163 50.9874 87.9959C50.9372 87.8755 50.912 87.7462 50.913 87.6158V87.2479C50.9128 87.1173 50.9388 86.9881 50.9896 86.8677C51.0403 86.7473 51.1147 86.6383 51.2084 86.5471C51.4282 86.3835 51.6952 86.2952 51.9696 86.2952C52.2439 86.2952 52.5109 86.3835 52.7308 86.5471C52.8245 86.6383 52.8989 86.7473 52.9496 86.8677C53.0003 86.9881 53.0264 87.1173 53.0262 87.2479C53.0262 87.2794 53.0262 87.3425 53.0262 87.4336C53.0262 87.5247 53.0262 87.5843 53.0262 87.6158C53.0264 87.7461 53.0008 87.8751 52.9507 87.9954C52.9006 88.1157 52.8271 88.2249 52.7343 88.3167C52.5131 88.4803 52.245 88.5686 51.9696 88.5686C51.6942 88.5686 51.426 88.4803 51.2049 88.3167ZM49.7281 87.9102C49.8074 87.8032 49.8527 87.6751 49.8582 87.5423C49.8607 87.4967 49.8607 87.4511 49.8582 87.4056C49.8608 87.3612 49.8608 87.3168 49.8582 87.2724C49.8528 87.1385 49.8075 87.0092 49.7281 86.901C49.6851 86.8507 49.6309 86.8109 49.57 86.7848C49.509 86.7586 49.4428 86.7468 49.3765 86.7503C49.0706 86.7503 48.9124 86.936 48.8948 87.3075V87.4056C48.8948 87.8436 49.0566 88.0644 49.3801 88.0644C49.4496 88.068 49.519 88.0546 49.5822 88.0253C49.6453 87.996 49.7003 87.9516 49.7422 87.8962L49.7281 87.9102ZM48.7823 89.3119C48.6483 89.2489 48.5341 89.1508 48.4518 89.0281C48.3964 88.9469 48.3637 88.8526 48.3569 88.7547C48.3563 88.7417 48.3585 88.7287 48.3633 88.7166C48.3682 88.7046 48.3756 88.6936 48.385 88.6846C48.4045 88.6679 48.4296 88.6592 48.4553 88.6601H48.8316C48.8552 88.6583 48.8787 88.6645 48.8984 88.6776C48.9194 88.696 48.9342 88.7205 48.9406 88.7477C48.9716 88.8201 49.0198 88.8839 49.0812 88.9334C49.1655 88.9916 49.2674 89.0189 49.3695 89.0105C49.4375 89.0237 49.5077 89.0198 49.5738 88.9993C49.6399 88.9788 49.6999 88.9422 49.7483 88.8929C49.7967 88.8436 49.8321 88.783 49.8513 88.7167C49.8705 88.6504 49.8729 88.5804 49.8582 88.5129V88.2256C49.6844 88.3976 49.4493 88.4942 49.2043 88.4942C48.9592 88.4942 48.7242 88.3976 48.5503 88.2256C48.3922 88.0184 48.3092 87.7639 48.3147 87.5037V87.3881V87.2759C48.3121 87.0156 48.3962 86.7617 48.5538 86.5541C48.6347 86.4609 48.7361 86.3877 48.8502 86.3402C48.9643 86.2928 49.0879 86.2724 49.2113 86.2807C49.3474 86.2775 49.4823 86.3063 49.6051 86.3648C49.7136 86.4176 49.8085 86.4943 49.8828 86.5891V86.4279C49.8824 86.4136 49.8849 86.3993 49.8904 86.386C49.8958 86.3727 49.904 86.3607 49.9145 86.3508C49.9242 86.3413 49.9358 86.3339 49.9485 86.3291C49.9612 86.3243 49.9747 86.3221 49.9883 86.3228H50.3399C50.3535 86.3221 50.3671 86.3243 50.3798 86.3291C50.3925 86.3339 50.4041 86.3413 50.4138 86.3508C50.4323 86.3722 50.4423 86.3996 50.4419 86.4279V88.4534C50.4511 88.5851 50.4327 88.7173 50.3879 88.8415C50.3431 88.9658 50.2729 89.0794 50.1817 89.1752C50.0741 89.2681 49.9491 89.3388 49.8139 89.3833C49.6787 89.4278 49.5361 89.4452 49.3941 89.4346C49.1878 89.443 48.9826 89.4009 48.7964 89.3119H48.7823Z" fill="black"/>
<path d="M116.999 69.124H104.198V88.6146H116.999L112.886 79.4615L116.999 69.124ZM3.21094 69.124H16.0127V88.6146H3.21094L7.32115 79.4615L3.21094 69.124Z" fill="#2C72C6"/>
<path d="M110.674 62.4344L104.201 69.0924V88.583L110.674 82.1738V62.4344ZM9.66992 62.4344L16.1569 69.3763V88.6041L9.66992 82.1563V62.4344Z" fill="#3D597A"/>
<path d="M9.52539 82.0511H110.66L110.649 62.3152H9.52539V82.0511Z" fill="#4385F4"/>
<path opacity="0.5" d="M61.3223 96.5832C64.8058 96.7399 68.2916 96.328 71.6417 95.3637C70.4428 93.8219 72.4223 92.287 74.3174 90.8082C76.304 89.3364 78.294 87.8681 78.294 87.8611C78.294 87.8541 75.9524 90.2545 76.1844 92.308C76.2612 92.7734 76.2481 93.2492 76.1457 93.7097C76.6872 93.4644 77.2205 93.2051 77.7455 92.9318C76.3391 91.6072 77.9319 89.7114 79.4473 87.9102C81.0506 86.095 82.6679 84.3113 82.6679 84.3043C82.6679 84.2973 80.8888 87.0762 81.4865 89.0981C81.6446 89.5481 81.7185 90.0232 81.7045 90.4998C82.1757 90.1494 82.6363 89.82 83.0828 89.4486C81.5147 88.3482 82.6609 86.1826 83.786 84.1537C84.9779 82.0862 86.2085 80.0852 86.2085 80.0817C86.2085 80.0782 85.0096 83.0954 85.9519 85.0262C86.186 85.451 86.3431 85.9137 86.416 86.3929C86.8063 85.9829 87.186 85.5659 87.5481 85.1419C85.8745 84.2833 86.5285 81.967 87.2387 79.7734C88.0298 77.5447 88.8807 75.4526 88.8702 75.4211C88.9159 75.4211 88.2373 78.5574 89.4995 80.327C89.8033 80.7142 90.0409 81.1488 90.2027 81.6131C90.5051 81.1459 90.7958 80.6786 91.0747 80.2114C89.2886 79.5946 89.5206 77.2153 89.8371 74.955C90.2203 72.6597 90.695 70.4941 90.695 70.4696C90.695 70.4451 90.5965 73.6234 92.1365 75.2003C92.4976 75.5412 92.8015 75.9375 93.0366 76.3742C93.1773 76.0554 93.3144 75.733 93.4445 75.4106C93.5464 75.1618 93.6414 74.913 93.7363 74.6607C91.9396 74.3102 91.7779 72.0745 91.7287 69.937C91.7287 67.7573 91.8588 65.6933 91.8693 65.6723C91.8799 65.6513 92.2209 68.6018 93.9191 69.8774C94.3145 70.1523 94.6635 70.4882 94.9528 70.8726C95.1286 70.1963 95.2869 69.5199 95.4275 68.8366C93.6449 68.7911 93.1597 66.7166 92.8116 64.7296C92.4635 62.7427 92.3475 60.7874 92.3651 60.7663C92.3826 60.7453 93.0894 63.4296 94.8579 64.3862C95.278 64.5945 95.6614 64.869 95.9936 65.1992C96.078 64.4283 96.1413 63.6609 96.1834 62.8899C94.4711 63.0932 93.7433 61.2394 93.1597 59.4347C92.7955 58.2443 92.4928 57.0361 92.2526 55.8149C92.2772 55.8149 93.2511 58.1977 95.0337 58.853C95.4612 58.992 95.8628 59.2004 96.2221 59.4698C96.201 58.7689 96.1694 58.0996 96.1166 57.4198C96.1166 57.2586 96.092 57.1009 96.078 56.9397C94.5344 57.3672 93.5746 55.7167 92.8397 54.1363C92.1049 52.5559 91.581 50.8634 91.581 50.8599C91.581 50.8564 92.7764 52.9624 94.5169 53.3444C94.9247 53.4166 95.3179 53.5551 95.6807 53.7544C95.533 52.8573 95.3642 51.9637 95.1638 51.0736C93.8101 51.6203 92.7378 50.2291 91.8939 48.8414C91.332 47.8796 90.8215 46.8888 90.3645 45.8733C90.382 45.8733 91.7041 47.7516 93.3531 47.8707C93.7131 47.8837 94.0689 47.9522 94.4079 48.074C94.136 47.1395 93.8371 46.2167 93.5113 45.3056C92.3615 45.8838 91.2575 44.7415 90.3469 43.5535C89.71 42.6844 89.1231 41.78 88.5889 40.8447C88.6065 40.8447 90.041 42.5338 91.5599 42.4357C91.8416 42.4102 92.1255 42.4231 92.4037 42.4742C92.031 41.5771 91.6314 40.68 91.2048 39.7829L91.1309 39.6077C90.1781 40.1894 89.0741 39.2573 88.1283 38.206C87.4285 37.4069 86.7713 36.5717 86.1593 35.704C86.1804 35.704 87.7204 37.2424 89.0846 36.9725C89.3684 36.9099 89.6607 36.8945 89.9496 36.927C89.0011 34.9279 87.9387 32.9846 86.7676 31.1064C88.0931 33.0443 89.2745 34.9611 90.3188 36.8219C90.4415 36.4816 90.6145 36.1615 90.8321 35.8722C91.2681 35.2905 91.2786 34.3479 91.1239 33.5419C91.0212 33.0412 90.8729 32.5509 90.6809 32.0771C91.3821 33.2045 91.9451 34.4115 92.358 35.6725C92.896 37.4491 92.8819 39.1347 91.6548 39.3449C92.1471 40.3296 92.5971 41.3143 93.0155 42.299C93.1877 42.0239 93.3945 41.7719 93.6308 41.5491C94.1934 41.0199 94.334 40.0738 94.3129 39.2573C94.2886 38.7472 94.2108 38.241 94.0809 37.747C94.6493 38.9555 95.0628 40.2306 95.3115 41.5421C95.6138 43.3433 95.3853 45.0218 94.1266 45.1585C94.4465 46.0625 94.7384 46.9631 95.0056 47.8707C95.2155 47.6431 95.4515 47.4408 95.7088 47.268C97.0624 46.3814 96.7952 43.6937 96.7636 43.4904C97.1949 44.7849 97.4526 46.1305 97.5301 47.4923C97.6039 49.3495 97.1539 51.0386 95.8389 51.0526C95.8389 51.0526 95.8389 51.0526 95.8389 51.0736C96.017 51.9006 96.1741 52.7335 96.31 53.5721C96.5589 53.3711 96.8303 53.1995 97.1187 53.0605C98.6763 52.3386 98.7572 49.5353 98.7325 49.325C99.0139 50.7198 99.1062 52.1459 99.0068 53.5651C98.8345 55.503 98.1278 57.213 96.7355 57.0343C96.7987 57.8123 96.8445 58.5902 96.8691 59.3752C97.1661 59.1946 97.4836 59.0499 97.8149 58.9441C99.5061 58.429 99.9913 55.6537 100.019 55.3032C100.124 56.7929 100.027 58.2898 99.7311 59.7536C99.3092 61.7545 98.2473 63.5172 96.8269 63.0756C96.7847 63.7765 96.7284 64.5124 96.6476 65.2272C97.0003 65.064 97.3725 64.9462 97.7551 64.8768C99.6326 64.572 100.533 61.6354 100.568 61.3516C100.471 62.9424 100.153 64.5121 99.6221 66.0157C98.8802 68.1182 97.4738 69.8458 96.0252 69.0819C95.8881 69.7337 95.7334 70.389 95.5611 71.0373C95.9773 70.9023 96.4105 70.8268 96.848 70.813C98.8943 70.7569 100.294 67.6592 100.336 67.4805C100.003 69.1571 99.4271 70.7766 98.6271 72.2883C97.5019 74.4224 95.7088 76.0974 94.2989 74.962C94.0809 75.5367 93.8465 76.1068 93.5957 76.6721C94.069 76.5787 94.5537 76.5562 95.0337 76.6055C97.2136 76.8438 99.2002 73.704 99.2213 73.5849C98.6081 75.314 97.7382 76.9418 96.6405 78.4137C95.0829 80.5163 92.8819 82.0336 91.6056 80.5548C91.3196 81.0361 91.0243 81.5033 90.7196 81.9565C91.2039 81.929 91.6896 81.9727 92.1611 82.0862C94.334 82.6363 96.8796 79.6717 96.8374 79.6332C95.9374 81.299 94.7806 82.8138 93.4093 84.1221C91.4896 86.0004 89.0178 87.1883 87.9876 85.5238C87.6185 85.9548 87.2352 86.3753 86.8379 86.7924C87.3298 86.8369 87.8123 86.9551 88.2689 87.1428C90.2519 87.9523 93.1105 85.6815 93.3706 85.4117C92.1857 86.912 90.784 88.2287 89.2112 89.3189C86.8942 90.9063 84.2185 91.6387 83.4661 89.8936C83.009 90.2616 82.5378 90.6155 82.0597 90.9624C82.5525 91.0776 83.0262 91.2629 83.4661 91.5126C85.3225 92.6094 88.6065 90.8117 88.937 90.5839C87.4643 91.8876 85.8053 92.9658 84.0146 93.7833C81.374 94.9748 78.505 95.2341 78.062 93.4329C77.5275 93.7097 76.9825 93.9796 76.4305 94.2319C76.8949 94.4218 77.3304 94.6754 77.7244 94.9853C79.4086 96.3589 83.0547 95.1675 83.4661 94.9853C81.7236 96.0279 79.8346 96.8051 77.8615 97.2911C74.9573 97.9919 71.9828 97.7326 71.8421 95.9279C68.4493 96.914 64.9157 97.332 61.3856 97.1649L61.3223 96.5832Z" fill="#4385F4"/>
<path d="M60.7355 17.1246L62.8099 21.3086L67.4476 21.9779L64.0898 25.2509L64.8844 29.845L60.7355 27.6758L56.5901 29.845L57.3812 25.2509L54.0234 21.9955L58.6611 21.3262L60.7355 17.1246Z" fill="#FFA829"/>
<path d="M47.8779 25.2789L46.6368 22.7699L45.3921 25.2789L42.6074 25.6819L44.6221 27.6338L44.1474 30.3916L46.6368 29.088L49.1226 30.3916L48.6479 27.6338L50.6626 25.6819L47.8779 25.2789Z" fill="#F8B64C"/>
<path d="M78.8641 25.6819L76.0795 25.2789L74.8383 22.7699L73.5937 25.2789L70.8125 25.6819L72.8237 27.6338L72.349 30.3916L74.8383 29.088L77.3241 30.3916L76.8495 27.6338L78.8641 25.6819Z" fill="#F8B64C"/>
<path d="M40.9617 31.8213L40.2163 30.3145L39.4709 31.8213L37.8008 32.0631L39.0068 33.2335L38.722 34.8875L40.2163 34.1096L41.7071 34.8875L41.4223 33.2335L42.6318 32.0631L40.9617 31.8213Z" fill="#FFD15C"/>
<path d="M83.6708 32.0631L82.0007 31.8213L81.2553 30.3145L80.5099 31.8213L78.8398 32.0631L80.0494 33.2335L79.7646 34.8875L81.2553 34.1096L82.7496 34.8875L82.4648 33.2335L83.6708 32.0631Z" fill="#FFD15C"/>
<path d="M25.7599 70.9672V67.4945H24.5293V66.7692H27.8765V67.4945H26.6424V70.9672H25.7599Z" fill="white"/>
<path d="M32.061 68.8717C32.061 70.2034 31.2769 71.0409 30.0322 71.0409C28.7876 71.0409 28 70.2034 28 68.8717C28 67.5401 28.7806 66.6956 30.0322 66.6956C31.2839 66.6956 32.061 67.5331 32.061 68.8717ZM28.8966 68.8717C28.8966 69.7478 29.3396 70.305 30.0322 70.305C30.7249 70.305 31.1609 69.7478 31.1609 68.8717C31.1609 67.9957 30.7179 67.4315 30.0322 67.4315C29.3466 67.4315 28.8966 68.0027 28.8966 68.8717Z" fill="white"/>
<path d="M34.383 66.7692C34.5763 66.7571 34.7699 66.7859 34.9513 66.8535C35.1326 66.9212 35.2976 67.0263 35.4353 67.162C35.5731 67.2976 35.6805 67.4607 35.7507 67.6406C35.8208 67.8206 35.8519 68.0132 35.8421 68.206C35.8475 68.4012 35.8118 68.5954 35.7375 68.7761C35.6631 68.9568 35.5517 69.12 35.4103 69.2553C35.269 69.3906 35.1008 69.4949 34.9166 69.5616C34.7325 69.6283 34.5363 69.6559 34.3408 69.6427H33.5075V70.9673H32.625V66.7622L34.383 66.7692ZM33.5075 68.9559H34.1474C34.2499 68.9629 34.3526 68.9488 34.4494 68.9146C34.5461 68.8803 34.6348 68.8266 34.7098 68.7568C34.7849 68.6869 34.8447 68.6025 34.8856 68.5086C34.9265 68.4148 34.9476 68.3135 34.9476 68.2112C34.9476 68.1089 34.9265 68.0077 34.8856 67.9138C34.8447 67.82 34.7849 67.7355 34.7098 67.6657C34.6348 67.5958 34.5461 67.5421 34.4494 67.5079C34.3526 67.4736 34.2499 67.4596 34.1474 67.4666H33.5075V68.9559Z" fill="white"/>
<path d="M39.3697 70.9673H38.5364L37.4219 66.7622H38.3466L39.0076 69.8039H39.0322L39.8198 66.7622H40.5652L41.3528 69.8039H41.3774L42.0419 66.7622H42.9561L41.838 70.9673H41.0047L40.2065 68.1008H40.1784L39.3697 70.9673Z" fill="white"/>
<path d="M46.2077 70.9673H43.416V66.7622H46.2077V67.4876H44.2985V68.5003H46.0987V69.1731H44.2985V70.2244H46.2077V70.9673Z" fill="white"/>
<path d="M46.8457 70.9673V66.7622H48.7022C49.4933 66.7622 49.989 67.1687 49.989 67.8135C49.9882 68.034 49.9084 68.2469 49.764 68.414C49.6196 68.581 49.4201 68.6912 49.2014 68.7246V68.7456C49.4664 68.7546 49.7175 68.8655 49.9023 69.0549C50.0871 69.2443 50.1913 69.4976 50.1929 69.7618C50.1929 70.5012 49.6339 70.9638 48.7373 70.9638L46.8457 70.9673ZM47.7247 68.5143H48.3857C48.8569 68.5143 49.1241 68.3076 49.1241 67.9536C49.1241 67.5997 48.8885 67.4245 48.4771 67.4245H47.7247V68.5143ZM48.5123 70.312C49.0186 70.312 49.2928 70.0982 49.2928 69.6953C49.2928 69.2923 49.0116 69.0925 48.4912 69.0925H47.7247V70.312H48.5123Z" fill="white"/>
<path d="M53.5994 66.7692C54.8652 66.7692 55.607 67.5191 55.607 68.8507C55.607 70.1823 54.8652 70.9533 53.5994 70.9533H51.9785V66.7482L53.5994 66.7692ZM52.8575 70.2384H53.4939C54.285 70.2384 54.7104 69.7618 54.7104 68.8542C54.7104 67.9466 54.271 67.4946 53.4939 67.4946H52.8575V70.2384Z" fill="white"/>
<path d="M58.9655 70.9673H56.1738V66.7622H58.9655V67.4876H57.0564V68.5003H58.8565V69.1731H57.0564V70.2244H58.9655V70.9673Z" fill="white"/>
<path d="M60.7482 70.9673L59.3418 66.7622H60.3263L61.2897 70.0562H61.3108L62.2741 66.7622H63.234L61.8276 70.9673H60.7482Z" fill="white"/>
<path d="M66.4433 70.9673H63.6621V66.7622H66.4503V67.4876H64.5446V68.5003H66.3448V69.1731H64.5446V70.2244H66.4503L66.4433 70.9673Z" fill="white"/>
<path d="M69.805 70.9673H67.0801V66.7622H67.9626V70.2314H69.805V70.9673Z" fill="white"/>
<path d="M74.084 68.8717C74.084 70.2034 73.2965 71.0409 72.0518 71.0409C70.8071 71.0409 70.0195 70.2034 70.0195 68.8717C70.0195 67.5401 70.8036 66.6956 72.0518 66.6956C73.3 66.6956 74.084 67.5331 74.084 68.8717ZM70.9196 68.8717C70.9196 69.7478 71.3591 70.305 72.0518 70.305C72.7444 70.305 73.1804 69.7478 73.1804 68.8717C73.1804 67.9957 72.7409 67.4315 72.0518 67.4315C71.3626 67.4315 70.9196 68.0027 70.9196 68.8717Z" fill="white"/>
<path d="M76.4084 66.7692C76.6015 66.7577 76.7949 66.7868 76.976 66.8547C77.1571 66.9226 77.3219 67.0277 77.4595 67.1632C77.5971 67.2987 77.7046 67.4616 77.7749 67.6413C77.8452 67.8209 77.8768 68.0133 77.8675 68.206C77.8729 68.4015 77.8372 68.596 77.7626 68.777C77.688 68.9579 77.5763 69.1213 77.4346 69.2567C77.2928 69.392 77.1242 69.4963 76.9396 69.5627C76.755 69.6292 76.5585 69.6565 76.3627 69.6427H75.5294V70.9673H74.6504V66.7622L76.4084 66.7692ZM75.5294 68.9559H76.1693C76.2717 68.9629 76.3745 68.9488 76.4713 68.9146C76.568 68.8803 76.6566 68.8266 76.7317 68.7568C76.8067 68.6869 76.8666 68.6025 76.9075 68.5086C76.9484 68.4148 76.9695 68.3135 76.9695 68.2112C76.9695 68.1089 76.9484 68.0077 76.9075 67.9138C76.8666 67.82 76.8067 67.7355 76.7317 67.6657C76.6566 67.5958 76.568 67.5421 76.4713 67.5079C76.3745 67.4736 76.2717 67.4596 76.1693 67.4666H75.5259L75.5294 68.9559Z" fill="white"/>
<path d="M82.8446 70.9673H82.057V68.1324H82.0359L80.8897 70.9358H80.3377L79.1915 68.1324H79.1704V70.9673H78.3828V66.7622H79.406L80.6014 69.7373H80.626L81.8215 66.7622H82.8446V70.9673Z" fill="white"/>
<path d="M86.3331 70.9673H83.5449V66.7622H86.3331V67.4876H84.4274V68.5003H86.2276V69.1731H84.4274V70.2244H86.3331V70.9673Z" fill="white"/>
<path d="M86.9688 70.9673V66.7622H87.7036L89.6726 69.4955H89.6972V66.7622H90.541V70.9673H89.8097L87.8407 68.22H87.8126V70.9673H86.9688Z" fill="white"/>
<path d="M92.2619 70.9672V67.4945H91.0312V66.7692H94.3785V67.4945H93.1444V70.9672H92.2619Z" fill="white"/>
<path d="M45.498 76.0169C45.498 74.6643 46.2716 73.8443 47.4916 73.8443C47.9456 73.8177 48.3923 73.9675 48.7378 74.2622C49.0833 74.5569 49.3008 74.9735 49.3446 75.4247H48.4867C48.4555 75.1854 48.3366 74.966 48.1529 74.8088C47.9692 74.6516 47.7337 74.5677 47.4916 74.5731C46.8271 74.5731 46.3981 75.1268 46.3981 76.0134C46.3981 76.9 46.8201 77.4641 47.4881 77.4641C47.7241 77.4781 47.9568 77.4034 48.1403 77.2549C48.3238 77.1064 48.4449 76.8947 48.4796 76.6617H49.3375C49.2391 77.5973 48.5183 78.193 47.4846 78.193C46.2681 78.1895 45.498 77.3695 45.498 76.0169Z" fill="white"/>
<path d="M53.8184 76.0204C53.8184 77.3555 53.0343 78.1895 51.7862 78.1895C50.538 78.1895 49.7539 77.3555 49.7539 76.0204C49.7539 74.6853 50.538 73.8442 51.7862 73.8442C53.0343 73.8442 53.8184 74.6818 53.8184 76.0204ZM50.654 76.0204C50.654 76.8964 51.0935 77.4536 51.7862 77.4536C52.4788 77.4536 52.9148 76.8964 52.9148 76.0204C52.9148 75.1443 52.4753 74.5801 51.7862 74.5801C51.097 74.5801 50.654 75.1373 50.654 76.0204Z" fill="white"/>
<path d="M58.845 78.116H58.0609V75.2845H58.0363L56.8936 78.0879H56.3381L55.1954 75.2845H55.1708V78.116H54.3867V73.9109H55.4064L56.6053 76.886H56.6299L57.8289 73.9109H58.8485L58.845 78.116Z" fill="white"/>
<path d="M61.3033 73.9179C61.4966 73.9058 61.6902 73.9345 61.8716 74.0022C62.0529 74.0699 62.2179 74.175 62.3556 74.3107C62.4934 74.4463 62.6009 74.6094 62.671 74.7893C62.7411 74.9692 62.7722 75.1619 62.7625 75.3546C62.7678 75.5499 62.7322 75.7441 62.6578 75.9248C62.5834 76.1055 62.472 76.2687 62.3306 76.404C62.1893 76.5393 62.0211 76.6436 61.837 76.7103C61.6528 76.777 61.4566 76.8046 61.2611 76.7914H60.4278V78.116H59.5488V73.9109L61.3033 73.9179ZM60.4278 76.1045H61.0677C61.1702 76.1115 61.2729 76.0975 61.3697 76.0632C61.4664 76.029 61.5551 75.9753 61.6301 75.9054C61.7052 75.8356 61.765 75.7511 61.8059 75.6573C61.8468 75.5634 61.8679 75.4622 61.8679 75.3599C61.8679 75.2576 61.8468 75.1563 61.8059 75.0625C61.765 74.9686 61.7052 74.8842 61.6301 74.8143C61.5551 74.7445 61.4664 74.6908 61.3697 74.6565C61.2729 74.6223 61.1702 74.6082 61.0677 74.6152H60.4278V76.1045Z" fill="white"/>
<path d="M65.3253 77.1137H63.8451L63.5251 78.1334H62.6074L64.0666 73.9283H65.1038L66.57 78.1334H65.6312L65.3253 77.1137ZM64.0349 76.4584H65.1354L64.5975 74.7378H64.5764L64.0349 76.4584Z" fill="white"/>
<path d="M67.0137 78.116V73.9109H67.7485L69.7175 76.6442H69.7386V73.9109H70.5824V78.116H69.8546L67.8821 75.3616H67.8575V78.109L67.0137 78.116Z" fill="white"/>
<path d="M72.4798 78.1159V76.5495L71.0137 73.9178H71.9735L72.9158 75.7085H72.9369L73.8827 73.9178H74.8285L73.3588 76.5495V78.1159H72.4798Z" fill="white"/>
</svg>
