<svg width="521" height="562" viewBox="0 0 521 562" fill="none" xmlns="http://www.w3.org/2000/svg">
<path opacity="0.5" fill-rule="evenodd" clip-rule="evenodd" d="M423.967 177.853C431.727 167.7 467.308 148.273 469.614 167.663C471.921 187.09 442.599 169.093 423.967 177.853ZM386.043 302.954C386.08 302.111 386.007 301.158 385.897 300.132C402.113 288.586 432.826 297.163 425.797 279.606C419.025 262.708 393.145 285.837 385.677 298.666C383.371 283.454 369.461 253.984 356.832 266.337C343.507 279.386 374.036 284.004 384.652 300.572C384.542 300.828 384.432 301.085 384.323 301.305C384.506 301.158 384.689 301.012 384.835 300.865C385.311 301.562 385.714 302.258 386.043 302.954ZM390.619 268.279C390.326 267.51 389.96 266.74 389.594 265.97C389.447 266.044 389.338 266.154 389.191 266.227C389.265 266.044 389.374 265.897 389.484 265.714C380.333 248.34 350.389 241.009 364.812 229.206C378.429 218.063 389.667 248.413 390.692 263.808C399.148 251.712 427.152 230.782 432.423 248.266C437.877 266.41 407.934 255.084 390.765 265.237C390.765 266.373 390.729 267.4 390.619 268.279ZM398.013 234.557C398.269 233.751 398.453 232.798 398.636 231.735C417.305 224.001 445.601 241.045 443.331 221.985C441.135 203.365 408.3 220.482 398.782 230.892C400.722 215.827 394.938 182.875 379.381 191.635C362.323 201.202 394.096 214.324 398.013 234.557ZM474.227 129.14C481.987 118.986 517.568 99.5596 519.874 118.95C522.181 138.34 492.859 120.379 474.227 129.14ZM444.43 152.488C452.995 142.995 465.588 104.435 446.114 105.681C426.639 106.964 449.628 132.549 444.43 152.488ZM424.919 176.644C430.775 165.281 433.045 124.741 414.559 130.972C396.073 137.167 424.845 156.007 424.919 176.644ZM409.105 204.867C406.433 184.414 375.537 169.349 393.108 160.846C410.679 152.342 413.498 192.845 409.105 204.867ZM410.166 203.035C428.799 194.274 458.12 212.235 455.814 192.845C453.508 173.455 417.927 192.845 410.166 203.035ZM443.514 153.881C462.147 145.121 491.468 163.082 489.162 143.691C486.856 124.301 451.275 143.728 443.514 153.881Z" fill="#242629"/>
<path opacity="0.5" fill-rule="evenodd" clip-rule="evenodd" d="M385.308 284.114C386.297 276.893 387.505 269.635 388.969 262.451C386.223 254.68 379.378 239.322 366.42 231.368C379.964 236.207 386.626 252.554 389.188 261.425C391.421 250.685 394.203 240.055 397.571 229.682C396.4 222.058 392.52 204.574 380.549 194.018C393.618 201.458 397.095 219.932 397.864 228.729C401.049 219.089 404.746 209.669 409.029 200.689C408.443 193.431 405.844 174.957 394.203 163.338C407.272 171.878 409.285 191.672 409.358 200.029C414.007 190.279 419.352 180.969 425.355 172.355C425.684 164.987 425.318 146.514 415.288 133.611C427.112 143.654 426.709 163.411 425.758 171.768C431.798 163.191 438.57 155.237 446.037 148.163C448.27 140.905 452.443 123.275 446.147 108.43C454.823 120.929 449.771 139.439 446.66 147.54C457.605 137.313 470.124 128.919 484.327 122.908C488.098 121.075 492.783 119.206 497.725 118.106C498.347 117.923 499.006 117.74 499.665 117.557C499.336 117.667 498.97 117.813 498.64 117.923C504.753 116.714 511.269 116.75 517.163 119.389C506.071 116.933 494.54 119.866 486.34 123.018C471.259 130.202 458.447 139.806 447.538 150.985C454.676 146.55 472.32 137.753 486.45 144.131C470.087 140.502 452.773 148.603 446.66 151.902C439.851 158.976 433.774 166.673 428.393 174.701C435.788 170.192 453.029 161.835 466.903 168.103C451.199 164.621 434.616 171.952 427.881 175.434C422.61 183.424 417.961 191.782 413.934 200.249C420.926 195.85 438.789 186.797 453.102 193.248C437.069 189.692 420.12 197.39 413.678 200.799C409.322 210.035 405.625 219.456 402.55 228.692C410.2 224.111 427.002 216.23 440.583 222.388C425.428 219.016 409.468 225.723 402.33 229.352C398.633 240.532 395.777 251.528 393.654 261.791C400.5 255.927 415.508 245.517 429.784 249.146C414.41 248.449 399.987 257.649 393.508 262.524C391.897 270.222 390.689 277.516 389.811 284.187C389.262 288.219 388.786 292.324 388.383 296.54C394.643 290.088 408.736 278.322 423.305 280.705C407.894 281.401 394.313 291.848 388.31 297.273C383.844 343.897 387.431 401.298 402.952 443.67C380.659 398.988 380.33 335.173 383.771 297.236C380.33 289.722 372.167 275.06 358.586 268.316C372.46 271.908 380.55 287.523 383.881 296.136C384.357 291.738 384.832 287.706 385.308 284.114Z" fill="#242629"/>
<path opacity="0.05" fill-rule="evenodd" clip-rule="evenodd" d="M227.963 355.556L229.647 352.587L235.577 355.996L233.893 358.965L227.963 355.556ZM230.745 80.0623L227.963 78.4495L226.279 81.4185L229.061 83.0313L230.745 80.0623ZM224.998 76.7634L223.314 79.7324L217.384 76.3235L219.068 73.3545L224.998 76.7634ZM216.103 71.6684L214.419 74.6374L208.489 71.2286L210.173 68.2596L216.103 71.6684ZM207.244 66.5735L205.561 69.5425L199.63 66.1336L201.314 63.1646L207.244 66.5735ZM198.349 61.4785L196.665 64.4475L190.735 61.0387L192.419 58.0697L198.349 61.4785ZM189.454 56.3469L187.77 59.3159L181.84 55.9071L183.524 52.9381L189.454 56.3469ZM180.559 51.252L178.875 54.221L172.945 50.8121L174.629 47.8431L180.559 51.252ZM171.7 46.157L170.016 49.126L164.086 45.7172L165.77 42.7482L171.7 46.157ZM162.805 41.0621L161.121 44.0311L155.191 40.6222L156.875 37.6532L162.805 41.0621ZM153.91 35.9671L152.226 38.9361C150.249 37.7998 148.309 36.6636 146.332 35.5273L148.016 32.5583C148.126 32.6316 148.272 32.7049 148.419 32.7782L153.91 35.9671ZM144.795 30.9455C142.489 29.9558 140.329 29.2594 137.84 28.8562L137.327 32.2284C139.487 32.5583 141.39 33.2181 143.404 34.0611L144.795 30.9455ZM134.142 28.5996C131.617 28.6363 129.091 29.2594 126.821 30.4323L128.395 33.4746C130.226 32.5583 132.202 32.0818 134.216 32.0451L134.142 28.5996ZM123.673 32.5949C121.806 34.2077 120.305 36.4436 119.28 38.6795L122.392 40.1091C123.234 38.313 124.405 36.4803 125.943 35.1607L123.673 32.5949ZM118.036 42.1251C117.706 43.4813 117.413 44.6909 117.23 46.0837C117.084 47.1467 117.011 48.2097 116.974 49.2726L120.379 49.4193V49.1993C120.488 47.11 120.745 45.0574 121.33 43.0414L118.036 42.1251ZM116.901 52.7548H120.305L120.269 59.6092H116.864L116.901 52.7548ZM116.864 62.9814H120.269L120.232 69.8357H116.828L116.864 62.9814ZM116.828 73.2446H120.232L120.196 80.0989H116.791L116.828 73.2446ZM116.791 83.5078H120.196L120.159 90.3621H116.755L116.791 83.5078ZM116.791 93.771H120.196L120.159 100.625H116.755L116.791 93.771ZM116.755 104.034H120.159L120.122 110.889H116.718L116.755 104.034ZM116.718 114.261H120.122L120.086 121.115H116.681L116.718 114.261ZM116.681 124.524H120.086L120.049 131.378H116.645L116.681 124.524ZM116.645 134.787H120.049L120.013 141.642H116.608L116.645 134.787ZM116.608 145.05H120.013L119.976 151.905H116.572L116.608 145.05ZM116.572 155.314H119.976L119.939 162.168H116.535L116.572 155.314ZM116.535 165.54H119.939L119.903 172.395H116.498L116.535 165.54ZM116.498 175.803H119.903L119.866 182.658H116.462L116.498 175.803ZM116.462 186.067H119.866L119.829 192.921H116.425L116.462 186.067ZM116.425 196.33H119.829L119.793 203.184H116.389L116.425 196.33ZM116.389 206.593H119.793L119.756 213.447H116.352L116.389 206.593ZM116.352 216.82H119.756L119.72 223.674H116.315L116.352 216.82ZM116.315 227.083H119.72L119.683 233.937H116.279L116.315 227.083ZM116.315 237.346H119.72L119.683 244.2H116.279L116.315 237.346ZM116.279 247.609H119.683L119.646 254.464H116.242L116.279 247.609ZM116.242 257.909C116.279 260.255 116.535 262.637 116.938 264.983L120.305 264.397C119.939 262.271 119.72 259.998 119.683 257.872L116.242 257.909ZM117.633 268.429C118.182 270.701 118.841 272.974 119.646 275.173L122.868 274C122.099 271.911 121.477 269.785 120.964 267.659L117.633 268.429ZM120.928 278.399C121.806 280.561 122.868 282.651 123.966 284.703L126.968 283.054C125.906 281.111 124.918 279.095 124.076 277.043L120.928 278.399ZM125.723 287.746C126.931 289.725 128.249 291.704 129.64 293.537L132.349 291.484C131.031 289.652 129.786 287.892 128.615 285.986L125.723 287.746ZM131.836 296.286C133.337 298.082 134.948 299.805 136.632 301.418L138.974 298.925C137.364 297.386 135.863 295.773 134.435 294.087L131.836 296.286ZM139.267 303.764C141.098 305.266 143.001 306.659 145.014 307.906L146.771 304.973C144.905 303.837 143.147 302.554 141.427 301.124L139.267 303.764ZM147.979 309.628L149.663 306.659L155.594 310.068L153.91 313.037L147.979 309.628ZM156.875 314.723L158.559 311.754L164.489 315.163L162.805 318.132L156.875 314.723ZM165.77 319.818L167.454 316.849L173.384 320.258L171.7 323.227L165.77 319.818ZM174.665 324.95L176.349 321.981L182.279 325.39L180.595 328.359L174.665 324.95ZM183.524 330.045L185.208 327.076L191.138 330.485L189.454 333.454L183.524 330.045ZM192.419 335.14L194.103 332.171L200.033 335.58L198.349 338.549L192.419 335.14ZM201.314 340.235L202.998 337.266L208.928 340.674L207.244 343.643L201.314 340.235ZM210.173 345.33L211.857 342.361L217.787 345.769L216.103 348.738L210.173 345.33ZM219.068 350.461L220.752 347.492L226.682 350.901L224.998 353.87L219.068 350.461Z" fill="white"/>
<path opacity="0.03" fill-rule="evenodd" clip-rule="evenodd" d="M409.688 502.833L249.505 408.461C243.578 405.646 234.843 403.031 228.994 406.691L214.06 416.064C211.058 417.955 201.192 424.23 207.782 427.931C227.201 438.833 351.276 513.614 371.007 524.677C374.75 526.768 380.209 527.533 385.902 527.05C391.595 526.567 397.522 524.958 402.045 522.102L408.011 518.321C412.222 515.626 414.562 512.729 414.796 509.913C415.03 507.097 413.353 504.523 409.688 502.833Z" fill="white"/>
<path fill-rule="evenodd" clip-rule="evenodd" d="M399.538 492.936C399.502 500.267 396.903 505.398 392.73 507.817L386.104 511.813C363.408 502.136 371.828 387.005 370.437 354.272L377.392 182.51C371.535 172.247 348.986 163.303 354.257 142.374L287.744 111.218C284.779 109.202 207.211 64.2269 221.121 55.7597C223.464 54.3668 225.77 52.9373 228.04 51.5811C233.165 48.5388 239.754 50.4082 244.549 53.1939L376.879 129.178C389.874 136.656 400.051 154.8 400.014 169.315L399.538 492.936Z" fill="#323237"/>
<path fill-rule="evenodd" clip-rule="evenodd" d="M214.455 70.6419C214.492 63.4577 216.945 58.3627 220.971 55.8702C225.218 53.2678 231.148 53.5244 237.737 57.3364L370.067 133.321C382.879 140.725 393.239 158.722 393.202 173.457L392.653 497.078C392.616 511.813 382.184 517.751 369.372 510.347L237.041 434.363C224.229 426.959 213.87 408.961 213.906 394.226L214.455 70.6419Z" fill="#202124"/>
<path fill-rule="evenodd" clip-rule="evenodd" d="M214.455 70.6419C214.492 63.4577 216.945 58.3627 220.971 55.8702C225.218 53.2678 231.148 53.5244 237.737 57.3364L370.067 133.321C382.879 140.725 393.239 158.722 393.202 173.457L392.653 497.078C392.616 511.813 382.184 517.751 369.372 510.347L237.041 434.363C224.229 426.959 213.87 408.961 213.906 394.226L214.455 70.6419Z" fill="#29292D"/>
<path fill-rule="evenodd" clip-rule="evenodd" d="M374.717 160.334C378.195 162.35 381.013 160.737 381.013 156.742C381.013 152.747 378.231 147.908 374.753 145.892C371.276 143.876 368.457 145.489 368.457 149.484C368.421 153.48 371.239 158.318 374.717 160.334Z" fill="#313134"/>
<path fill-rule="evenodd" clip-rule="evenodd" d="M274.234 95.4934C274.234 94.3937 275.003 93.9905 275.955 94.5403C289.719 102.311 312.231 115.03 325.995 122.801C326.947 123.351 327.715 124.707 327.715 125.806V127.969C327.715 129.069 326.947 129.472 325.995 128.922C312.231 121.151 289.719 108.432 275.955 100.662C275.003 100.112 274.234 98.7556 274.234 97.656V95.4934Z" fill="#313134"/>
<path fill-rule="evenodd" clip-rule="evenodd" d="M233.347 93.9533C233.347 89.4448 236.531 87.6488 240.448 89.9213C281.849 113.71 323.178 138.305 364.579 162.094C368.496 164.366 371.644 169.828 371.644 174.336L371.534 318.278C371.534 322.786 368.349 324.582 364.432 322.31C323.031 298.521 281.703 273.926 240.338 250.137C236.422 247.865 233.273 242.403 233.273 237.895L233.347 93.9533Z" fill="#333337"/>
<path opacity="0.5" fill-rule="evenodd" clip-rule="evenodd" d="M285.327 163.743C285.327 162.35 285.803 161.36 286.572 160.884C287.377 160.371 288.549 160.444 289.793 161.177L295.357 164.366C297.737 167.482 300.555 170.157 303.557 171.88C306.595 173.64 309.304 174.153 311.427 173.603L315.344 175.876C317.833 177.305 319.81 180.787 319.81 183.61L319.773 200.397C308.279 193.69 296.785 186.945 285.254 180.237L285.327 163.743ZM303.337 168.581C309.158 171.954 313.55 169.461 313.074 163.01C312.635 156.559 307.547 148.605 301.727 145.233C295.906 141.86 291.514 144.353 291.99 150.804C292.429 157.255 297.517 165.209 303.337 168.581Z" fill="#424247"/>
<path opacity="0.2" fill-rule="evenodd" clip-rule="evenodd" d="M273.98 193.543C273.98 192.7 274.603 192.333 275.335 192.773C293.491 203.183 311.611 213.629 329.768 224.039C330.5 224.479 331.122 225.506 331.122 226.385L331.159 234.852C331.159 235.695 330.537 236.062 329.804 235.622C311.648 225.212 293.528 214.766 275.371 204.356C274.639 203.916 274.017 202.89 274.017 202.01L273.98 193.543Z" fill="#424247"/>
<path opacity="0.2" fill-rule="evenodd" clip-rule="evenodd" d="M267.645 233.57C267.645 231.701 268.962 230.967 270.573 231.884C291.878 244.126 313.182 256.332 334.487 268.575C336.097 269.528 337.415 271.764 337.415 273.633L337.488 292.034C337.488 293.903 336.171 294.636 334.56 293.72C313.255 281.477 291.951 269.271 270.646 257.029C269.035 256.076 267.718 253.84 267.718 251.97L267.645 233.57Z" fill="#424247"/>
<path opacity="0.2" fill-rule="evenodd" clip-rule="evenodd" d="M241.219 196.951C241.219 196.218 241.731 195.925 242.39 196.292C258.094 205.309 347.046 255.342 362.75 264.359C363.409 264.725 363.922 265.642 363.922 266.375L363.958 273.705C363.958 274.439 363.446 274.732 362.787 274.365C347.083 265.348 258.131 215.315 242.427 206.298C241.768 205.932 241.255 205.015 241.255 204.282L241.219 196.951Z" fill="#424247"/>
<path fill-rule="evenodd" clip-rule="evenodd" d="M224.486 298.925C224.486 296.433 222.546 294.38 223.388 292.767C224.339 291.044 228.183 289.945 229.867 289.432C232.21 288.662 235.175 289.138 238.396 290.971L369.409 366.699C377.059 371.134 383.246 381.874 383.246 390.671L382.916 484.616C382.916 488.941 381.415 491.983 378.963 493.449C377.462 494.366 373.289 495.979 371.239 495.649C369.811 495.392 370.617 493.486 369.006 492.57L237.993 416.842C230.343 412.407 224.156 401.667 224.156 392.87L224.486 298.925Z" fill="#3A3A3F"/>
<path fill-rule="evenodd" clip-rule="evenodd" d="M221.044 300.135C221.081 291.338 227.304 287.782 234.954 292.181L365.967 367.909C373.618 372.344 379.804 383.084 379.804 391.881L379.475 485.826C379.438 494.623 373.215 498.178 365.564 493.78L234.552 418.052C226.901 413.617 220.715 402.877 220.715 394.08L221.044 300.135Z" fill="#2E2E32"/>
<path fill-rule="evenodd" clip-rule="evenodd" d="M229.027 308.566C229.027 305.744 231.041 304.607 233.457 306.037L258.678 320.515C261.131 321.945 263.107 325.354 263.107 328.176L263.217 355.997C263.217 358.819 261.204 359.955 258.788 358.526L233.566 344.047C231.114 342.618 229.137 339.209 229.137 336.387L229.027 308.566Z" fill="#38383D"/>
<path opacity="0.5" fill-rule="evenodd" clip-rule="evenodd" d="M341.547 426.042C341.547 424.246 342.828 423.513 344.402 424.466L361.936 434.033C363.51 434.986 364.792 437.185 364.792 439.018V442.61C364.792 444.406 363.51 445.139 361.936 444.186L344.402 434.583C342.828 433.63 341.547 431.43 341.547 429.598V426.042Z" fill="#38383D"/>
<path opacity="0.5" fill-rule="evenodd" clip-rule="evenodd" d="M229.027 388.729C229.027 386.933 230.308 386.2 231.883 387.153L290.306 420.435C291.88 421.388 293.161 423.587 293.161 425.42V429.012C293.161 430.808 291.88 431.541 290.306 430.588L231.883 397.306C230.308 396.353 229.027 394.154 229.027 392.321V388.729Z" fill="#38383D"/>
<path opacity="0.5" fill-rule="evenodd" clip-rule="evenodd" d="M229.027 361.862C229.027 360.066 230.308 359.332 231.883 360.286L260.398 376.56C261.973 377.513 263.254 379.712 263.254 381.545V385.137C263.254 386.933 261.973 387.666 260.398 386.713L231.883 370.439C230.308 369.486 229.027 367.286 229.027 365.454V361.862Z" fill="#38383D"/>
<path opacity="0.5" fill-rule="evenodd" clip-rule="evenodd" d="M269.254 384.697C269.254 382.901 270.535 382.167 272.109 383.12L331.264 416.513C332.838 417.466 334.119 419.665 334.119 421.498V425.09C334.119 426.886 332.838 427.619 331.264 426.666L272.109 393.274C270.535 392.321 269.254 390.121 269.254 388.289V384.697Z" fill="#38383D"/>
<path fill-rule="evenodd" clip-rule="evenodd" d="M350.262 479.521C344.003 475.709 339.5 466.399 340.196 458.701C340.891 451.041 346.529 447.925 352.825 451.737C359.084 455.549 363.587 464.896 362.892 472.557C362.159 480.217 356.522 483.333 350.262 479.521Z" fill="#38383D"/>
<path fill-rule="evenodd" clip-rule="evenodd" d="M334.522 262.969C334.522 260.037 333.497 258.241 334.741 256.628C335.547 255.601 338.329 254.392 339.5 253.989C341.77 253.219 344.662 253.622 347.773 255.418L438.336 308.237C445.621 312.452 451.514 322.679 451.514 331.073L451.185 373.188C451.185 375.791 450.636 379.126 448.659 380.959C447.231 382.242 444.742 383.562 442.912 383.708C441.008 383.855 440.276 382.095 437.97 380.776L347.407 327.957C340.123 323.742 334.229 313.515 334.229 305.121L334.522 262.969Z" fill="#3A3A3F"/>
<path fill-rule="evenodd" clip-rule="evenodd" d="M332.435 264.215C332.472 255.821 338.402 252.449 345.686 256.664L436.249 309.483C443.534 313.698 449.427 323.925 449.427 332.319L449.098 374.435C449.061 382.828 443.131 386.201 435.847 381.985L345.284 329.167C337.999 324.951 332.105 314.725 332.105 306.331L332.435 264.215Z" fill="#2E2E32"/>
<path opacity="0.2" fill-rule="evenodd" clip-rule="evenodd" d="M351.874 281.553C360.696 283.898 368.602 294.345 369.518 304.938C370.433 315.495 364.027 322.202 355.168 319.856C346.346 317.511 338.439 307.064 337.524 296.471C336.609 285.878 343.051 279.207 351.874 281.553Z" fill="#38383D"/>
<path fill-rule="evenodd" clip-rule="evenodd" d="M352.641 290.35C357.4 291.596 361.646 297.241 362.159 302.959C362.635 308.677 359.194 312.269 354.435 310.986C349.676 309.74 345.43 304.095 344.917 298.377C344.405 292.695 347.882 289.103 352.641 290.35ZM353.044 295.188C350.518 294.528 348.688 296.434 348.944 299.44C349.2 302.482 351.47 305.451 353.996 306.148C356.521 306.807 358.352 304.901 358.095 301.896C357.839 298.853 355.57 295.884 353.044 295.188Z" fill="#3C3C40"/>
<path fill-rule="evenodd" clip-rule="evenodd" d="M374.383 302.813C374.383 300.577 375.957 299.697 377.934 300.87L436.942 334.372C438.883 335.545 440.456 338.294 440.456 340.53V344.965C440.456 347.201 438.882 348.081 436.906 346.908L377.897 313.406C375.957 312.233 374.383 309.484 374.383 307.248V302.813Z" fill="#38383D"/>
<path fill-rule="evenodd" clip-rule="evenodd" d="M374.383 319.086C374.383 317.766 375.335 317.253 376.469 317.913L411.318 337.706C412.453 338.403 413.405 340.016 413.405 341.335V343.938C413.405 345.257 412.453 345.77 411.318 345.111L376.469 325.317C375.335 324.621 374.383 323.008 374.383 321.688V319.086Z" fill="#38383D"/>
<path fill-rule="evenodd" clip-rule="evenodd" d="M73.9356 69.3967C74.0088 57.7773 82.2085 53.3055 92.2752 59.3901L298.22 176.097C308.286 182.182 316.413 196.514 316.376 208.133L316.267 295.041C316.193 306.66 307.994 311.132 297.89 305.047L91.9457 188.34C81.8791 182.255 73.7526 167.887 73.7892 156.304L73.9356 69.3967Z" fill="#2E2E32"/>
<path fill-rule="evenodd" clip-rule="evenodd" d="M202.972 156.157C203.008 147.837 208.902 144.611 216.15 148.973L290.021 191.565C297.232 195.927 303.089 206.227 303.052 214.547L302.979 276.933C302.943 285.254 297.012 288.479 289.801 284.117L215.93 241.525C208.682 237.163 202.862 226.863 202.899 218.543L202.972 156.157Z" fill="#36363D"/>
<path fill-rule="evenodd" clip-rule="evenodd" d="M88.2141 88.5672C88.2507 80.2467 94.1442 77.0211 101.392 81.383L175.263 123.975C182.474 128.337 188.331 138.637 188.295 146.958L188.221 209.343C188.185 217.664 182.255 220.889 175.043 216.527L101.173 173.935C93.9246 169.573 88.1042 159.273 88.1408 150.953L88.2141 88.5672Z" fill="#36363D"/>
<path fill-rule="evenodd" clip-rule="evenodd" d="M101.535 107.335C101.535 105.502 99.9974 104.732 100.656 103.706C101.388 102.57 103.768 102.35 104.354 102.13C105.708 101.653 107.465 101.91 109.332 103.046L165.742 135.998C170.024 138.601 173.502 144.722 173.465 149.67L173.429 186.728C173.429 189.147 172.587 190.833 171.196 191.64C170.464 192.08 167.718 192.959 166.73 192.849C165.815 192.739 166.657 191.64 165.595 191.017L109.185 158.064C104.903 155.462 101.425 149.341 101.462 144.392L101.535 107.335Z" fill="#3C3C41"/>
<path fill-rule="evenodd" clip-rule="evenodd" d="M99.1541 108.031C99.1907 103.082 102.668 101.176 106.988 103.742L163.397 136.694C167.68 139.297 171.158 145.418 171.121 150.366L171.085 187.424C171.048 192.372 167.534 194.278 163.251 191.712L106.841 158.76C102.558 156.158 99.0809 150.036 99.1175 145.088L99.1541 108.031Z" fill="#3F3F44"/>
<path fill-rule="evenodd" clip-rule="evenodd" d="M99.4492 105.759C100.401 102.57 103.403 101.617 106.953 103.743L163.363 136.695C167.316 139.078 170.574 144.466 171.05 149.194C132.468 175.035 100.73 132.443 99.4492 105.759Z" fill="#3C3C42"/>
<path fill-rule="evenodd" clip-rule="evenodd" d="M217.683 172.321C218.269 172.578 218.525 173.238 218.306 173.824C218.049 174.41 217.391 174.667 216.805 174.447C216.183 174.191 215.743 174.557 215.451 175.254C214.609 177.196 214.462 180.935 214.279 184.344C214.169 186.653 214.059 188.779 213.767 190.282C211.643 201.095 210.692 209.159 211.277 215.61C211.863 221.914 213.95 226.643 217.94 230.858C220.319 233.387 238.073 244.604 255.607 254.977C271.201 264.214 286.502 272.754 290.566 273.89C292.945 274.55 294.995 274.697 296.313 274.367C296.789 274.257 297.118 274.074 297.301 273.817C297.448 273.634 297.484 273.377 297.374 273.011C297.155 272.094 296.349 270.811 294.702 269.162C289.541 263.957 289.943 254.354 290.346 243.76C290.859 231.298 291.444 217.443 282.842 208.976C282.403 208.536 282.366 207.803 282.842 207.326C283.281 206.886 284.013 206.85 284.489 207.326C293.824 216.526 293.201 230.931 292.689 243.87C292.286 253.95 291.884 263.077 296.349 267.549C298.29 269.528 299.315 271.178 299.607 272.534C299.827 273.597 299.644 274.513 299.132 275.21C298.619 275.87 297.85 276.346 296.899 276.603C295.178 277.079 292.689 276.896 289.907 276.126C285.624 274.917 270.103 266.303 254.362 256.993C236.682 246.51 218.708 235.147 216.183 232.471C211.827 227.852 209.557 222.684 208.898 215.83C208.276 209.122 209.228 200.838 211.424 189.842C211.68 188.486 211.79 186.433 211.863 184.27C212.009 180.678 212.193 176.72 213.218 174.374C214.133 172.321 215.487 171.405 217.683 172.321Z" fill="#3C3C41"/>
<path fill-rule="evenodd" clip-rule="evenodd" d="M215.785 177.38C215.785 175.547 214.247 174.777 214.906 173.751C215.638 172.615 218.018 172.395 218.604 172.175C219.958 171.698 221.715 171.955 223.582 173.091L279.992 206.043C284.274 208.646 287.752 214.767 287.715 219.715L287.679 256.773C287.679 259.192 286.837 260.878 285.446 261.685C284.714 262.124 281.968 263.004 280.98 262.894C280.065 262.784 280.907 261.685 279.845 261.061L223.435 228.109C219.153 225.507 215.675 219.386 215.712 214.437L215.785 177.38Z" fill="#3C3C41"/>
<path fill-rule="evenodd" clip-rule="evenodd" d="M213.404 178.075C213.441 173.127 216.918 171.221 221.238 173.787L277.647 206.739C281.93 209.342 285.408 215.463 285.371 220.411L285.335 257.469C285.298 262.417 281.784 264.323 277.501 261.757L221.091 228.805C216.808 226.203 213.331 220.081 213.367 215.133L213.404 178.075Z" fill="#3F3F44"/>
<path opacity="0.5" fill-rule="evenodd" clip-rule="evenodd" d="M213.735 176.317C214.687 172.615 217.689 171.515 221.24 174.008L277.649 212.165C281.603 214.914 285.3 216.05 285.776 221.512C247.157 249.589 212.967 209.233 213.735 176.317Z" fill="#2E2E32"/>
<path fill-rule="evenodd" clip-rule="evenodd" d="M213.734 175.804C214.686 172.615 217.688 171.662 221.239 173.788L277.648 206.74C281.602 209.123 284.86 214.511 285.336 219.239C246.753 245.08 214.979 202.488 213.734 175.804Z" fill="#3C3C42"/>
<path fill-rule="evenodd" clip-rule="evenodd" d="M309.225 299.718C296.962 292.607 286.273 275.856 285.322 262.294C284.37 248.732 293.558 243.491 305.821 250.602C318.084 257.712 328.773 274.463 329.725 288.026C330.676 301.588 321.488 306.829 309.225 299.718Z" fill="#4991FF"/>
<path fill-rule="evenodd" clip-rule="evenodd" d="M315.264 265.52L318.486 267.132L304.063 289.125L291.324 270.211L295.497 271.861L302.233 278.239L315.264 265.52Z" fill="#BCD0EF"/>
<path opacity="0.03" fill-rule="evenodd" clip-rule="evenodd" d="M306.971 513.058L207.321 453.518C196.464 448.297 180.89 444.16 169.839 450.196C159.758 455.688 143.15 466.945 135.782 471.353C130.225 474.676 110.838 486.883 122.922 493.732C158.401 514.008 193.492 536.725 229.552 557.34C236.337 561.205 246.354 562.63 256.823 561.748C267.227 560.866 277.955 557.679 286.356 552.525C292.366 548.864 298.247 545.269 303.998 541.743C311.818 536.996 315.954 531.3 316.341 526.078C316.729 520.925 313.627 516.246 306.971 513.058Z" fill="white"/>
<path fill-rule="evenodd" clip-rule="evenodd" d="M197.484 465.318C197.202 466.246 196.839 467.093 196.436 467.86C195.711 468.667 194.784 469.151 194.341 470.079C192.003 475.042 191.52 479.803 193.132 505.265L199.096 505.386L199.861 496.387C200.587 492.756 202.642 487.43 203.488 484.121C205.261 477.06 205.463 473.468 206.51 468.303L206.551 468.263C213.079 448.33 219.849 428.679 225.249 408.585L243.866 354.515L244.47 340.029C244.551 337.689 243.302 335.953 242.577 334.138C232.986 336.962 227.626 340.029 217.31 339.666C214.207 344.266 209.976 352.86 209.815 359.397C209.492 372.067 210.5 380.541 206.631 401.725C195.187 440.381 201.836 439.735 197.484 465.318Z" fill="url(#paint0_linear_12388_57476)"/>
<path fill-rule="evenodd" clip-rule="evenodd" d="M186.642 487.389C185.997 487.309 184.748 487.268 184.627 487.107C184.305 486.744 183.741 485.09 184.144 484.767C184.909 484.243 186.441 486.865 186.642 487.389Z" fill="#1F202B"/>
<path fill-rule="evenodd" clip-rule="evenodd" d="M189.949 477.181C190.674 479.44 189.666 481.66 188.941 484C186.443 492.231 184.992 492.716 186.04 496.428C186.765 499.01 188.054 501.109 189.666 502.965C191.278 504.821 191.762 506.152 193.857 507.565C197 509.744 199.781 510.752 199.096 506.395C198.854 504.861 198.411 503.126 198.088 502.359C195.872 497.195 193.293 494.935 194.704 488.519C195.751 483.758 197.403 480.61 195.268 477.382L189.949 477.181Z" fill="#48484D"/>
<path fill-rule="evenodd" clip-rule="evenodd" d="M190.431 472.057C189.504 476.374 188.094 479.965 184.145 484.727C184.628 484.606 185.917 485.897 186.603 487.35C191.761 481.418 194.259 478.513 195.871 481.095C195.71 483.234 194.944 487.108 194.259 490.134C194.058 491.143 193.816 493.322 194.42 494.855C196.435 499.737 200.142 506.839 198.732 509.139C199.216 508.534 199.78 506.799 199.78 504.499C199.78 501.15 199.216 496.59 199.135 493.806C199.054 490.013 200.465 486.744 200.707 481.62C200.787 480.167 200.787 478.755 200.707 477.302C200.505 473.671 200.102 468.829 197.523 467.457C196.596 466.973 194.259 467.336 193.01 467.941C191.317 468.788 190.793 470.402 190.431 472.057Z" fill="#434347"/>
<path fill-rule="evenodd" clip-rule="evenodd" d="M232.742 478.512C232.298 482.346 228.793 486.018 228.349 488.519C227.302 494.572 231.694 491.425 236.61 499.172C238.585 499.172 242.937 506.314 248.861 506.677C250.231 506.758 252.649 503.49 249.949 501.149C248.74 500.463 247.692 500.988 246.725 500.1C244.791 498.405 242.574 485.17 242.695 480.046C248.055 451.639 251.44 424.523 256.759 396.722C259.459 382.76 259.943 374.125 259.056 363.836C258.693 357.945 259.338 355.04 257.404 349.35C256.638 347.131 255.631 345.275 254.583 343.459C245.435 346.284 238.625 349.068 228.269 348.705C225.891 353.305 223.836 359.478 224.682 365.975C226.375 378.645 232.702 387.885 234.112 409.594C227.302 433.481 234.354 452.567 232.742 478.391C232.701 478.432 232.701 478.472 232.742 478.512Z" fill="url(#paint1_linear_12388_57476)"/>
<path fill-rule="evenodd" clip-rule="evenodd" d="M252.205 422.586C253.615 413.992 255.066 405.397 256.758 396.762C259.458 382.801 259.942 374.166 259.055 363.876C258.693 357.985 259.338 355.08 257.403 349.39C257.121 348.624 255.469 345.355 255.63 344.911C252.729 338.536 252.326 319.733 252.366 319.571C253.736 309.605 259.136 306.094 256.235 297.58C254.099 294.635 248.336 289.954 242.332 286.645C233.91 282.005 224.48 279.1 219.403 278.535C208.684 277.324 208.684 294.998 212.391 303.31C219.806 319.894 220.37 328.368 216.542 340.998C213.56 345.799 210.014 353.506 209.893 359.438C209.57 372.108 210.578 380.581 206.709 401.766C204.936 407.778 203.566 412.822 202.559 417.179C210.336 431.383 235.965 430.132 252.205 422.586Z" fill="#FFB156"/>
<path fill-rule="evenodd" clip-rule="evenodd" d="M230.523 483.918C235.318 484.523 239.791 496.225 243.499 501.309C245.312 503.77 249.1 501.228 247.569 500.583C248.375 500.623 251.276 500.3 253.412 500.623C256.434 501.107 255.346 504.134 253.331 505.546C248.778 508.693 244.748 510.469 240.638 508.37C239.953 508.007 239.026 507.362 238.099 506.676C237.454 506.192 236.729 505.667 236.406 505.304C235.077 503.69 234.553 501.107 233.344 498.928C232.941 498.202 232.618 498.041 232.336 498.242C231.853 498.928 232.336 509.46 232.619 511.598C232.498 512.204 230.443 512.688 230.04 512.204L226.252 493.521C225.808 491.988 225.969 490.213 226.735 488.72C227.823 486.5 229.999 484.806 230.523 483.918Z" fill="#434347"/>
<path fill-rule="evenodd" clip-rule="evenodd" d="M243.011 509.177C242.205 509.056 241.399 508.774 240.553 508.37C239.868 508.007 238.941 507.362 238.014 506.676C237.37 506.192 236.644 505.667 236.322 505.304C234.871 503.569 234.186 500.341 232.574 498.121C233.098 497.799 234.509 497.839 235.919 500.139C238.014 504.013 239.465 506.877 242.246 508.774C242.528 508.935 242.769 509.056 243.011 509.177Z" fill="#48484C"/>
<path fill-rule="evenodd" clip-rule="evenodd" d="M209.253 308.475L227.507 312.631C231.175 314.285 228.394 322.073 224.767 322.96L199.259 319.652C192.771 318.28 191.321 314.003 192.731 310.653C192.771 310.573 192.812 310.532 192.812 310.452C193.255 308.394 206.231 289.671 208.125 287.169C210.744 283.659 213.444 281.359 214.572 280.713C216.789 279.382 219.69 279.745 221.624 280.915C224.244 282.529 225.13 285.192 224.123 287.654C222.269 292.133 215.177 300.929 209.253 308.475Z" fill="#F5A548"/>
<path fill-rule="evenodd" clip-rule="evenodd" d="M288.637 300.927C292.989 298.264 298.913 293.18 302.942 292.655C305.481 291.364 309.269 289.226 311.687 287.934C313.46 287.006 314.226 290.073 312.694 291.082C311.203 292.05 307.173 294.552 307.173 294.552C307.093 294.592 307.053 294.592 306.972 294.633C307.939 296.247 308.141 298.547 307.859 300.12C307.456 302.219 302.781 304.922 299.88 306.899C297.301 308.634 294.157 307.343 292.425 308.715C289.483 307.303 288.999 303.792 288.637 300.927Z" fill="url(#paint2_linear_12388_57476)"/>
<path fill-rule="evenodd" clip-rule="evenodd" d="M268.368 313.154C273.244 309.24 279.288 305.851 284.205 302.784C285.011 302.3 286.179 302.3 286.784 301.937C287.549 301.493 288.194 301.13 288.597 300.888C290.33 301.856 292.506 305.407 293.473 308.231C292.828 308.796 292.184 309.402 291.499 310.007C290.975 310.491 290.451 312.145 289.967 312.63C284.487 318.077 280.779 322.919 275.46 326.631C274.694 327.156 271.511 329.94 269.537 330.949C267.119 332.159 263.653 330.949 262.041 328.487C260.631 327.236 259.382 325.824 258.576 325.098C254.949 321.708 245.963 314.001 241.046 307.384C237.419 302.542 238.024 299.879 239.434 297.337C242.739 291.445 247.736 287.693 253.256 293.019C255.876 295.561 257.649 299.798 259.906 302.744C262.485 305.972 265.628 309.563 268.368 313.154Z" fill="#F5A548"/>
<path fill-rule="evenodd" clip-rule="evenodd" d="M219.325 278.534C215.98 278.171 213.683 279.623 212.192 282.085C212.152 282.165 212.071 282.286 212.031 282.407L211.95 282.569L211.829 282.811L211.789 282.892C211.749 283.013 211.668 283.093 211.628 283.214L211.587 283.336L211.467 283.618L211.426 283.699C211.386 283.82 211.346 283.941 211.265 284.062L211.225 284.183L211.104 284.465L211.064 284.546C211.023 284.667 210.983 284.788 210.943 284.95L210.903 285.03L210.822 285.353L210.782 285.434C210.741 285.555 210.701 285.716 210.661 285.878C210.62 285.999 210.58 286.16 210.58 286.281L210.54 286.402C210.5 286.523 210.5 286.644 210.459 286.806V286.846C210.419 286.967 210.419 287.129 210.379 287.29L210.338 287.411L210.298 287.814V287.855L210.258 288.299V288.46L210.217 288.783V288.904L210.177 289.348V289.428L210.137 289.792V289.953L210.097 290.397V290.518V290.921V291.002V291.446V291.607V292.051V292.092C210.097 292.414 210.097 292.778 210.137 293.1V293.181L210.177 293.625V293.746L210.217 294.23V294.271L210.258 294.714V294.835L210.298 295.279V295.4L210.338 295.804V295.844L210.419 296.328V296.409L210.5 296.813V296.893L210.58 297.337V297.418L210.661 297.821V297.902C210.701 298.225 210.782 298.507 210.862 298.79L210.903 298.911L210.983 299.314V299.355L211.104 299.799V299.839C211.185 300.121 211.265 300.444 211.346 300.727L211.386 300.848L211.467 301.171L211.507 301.292L211.628 301.655L211.668 301.735L211.789 302.058L211.829 302.139C211.87 302.26 211.91 302.381 211.99 302.542V302.583L212.111 302.906L212.152 302.986L212.313 303.349C219.728 319.934 220.292 328.407 216.464 341.037C213.482 345.839 209.935 353.546 209.814 359.477C209.492 372.147 210.5 380.621 206.631 401.805C204.858 407.817 203.488 412.861 202.48 417.219C206.067 423.796 213.441 427.064 221.944 427.952C256.922 389.458 207.558 375.658 226.336 340.351C228.472 336.316 241.609 331.191 244.913 326.228C251.965 317.956 254.746 309.806 244.107 296.651C242.334 294.472 241.045 293.342 238.667 290.034C234.799 290.962 227.626 289.671 226.739 288.097C226.457 287.532 227.948 282.73 227.706 282.125C221.098 279.099 223.233 278.978 219.325 278.534Z" fill="#F5A548"/>
<path fill-rule="evenodd" clip-rule="evenodd" d="M222.756 283.376C221.909 286.887 234.764 290.72 239.157 288.783L239.237 287.936C240.366 282.69 241.494 278.211 242.259 274.539C244.315 275.427 249.312 275.669 249.755 274.983C236.215 264.169 220.378 256.139 218.363 261.627C219.693 265.582 223.159 268.406 224.891 270.989C225.335 271.674 225.697 273.087 225.778 274.539C225.375 277.283 224.287 279.987 222.756 283.376Z" fill="url(#paint3_linear_12388_57476)"/>
<path fill-rule="evenodd" clip-rule="evenodd" d="M249.752 275.023C248.583 275.79 240.282 273.046 239.637 273.046C233.19 273.369 226.259 272.844 224.969 270.947C223.236 268.365 219.771 265.54 218.441 261.586C216.305 255.251 216.708 248.109 222.511 243.146C232.545 234.511 248.301 240.846 250.558 250.611C251.485 254.606 250.356 254.969 250.517 257.632C250.88 262.595 251.444 260.698 250.961 268.567C250.759 271.593 250.518 274.539 249.752 275.023Z" fill="#FFA698"/>
<path fill-rule="evenodd" clip-rule="evenodd" d="M224.606 278.695C224.969 281.883 233.955 284.143 239.435 282.892C240.04 282.771 240.402 282.65 240.604 282.287C241.41 282.73 243.586 285.878 243.828 287.451C239.113 292.011 224.203 289.348 222.39 283.981C221.946 282.69 221.543 280.269 224.606 278.695Z" fill="#F5A548"/>
<path fill-rule="evenodd" clip-rule="evenodd" d="M199.742 268.043C191.159 275.225 186.323 288.178 190.232 295.521C193.778 302.179 202.402 306.093 199.742 310.33C197.526 313.8 192.368 317.311 198.533 322.919C201.717 325.825 209.454 333.572 225.21 329.577C240.603 325.663 256.763 312.348 243.787 297.781C230.126 282.448 238.105 279.058 245.963 267.034C250.114 260.658 253.781 248.069 250.275 243.388C244.19 235.359 240.16 241.129 234.317 238.304C223.155 232.897 214.007 236.771 208.769 245.204C204.013 252.83 206.592 262.353 199.742 268.043Z" fill="#E33D15"/>
<path fill-rule="evenodd" clip-rule="evenodd" d="M348.328 216.598L339.213 211.54C338.481 211.137 337.602 210.843 336.907 211.283L334.454 212.786C333.1 213.446 333.136 216.195 335.186 218.761L343.02 228.731C344.265 230.343 344.923 232.323 344.557 233.606L342.434 241.56C341.849 243.759 343.898 247.094 346.022 248.267C346.681 248.634 347.34 248.781 347.962 248.634L354.88 246.801C355.429 246.655 356.125 246.801 356.82 247.168C357.516 247.571 358.248 248.194 358.87 249.001L366.667 259.007C367.326 259.887 368.058 260.473 368.717 260.84C369.632 261.353 370.474 261.39 371.024 261.06L373.623 259.484C374.318 259.044 374.464 258.164 374.391 257.358C374.355 256.991 374.281 256.588 374.172 256.295C374.172 256.258 374.135 256.185 374.135 256.148L370.621 245.042C370.401 244.382 370.255 243.429 370.438 242.696L375.929 241.303C376.112 241.266 376.295 241.157 376.441 241.083L378.894 239.58C379.443 239.25 379.699 238.517 379.663 237.858C379.699 236.758 379.15 235.438 378.564 234.449C377.942 233.422 377.064 232.506 376.002 231.883C376.002 231.883 375.965 231.883 375.965 231.846L366.814 226.788C365.24 225.908 363.959 224.076 363.446 222.426L359.932 211.283V211.247C359.712 210.55 359.383 209.89 358.98 209.267C358.504 208.534 357.882 207.874 357.186 207.325C356.381 206.738 355.137 206.115 354.221 206.665L351.732 208.168C351.366 208.351 351.073 208.717 350.927 209.267L348.95 216.781C348.73 216.781 348.511 216.671 348.328 216.598Z" fill="#414146"/>
<path fill-rule="evenodd" clip-rule="evenodd" d="M351.589 216.268L342.986 211.466C342.291 211.099 341.485 210.806 340.79 211.246L338.301 212.749C338.886 217.184 342.071 217.147 347.159 220.006C347.196 220.043 347.233 220.043 347.269 220.08C347.818 220.373 348.587 220.556 349.136 220.373C349.209 220.336 349.319 220.299 349.392 220.263L353.785 216.524C353.126 216.891 352.248 216.634 351.589 216.268ZM380.141 233.128C380.69 234.045 381.203 235.291 381.166 236.354C381.166 236.977 380.946 237.674 380.434 237.967L378.091 239.396C371.356 237.71 362.9 237.014 358.434 231.113C351.625 222.169 356.055 216.487 354.737 208.423L357.116 206.957C357.958 206.444 359.166 207.031 359.898 207.58C360.557 208.094 361.143 208.717 361.619 209.413C362.021 210 362.314 210.623 362.534 211.283V211.319L365.865 221.839C366.341 223.378 367.585 225.138 369.05 225.944L377.689 230.709C377.689 230.709 377.725 230.709 377.725 230.746C378.714 231.296 379.519 232.175 380.141 233.128ZM375.968 253.802C375.968 253.765 375.932 253.692 375.932 253.655L372.6 243.172C372.271 242.182 372.088 240.606 373.076 239.983L367.878 242.769C366.853 243.392 367.073 244.895 367.402 245.921L370.77 256.404L373.003 258.237L375.456 256.734C376.115 256.331 376.261 255.488 376.188 254.718C376.151 254.425 376.041 254.058 375.968 253.802Z" fill="#38383D"/>
<path fill-rule="evenodd" clip-rule="evenodd" d="M375.235 232.176L366.596 227.411C365.205 226.641 363.924 224.992 363.411 223.306L360.08 212.786C359.494 210.88 358.14 209.377 356.859 208.644C355.577 207.948 354.37 208.021 354.003 209.414L352.027 217.001C351.697 218.211 350.562 218.541 349.171 217.734L340.569 212.933C337.458 211.21 336.506 214.875 339.178 218.284L346.572 227.704C347.78 229.244 348.366 231.076 348.037 232.323L346.023 239.837C345.474 241.926 347.414 245.078 349.428 246.178C350.05 246.508 350.672 246.655 351.258 246.508L357.81 244.785C358.323 244.639 358.982 244.785 359.641 245.152C360.3 245.518 360.995 246.105 361.581 246.874L368.939 256.295C369.561 257.101 370.22 257.687 370.879 258.017C372.856 259.117 374.503 257.944 373.588 255.085L370.256 244.602C369.707 242.879 370.073 241.56 371.135 241.266L377.687 239.58C379.957 238.994 378.346 233.899 375.235 232.176Z" fill="#F5A548"/>
<path fill-rule="evenodd" clip-rule="evenodd" d="M287.561 11.8126C292.32 14.4517 295.102 17.5306 298.177 21.8925C298.14 21.1228 298.103 23.9451 298.14 19.5833C298.177 15.2581 295.687 8.22044 299.055 4.70162C300.409 3.30876 306.962 0.742945 308.536 0.339748C311.538 -0.429993 315.052 0.0831767 318.786 2.13582C324.459 5.25143 329.621 11.2994 333.355 18.5936C337.089 25.8878 339.431 38.057 339.431 42.4556C339.431 46.8541 339.395 43.9584 339.358 44.7281C342.506 43.7751 345.361 43.7751 350.23 46.4875C355.099 49.2 361.285 55.871 365.092 63.2752C368.936 70.716 371.315 79.4031 371.352 87.5404C371.352 93.8816 369.924 98.9032 367.471 102.385C364.982 105.904 360.223 107.957 356.819 109.093C347.118 112.465 328.376 92.7453 318.493 87.1372C307.987 81.1992 297.554 75.2978 287.195 69.3965C281.521 66.2076 276.469 60.0863 272.845 52.7921C269.221 45.4979 267.025 37.0307 267.098 29.1134C267.135 24.4949 263.767 17.5673 268.123 14.2317C274.859 9.10014 282.107 8.8069 287.561 11.8126Z" fill="#2F2F33"/>
<path fill-rule="evenodd" clip-rule="evenodd" d="M282.07 14.1963C286.829 16.8354 289.611 19.9143 292.686 24.2762C292.649 23.5065 292.612 26.3288 292.649 21.967C292.686 17.6418 295.028 8.1483 298.762 4.99603C302.496 1.84376 307.621 1.44055 313.331 4.55617C319.005 7.67179 324.167 13.7198 327.9 21.014C331.634 28.3082 333.977 40.4774 333.977 44.8759C333.977 49.2744 333.94 46.3787 333.904 47.1485C337.052 46.1955 339.907 46.1955 344.776 48.9079C349.644 51.6203 355.831 58.2914 359.638 65.6956C363.481 73.1364 365.861 81.7868 365.897 89.9607C365.934 98.098 363.555 104.183 359.711 107.372C355.904 110.56 350.596 110.854 344.776 107.555C334.16 101.543 323.544 95.5322 313.002 89.5575C302.496 83.6195 292.063 77.7182 281.704 71.8168C276.03 68.6279 270.978 62.5066 267.354 55.2124C263.73 47.9182 261.534 39.4511 261.607 31.5337C261.68 23.6164 263.986 17.7517 267.684 14.5995C271.344 11.4838 277.311 11.5572 282.07 14.1963Z" fill="#29292D"/>
<path fill-rule="evenodd" clip-rule="evenodd" d="M293.015 53.3791L283.277 47.7343L298.615 74.3087L314.026 65.5117L304.289 59.8669L304.326 34.8687L293.051 28.3809L293.015 53.3791Z" fill="#2E2E32"/>
<path fill-rule="evenodd" clip-rule="evenodd" d="M326.764 64.1923L336.501 69.8371L321.2 43.2627L305.789 52.0597L315.526 57.7045L315.49 82.7027L326.728 89.1906L326.764 64.1923Z" fill="#2E2E32"/>
<path fill-rule="evenodd" clip-rule="evenodd" d="M447.124 361.421L452.432 364.463L454.116 361.494L448.808 358.452L447.124 361.421ZM455.397 366.186L457.081 363.217L463.011 366.626L461.327 369.595L455.397 366.186ZM464.292 371.281L465.976 368.312C467.916 369.411 469.856 370.621 471.87 371.684L470.295 374.726C469.929 374.543 469.527 374.323 469.161 374.103L464.292 371.281ZM473.59 376.192C475.933 377.072 478.349 377.622 480.875 377.585L480.838 374.176C478.751 374.213 476.701 373.7 474.798 373.003L473.59 376.192ZM484.682 377.072C487.281 376.339 489.404 374.983 491.197 372.967L488.635 370.694C487.281 372.197 485.706 373.223 483.73 373.736L484.682 377.072ZM493.357 369.815C494.492 367.615 495.151 365.196 495.444 362.74L492.039 362.3C491.747 364.39 491.234 366.406 490.282 368.275L493.357 369.815ZM495.7 359.075H492.296L492.332 352.22H495.736L495.7 359.075ZM495.736 348.848H492.332L492.369 341.994H495.773L495.736 348.848ZM495.773 338.585H492.369L492.405 331.731H495.81L495.773 338.585ZM495.773 328.322H492.369L492.405 321.467H495.81L495.773 328.322ZM495.81 318.059H492.405L492.442 311.204H495.846L495.81 318.059ZM495.846 307.795H492.442L492.479 300.941H495.883L495.846 307.795ZM495.883 297.532H492.479L492.515 290.678H495.919L495.883 297.532ZM495.919 287.306H492.515L492.552 280.451H495.956L495.919 287.306ZM495.956 277.042H492.552L492.588 270.188H495.993L495.956 277.042ZM495.993 266.779H492.588L492.625 259.925H496.029L495.993 266.779ZM496.029 256.516H492.625L492.662 249.662H496.066L496.029 256.516ZM496.066 246.253H492.662L492.698 239.398H496.102L496.066 246.253ZM496.102 235.99H492.698L492.735 229.135H496.139L496.102 235.99ZM496.139 225.726H492.735L492.771 218.872H496.176L496.139 225.726ZM496.176 215.5H492.771L492.808 208.645H496.212L496.176 215.5ZM496.212 205.237H492.808L492.845 198.382H496.249L496.212 205.237ZM496.212 194.973H492.808L492.845 188.119H496.249L496.212 194.973ZM496.139 184.564C495.956 182.218 495.517 179.835 494.931 177.563L491.637 178.406C492.149 180.532 492.552 182.694 492.735 184.857L496.139 184.564ZM493.943 174.154C493.211 171.918 492.332 169.755 491.307 167.629L488.232 169.095C489.184 171.111 489.989 173.127 490.685 175.253L493.943 174.154ZM489.733 164.477C488.598 162.424 487.354 160.408 485.999 158.502L483.217 160.482C484.499 162.278 485.67 164.147 486.732 166.09L489.733 164.477ZM483.876 155.717C482.375 153.884 480.801 152.161 479.081 150.512L476.738 153.004C478.349 154.544 479.813 156.12 481.204 157.843L483.876 155.717ZM476.409 148.203C474.505 146.663 472.638 145.49 470.515 144.28L468.831 147.249C470.808 148.386 472.492 149.449 474.286 150.878L476.409 148.203ZM467.55 142.558L465.866 145.527L459.936 142.118L461.62 139.149L467.55 142.558ZM458.655 137.463L456.971 140.432L451.041 137.023L452.725 134.054L458.655 137.463ZM449.796 132.331L448.112 135.3L442.182 131.891L443.866 128.922L449.796 132.331ZM440.901 127.236L439.217 130.205L433.287 126.796L434.971 123.827L440.901 127.236ZM432.006 122.141L430.322 125.11L424.392 121.701L426.076 118.732L432.006 122.141ZM423.11 117.046L421.426 120.015L415.496 116.606L417.18 113.637L423.11 117.046ZM414.252 111.915L412.568 114.884L406.638 111.475L408.322 108.506L414.252 111.915ZM405.357 106.82L403.673 109.789L397.743 106.38L399.427 103.411L405.357 106.82ZM396.461 101.725L394.777 104.694L388.847 101.285L390.531 98.316L396.461 101.725ZM387.566 96.6299L385.882 99.5989L379.952 96.19L381.636 93.221L387.566 96.6299ZM377.499 91.0951L375.816 94.0641L369.885 90.6552C368.787 89.1891 370.142 87.0997 371.569 87.6862L377.499 91.0951Z" fill="#242528"/>
<path fill-rule="evenodd" clip-rule="evenodd" d="M109.41 365.506L58.5273 335.89L70.351 279.735V279.699V279.662V279.625V279.589V279.552V279.515V279.479V279.442V279.405V279.369V279.332V279.295V279.259V279.222V279.185V279.149V279.112V279.075V279.039V279.002V278.965V278.929V278.892V278.856L70.3876 278.819H70.4243H70.4609H70.4975H70.534H70.5706C70.7903 278.709 71.0466 278.672 71.3394 278.782L122.222 308.399C121.05 307.116 114.315 348.939 109.41 365.506Z" fill="#29292D"/>
<path fill-rule="evenodd" clip-rule="evenodd" d="M108.67 302.864L107.535 359.825L54.1641 328.962L54.3105 272.478L108.67 302.864Z" fill="#36363D"/>
<path fill-rule="evenodd" clip-rule="evenodd" d="M107.682 303.34L108.816 302.681L108.67 359.165L107.535 359.825L107.682 303.34Z" fill="#2B2B2F"/>
<path fill-rule="evenodd" clip-rule="evenodd" d="M54.3125 272.477L55.4473 271.817L108.819 302.68L107.684 303.34L54.3125 272.477Z" fill="#2B2B2F"/>
<path fill-rule="evenodd" clip-rule="evenodd" d="M105.668 347.583V351.138L56.25 322.584V319.029L105.668 347.583ZM105.778 306.64V310.195L56.3599 281.641V278.086L105.778 306.64ZM105.741 312.504L56.3233 283.951V287.506L105.741 316.06V312.504ZM105.741 318.332L56.3233 289.779V293.334L105.741 321.888V318.332ZM105.741 324.197L56.3233 295.643V299.199L105.741 327.753V324.197ZM105.705 330.025L56.2866 301.471V305.027L105.705 333.581V330.025ZM105.705 335.89L56.2866 307.336V310.892L105.705 339.445V335.89ZM105.668 341.754L56.25 313.201V316.756L105.668 345.31V341.754Z" fill="#3B3B43"/>
<path fill-rule="evenodd" clip-rule="evenodd" d="M95.9334 324.087L108.233 365.139C108.379 365.579 108.27 368.548 108.526 368.805L57.6436 339.188C57.2044 338.932 56.9481 338.235 56.9115 337.832L44.7949 295.093L42.5253 287.066C42.4155 286.443 42.8548 285.746 42.9646 285.6C45.0878 287.542 56.3623 294.433 58.4488 295.68C61.9264 298.429 62.0363 301.251 67.3442 306.859C68.3691 307.922 68.6986 308.215 69.9432 308.948L95.9334 324.087Z" fill="#29292D"/>
<path fill-rule="evenodd" clip-rule="evenodd" d="M96.2641 323.061C96.3373 322.987 96.447 322.914 96.5202 322.877C96.9229 322.657 97.2891 322.731 97.3989 323.134L109.406 365.506L121.229 309.352C121.339 308.839 121.705 308.326 122.108 308.069C122.181 308.032 122.291 307.996 122.364 307.959C122.84 307.812 123.133 308.252 122.986 308.875L111.089 365.396C110.87 366.386 110.65 367.119 110.357 367.596C110.101 368.109 109.772 368.475 109.406 368.659C109.04 368.878 108.747 368.878 108.454 368.695C108.198 368.475 107.941 368.035 107.758 367.376L95.6051 324.637C95.4953 324.234 95.7882 323.464 96.2641 323.061Z" fill="#2F2F33"/>
<path fill-rule="evenodd" clip-rule="evenodd" d="M71.4819 307.848L97.1426 322.803C96.4837 322.473 95.4587 323.976 95.6418 324.709L69.7249 309.608C68.8463 309.095 68.3339 308.801 67.5652 308.215C63.868 305.283 62.1474 301.324 59.7314 298.062C59.0359 297.145 58.3405 296.486 57.6816 295.972C57.0593 295.606 56.6931 295.423 56.8029 295.496L42.4901 287.065C42.3803 286.442 42.8195 285.746 42.9293 285.636C43.1855 285.343 43.6248 284.976 44.0275 285.196L58.3771 293.626C58.2672 293.553 58.5967 293.773 59.2556 294.103C59.9511 294.616 60.6466 295.276 61.3055 296.192C63.8679 299.601 65.6615 303.45 69.798 306.712C70.3471 307.189 70.823 307.482 71.4819 307.848Z" fill="#313136"/>
<path opacity="0.03" d="M54.5201 544.681C52.0352 544.681 49.5504 544.12 47.6259 542.998L3.14258 517.287C1.12061 516.116 0 514.506 0 512.75C0 510.994 1.12061 509.384 3.14258 508.213L47.4067 482.453C51.2801 480.209 57.3216 480.234 61.195 482.453L105.678 508.164C107.7 509.335 108.821 510.945 108.821 512.701C108.821 514.457 107.7 516.067 105.678 517.238L61.4143 542.998C59.4654 544.12 56.9805 544.681 54.5201 544.681ZM54.2765 482.697C52.1327 482.697 49.9889 483.161 48.3567 484.112L4.09266 509.871C2.67972 510.676 1.92452 511.701 1.92452 512.75C1.92452 513.799 2.70408 514.823 4.09266 515.628L48.576 541.339C51.8404 543.241 57.1754 543.241 60.4398 541.339L104.704 515.579C106.117 514.774 106.872 513.75 106.872 512.701C106.872 511.652 106.092 510.652 104.704 509.823L60.2206 484.112C58.564 483.161 56.4202 482.697 54.2765 482.697Z" fill="white"/>
<path opacity="0.1" d="M54.5201 524.604C52.0352 524.604 49.5504 524.043 47.6259 522.921L3.14258 497.21C1.12061 496.039 0 494.429 0 492.673C0 490.917 1.12061 489.307 3.14258 488.136L47.4067 462.376C51.2801 460.132 57.3216 460.132 61.195 462.376L105.678 488.087C107.7 489.258 108.821 490.868 108.821 492.624C108.821 494.381 107.7 495.991 105.678 497.161L61.4143 522.921C59.4654 524.043 56.9805 524.604 54.5201 524.604ZM54.2765 462.596C52.1327 462.596 49.9889 463.06 48.3567 464.011L4.09266 489.77C2.67972 490.575 1.92452 491.6 1.92452 492.649C1.92452 493.698 2.70408 494.698 4.09266 495.527L48.576 521.238C51.8404 523.14 57.1754 523.14 60.4398 521.238L104.704 495.478C106.117 494.673 106.872 493.649 106.872 492.6C106.872 491.551 106.092 490.526 104.704 489.721L60.2206 464.011C58.564 463.084 56.4202 462.596 54.2765 462.596Z" fill="white"/>
<g clip-path="url(#clip0_12388_57476)">
<path d="M58.7501 476.913C60.3077 463.232 61.348 442.751 63.9746 426.255C66.2391 409.614 70.09 396.947 68.9922 395.58C68.452 394.346 60.4169 405.236 56.0487 423.058C51.3013 440.382 50.2207 464.651 54.8015 478.633C58.0719 480.886 58.7386 476.884 58.7501 476.913Z" fill="url(#paint4_linear_12388_57476)"/>
<path d="M47.8779 473.814C43.7167 460.886 40.9176 440.15 38.0841 422.316C35.4747 404.494 32.8251 389.562 34.1528 388.537C35.2333 387.529 42.6247 401.731 47.5561 420.393C52.7289 438.917 55.4417 461.888 52.7289 475.239C49.2976 477.544 47.8837 473.808 47.8779 473.814Z" fill="url(#paint5_linear_12388_57476)"/>
<path d="M61.224 484.837C58.7985 476.091 64.7185 461.338 73.6732 453.664C82.2428 445.236 93.8471 443.881 93.8011 444.559C94.6575 445.196 84.4728 449.094 77.4263 457.521C69.7878 465.52 65.2875 478.043 63.8219 486.018C61.8102 487.322 61.2067 484.854 61.224 484.837Z" fill="url(#paint6_linear_12388_57476)"/>
<path d="M50.2163 487.367C45.2447 478.435 38.9396 464.668 32.2897 454.132C25.9156 443.387 19.191 435.863 19.8002 434.583C19.9497 433.57 29.8929 438.563 38.4338 449.475C47.1758 459.924 54.5097 476.281 54.1534 487.326C51.8601 489.892 50.2163 487.344 50.2163 487.367Z" fill="url(#paint7_linear_12388_57476)"/>
<path d="M58.0795 482.247C55.0505 471.184 58.7405 452.296 66.1088 438.726C73.0404 424.767 83.6503 416.125 84.4722 416.588C85.8689 417.022 78.1557 427.906 72.9886 441.998C67.2698 455.986 64.0857 473.177 61.7982 483.713C58.9761 485.427 58.068 482.265 58.0795 482.247Z" fill="url(#paint8_linear_12388_57476)"/>
<path d="M66.7974 507.189H43.7612C42.0542 507.189 40.5253 506.123 39.9219 504.507L36.8124 496.155C34.0421 488.718 34.3582 480.487 37.6516 473.299C37.8815 472.795 38.3758 472.465 38.9275 472.465H71.6311C72.1656 472.465 72.6599 472.772 72.8898 473.258C76.2004 480.458 76.5165 488.706 73.7462 496.155L70.6368 504.507C70.0333 506.123 68.5044 507.189 66.7974 507.189Z" fill="#4991FF"/>
</g>
<defs>
<linearGradient id="paint0_linear_12388_57476" x1="216.632" y1="418.658" x2="188.625" y2="431.562" gradientUnits="userSpaceOnUse">
<stop stop-color="#FF8A78"/>
<stop offset="1" stop-color="#FFA799"/>
</linearGradient>
<linearGradient id="paint1_linear_12388_57476" x1="219.249" y1="462.349" x2="241.149" y2="424.119" gradientUnits="userSpaceOnUse">
<stop stop-color="#FFB89E"/>
<stop offset="1" stop-color="#FFA799"/>
</linearGradient>
<linearGradient id="paint2_linear_12388_57476" x1="301.377" y1="296.752" x2="303.009" y2="300.637" gradientUnits="userSpaceOnUse">
<stop stop-color="#FFB89E"/>
<stop offset="1" stop-color="#FFA799"/>
</linearGradient>
<linearGradient id="paint3_linear_12388_57476" x1="234.261" y1="273.508" x2="237.6" y2="283.393" gradientUnits="userSpaceOnUse">
<stop stop-color="#FF8A78"/>
<stop offset="1" stop-color="#FFA799"/>
</linearGradient>
<linearGradient id="paint4_linear_12388_57476" x1="60.529" y1="395.485" x2="60.529" y2="479.322" gradientUnits="userSpaceOnUse">
<stop stop-color="#00FFA3"/>
<stop offset="1" stop-color="#00FFA3" stop-opacity="0"/>
</linearGradient>
<linearGradient id="paint5_linear_12388_57476" x1="43.7984" y1="388.486" x2="43.7984" y2="475.99" gradientUnits="userSpaceOnUse">
<stop stop-color="#00FFA3"/>
<stop offset="1" stop-color="#00FFA3" stop-opacity="0"/>
</linearGradient>
<linearGradient id="paint6_linear_12388_57476" x1="77.2647" y1="444.407" x2="77.2647" y2="486.398" gradientUnits="userSpaceOnUse">
<stop stop-color="#00FFA3"/>
<stop offset="1" stop-color="#00FFA3" stop-opacity="0"/>
</linearGradient>
<linearGradient id="paint7_linear_12388_57476" x1="36.9638" y1="434.455" x2="36.9638" y2="488.472" gradientUnits="userSpaceOnUse">
<stop stop-color="#00FFA3"/>
<stop offset="1" stop-color="#00FFA3" stop-opacity="0"/>
</linearGradient>
<linearGradient id="paint8_linear_12388_57476" x1="70.828" y1="416.57" x2="70.828" y2="484.222" gradientUnits="userSpaceOnUse">
<stop stop-color="#00FFA3"/>
<stop offset="1" stop-color="#00FFA3" stop-opacity="0"/>
</linearGradient>
<clipPath id="clip0_12388_57476">
<rect width="74.0917" height="118.704" fill="white" transform="translate(19.7578 388.485)"/>
</clipPath>
</defs>
</svg>
