<svg width="50" height="50" viewBox="0 0 50 50" fill="none" xmlns="http://www.w3.org/2000/svg">
<path d="M13.4165 4.16663H36.5623C43.979 4.16663 45.8332 6.02079 45.8332 13.4166V26.6041C45.8332 34.0208 43.979 35.8541 36.5832 35.8541H13.4165C6.02067 35.875 4.1665 34.0208 4.1665 26.625V13.4166C4.1665 6.02079 6.02067 4.16663 13.4165 4.16663Z" stroke="white" stroke-width="2" stroke-linecap="round" stroke-linejoin="round"/>
<path d="M25 35.875V45.8333" stroke="white" stroke-width="2" stroke-linecap="round" stroke-linejoin="round"/>
<path d="M15.625 45.8334H34.375" stroke="white" stroke-width="2" stroke-linecap="round" stroke-linejoin="round"/>
<path fill-rule="evenodd" clip-rule="evenodd" d="M23.6882 13.6696C24.1715 13.5586 24.6749 13.5 25.1919 13.5C25.7087 13.5 26.2119 13.5586 26.6951 13.6695C26.7001 13.6903 26.706 13.711 26.7129 13.7317C26.9871 14.5529 27.2076 15.3874 27.3744 16.2299C25.923 16.0846 24.4604 16.0846 23.0089 16.2299C23.1757 15.3874 23.3962 14.553 23.6704 13.7317C23.6773 13.7112 23.6832 13.6905 23.6882 13.6696ZM21.9119 14.3576C20.8445 14.959 19.9587 15.8448 19.3574 16.9122C20.0466 16.7217 20.7428 16.5656 21.4436 16.4439C21.5653 15.7431 21.7214 15.0468 21.9119 14.3576ZM18.6695 18.6885C18.5586 19.1718 18.5 19.675 18.5 20.1919C18.5 20.7088 18.5586 21.212 18.6695 21.6952C18.6904 21.7002 18.7112 21.7062 18.7317 21.713C19.5529 21.9872 20.3872 22.2077 21.2296 22.3744C21.0843 20.9231 21.0843 19.4606 21.2296 18.0093C20.3872 18.176 19.5529 18.3965 18.7317 18.6707C18.7111 18.6776 18.6903 18.6835 18.6695 18.6885ZM19.3574 23.4715C19.9587 24.5389 20.8445 25.4248 21.9119 26.0261C21.7214 25.3369 21.5653 24.6406 21.4436 23.9398C20.7428 23.8181 20.0466 23.662 19.3574 23.4715ZM23.6882 26.7141C24.1715 26.8251 24.6749 26.8837 25.1919 26.8837C25.7087 26.8837 26.2119 26.8251 26.695 26.7142C26.7001 26.6934 26.706 26.6726 26.7129 26.652C26.9871 25.8307 27.2076 24.9963 27.3744 24.1538C25.9229 24.2991 24.4604 24.2991 23.0089 24.1538C23.1757 24.9963 23.3962 25.8308 23.6704 26.652C23.6773 26.6725 23.6832 26.6933 23.6882 26.7141ZM28.4713 26.0264C29.539 25.425 30.4249 24.5391 31.0263 23.4715C30.337 23.662 29.6406 23.8181 28.9397 23.9398C28.818 24.6407 28.6619 25.3371 28.4713 26.0264ZM31.7142 21.6952C31.8251 21.212 31.8837 20.7088 31.8837 20.1919C31.8837 19.675 31.8251 19.1718 31.7142 18.6885C31.6934 18.6835 31.6727 18.6776 31.652 18.6707C30.8307 18.3965 29.9962 18.176 29.1537 18.0092C29.299 19.4606 29.299 20.9231 29.1537 22.3745C29.9962 22.2077 30.8307 21.9873 31.652 21.713C31.6726 21.7062 31.6933 21.7002 31.7142 21.6952ZM31.0263 16.9122C30.4249 15.8446 29.539 14.9587 28.4713 14.3573C28.6619 15.0466 28.818 15.743 28.9397 16.4439C29.6406 16.5656 30.337 16.7217 31.0263 16.9122ZM25.1919 12C20.6676 12 17 15.6676 17 20.1919C17 24.7161 20.6676 28.3837 25.1919 28.3837C29.7161 28.3837 33.3837 24.7161 33.3837 20.1919C33.3837 15.6676 29.7161 12 25.1919 12ZM22.7654 22.618C22.5724 21.0065 22.5724 19.3772 22.7654 17.7657C24.377 17.5727 26.0063 17.5727 27.618 17.7656C27.8109 19.3772 27.8109 21.0065 27.618 22.6181C26.0063 22.811 24.377 22.811 22.7654 22.618Z" fill="url(#paint0_linear_9875_1348)"/>
<defs>
<linearGradient id="paint0_linear_9875_1348" x1="25.1919" y1="12" x2="25.1919" y2="28.3837" gradientUnits="userSpaceOnUse">
<stop stop-color="#00FFA3"/>
<stop offset="1" stop-color="#00FFA3" stop-opacity="0"/>
</linearGradient>
</defs>
</svg>
