<svg width="50" height="50" viewBox="0 0 50 50" fill="none" xmlns="http://www.w3.org/2000/svg">
<path d="M41.1014 25.2974C43.5665 23.3686 45.0474 20.4392 45.0474 17.2754C45.0474 11.6059 40.3471 7 34.5615 7C29.4289 7 25.161 10.6324 24.2596 15.4096C18.5291 15.7251 13.7185 19.646 12.3571 25.0901C6.76465 24.351 2 28.6685 2 34.0045C2 38.9619 6.11158 43 11.1798 43H38.8202C43.8792 43 48 38.971 48 34.0045C47.9908 29.7862 45.0934 26.2889 41.1014 25.2974ZM34.5615 8.8027C39.3261 8.8027 43.2078 12.6064 43.2078 17.2754C43.2078 20.4121 41.4417 23.2874 38.6087 24.7566C38.3051 24.9099 38.1212 25.2163 38.1212 25.5498V27.2894H31.011V25.5498C31.011 25.2163 30.827 24.9099 30.5235 24.7566C27.6813 23.2784 25.9244 20.4121 25.9244 17.2754C25.9152 12.6064 29.7968 8.8027 34.5615 8.8027ZM38.811 41.1973H11.1798C7.13257 41.1973 3.83963 37.9705 3.83963 34.0045C3.83963 30.0386 7.13257 26.8207 11.1798 26.8207C11.7225 26.8207 12.2927 26.8838 12.8722 27.019C13.1206 27.0731 13.3781 27.028 13.5897 26.8928C13.8012 26.7576 13.9484 26.5413 13.9852 26.2889C14.8498 21.3135 19.0258 17.6269 24.0848 17.2213V17.2754C24.0848 20.8988 26.0164 24.2248 29.1714 26.0816V28.1908C29.1714 28.6865 29.5853 29.0921 30.0912 29.0921H39.041C39.5469 29.0921 39.9608 28.6865 39.9608 28.1908V26.9019C43.5021 27.4337 46.1604 30.3901 46.1604 33.9955C46.1512 37.9705 42.8582 41.1973 38.811 41.1973Z" fill="white"/>
<path d="M38.122 31H30.878C30.3951 31 30 31.45 30 32C30 32.55 30.3951 33 30.878 33H38.122C38.6049 33 39 32.55 39 32C39 31.45 38.6137 31 38.122 31Z" fill="url(#paint0_linear_9875_1255)"/>
<path d="M37.1005 35H32.8995C32.4048 35 32 35.225 32 35.5C32 35.775 32.4048 36 32.8995 36H37.1005C37.5952 36 38 35.775 38 35.5C38 35.225 37.5952 35 37.1005 35Z" fill="url(#paint1_linear_9875_1255)"/>
<circle cx="34.6904" cy="17.2756" r="3.30957" fill="url(#paint2_linear_9875_1255)"/>
<defs>
<linearGradient id="paint0_linear_9875_1255" x1="30" y1="32.5" x2="39" y2="32.5" gradientUnits="userSpaceOnUse">
<stop stop-color="#00FFA3"/>
<stop offset="1" stop-color="#00FFA3" stop-opacity="0.1"/>
</linearGradient>
<linearGradient id="paint1_linear_9875_1255" x1="32" y1="35.75" x2="38" y2="35.75" gradientUnits="userSpaceOnUse">
<stop stop-color="#00FFA3"/>
<stop offset="1" stop-color="#00FFA3" stop-opacity="0.1"/>
</linearGradient>
<linearGradient id="paint2_linear_9875_1255" x1="31.3809" y1="18.9304" x2="38" y2="18.9304" gradientUnits="userSpaceOnUse">
<stop stop-color="#00FFA3"/>
<stop offset="1" stop-color="#00FFA3" stop-opacity="0.1"/>
</linearGradient>
</defs>
</svg>
