<svg width="50" height="50" viewBox="0 0 50 50" fill="none" xmlns="http://www.w3.org/2000/svg">
<path d="M18.75 27.0834C17.375 27.7709 16.2292 28.7917 15.375 30.0625C14.8958 30.7917 14.8958 31.7084 15.375 32.4375C16.2292 33.7084 17.375 34.7292 18.75 35.4167" stroke="url(#paint0_linear_9875_1048)" stroke-width="2" stroke-linecap="round" stroke-linejoin="round"/>
<path d="M31.6875 27.0834C33.0625 27.7709 34.2083 28.7917 35.0625 30.0625C35.5417 30.7917 35.5417 31.7084 35.0625 32.4375C34.2083 33.7084 33.0625 34.7292 31.6875 35.4167" stroke="url(#paint1_linear_9875_1048)" stroke-width="2" stroke-linecap="round" stroke-linejoin="round"/>
<path d="M18.7498 45.8333H31.2498C41.6665 45.8333 45.8332 41.6666 45.8332 31.25V18.75C45.8332 8.33329 41.6665 4.16663 31.2498 4.16663H18.7498C8.33317 4.16663 4.1665 8.33329 4.1665 18.75V31.25C4.1665 41.6666 8.33317 45.8333 18.7498 45.8333Z" stroke="white" stroke-width="2" stroke-linecap="round" stroke-linejoin="round"/>
<path d="M4.646 16.6875L44.6877 16.6666" stroke="white" stroke-width="2" stroke-linecap="round" stroke-linejoin="round"/>
<defs>
<linearGradient id="paint0_linear_9875_1048" x1="13.8953" y1="30.8334" x2="20.6172" y2="30.8334" gradientUnits="userSpaceOnUse">
<stop stop-color="#00FFA3"/>
<stop offset="1" stop-color="#00FFA3" stop-opacity="0"/>
</linearGradient>
<linearGradient id="paint1_linear_9875_1048" x1="36.5418" y1="31.4584" x2="29.8199" y2="31.4584" gradientUnits="userSpaceOnUse">
<stop stop-color="#00FFA3"/>
<stop offset="1" stop-color="#00FFA3" stop-opacity="0"/>
</linearGradient>
</defs>
</svg>
