<svg width="50" height="50" viewBox="0 0 50 50" fill="none" xmlns="http://www.w3.org/2000/svg">
<path d="M30.9997 38H19.0312C18.5313 38 18.0814 38.36 18.0114 38.85C17.9214 39.47 18.4013 40 19.0013 40H30.9697C31.4696 40 31.9196 39.64 31.9896 39.15C32.0796 38.53 31.5996 38 30.9997 38Z" fill="url(#paint0_linear_9875_1298)"/>
<path d="M30.9997 41H19.0312C18.5313 41 18.0814 41.36 18.0114 41.85C17.9214 42.47 18.4013 43 19.0013 43H30.9697C31.4696 43 31.9196 42.64 31.9896 42.15C32.0796 41.53 31.5996 41 30.9997 41Z" fill="url(#paint1_linear_9875_1298)"/>
<path d="M27.9998 44H22.0311C21.5313 44 21.0814 44.36 21.0114 44.85C20.9214 45.47 21.4013 46 22.0012 46H27.9698C28.4697 46 28.9196 45.64 28.9896 45.15C29.0796 44.53 28.5997 44 27.9998 44Z" fill="url(#paint2_linear_9875_1298)"/>
<path d="M37.9394 13.8126C37.5932 12.8711 36.7886 10.6581 34.852 8.52293C32.8031 6.27116 30.3613 4.83467 27.6014 4.26206C25.8893 3.91265 24.1211 3.91265 22.409 4.26206C19.649 4.83467 17.2072 6.27116 15.1583 8.52293C13.2217 10.6485 12.4078 12.8712 12.071 13.8126C11.6219 15.0161 10.808 17.2484 11.0419 20.199C11.2945 23.4408 12.6511 25.7993 13.1002 26.5757C13.3808 27.061 13.9422 27.9733 15.0742 29.6233C15.3643 30.0407 15.5981 30.3803 15.8133 30.6813C16.3372 31.4189 16.6273 31.8266 16.9266 32.4672C17.329 33.3407 17.6283 34.2627 17.8154 35.2236C17.909 35.6797 18.2831 36 18.7322 36H31.2781C31.7272 36 32.1201 35.67 32.195 35.2041C32.3634 34.2626 32.6534 33.3406 33.0744 32.4864C33.4018 31.8167 33.7013 31.3897 34.2438 30.6132C34.4403 30.3318 34.6648 30.0115 34.9361 29.6232C35.7126 28.4876 36.3862 27.5074 36.9008 26.5756C37.3966 25.7021 38.7158 23.3727 38.9591 20.1989C39.193 17.2484 38.3791 15.0161 37.9394 13.8126ZM37.0974 20.0437C36.8915 22.771 35.7315 24.8189 35.2917 25.5954C34.8146 26.4591 34.1596 27.4006 33.4112 28.5071C33.1492 28.8856 32.9341 29.1962 32.7376 29.4777C32.1763 30.2833 31.802 30.8074 31.4091 31.613C31.0255 32.3894 30.7355 33.2145 30.5203 34.0589H19.4713C19.2562 33.2242 18.9661 32.4089 18.6107 31.6227C18.2364 30.8172 17.8715 30.3027 17.3196 29.5263C17.1137 29.2351 16.8799 28.9051 16.5992 28.4975C15.5046 26.9057 14.9713 26.0322 14.7093 25.5857C14.3164 24.9063 13.1282 22.8293 12.9037 20.0437C12.7072 17.5396 13.3995 15.6372 13.8112 14.5016C14.148 13.5893 14.831 11.6966 16.515 9.85259C18.2926 7.89199 20.4069 6.65942 22.7739 6.16442C24.2428 5.86351 25.7584 5.86351 27.2366 6.16442C29.6129 6.65942 31.7179 7.90173 33.4955 9.85259C35.1795 11.7064 35.8625 13.5894 36.1993 14.5016C36.6015 15.6276 37.2938 17.5202 37.0974 20.0437Z" fill="white"/>
<path d="M20.5 17.5L25 22" stroke="url(#paint3_linear_9875_1298)" stroke-width="2" stroke-linecap="round" stroke-linejoin="round"/>
<path d="M29.5 17.5L25 22" stroke="url(#paint4_linear_9875_1298)" stroke-width="2" stroke-linecap="round" stroke-linejoin="round"/>
<defs>
<linearGradient id="paint0_linear_9875_1298" x1="18.0005" y1="39.5" x2="32.0005" y2="39.5" gradientUnits="userSpaceOnUse">
<stop stop-color="#00FFA3"/>
<stop offset="1" stop-color="#00FFA3" stop-opacity="0.1"/>
</linearGradient>
<linearGradient id="paint1_linear_9875_1298" x1="18.0005" y1="42.5" x2="32.0005" y2="42.5" gradientUnits="userSpaceOnUse">
<stop stop-color="#00FFA3"/>
<stop offset="1" stop-color="#00FFA3" stop-opacity="0.1"/>
</linearGradient>
<linearGradient id="paint2_linear_9875_1298" x1="21.0005" y1="45.5" x2="29.0005" y2="45.5" gradientUnits="userSpaceOnUse">
<stop stop-color="#00FFA3"/>
<stop offset="1" stop-color="#00FFA3" stop-opacity="0.1"/>
</linearGradient>
<linearGradient id="paint3_linear_9875_1298" x1="25" y1="22.5" x2="19.5" y2="17" gradientUnits="userSpaceOnUse">
<stop stop-color="#00FFA3"/>
<stop offset="1" stop-color="#00FFA3" stop-opacity="0"/>
</linearGradient>
<linearGradient id="paint4_linear_9875_1298" x1="26" y1="21" x2="30" y2="16.5" gradientUnits="userSpaceOnUse">
<stop stop-color="#00FFA3"/>
<stop offset="1" stop-color="#00FFA3" stop-opacity="0"/>
</linearGradient>
</defs>
</svg>
