<svg width="34" height="34" viewBox="0 0 34 34" fill="none" xmlns="http://www.w3.org/2000/svg">
<g clip-path="url(#clip0_9951_1296)">
<path d="M31.8929 15.8076C31.6789 15.589 28.9321 12.0541 28.4684 11.471C27.969 10.8879 27.755 10.9972 27.4339 11.0337C27.1129 11.0701 23.6527 11.6896 23.2603 11.7261C22.8679 11.799 22.6182 11.9447 22.8679 12.3091C23.082 12.6371 25.365 15.9169 25.8644 16.6822L16.7681 18.9052L9.56237 6.55126C9.27699 6.11396 9.20565 5.96819 8.56356 6.00463C7.92147 6.04107 2.89174 6.47838 2.53503 6.47838C2.17831 6.51482 1.78592 6.66059 2.14264 7.53521C2.49935 8.40982 8.20684 20.946 8.34953 21.3104C8.49221 21.6748 8.92028 22.2579 9.88341 22.0392C10.8822 21.7841 14.3067 20.8731 16.1973 20.3629C17.1961 22.185 19.1938 25.9021 19.5861 26.4488C20.0855 27.1776 20.4423 27.0318 21.1914 26.8132C21.7978 26.631 30.5374 23.4241 30.9298 23.2418C31.3222 23.0596 31.5719 22.9503 31.2865 22.5494C31.0725 22.2579 28.7895 19.0874 27.5766 17.4475C28.3971 17.2289 31.3578 16.4271 31.6789 16.3178C32.0356 16.2085 32.1069 16.0263 31.8929 15.8076ZM15.3769 19.2696C15.2699 19.3061 10.1688 20.5451 9.91909 20.618C9.63371 20.6909 9.63371 20.6544 9.63371 20.5451C9.56237 20.4358 3.56951 7.75386 3.46249 7.60809C3.39115 7.46232 3.39115 7.31655 3.46249 7.31655C3.53384 7.31655 8.27818 6.87924 8.42087 6.87924C8.59923 6.87924 8.56356 6.91569 8.6349 7.02501C8.6349 7.02501 15.3055 18.7959 15.4125 18.9781C15.5552 19.1603 15.4839 19.2332 15.3769 19.2696ZM29.7169 22.0028C29.7883 22.1486 29.8953 22.2215 29.6099 22.2943C29.3602 22.4037 21.013 25.2826 20.8347 25.3555C20.6563 25.4284 20.5493 25.4648 20.3352 25.1368C20.1212 24.8089 17.4102 20.0349 17.4102 20.0349L26.2924 17.6662C26.5065 17.5933 26.5778 17.5568 26.7205 17.7755C26.8632 18.0306 29.6456 21.8935 29.7169 22.0028ZM30.2877 15.589C30.0736 15.6254 26.8275 16.4636 26.8275 16.4636L24.1521 12.7465C24.0808 12.6371 24.0094 12.5278 24.1878 12.4914C24.3662 12.4549 27.3983 11.9083 27.5409 11.8718C27.6836 11.8354 27.7907 11.799 27.969 12.0541C28.1474 12.2727 30.4304 15.261 30.5374 15.3703C30.6444 15.4796 30.5017 15.5525 30.2877 15.589Z" fill="#F34D39"/>
</g>
<defs>
<clipPath id="clip0_9951_1296">
<rect width="30" height="21" fill="white" transform="translate(2 6)"/>
</clipPath>
</defs>
</svg>
