<svg width="34" height="34" viewBox="0 0 34 34" fill="none" xmlns="http://www.w3.org/2000/svg">
<path fill-rule="evenodd" clip-rule="evenodd" d="M16.9998 4.68958C20.2644 4.69043 23.3951 5.98768 25.7036 8.29613C28.012 10.6046 29.3093 13.7353 29.3101 16.9999C29.3093 20.2646 28.012 23.3953 25.7036 25.7037C23.3951 28.0122 20.2644 29.3094 16.9998 29.3103C13.7352 29.3094 10.6045 28.0122 8.29601 25.7037C5.98756 23.3953 4.69031 20.2646 4.68945 16.9999C4.69031 13.7353 5.98756 10.6046 8.29601 8.29613C10.6045 5.98768 13.7352 4.69043 16.9998 4.68958ZM10.6337 17.267C10.6659 19.3043 11.9533 20.1443 13.4788 20.1443C14.2658 20.1717 15.0493 20.0256 15.7735 19.7162L16.031 20.7976C15.1613 21.1753 14.2208 21.3619 13.2728 21.3447C10.7238 21.3447 9.19189 19.6293 9.19189 17.1608C9.19189 14.6923 10.6659 12.6873 13.099 12.6873C15.7928 12.6873 16.5105 15.0528 16.5105 16.5783C16.5136 16.815 16.4909 17.0513 16.4429 17.2831L10.6337 17.267ZM15.0558 16.1953C15.0558 15.2523 14.6599 13.7622 12.9638 13.7622C11.4383 13.7622 10.7689 15.1493 10.6498 16.1953H15.0558ZM20.2117 14.6248L19.0306 12.8611H17.3506L20.1635 16.9066L17.2154 21.1388H18.8761L20.0766 19.2882C20.1789 19.1176 20.2792 18.9565 20.3774 18.7986C20.5757 18.4801 20.7658 18.1746 20.9487 17.8303H20.9841L21.0097 17.8733C21.2932 18.3499 21.5632 18.8039 21.8756 19.2882L23.1083 21.1388H24.8076L21.8917 16.8551L24.7207 12.8611H23.0761L21.9271 14.6087C21.8166 14.7894 21.703 14.9695 21.5887 15.1507C21.4201 15.418 21.2502 15.6874 21.0871 15.9636H21.0517C20.987 15.8577 20.9239 15.753 20.861 15.6485C20.6581 15.3117 20.4574 14.9785 20.2117 14.6248Z" fill="white"/>
</svg>
