<svg width="34" height="34" viewBox="0 0 34 34" fill="none" xmlns="http://www.w3.org/2000/svg">
<path d="M18.2458 2.44239C17.4916 2.01825 16.5084 2.02016 15.7536 2.44239C11.9732 4.52866 8.19274 6.61556 4.41167 8.70087C3.67592 9.08793 3.17968 9.87804 3.18759 10.6981V23.3036C3.18228 24.1397 3.70411 24.9374 4.45883 25.3192C5.54488 25.897 6.60004 26.5334 7.70572 27.0727C8.98292 27.7003 10.5808 27.8391 11.8736 27.1846C12.923 26.6421 13.3891 25.4357 13.3878 24.327C13.3963 20.1669 13.3891 16.0066 13.3911 11.8465C13.416 11.6616 13.2773 11.464 13.0756 11.4684C12.5925 11.4608 12.1087 11.464 11.6256 11.4672C11.443 11.4499 11.2649 11.6015 11.2786 11.785C11.2721 15.9184 11.2799 20.053 11.2747 24.1869C11.2852 24.7588 10.8989 25.3084 10.3478 25.5015C9.07502 25.9476 5.4421 23.5888 5.4421 23.5888C5.30878 23.5271 5.22412 23.3825 5.23719 23.2388C5.23719 19.08 5.23784 14.921 5.23719 10.7628C5.21886 10.5951 5.32219 10.4442 5.47615 10.3757C9.2441 8.30174 13.0101 6.22257 16.7781 4.14732C16.9089 4.05998 17.0914 4.06024 17.2219 4.14796C20.9899 6.22257 24.7566 8.29983 28.5252 10.3739C28.6797 10.4423 28.7785 10.5958 28.7628 10.7628C28.7622 14.921 28.7641 19.08 28.7615 23.2382C28.7727 23.3854 28.6967 23.528 28.5592 23.5926C24.8264 25.6553 21.0512 27.6515 17.3522 29.7742C17.1908 29.8668 17.008 29.9717 16.8272 29.8697C15.8544 29.3316 14.8935 28.7726 13.924 28.2294C13.8186 28.1636 13.6844 28.1354 13.5744 28.2089C13.1397 28.438 12.7309 28.6235 12.2318 28.8211C11.5306 29.0986 11.6427 29.2122 12.2749 29.5805C13.4088 30.2222 14.5445 30.8613 15.6782 31.5036C16.4246 31.9694 17.4275 32.0025 18.198 31.572C21.979 29.4884 25.7588 27.4023 29.5405 25.3186C30.2933 24.9348 30.8177 24.1402 30.8124 23.3035V10.6981C30.8197 9.89468 30.3424 9.11866 29.6289 8.72588C25.8353 6.62944 22.04 4.53756 18.2458 2.44239Z" fill="#8CC84B"/>
<path d="M23.9507 11.9066C22.4668 11.1127 20.7013 11.0704 19.0522 11.1742C17.8609 11.2919 16.6079 11.6207 15.7398 12.4747C14.8496 13.3332 14.6558 14.7195 15.0787 15.8403C15.3817 16.6322 16.1445 17.1473 16.9332 17.4197C17.9493 17.7784 19.0165 17.8893 20.084 18.0002C21.0577 18.1014 22.0317 18.2026 22.9676 18.4919C23.3498 18.6187 23.795 18.8125 23.9121 19.2283C24.0202 19.7209 23.9017 20.2935 23.5017 20.6357C22.2314 21.6412 18.6978 21.4871 17.4426 20.6958C16.9352 20.3587 16.7165 19.7618 16.6276 19.1932C16.6177 19.0159 16.475 18.8534 16.2826 18.8668C15.8008 18.8611 15.3189 18.8624 14.8371 18.8662C14.669 18.8521 14.4942 18.9717 14.485 19.1432C14.386 21.7482 16.7783 22.8838 19.0228 23.1338C20.3053 23.256 21.6157 23.249 22.8785 22.9738C23.8278 22.7577 24.7795 22.3597 25.433 21.6285C26.2387 20.74 26.3971 19.417 26.0358 18.3102C25.7595 17.4844 24.97 16.9546 24.1629 16.6821C23.0654 16.3058 21.7646 16.1035 20.7706 16.0088C19.3257 15.8712 17.6087 15.9274 17.1997 14.9779C17.0367 14.4808 17.1754 13.8635 17.6323 13.5577C18.8411 12.7378 21.3013 12.8467 22.5532 13.4592C23.128 13.7471 23.4611 14.3382 23.5986 14.935C23.624 15.1104 23.742 15.2933 23.945 15.2856C24.4234 15.2952 24.902 15.2882 25.3805 15.2888C25.5448 15.3004 25.7248 15.2076 25.7569 15.0393C25.7366 13.7919 25.0997 12.515 23.9507 11.9066Z" fill="#8CC84B"/>
</svg>
