<svg width="34" height="34" viewBox="0 0 34 34" fill="none" xmlns="http://www.w3.org/2000/svg">
<path d="M31.875 17C31.875 25.211 25.2184 31.875 17 31.875C8.78156 31.875 2.125 25.211 2.125 17C2.125 8.78156 8.78156 2.125 17 2.125C25.2184 2.125 31.875 8.78156 31.875 17Z" fill="#283544"/>
<path d="M7.52885 22.1418H9.1535V14.6033H7.52885V22.1418ZM8.33791 13.6148C8.84032 13.6148 9.24485 13.1881 9.24485 12.6547C9.24485 12.1071 8.84032 11.6875 8.33791 11.6875C7.84203 11.6875 7.4375 12.1071 7.4375 12.6547C7.4375 13.1881 7.84203 13.6148 8.33791 13.6148Z" fill="white"/>
<path d="M14.83 11.7088C12.0831 11.7088 10.3606 13.7499 10.3606 17.0142C10.3606 20.2785 12.0831 22.3125 14.83 22.3125C17.5704 22.3125 19.2929 20.2785 19.2929 17.0142C19.2929 13.7499 17.5704 11.7088 14.83 11.7088ZM14.83 13.2734C16.5069 13.2734 17.5769 14.7242 17.5769 17.0142C17.5769 19.2971 16.5069 20.7479 14.83 20.7479C13.1466 20.7479 12.0831 19.2971 12.0831 17.0142C12.0831 14.7242 13.1466 13.2734 14.83 13.2734Z" fill="white"/>
<path d="M20.2521 19.2544C20.3238 21.1462 21.7462 22.3125 23.9124 22.3125C26.1896 22.3125 27.625 21.0893 27.625 19.1406C27.625 17.6116 26.8159 16.7511 24.9042 16.2746L23.8211 16.0044C22.6662 15.7057 22.1899 15.3074 22.1899 14.6247C22.1899 13.7713 22.9076 13.2023 23.9712 13.2023C25.0477 13.2023 25.785 13.7784 25.8633 14.7385H27.4684C27.4293 12.9321 26.0591 11.7088 23.9842 11.7088C21.9354 11.7088 20.4804 12.9392 20.4804 14.7598C20.4804 16.2248 21.3025 17.1351 23.0381 17.5689L24.2582 17.8819C25.4457 18.1877 25.9286 18.6144 25.9286 19.354C25.9286 20.2074 25.1391 20.819 24.0038 20.819C22.8554 20.819 21.9876 20.2003 21.8832 19.2544H20.2521Z" fill="white"/>
</svg>
