<svg width="34" height="34" viewBox="0 0 34 34" fill="none" xmlns="http://www.w3.org/2000/svg">
<path d="M2.125 12.8917C2.125 9.12298 2.125 7.23864 2.85844 5.79919C3.50358 4.53301 4.53301 3.50358 5.79919 2.85844C7.23864 2.125 9.12298 2.125 12.8917 2.125H21.1083C24.877 2.125 26.7614 2.125 28.2008 2.85844C29.467 3.50358 30.4964 4.53301 31.1416 5.79919C31.875 7.23864 31.875 9.12298 31.875 12.8917V21.1083C31.875 24.877 31.875 26.7614 31.1416 28.2008C30.4964 29.467 29.467 30.4964 28.2008 31.1416C26.7614 31.875 24.877 31.875 21.1083 31.875H12.8917C9.12298 31.875 7.23864 31.875 5.79919 31.1416C4.53301 30.4964 3.50358 29.467 2.85844 28.2008C2.125 26.7614 2.125 24.877 2.125 21.1083V12.8917Z" fill="#470137"/>
<path d="M17.6869 10.8734L13.9748 17.1574L17.9463 23.8303C18.0289 23.9816 17.9463 24.015 17.8266 24.015H14.9927C14.7931 24.015 14.6534 24.0078 14.5735 23.8712C14.3072 23.3391 14.0411 22.8103 13.7752 22.2849C13.5089 21.7597 13.2262 21.2241 12.9271 20.6781C12.6277 20.1325 12.3317 19.5798 12.039 19.0201C11.7727 19.566 11.4766 20.1119 11.1908 20.6576C10.9045 21.2036 10.6218 21.746 10.3426 22.2849C10.0632 22.8241 9.77716 23.3597 9.48445 23.8917C9.43113 24.0145 9.33786 24.0272 9.20501 24.0272H6.4709C6.36348 24.0272 6.35051 23.9465 6.41104 23.8508L10.2628 17.3621L6.51079 10.8529C6.44263 10.7601 6.50129 10.6611 6.6106 10.6687H9.42454C9.54638 10.6618 9.65406 10.7078 9.7239 10.812C9.9634 11.3579 10.2295 11.9038 10.5222 12.4495C10.8147 12.9955 11.1107 13.5345 11.4103 14.0666C11.7097 14.5988 12.0057 15.1378 12.2585 15.6836C12.5245 15.1242 12.7939 14.5784 13.0668 14.0461C13.3393 13.5139 13.6187 12.9783 13.9049 12.4393C14.1909 11.9004 14.467 11.3648 14.7332 10.8325C14.7686 10.7157 14.8531 10.6566 14.9727 10.6687H17.5871C17.6869 10.6687 17.7282 10.805 17.6869 10.8734Z" fill="#FF61F6"/>
<path d="M23.4145 24.2808C21.6544 24.3082 19.8109 23.5836 18.8842 21.978C18.4317 21.2072 18.2055 20.2418 18.2056 19.0817C18.1981 18.1422 18.4321 17.2173 18.8842 16.4002C20.0504 14.3154 22.4 13.5343 24.6318 13.7393V9.70686C24.6318 9.61153 24.6718 9.56357 24.7516 9.56357H27.2662C27.3349 9.5535 27.3958 9.61587 27.386 9.68636V21.7836C27.386 22.2827 27.4354 22.78 27.4658 23.2778C27.4707 23.3628 27.4215 23.4469 27.346 23.4825C26.1036 24.014 24.7592 24.2746 23.4145 24.2808ZM24.6318 21.7426V16.1546C22.8091 15.6481 21.0393 17.0366 21.0395 18.9588C20.9962 20.9462 22.7094 22.3193 24.6318 21.7426Z" fill="#FF61F6"/>
</svg>
