<svg width="34" height="34" viewBox="0 0 34 34" fill="none" xmlns="http://www.w3.org/2000/svg">
<path fill-rule="evenodd" clip-rule="evenodd" d="M13.3785 4.12721C14.4502 3.52863 15.6853 3.1875 17 3.1875C18.3147 3.1875 19.5498 3.52863 20.6215 4.12721L21.4056 3.3431C21.6131 3.13563 21.9494 3.13563 22.1569 3.3431C22.3644 3.55057 22.3644 3.88693 22.1569 4.0944L21.5275 4.72382C23.297 6.08343 24.4375 8.22102 24.4375 10.625H9.5625C9.5625 8.22102 10.703 6.08343 12.4725 4.72382L11.8431 4.0944C11.6356 3.88693 11.6356 3.55057 11.8431 3.3431C12.0506 3.13563 12.3869 3.13563 12.5944 3.3431L13.3785 4.12721ZM14.875 7.4375C14.875 8.0243 14.3993 8.5 13.8125 8.5C13.2257 8.5 12.75 8.0243 12.75 7.4375C12.75 6.8507 13.2257 6.375 13.8125 6.375C14.3993 6.375 14.875 6.8507 14.875 7.4375ZM20.1875 8.5C20.7743 8.5 21.25 8.0243 21.25 7.4375C21.25 6.8507 20.7743 6.375 20.1875 6.375C19.6007 6.375 19.125 6.8507 19.125 7.4375C19.125 8.0243 19.6007 8.5 20.1875 8.5Z" fill="#87C527"/>
<path d="M5.3125 13.2812C5.3125 12.401 6.02605 11.6875 6.90625 11.6875C7.78645 11.6875 8.5 12.401 8.5 13.2812V19.6562C8.5 20.5365 7.78645 21.25 6.90625 21.25C6.02605 21.25 5.3125 20.5365 5.3125 19.6562V13.2812Z" fill="#87C527"/>
<path d="M12.75 25.5V29.2188C12.75 30.099 13.4635 30.8125 14.3438 30.8125C15.224 30.8125 15.9375 30.099 15.9375 29.2188V25.5H18.0625V29.2188C18.0625 30.099 18.776 30.8125 19.6562 30.8125C20.5365 30.8125 21.25 30.099 21.25 29.2188V25.5H22.3125C23.4861 25.5 24.4375 24.5486 24.4375 23.375V11.6875H9.5625V23.375C9.5625 24.5486 10.5139 25.5 11.6875 25.5H12.75Z" fill="#87C527"/>
<path d="M25.5 13.2812C25.5 12.401 26.2135 11.6875 27.0938 11.6875C27.974 11.6875 28.6875 12.401 28.6875 13.2812V19.6562C28.6875 20.5365 27.974 21.25 27.0938 21.25C26.2135 21.25 25.5 20.5365 25.5 19.6562V13.2812Z" fill="#87C527"/>
</svg>
