<svg width="34" height="34" viewBox="0 0 34 34" fill="none" xmlns="http://www.w3.org/2000/svg">
<path fill-rule="evenodd" clip-rule="evenodd" d="M16.0845 3.38522C16.0236 3.39132 15.8331 3.40963 15.6604 3.42271C11.6895 3.77143 7.96921 5.85937 5.61248 9.06758C4.31045 10.8291 3.46421 12.8708 3.14569 15.0193C3.03295 15.7673 3.01953 15.9879 3.01953 17.0027C3.01953 18.0174 3.03295 18.238 3.14479 18.9869C3.90532 24.1017 7.64174 28.3988 12.7095 29.9915C13.6159 30.2766 14.5724 30.471 15.6604 30.5878C16.0845 30.6332 17.9151 30.6332 18.3392 30.5878C20.2164 30.3856 21.8072 29.9331 23.3766 29.1529C23.6173 29.0325 23.6629 29.0012 23.6307 28.9741C23.6083 28.9584 22.5838 27.6194 21.3536 26.0004L19.1176 23.0581L16.3171 19.0182C14.7746 16.7978 13.5067 14.9818 13.496 14.9818C13.4853 14.9792 13.4736 16.7734 13.4692 18.9659C13.4602 22.8018 13.4575 22.9561 13.4083 23.0468C13.3367 23.1776 13.2831 23.2308 13.1676 23.2892C13.0808 23.3328 13.0039 23.3397 12.5914 23.3397H12.1181L11.9928 23.263C11.9149 23.2155 11.8515 23.1483 11.8094 23.0686L11.7522 22.9483L11.7575 17.6094L11.7665 12.2688L11.8506 12.1642C11.9077 12.099 11.9761 12.0441 12.0528 12.002C12.1646 11.9489 12.2085 11.9436 12.6818 11.9436C13.2392 11.9436 13.3323 11.9646 13.4763 12.1189C13.5175 12.1625 15.035 14.3881 16.8495 17.0689C18.664 19.7506 21.146 23.4121 22.3646 25.2089L24.5791 28.4763L24.691 28.4049C25.6832 27.7763 26.7327 26.881 27.5631 25.949C29.3244 23.985 30.4671 21.5677 30.8539 18.9869C30.9666 18.238 30.9801 18.0174 30.9801 17.0027C30.9801 15.9879 30.9666 15.7673 30.8548 15.0193C30.0943 9.90363 26.3578 5.60655 21.2901 4.01378C20.3432 3.72076 19.3684 3.52213 18.3804 3.42096C18.1173 3.39394 16.3108 3.3643 16.0845 3.38609V3.38522ZM21.8072 11.6237C21.8723 11.6556 21.9302 11.6998 21.9777 11.7536C22.0252 11.8075 22.0612 11.87 22.0837 11.9375C22.1052 12.0073 22.1105 13.4876 22.1052 16.8239L22.0971 21.6118L21.231 20.3181L20.3613 19.0235V15.5441C20.3613 13.2949 20.3729 12.0299 20.3882 11.968C20.4078 11.8973 20.442 11.8312 20.4886 11.7736C20.5352 11.7161 20.5932 11.6684 20.6593 11.6333C20.772 11.5766 20.8123 11.5722 21.2417 11.5722C21.6462 11.5722 21.7168 11.5766 21.8072 11.6246V11.6237Z" fill="white"/>
</svg>
