<svg width="34" height="34" viewBox="0 0 34 34" fill="none" xmlns="http://www.w3.org/2000/svg">
<path d="M17 31C24.732 31 31 24.732 31 17C31 9.26801 24.732 3 17 3C9.26801 3 3 9.26801 3 17C3 24.732 9.26801 31 17 31Z" fill="#4353FF"/>
<path d="M21.1123 15.3375L19.8435 19.3362C19.8435 19.03 18.9685 12.3975 18.9685 12.3975C16.956 12.3975 15.8885 13.8237 15.3285 15.3375L13.7798 19.345C13.7798 19.0562 13.561 15.3725 13.561 15.3725C13.4863 14.575 13.1217 13.8326 12.5364 13.286C11.951 12.7393 11.1855 12.4263 10.3848 12.4062L12.0298 22.4512C14.1298 22.4512 15.2673 21.025 15.8535 19.5112L17.166 16.0987C17.166 16.2387 18.041 22.4512 18.041 22.4512C18.8997 22.4501 19.7358 22.1756 20.428 21.6674C21.1202 21.1593 21.6327 20.4439 21.891 19.625L24.866 12.3975C22.766 12.3975 21.6635 13.8237 21.1035 15.3375H21.1123Z" fill="white"/>
</svg>
