<svg width="34" height="34" viewBox="0 0 34 34" fill="none" xmlns="http://www.w3.org/2000/svg">
<path d="M23.1485 22.9034C24.3248 22.7837 25.2171 21.7868 25.1766 20.5903C25.1361 19.394 24.1219 18.4369 22.9051 18.4369H22.824C21.5665 18.4768 20.593 19.5136 20.6336 20.7498C20.6742 21.348 20.9175 21.8664 21.2826 22.2253C19.9035 24.8973 17.7943 26.8514 14.6304 28.4864C12.4806 29.6031 10.2497 30.0019 8.01884 29.7228C6.1935 29.4835 4.77382 28.6859 3.88132 27.3698C2.58341 25.4157 2.46176 23.3021 3.55697 21.1885C4.32769 19.6731 5.54442 18.5564 6.31515 17.9981C6.15291 17.4797 5.90949 16.6024 5.78784 15.9644C-0.0937171 20.1517 0.514772 25.8146 2.29952 28.4864C3.63802 30.4805 6.35574 31.7167 9.35734 31.7167C10.1685 31.7167 10.9797 31.6369 11.7911 31.4376C16.9831 30.4406 20.9176 27.4097 23.1485 22.9034ZM30.2875 17.9584C27.2047 14.409 22.6618 12.455 17.4698 12.455H16.8208C16.4558 11.7372 15.685 11.2586 14.8332 11.2586H14.7521C13.4947 11.2985 12.5213 12.3353 12.5618 13.5716C12.6024 14.768 13.6164 15.7251 14.8332 15.7251H14.9143C15.8067 15.6852 16.5774 15.1269 16.9019 14.3691H17.632C20.7148 14.3691 23.6352 15.2465 26.2719 16.9613C28.2999 18.2774 29.7602 19.9922 30.5714 22.0658C31.2609 23.7408 31.2204 25.3758 30.4902 26.7717C29.3545 28.8852 27.4481 30.0418 24.9333 30.0418C23.3107 30.0418 21.7694 29.5631 20.9581 29.2042C20.512 29.6031 19.7007 30.2411 19.1328 30.64C20.877 31.4375 22.6618 31.8762 24.3654 31.8762C28.2593 31.8762 31.1393 29.7626 32.2345 27.649C33.4108 25.3359 33.3296 21.348 30.2875 17.9584ZM9.68182 23.5812C9.72241 24.7776 10.7364 25.7346 11.9533 25.7346H12.0345C13.2919 25.6948 14.2653 24.6579 14.2248 23.4217C14.1843 22.2252 13.1701 21.2682 11.9533 21.2682H11.8722C11.7911 21.2682 11.6693 21.2682 11.5883 21.308C9.92524 18.5962 9.2357 15.6453 9.47912 12.4549C9.64123 10.0621 10.4525 7.98835 11.8722 6.2735C13.0485 4.79796 15.32 4.08014 16.8614 4.04036C21.1609 3.96055 22.9861 9.22458 23.1079 11.3382C23.6352 11.4578 24.5276 11.7371 25.1361 11.9365C24.6493 5.47612 20.593 2.12622 16.6992 2.12622C13.0485 2.12622 9.68182 4.71839 8.3432 8.54679C6.47739 13.6513 7.69424 18.5564 9.96571 22.4248C9.763 22.7039 9.64123 23.1426 9.68182 23.5813V23.5812Z" fill="#764ABC"/>
</svg>
