<svg width="34" height="34" viewBox="0 0 34 34" fill="none" xmlns="http://www.w3.org/2000/svg">
<path d="M13.3135 29.2335C11.8386 28.5749 10.4586 26.901 10.4553 25.1882C10.4512 23.3209 11.5967 21.7354 13.0214 20.6936C12.8501 21.3621 12.7567 21.9736 13.181 22.5716C13.5755 23.1275 14.2663 23.3977 14.9187 23.251C16.443 22.9063 16.5129 21.1751 15.6092 20.1665C14.7158 19.1677 13.8515 18.0395 14.1916 16.5911C14.3618 15.865 14.7934 15.1849 15.34 14.6987C14.9198 15.8396 16.1139 16.9647 16.9007 17.5251C18.2654 18.4974 19.7628 19.2322 21.0176 20.372C22.3376 21.5699 23.3123 23.1895 23.1155 25.0681C22.9022 27.1042 21.3361 28.5203 19.5795 29.2353C23.2915 28.3888 27.127 25.4124 27.2055 21.1593C27.2706 17.6602 24.9473 14.9674 22.0692 13.4257L21.9188 13.3409C21.9978 13.5389 22.0236 13.7074 22.0207 13.8581C22.0464 13.7469 22.0639 13.6327 22.0689 13.5148C22.0682 13.6548 22.0504 13.7942 22.0161 13.9297L22.0207 13.8581C21.9779 14.0439 21.9059 14.2211 21.8076 14.3828L21.8498 14.3359C21.2756 15.3198 19.7212 15.5334 18.9533 14.5146C17.7188 12.8758 18.9791 11.1089 19.1554 9.37346C19.3762 7.19848 18.0559 5.08702 16.419 3.82349C17.3206 5.33026 16.1328 7.32371 15.1825 8.43818C14.261 9.51849 13.1403 10.4205 12.1231 11.402C11.0304 12.4563 9.97985 13.5668 9.08167 14.8042C7.28529 17.2808 6.18555 20.3956 6.99373 23.4853C7.80138 26.5729 10.3901 28.5385 13.3135 29.2335Z" fill="#EE4323"/>
</svg>
