<svg width="34" height="34" viewBox="0 0 34 34" fill="none" xmlns="http://www.w3.org/2000/svg">
<path fill-rule="evenodd" clip-rule="evenodd" d="M14.0127 12.3668C13.9969 12.3668 13.9664 12.3668 13.9507 12.3668C13.689 12.3349 13.4736 12.0951 13.4736 11.8234C13.4578 11.5676 13.3191 5.58951 16.6914 4.23092C17.5384 3.89522 18.3245 3.95912 18.9865 4.45472C19.802 5.04612 20.3874 6.22891 20.7415 7.9552C20.9874 9.16999 21.0337 10.2249 21.0337 10.2729C21.0494 10.5286 20.8498 10.7205 20.5871 10.6725C20.3254 10.6405 20.11 10.4008 20.11 10.145C20.0637 9.0581 19.7096 6.06911 18.5399 5.20592C18.17 4.93422 17.7076 4.90222 17.1538 5.12602C14.2586 6.29281 14.3973 11.9033 14.3973 11.9672C14.3973 12.191 14.2439 12.3668 14.0127 12.3668Z" fill="#595961"/>
<path opacity="0.46" fill-rule="evenodd" clip-rule="evenodd" d="M18.8162 4.48666C18.2004 4.03906 17.4774 3.97516 16.6913 4.27886C15.3209 4.83825 14.351 6.30885 13.8739 8.54664C13.5197 10.1929 13.5659 11.6795 13.5659 11.7434C13.5659 11.8233 13.5964 11.9033 13.6584 11.9672C13.7194 12.0311 13.7814 12.0791 13.8581 12.0791C13.8739 12.0791 13.8896 12.0791 13.9044 12.0791C14.0431 12.0791 14.1513 11.9672 14.1513 11.8233C14.1513 11.7594 14.0126 6.05305 16.9846 4.85425C17.5846 4.61456 18.1079 4.64645 18.5399 4.96615C19.7862 5.87725 20.1561 8.96224 20.2023 10.0651C20.2023 10.2249 20.3411 10.3848 20.5103 10.4007C20.6648 10.4167 20.7877 10.3048 20.7877 10.145C20.7719 9.95323 20.6028 5.79735 18.8162 4.48666Z" fill="#B2B2C2"/>
<path opacity="0.46" fill-rule="evenodd" clip-rule="evenodd" d="M13.8742 11.8873C13.8584 11.8873 13.8584 11.8873 13.8437 11.8873C13.7512 11.8713 13.6734 11.7754 13.6587 11.6795C13.6587 11.6155 13.6125 10.161 13.9667 8.51461C14.428 6.32482 15.399 4.87023 16.7378 4.32673C17.4924 4.02303 18.1702 4.08703 18.7556 4.50263C20.4801 5.76532 20.6493 9.8573 20.6493 10.0331C20.6493 10.129 20.5726 10.1929 20.4801 10.177C20.3876 10.161 20.3109 10.0811 20.2951 9.9692C20.2951 9.9212 20.1259 5.90922 18.5706 4.75833C18.1082 4.42273 17.5386 4.37473 16.8923 4.63043C13.8742 5.89322 14.0129 11.6795 14.0129 11.7434C14.0276 11.8233 13.9666 11.8873 13.8742 11.8873Z" fill="#B2B2C2"/>
<path opacity="0.62" fill-rule="evenodd" clip-rule="evenodd" d="M15.1215 7.31588C15.2445 7.07618 15.3674 6.83638 15.4756 6.58069C15.4294 6.66059 15.1215 7.49179 14.182 7.36388C14.1662 7.36388 14.7358 7.53968 15.1215 7.31588Z" fill="#595961"/>
<path opacity="0.62" fill-rule="evenodd" clip-rule="evenodd" d="M14.7822 8.33874C14.8746 8.08294 14.9671 7.81124 15.0291 7.55554C14.9986 7.65144 14.8441 8.51453 13.8584 8.51453C13.8584 8.51453 14.428 8.62644 14.7822 8.33874Z" fill="#595961"/>
<path opacity="0.62" fill-rule="evenodd" clip-rule="evenodd" d="M20.1871 6.27689C20.0641 5.98908 19.9254 5.71739 19.7867 5.42969C19.8329 5.52559 20.2953 6.43668 19.772 7.09198C19.772 7.09198 20.1724 6.77238 20.1871 6.27689Z" fill="#595961"/>
<path opacity="0.62" fill-rule="evenodd" clip-rule="evenodd" d="M19.3409 4.83834C19.094 4.63054 18.848 4.43874 18.6011 4.26294C18.6936 4.34284 19.5101 4.93424 19.4638 5.82944C19.4481 5.82944 19.5869 5.30194 19.3409 4.83834Z" fill="#595961"/>
<path opacity="0.62" fill-rule="evenodd" clip-rule="evenodd" d="M15.5681 6.43651C15.753 6.24471 15.9064 6.03691 16.0756 5.81311C16.0147 5.87701 15.5061 6.53241 14.5981 6.29261C14.5981 6.29261 15.1215 6.58041 15.5681 6.43651Z" fill="#595961"/>
<path opacity="0.62" fill-rule="evenodd" clip-rule="evenodd" d="M16.1374 5.70143C16.3529 5.54163 16.5525 5.38173 16.7532 5.20593C16.6765 5.25393 16.045 5.78133 15.1675 5.39773C15.1675 5.39773 15.675 5.76533 16.1374 5.70143Z" fill="#595961"/>
<path opacity="0.62" fill-rule="evenodd" clip-rule="evenodd" d="M16.969 5.17376C17.2307 5.09386 17.4776 4.99796 17.7235 4.90206C17.6311 4.93396 16.846 5.22165 16.0757 4.61426C16.0914 4.61426 16.4919 5.09386 16.969 5.17376Z" fill="#595961"/>
<path opacity="0.62" fill-rule="evenodd" clip-rule="evenodd" d="M17.7234 4.88622C17.9388 4.91822 18.1543 4.93423 18.3697 4.95023C18.293 4.93423 17.6151 4.88622 17.2305 4.24683C17.2305 4.24683 17.385 4.67842 17.7234 4.88622Z" fill="#595961"/>
<path opacity="0.62" fill-rule="evenodd" clip-rule="evenodd" d="M18.6168 5.23763C18.7702 5.41354 18.9404 5.58933 19.1243 5.74913C19.0634 5.68523 18.54 5.15774 18.663 4.50244C18.6472 4.50244 18.478 4.87004 18.6168 5.23763Z" fill="#595961"/>
<path opacity="0.74" fill-rule="evenodd" clip-rule="evenodd" d="M20.4801 9.95315C20.4801 9.77725 20.3109 5.73327 18.6326 4.50258C18.309 4.26278 17.9548 4.15088 17.5849 4.15088C17.3074 4.15088 17.0153 4.21478 16.7074 4.34268C15.3675 4.87017 14.428 6.29277 13.9667 8.46656C13.6125 10.0969 13.6587 11.5515 13.6587 11.6154C13.6587 11.6634 13.705 11.7113 13.7512 11.7113H13.7659C13.8121 11.7113 13.8437 11.6794 13.8437 11.6314C13.8437 11.5675 13.6892 5.73327 16.7841 4.48658C17.4619 4.21478 18.0473 4.26278 18.5401 4.63038C20.1406 5.79727 20.3109 9.87325 20.3109 9.92115C20.3109 9.96915 20.3571 10.017 20.4034 10.017C20.4034 10.017 20.4034 10.017 20.4181 10.017C20.4496 10.033 20.4801 10.001 20.4801 9.95315Z" fill="url(#paint0_linear_10055_832)"/>
<path fill-rule="evenodd" clip-rule="evenodd" d="M20.7417 7.95537C20.3875 6.22907 19.8022 5.06218 18.9867 4.45478C18.5401 4.13519 18.0619 3.99129 17.5386 4.02329C17.9547 4.05518 18.3394 4.19909 18.6935 4.45478C19.51 5.04628 20.0954 6.22907 20.4496 7.95537C20.6955 9.17016 20.7417 10.2251 20.7417 10.2731C20.7417 10.4649 20.6492 10.6088 20.4947 10.6567C20.5263 10.6727 20.5568 10.6727 20.5725 10.6727C20.8342 10.7047 21.0339 10.5288 21.0191 10.2731C21.0339 10.2251 20.9876 9.18616 20.7417 7.95537Z" fill="url(#paint1_linear_10055_832)"/>
<path fill-rule="evenodd" clip-rule="evenodd" d="M16.8619 5.1261C13.9667 6.29289 14.1053 11.9034 14.1053 11.9673C14.1053 12.1591 14.0129 12.303 13.8584 12.3509C13.8899 12.3669 13.9047 12.3669 13.9362 12.3669C13.9509 12.3669 13.9824 12.3669 13.9971 12.3669C14.2283 12.3669 14.3817 12.1911 14.3817 11.9673C14.3817 11.9034 14.2441 6.30889 17.1383 5.1421C17.339 5.0622 17.5239 5.0142 17.6931 4.9982C17.4461 4.9503 17.1698 4.9982 16.8619 5.1261Z" fill="url(#paint2_linear_10055_832)"/>
<path fill-rule="evenodd" clip-rule="evenodd" d="M21.2493 6.51651L8.192 10.7043C8.192 10.7043 7.63818 10.8642 7.49947 11.04C7.36075 11.2158 7.33026 11.7113 7.33026 11.7113L5.3125 27.8553L20.4643 30.7964L21.635 6.50051C21.4658 6.46851 21.2956 6.50051 21.2493 6.51651Z" fill="url(#paint3_linear_10055_832)"/>
<path fill-rule="evenodd" clip-rule="evenodd" d="M25.762 8.59438C25.762 8.59438 25.7462 8.46647 25.6695 8.41858C25.6075 8.37058 25.5307 8.37058 25.5307 8.37058L23.3901 8.21078L21.82 6.59639C21.758 6.54839 21.696 6.51649 21.6193 6.50049L20.4497 30.7964L28.6561 28.9582L25.762 8.59438Z" fill="url(#paint4_linear_10055_832)"/>
<path fill-rule="evenodd" clip-rule="evenodd" d="M15.8605 20.007C15.6293 19.6873 15.3529 19.3996 15.0755 19.1438C14.798 18.8881 14.5059 18.6803 14.2127 18.4885C14.013 18.3606 13.8281 18.2327 13.6736 18.1048C13.5202 17.977 13.3972 17.8491 13.3047 17.7372C13.2122 17.6093 13.1355 17.4974 13.0893 17.3696C13.043 17.2417 13.0273 17.1138 13.0273 16.9859C13.0273 16.8101 13.0735 16.6343 13.1355 16.4904C13.1965 16.3467 13.3047 16.2187 13.4119 16.1068C13.5359 15.9949 13.6736 15.9151 13.8438 15.8512C14.013 15.7871 14.2127 15.7553 14.4281 15.7393C14.6593 15.7233 14.8905 15.7393 15.1059 15.7553C15.3214 15.7712 15.5221 15.8192 15.7218 15.8671C15.9067 15.9151 16.0917 15.979 16.2451 16.043C16.3996 16.1069 16.553 16.1707 16.6612 16.2348L17.6775 13.1019C17.5241 13.022 17.3391 12.942 17.1384 12.8941C16.923 12.8301 16.6918 12.7822 16.4301 12.7502C16.1684 12.7183 15.891 12.7023 15.5988 12.7023C15.3067 12.7023 14.9988 12.7183 14.6751 12.7662C13.9826 12.8621 13.3657 13.0539 12.8119 13.3416C12.2885 13.6134 11.8261 13.965 11.4415 14.3966C11.0716 14.8122 10.7794 15.2917 10.564 15.8352C10.3632 16.3626 10.2403 16.954 10.2098 17.5933C10.1941 17.977 10.2245 18.3286 10.317 18.6483C10.3937 18.968 10.5177 19.2717 10.6869 19.5594C10.8404 19.8471 11.0411 20.1029 11.2565 20.3426C11.4719 20.5824 11.7336 20.8062 11.9953 21.014C12.2107 21.1738 12.3957 21.3336 12.5502 21.4775C12.7036 21.6214 12.8276 21.7652 12.919 21.9251C13.0115 22.0689 13.0735 22.2128 13.1197 22.3726C13.166 22.5165 13.1818 22.6763 13.166 22.8362C13.166 22.996 13.1198 23.1558 13.0578 23.2837C12.9968 23.4116 12.919 23.5395 12.7961 23.6354C12.6889 23.7313 12.5502 23.7952 12.3957 23.8272C12.2423 23.8591 12.0573 23.8751 11.8566 23.8432C11.6265 23.8112 11.3952 23.7473 11.1798 23.6513C10.9644 23.5714 10.7479 23.4595 10.5482 23.3476C10.3486 23.2358 10.1636 23.1079 10.0091 22.996C9.83995 22.8841 9.70121 22.7562 9.59402 22.6603L8.90039 25.042C9.00863 25.2018 9.1621 25.3457 9.33129 25.4895C9.50154 25.6334 9.70123 25.7772 9.93243 25.9211C10.1636 26.049 10.4095 26.1768 10.6712 26.2887C10.9329 26.4006 11.226 26.4965 11.5182 26.5765H11.534H11.5487H11.5644H11.5802C12.2108 26.7203 12.8119 26.7523 13.3814 26.6724C13.9668 26.5924 14.5059 26.3846 14.9672 26.065C15.4443 25.7293 15.83 25.2817 16.1221 24.6903C16.4153 24.0989 16.5845 23.3796 16.615 22.5644C16.6308 22.0529 16.5688 21.6054 16.4301 21.1898C16.2914 20.7103 16.0917 20.3426 15.8605 20.007Z" fill="url(#paint5_linear_10055_832)"/>
<path opacity="0.226763" fill-rule="evenodd" clip-rule="evenodd" d="M8.99988 25.1722C8.96415 25.1299 8.93048 25.0866 8.90001 25.0421L9.59363 22.6604C9.60309 22.6693 9.61359 22.6785 9.6241 22.6879C9.72709 22.78 9.85533 22.8946 10.0088 22.9961C10.1632 23.108 10.3482 23.2359 10.5479 23.3478C10.7475 23.4596 10.964 23.5715 11.1794 23.6515C11.3948 23.7474 11.6261 23.8113 11.8562 23.8433C12.0569 23.8752 12.2419 23.8593 12.3953 23.8273C12.5498 23.7953 12.6885 23.7314 12.7957 23.6355C12.9187 23.5396 12.9964 23.4117 13.0574 23.2838C13.1194 23.1559 13.1656 22.9961 13.1656 22.8363C13.1814 22.6764 13.1656 22.5166 13.1194 22.3727C13.0731 22.2129 13.0111 22.069 12.9187 21.9252C12.8314 21.7733 12.7158 21.6359 12.5718 21.4991C12.6475 21.5845 12.7116 21.6723 12.7652 21.7653C12.8577 21.9092 12.9187 22.053 12.9649 22.2129C13.0111 22.3567 13.0269 22.5166 13.0112 22.6764C13.0112 22.8363 12.9649 22.9961 12.904 23.124C12.842 23.2519 12.7652 23.3797 12.6423 23.4756C12.534 23.5715 12.3953 23.6355 12.2419 23.6674C12.0874 23.6994 11.9025 23.7154 11.7028 23.6834C11.4716 23.6515 11.2404 23.5875 11.025 23.4916C10.8095 23.4117 10.5941 23.2998 10.3933 23.1879C10.1937 23.076 10.0088 22.9482 9.85533 22.8363C9.70085 22.7348 9.57264 22.6202 9.46965 22.5281C9.45914 22.5187 9.44963 22.5095 9.43912 22.5006L8.74658 24.8822C8.81489 24.984 8.90214 25.0792 8.99988 25.1722ZM11.2688 20.3573C11.211 20.3001 11.1553 20.242 11.1017 20.1829C10.8862 19.9431 10.6866 19.6874 10.5321 19.3997C10.3629 19.1119 10.2399 18.8082 10.1632 18.4887C10.0707 18.169 10.0392 17.8173 10.0549 17.4337C10.0854 16.7943 10.2095 16.2029 10.4091 15.6754C10.6246 15.132 10.9178 14.6525 11.2866 14.2369C11.6723 13.8053 12.1336 13.4536 12.657 13.1819C13.2118 12.8942 13.8277 12.7024 14.5202 12.6065C14.8439 12.5585 15.1518 12.5425 15.444 12.5425C15.7372 12.5425 16.0146 12.5585 16.2763 12.5905C16.5379 12.6225 16.7692 12.6704 16.9846 12.7344C17.1843 12.7823 17.3692 12.8622 17.5237 12.9421L17.4995 13.0169C17.3881 12.9684 17.2662 12.9248 17.138 12.8942C16.9226 12.8303 16.6914 12.7823 16.4297 12.7503C16.168 12.7184 15.8906 12.7024 15.5984 12.7024C15.3063 12.7024 14.9984 12.7184 14.6747 12.7663C13.9822 12.8622 13.3653 13.054 12.8115 13.3418C12.2881 13.6135 11.8257 13.9651 11.4411 14.3967C11.0712 14.8123 10.779 15.2918 10.5636 15.8353C10.3629 16.3628 10.2399 16.9542 10.2095 17.5935C10.1937 17.9772 10.2242 18.3288 10.3166 18.6485C10.3934 18.9682 10.5173 19.2718 10.6865 19.5595C10.84 19.8472 11.0407 20.103 11.2561 20.3427C11.2603 20.3476 11.2645 20.3525 11.2688 20.3573ZM13.36 17.8028C13.4441 17.8979 13.5492 18.0014 13.6732 18.105C13.8277 18.2329 14.0127 18.3608 14.2123 18.4887C14.5055 18.6805 14.7977 18.8883 15.0751 19.1439C15.156 19.2184 15.2359 19.2955 15.3158 19.3754C15.1875 19.2375 15.054 19.1071 14.9206 18.9842C14.6442 18.7283 14.3511 18.5205 14.0589 18.3288C13.8582 18.2008 13.6732 18.0731 13.5198 17.9452C13.462 17.8975 13.4094 17.8498 13.36 17.8028Z" fill="black"/>
<path opacity="0.41" fill-rule="evenodd" clip-rule="evenodd" d="M23.9134 26.273L23.39 8.21089L23.2975 8.11499L23.5446 26.0172C23.5446 26.0172 21.3734 29.4378 21.0497 29.3419C20.5726 29.1981 21.9892 6.7723 21.9892 6.7723L21.8347 6.6125C21.7738 6.5645 21.696 6.5326 21.6351 6.5166L20.4801 30.4768L20.4644 30.8125L20.8647 30.285L23.9134 26.273Z" fill="url(#paint6_linear_10055_832)"/>
<path fill-rule="evenodd" clip-rule="evenodd" d="M18.0156 7.55566C17.8317 8.30685 17.6005 9.01015 17.4314 9.44175C17.3231 9.69755 17.4461 9.93724 17.6773 9.96925C17.9242 10.0012 18.2006 9.82535 18.2931 9.56965C18.3089 9.52165 18.7239 8.48275 18.9867 7.25196V7.23596L18.0156 7.55566Z" fill="url(#paint7_linear_10055_832)"/>
<path fill-rule="evenodd" clip-rule="evenodd" d="M11.0713 9.79324C10.8558 10.2727 10.6404 10.6883 10.4859 10.976C10.3482 11.2158 10.425 11.4715 10.6561 11.5354C10.8863 11.6154 11.1942 11.4715 11.3329 11.2317C11.3487 11.1998 11.7953 10.4166 12.1957 9.42554L11.0713 9.79324Z" fill="url(#paint8_linear_10055_832)"/>
<path opacity="0.32" fill-rule="evenodd" clip-rule="evenodd" d="M20.4644 30.7963L23.9134 26.2727L28.6876 28.9581L20.4644 30.7963Z" fill="url(#paint9_linear_10055_832)"/>
<path opacity="0.19" fill-rule="evenodd" clip-rule="evenodd" d="M20.4644 30.7963L23.8829 26.2727L28.6876 28.9581L20.4644 30.7963Z" fill="url(#paint10_linear_10055_832)"/>
<path opacity="0.19" fill-rule="evenodd" clip-rule="evenodd" d="M20.4644 30.7963L23.8829 26.2727L28.6876 28.9581L20.4644 30.7963Z" fill="url(#paint11_linear_10055_832)"/>
<path opacity="0.6" fill-rule="evenodd" clip-rule="evenodd" d="M17.1078 18.137C18.8943 20.6465 20.0954 23.3638 20.6955 26.0012L21.635 6.48459C21.4659 6.4527 21.2956 6.48459 21.2494 6.50059L8.19203 10.7045C8.19203 10.7045 8.06903 10.7364 7.91455 10.8004C11.2259 11.9832 14.5363 14.5247 17.1078 18.137Z" fill="url(#paint12_linear_10055_832)"/>
<path fill-rule="evenodd" clip-rule="evenodd" d="M25.6837 8.43464C25.7615 8.49864 25.7615 8.59454 25.7615 8.59454L28.6252 28.9422L23.913 26.257L23.3896 8.19495L25.4998 8.35474C25.5146 8.37074 25.607 8.37074 25.6837 8.43464Z" fill="url(#paint13_linear_10055_832)"/>
<path fill-rule="evenodd" clip-rule="evenodd" d="M25.3457 8.48275C25.3457 8.48275 25.4382 8.48275 25.5149 8.56265C25.5916 8.62665 25.6074 8.72255 25.6074 8.72255L28.4259 28.8465L28.6413 28.9744L25.7766 8.61065C25.7766 8.61065 25.7618 8.51475 25.6998 8.45085C25.6231 8.38685 25.5149 8.38685 25.5149 8.38685L23.4058 8.22705L25.3457 8.48275Z" fill="url(#paint14_linear_10055_832)"/>
<path fill-rule="evenodd" clip-rule="evenodd" d="M5.3125 27.8551L20.4643 30.7961L21.2041 14.1406L7.19672 14.5388L5.3125 27.8551Z" fill="url(#paint15_linear_10055_832)"/>
<path opacity="0.3" fill-rule="evenodd" clip-rule="evenodd" d="M10.2862 10.9371C10.1485 11.3257 10.2841 11.7338 10.5909 11.8491C10.8968 11.9642 11.2562 11.7427 11.3949 11.3543C11.5326 10.9659 11.396 10.5576 11.0902 10.4425C10.7843 10.3272 10.4239 10.5487 10.2862 10.9371Z" fill="white"/>
<path opacity="0.89" fill-rule="evenodd" clip-rule="evenodd" d="M10.2694 10.7528C10.1318 11.1412 10.2684 11.5495 10.5742 11.6646C10.88 11.7799 11.2405 11.5584 11.3781 11.17C11.5158 10.7815 11.3803 10.3732 11.0734 10.258C10.7676 10.1428 10.4082 10.3643 10.2694 10.7528Z" fill="black"/>
<path fill-rule="evenodd" clip-rule="evenodd" d="M23.4058 8.21078L21.8347 6.59639C21.7738 6.54839 21.696 6.51649 21.6351 6.50049L20.4644 30.7964L23.9291 26.2568L23.4058 8.21078Z" fill="url(#paint16_linear_10055_832)"/>
<path fill-rule="evenodd" clip-rule="evenodd" d="M21.2492 6.51681L8.19182 10.7046C8.19182 10.7046 7.638 10.8645 7.49928 11.0403C7.48352 11.0563 7.48346 11.0723 7.46875 11.0883L20.6333 7.316C20.7416 7.284 21.0032 7.1881 20.9728 7.9713L20.172 30.7647L20.4494 30.8127L21.6191 6.51681C21.4656 6.46881 21.2954 6.50081 21.2492 6.51681Z" fill="url(#paint17_linear_10055_832)"/>
<path fill-rule="evenodd" clip-rule="evenodd" d="M21.2492 6.51681L8.19182 10.7046C8.19182 10.7046 7.638 10.8645 7.49928 11.0403C7.48352 11.0563 7.48346 11.0723 7.46875 11.0883L10.5174 10.2091L21.0032 6.8365C21.0495 6.8205 21.2187 6.78851 21.3879 6.82051L20.233 30.7647L20.4494 30.8127L21.6191 6.51681C21.4656 6.46881 21.2954 6.50081 21.2492 6.51681Z" fill="url(#paint18_linear_10055_832)"/>
<path opacity="0.32" fill-rule="evenodd" clip-rule="evenodd" d="M24.607 26.6566L23.9134 26.257L20.4497 30.7964L20.6336 30.7484C20.6336 30.7484 23.6833 26.6726 23.9597 26.5447C24.1604 26.4648 24.607 26.6566 24.607 26.6566Z" fill="url(#paint19_linear_10055_832)"/>
<path opacity="0.57" fill-rule="evenodd" clip-rule="evenodd" d="M20.4644 30.7964L23.9291 26.257C23.9134 26.273 21.7275 28.7504 20.4644 30.7964Z" fill="url(#paint20_linear_10055_832)"/>
<path opacity="0.46" fill-rule="evenodd" clip-rule="evenodd" d="M28.6875 28.9581L23.929 26.2727C23.9133 26.2727 24.4682 26.3686 28.6875 28.9581Z" fill="url(#paint21_linear_10055_832)"/>
<path opacity="0.3" fill-rule="evenodd" clip-rule="evenodd" d="M17.3262 9.34335C17.1875 9.73186 17.3241 10.1401 17.6299 10.2554C17.9368 10.3706 18.2962 10.1491 18.4339 9.76073C18.5726 9.37222 18.436 8.96394 18.1302 8.84869C17.8244 8.73355 17.4639 8.95494 17.3262 9.34335Z" fill="white"/>
<path opacity="0.89" fill-rule="evenodd" clip-rule="evenodd" d="M17.3095 9.1598C17.1718 9.54831 17.3085 9.95658 17.6143 10.0718C17.9201 10.187 18.2805 9.96558 18.4182 9.57707C18.5558 9.18866 18.4203 8.78038 18.1144 8.66514C17.8076 8.54989 17.4482 8.77139 17.3095 9.1598Z" fill="black"/>
<path fill-rule="evenodd" clip-rule="evenodd" d="M10.8257 11.5357C10.8099 11.5357 10.7794 11.5357 10.7636 11.5357C10.5177 11.5038 10.3486 11.264 10.379 10.9923C10.4095 10.7365 11.287 4.75846 14.8905 3.39987C15.7985 3.06417 16.5688 3.12807 17.1541 3.62367C17.8624 4.21506 18.247 5.39785 18.309 7.12415C18.3553 8.33894 18.2166 9.39383 18.2166 9.44184C18.1861 9.69753 17.9549 9.88943 17.708 9.84143C17.4621 9.80943 17.2771 9.56974 17.3233 9.31394C17.462 8.22704 17.6155 5.23806 16.5845 4.37486C16.2608 4.10316 15.8143 4.07116 15.2142 4.29496C12.1193 5.46175 11.3027 11.0722 11.3027 11.1201C11.2407 11.3599 11.0568 11.5357 10.8257 11.5357Z" fill="#595961"/>
<path opacity="0.46" fill-rule="evenodd" clip-rule="evenodd" d="M16.9691 3.65538C16.43 3.20789 15.7217 3.14399 14.8747 3.44769C13.4119 4.00708 12.1802 5.47758 11.3331 7.69936C10.7026 9.34576 10.4862 10.8322 10.4862 10.8963C10.4714 10.9761 10.5019 11.056 10.5482 11.1201C10.5944 11.1839 10.6564 11.2319 10.7331 11.2319C10.7478 11.2319 10.7636 11.2319 10.7793 11.2319C10.9181 11.2319 11.041 11.1201 11.0568 10.9762C11.0715 10.9123 11.888 5.20588 15.0754 4.00708C15.7217 3.76728 16.245 3.79929 16.6149 4.11899C17.7079 5.03008 17.5545 8.11496 17.4157 9.21786C17.4 9.37776 17.5082 9.53755 17.6617 9.55355C17.8161 9.56956 17.9695 9.45766 17.9853 9.29786C18.0011 9.12196 18.5402 4.96618 16.9691 3.65538Z" fill="#B2B2C2"/>
<path opacity="0.81" fill-rule="evenodd" clip-rule="evenodd" d="M10.7634 11.0561C10.7477 11.0561 10.7477 11.0561 10.733 11.0561C10.6405 11.0401 10.5785 10.9442 10.5942 10.8483C10.61 10.7843 10.8097 9.32983 11.4413 7.68343C12.2883 5.49365 13.4895 4.03905 14.9208 3.49555C15.7373 3.19185 16.3994 3.25586 16.907 3.67145C18.4161 4.93415 17.8927 9.02613 17.8622 9.20192C17.8465 9.29782 17.7698 9.36172 17.6615 9.34583C17.5701 9.32983 17.5081 9.24993 17.5081 9.13803C17.5081 9.09002 18.0314 5.07805 16.6768 3.92715C16.2765 3.62345 15.7216 3.59155 15.0448 3.84725C11.7955 5.07805 10.9484 10.8483 10.9484 10.9122C10.9327 10.9921 10.8559 11.0561 10.7634 11.0561Z" fill="#B2B2C2"/>
<path opacity="0.42" fill-rule="evenodd" clip-rule="evenodd" d="M12.7959 6.48446C12.9651 6.24476 13.1195 6.00496 13.273 5.74927C13.212 5.82917 12.7654 6.66036 11.8416 6.53246C11.8259 6.53246 12.365 6.70826 12.7959 6.48446Z" fill="#595961"/>
<path opacity="0.42" fill-rule="evenodd" clip-rule="evenodd" d="M12.2726 7.50732C12.4113 7.25152 12.55 6.97982 12.6571 6.72412C12.6109 6.82002 12.303 7.68311 11.333 7.68311C11.333 7.68311 11.8722 7.79502 12.2726 7.50732Z" fill="#595961"/>
<path opacity="0.42" fill-rule="evenodd" clip-rule="evenodd" d="M11.8724 8.56263C11.9954 8.29083 12.0879 8.01913 12.1804 7.74744C12.1341 7.84334 11.9649 8.72243 10.9487 8.83433C10.9487 8.81833 11.5025 8.88233 11.8724 8.56263Z" fill="#595961"/>
<path opacity="0.62" fill-rule="evenodd" clip-rule="evenodd" d="M18.0313 5.44558C17.9546 5.15778 17.8779 4.88609 17.7696 4.59839C17.8001 4.69429 18.1081 5.60538 17.4775 6.26068C17.4775 6.26068 17.9389 5.94108 18.0313 5.44558Z" fill="#595961"/>
<path opacity="0.62" fill-rule="evenodd" clip-rule="evenodd" d="M17.4316 4.00703C17.2161 3.79923 16.9996 3.60744 16.7842 3.43164C16.8619 3.51154 17.585 4.10293 17.3853 4.99803C17.3696 4.99803 17.6008 4.47053 17.4316 4.00703Z" fill="#595961"/>
<path opacity="0.62" fill-rule="evenodd" clip-rule="evenodd" d="M18.1857 6.91618C18.17 6.62849 18.1238 6.32479 18.0775 6.03699C18.0775 6.14889 18.232 7.09198 17.4922 7.60348C17.4922 7.60348 18.0008 7.37968 18.1857 6.91618Z" fill="#595961"/>
<path opacity="0.62" fill-rule="evenodd" clip-rule="evenodd" d="M18.2625 8.41877C18.2783 8.13107 18.2783 7.82737 18.2625 7.53967C18.2625 7.65157 18.2783 8.59467 17.4922 9.02617C17.4922 9.01027 18.0313 8.85037 18.2625 8.41877Z" fill="#595961"/>
<path opacity="0.42" fill-rule="evenodd" clip-rule="evenodd" d="M11.5177 9.72928C11.6102 9.44158 11.6722 9.15388 11.7332 8.88208C11.7027 8.97798 11.564 9.88907 10.6245 10.1129C10.6403 10.1129 11.1941 10.0969 11.5177 9.72928Z" fill="#595961"/>
<path opacity="0.42" fill-rule="evenodd" clip-rule="evenodd" d="M13.3815 5.60521C13.5969 5.41341 13.7976 5.20561 13.9825 4.98181C13.9048 5.04571 13.289 5.70111 12.4272 5.46131C12.442 5.46131 12.9191 5.74911 13.3815 5.60521Z" fill="#595961"/>
<path opacity="0.42" fill-rule="evenodd" clip-rule="evenodd" d="M14.0735 4.87025C14.3205 4.71046 14.5517 4.55055 14.7818 4.37476C14.6904 4.42276 13.9821 4.95015 13.1655 4.56655C13.1655 4.56655 13.5964 4.93415 14.0735 4.87025Z" fill="#595961"/>
<path opacity="0.62" fill-rule="evenodd" clip-rule="evenodd" d="M15.0131 4.34282C15.2906 4.26282 15.5523 4.16692 15.8139 4.07102C15.7215 4.10302 14.8902 4.39072 14.2124 3.78333C14.2124 3.78333 14.536 4.26282 15.0131 4.34282Z" fill="#595961"/>
<path opacity="0.62" fill-rule="evenodd" clip-rule="evenodd" d="M15.7982 4.05517C16.0147 4.08717 16.2302 4.10317 16.4456 4.11917C16.3689 4.10317 15.7068 4.05517 15.4136 3.41577C15.4293 3.41577 15.5061 3.84737 15.7982 4.05517Z" fill="#595961"/>
<path opacity="0.62" fill-rule="evenodd" clip-rule="evenodd" d="M16.6307 4.40656C16.7694 4.58236 16.9071 4.75816 17.0458 4.91806C16.9996 4.85406 16.5687 4.32666 16.7841 3.67126C16.7999 3.67126 16.5687 4.03896 16.6307 4.40656Z" fill="#595961"/>
<path fill-rule="evenodd" clip-rule="evenodd" d="M17.693 9.12199C17.7077 8.94619 18.2322 4.90222 16.7693 3.67142C16.4919 3.43172 16.1535 3.31982 15.7836 3.31982C15.5062 3.31982 15.1983 3.38372 14.8746 3.51162C13.458 4.03912 12.2725 5.46172 11.4413 7.6355C10.8097 9.26589 10.61 10.7205 10.5942 10.7844C10.5942 10.8323 10.6248 10.8803 10.671 10.8803H10.6867C10.733 10.8803 10.7634 10.8483 10.7634 10.8004C10.7792 10.7364 11.6105 4.90221 14.9208 3.65542C15.6291 3.38372 16.2302 3.43172 16.6611 3.79932C18.0619 4.96611 17.5386 9.04209 17.5239 9.0901C17.5239 9.13799 17.5544 9.186 17.6006 9.186C17.6006 9.186 17.6006 9.186 17.6153 9.186C17.6615 9.202 17.693 9.16999 17.693 9.12199Z" fill="url(#paint22_linear_10055_832)"/>
<path fill-rule="evenodd" clip-rule="evenodd" d="M18.3089 7.12394C18.2469 5.39765 17.8623 4.23076 17.154 3.62336C16.7694 3.30377 16.307 3.15987 15.7837 3.19187C16.1841 3.22376 16.5529 3.36767 16.8619 3.62336C17.5702 4.21486 17.9548 5.39765 18.0157 7.12394C18.062 8.33874 17.9243 9.39363 17.9243 9.44163C17.8928 9.63343 17.7699 9.77733 17.6154 9.82523C17.6469 9.84123 17.6616 9.84123 17.6931 9.84123C17.939 9.87323 18.1703 9.69733 18.2007 9.44163C18.2165 9.39363 18.3552 8.35474 18.3089 7.12394Z" fill="url(#paint23_linear_10055_832)"/>
<path fill-rule="evenodd" clip-rule="evenodd" d="M14.9064 4.29474C11.8115 5.46153 10.995 11.072 10.995 11.1359C10.9645 11.3277 10.8404 11.4716 10.687 11.5195C10.7175 11.5355 10.7332 11.5355 10.7637 11.5355C10.7795 11.5355 10.81 11.5355 10.8257 11.5355C11.0569 11.5355 11.2408 11.3597 11.2724 11.1359C11.2871 11.072 12.0879 5.47753 15.1827 4.31064C15.3992 4.23074 15.5832 4.18284 15.7534 4.16684C15.5222 4.13484 15.229 4.18284 14.9064 4.29474Z" fill="url(#paint24_linear_10055_832)"/>
<defs>
<linearGradient id="paint0_linear_10055_832" x1="14.4616" y1="4.18696" x2="13.9787" y2="10.7619" gradientUnits="userSpaceOnUse">
<stop stop-color="white" stop-opacity="0.65"/>
<stop offset="1" stop-color="white" stop-opacity="0.01"/>
</linearGradient>
<linearGradient id="paint1_linear_10055_832" x1="17.9905" y1="7.95056" x2="21.3905" y2="10.9285" gradientUnits="userSpaceOnUse">
<stop stop-opacity="0.01"/>
<stop offset="1" stop-opacity="0.4"/>
</linearGradient>
<linearGradient id="paint2_linear_10055_832" x1="16.6275" y1="11.3955" x2="20.2263" y2="8.04346" gradientUnits="userSpaceOnUse">
<stop stop-opacity="0.01"/>
<stop offset="1" stop-opacity="0.4"/>
</linearGradient>
<linearGradient id="paint3_linear_10055_832" x1="12.0466" y1="1.61331" x2="-1.93143" y2="17.7191" gradientUnits="userSpaceOnUse">
<stop stop-color="#B8D26E"/>
<stop offset="1" stop-color="#7FB525"/>
</linearGradient>
<linearGradient id="paint4_linear_10055_832" x1="31.1677" y1="5.64545" x2="23.4963" y2="5.7879" gradientUnits="userSpaceOnUse">
<stop stop-color="#B4E034"/>
<stop offset="1" stop-color="#60A927"/>
</linearGradient>
<linearGradient id="paint5_linear_10055_832" x1="8.34972" y1="16.3848" x2="2.06015" y2="31.7012" gradientUnits="userSpaceOnUse">
<stop stop-color="white"/>
<stop offset="1" stop-color="#CECEEB"/>
</linearGradient>
<linearGradient id="paint6_linear_10055_832" x1="17.3674" y1="54.1043" x2="27.3288" y2="54.0841" gradientUnits="userSpaceOnUse">
<stop stop-color="#1D1D1B" stop-opacity="0.5"/>
<stop offset="0.038033" stop-color="#1D1D1B" stop-opacity="0.4837"/>
<stop offset="0.4243" stop-color="#1D1D1B" stop-opacity="0.3185"/>
<stop offset="1" stop-color="#1D1D1B" stop-opacity="0.01"/>
</linearGradient>
<linearGradient id="paint7_linear_10055_832" x1="18.5243" y1="6.16319" x2="16.8717" y2="7.05261" gradientUnits="userSpaceOnUse">
<stop stop-opacity="0.01"/>
<stop offset="1" stop-opacity="0.4"/>
</linearGradient>
<linearGradient id="paint8_linear_10055_832" x1="11.5957" y1="8.80109" x2="10.434" y2="9.79946" gradientUnits="userSpaceOnUse">
<stop stop-opacity="0.01"/>
<stop offset="1" stop-opacity="0.4"/>
</linearGradient>
<linearGradient id="paint9_linear_10055_832" x1="22.9277" y1="28.97" x2="23.0453" y2="30.5204" gradientUnits="userSpaceOnUse">
<stop stop-opacity="0.01"/>
<stop offset="1" stop-opacity="0.4"/>
</linearGradient>
<linearGradient id="paint10_linear_10055_832" x1="20.1817" y1="26.7003" x2="20.4543" y2="30.7312" gradientUnits="userSpaceOnUse">
<stop stop-color="white" stop-opacity="0.5"/>
<stop offset="0.0896271" stop-color="white" stop-opacity="0.4552"/>
<stop offset="1" stop-color="white" stop-opacity="0.01"/>
</linearGradient>
<linearGradient id="paint11_linear_10055_832" x1="19.6573" y1="27.3273" x2="20.1423" y2="31.6331" gradientUnits="userSpaceOnUse">
<stop stop-opacity="0.01"/>
<stop offset="1" stop-opacity="0.4"/>
</linearGradient>
<linearGradient id="paint12_linear_10055_832" x1="17.7541" y1="2.55408" x2="5.31443" y2="9.74868" gradientUnits="userSpaceOnUse">
<stop stop-color="white" stop-opacity="0.5"/>
<stop offset="1" stop-color="white" stop-opacity="0.01"/>
</linearGradient>
<linearGradient id="paint13_linear_10055_832" x1="20.154" y1="40.1555" x2="31.1337" y2="40.1777" gradientUnits="userSpaceOnUse">
<stop stop-color="#1D1D1B" stop-opacity="0.5"/>
<stop offset="0.0896271" stop-color="#1D1D1B" stop-opacity="0.4552"/>
<stop offset="1" stop-color="#1D1D1B" stop-opacity="0.01"/>
</linearGradient>
<linearGradient id="paint14_linear_10055_832" x1="28.0171" y1="7.62133" x2="26.4574" y2="8.0035" gradientUnits="userSpaceOnUse">
<stop stop-color="white" stop-opacity="0.4"/>
<stop offset="1" stop-color="white" stop-opacity="0.01"/>
</linearGradient>
<linearGradient id="paint15_linear_10055_832" x1="14.0234" y1="30.974" x2="14.8344" y2="27.0639" gradientUnits="userSpaceOnUse">
<stop stop-color="#1D1D1B" stop-opacity="0.5"/>
<stop offset="0.0896271" stop-color="#1D1D1B" stop-opacity="0.4552"/>
<stop offset="1" stop-color="#1D1D1B" stop-opacity="0.01"/>
</linearGradient>
<linearGradient id="paint16_linear_10055_832" x1="18.7125" y1="53.6065" x2="28.7097" y2="53.6151" gradientUnits="userSpaceOnUse">
<stop stop-color="#1D1D1B" stop-opacity="0.5"/>
<stop offset="1" stop-color="#1D1D1B" stop-opacity="0.01"/>
</linearGradient>
<linearGradient id="paint17_linear_10055_832" x1="9.57685" y1="5.10823" x2="4.72826" y2="23.7364" gradientUnits="userSpaceOnUse">
<stop stop-color="white" stop-opacity="0.5"/>
<stop offset="1" stop-color="white" stop-opacity="0.01"/>
</linearGradient>
<linearGradient id="paint18_linear_10055_832" x1="9.57685" y1="5.10823" x2="4.72826" y2="23.7364" gradientUnits="userSpaceOnUse">
<stop stop-color="white" stop-opacity="0.5"/>
<stop offset="1" stop-color="white" stop-opacity="0.01"/>
</linearGradient>
<linearGradient id="paint19_linear_10055_832" x1="21.344" y1="24.6353" x2="17.5117" y2="29.9101" gradientUnits="userSpaceOnUse">
<stop stop-color="white" stop-opacity="0.5"/>
<stop offset="0.0896271" stop-color="white" stop-opacity="0.4552"/>
<stop offset="1" stop-color="white" stop-opacity="0.01"/>
</linearGradient>
<linearGradient id="paint20_linear_10055_832" x1="22.4999" y1="25.8481" x2="22.1205" y2="26.6986" gradientUnits="userSpaceOnUse">
<stop stop-opacity="0.01"/>
<stop offset="1" stop-opacity="0.4"/>
</linearGradient>
<linearGradient id="paint21_linear_10055_832" x1="26.2631" y1="26.9726" x2="26.2443" y2="27.2012" gradientUnits="userSpaceOnUse">
<stop stop-opacity="0.01"/>
<stop offset="1" stop-opacity="0.4"/>
</linearGradient>
<linearGradient id="paint22_linear_10055_832" x1="12.4627" y1="2.78176" x2="10.806" y2="9.32674" gradientUnits="userSpaceOnUse">
<stop stop-color="white" stop-opacity="0.65"/>
<stop offset="1" stop-color="white" stop-opacity="0.01"/>
</linearGradient>
<linearGradient id="paint23_linear_10055_832" x1="16.1704" y1="6.55723" x2="19.0524" y2="9.48729" gradientUnits="userSpaceOnUse">
<stop stop-opacity="0.01"/>
<stop offset="1" stop-opacity="0.4"/>
</linearGradient>
<linearGradient id="paint24_linear_10055_832" x1="14.3284" y1="10.872" x2="18.3103" y2="6.78262" gradientUnits="userSpaceOnUse">
<stop stop-opacity="0.01"/>
<stop offset="1" stop-opacity="0.4"/>
</linearGradient>
</defs>
</svg>
