<svg width="34" height="34" viewBox="0 0 34 34" fill="none" xmlns="http://www.w3.org/2000/svg">
<g clip-path="url(#clip0_10050_852)">
<g clip-path="url(#clip1_10050_852)">
<rect x="11" y="10" width="15" height="18" fill="white"/>
<path fill-rule="evenodd" clip-rule="evenodd" d="M8.26961 5.0033C6.27256 5.0033 4.79483 6.75827 4.86101 8.66148C4.92451 10.49 4.842 12.8581 4.24823 14.7893C3.65234 16.726 2.64527 17.9532 1 18.1107V19.8892C2.64527 20.047 3.65234 21.2737 4.24816 23.2106C4.842 25.1418 4.92444 27.5099 4.86094 29.3384C4.79477 31.2414 6.27249 32.9966 8.26988 32.9966H28.7331C30.7301 32.9966 32.2076 31.2416 32.1414 29.3384C32.0779 27.5099 32.1604 25.1418 32.7542 23.2106C33.35 21.2737 34.3547 20.0465 36 19.8892V18.1107C34.3547 17.9529 33.3501 16.7262 32.7542 14.7893C32.1603 12.8584 32.0779 10.49 32.1414 8.66148C32.2076 6.75854 30.7301 5.0033 28.7331 5.0033H8.26934H8.26961ZM24.7288 22.235C24.7288 24.8557 22.7819 26.445 19.5509 26.445H14.0508C13.8935 26.445 13.7426 26.3823 13.6314 26.2706C13.5201 26.1589 13.4576 26.0074 13.4576 25.8494V12.1506C13.4576 11.9926 13.5201 11.8411 13.6314 11.7294C13.7426 11.6177 13.8935 11.555 14.0508 11.555H19.5196C22.2137 11.555 23.9818 13.0202 23.9818 15.2697C23.9818 16.8486 22.7924 18.2621 21.277 18.5098V18.5921C23.3398 18.8193 24.7288 20.2538 24.7288 22.235ZM18.9512 13.443H15.8151V17.8905H18.4565C20.4984 17.8905 21.6242 17.065 21.6242 15.5894C21.624 14.2066 20.6561 13.443 18.9512 13.443ZM15.8151 19.6551V24.5563H19.0666C21.1925 24.5563 22.3186 23.6999 22.3186 22.0903C22.3186 20.4807 21.161 19.6549 18.9298 19.6549H15.8151V19.6551Z" fill="#7952B3"/>
</g>
</g>
<defs>
<clipPath id="clip0_10050_852">
<rect width="34" height="34" fill="white"/>
</clipPath>
<clipPath id="clip1_10050_852">
<rect width="35" height="28" fill="white" transform="translate(1 5)"/>
</clipPath>
</defs>
</svg>
