<svg width="34" height="34" viewBox="0 0 34 34" fill="none" xmlns="http://www.w3.org/2000/svg">
<path d="M17.0249 4.32153L17.7251 5.63669C17.8825 5.87939 18.0531 6.09421 18.2539 6.29427C18.8429 6.87586 19.3919 7.49659 19.8971 8.15222C21.0835 9.71007 21.8838 11.4401 22.4553 13.3112C22.798 14.4542 22.9842 15.6266 22.9981 16.8123C23.0555 20.3568 21.8403 23.4003 19.3904 25.9298C18.9919 26.3309 18.5613 26.6989 18.1031 27.0301C17.8604 27.0301 17.7456 26.844 17.6456 26.6727C17.4634 26.3549 17.3422 26.0059 17.2881 25.6437C17.202 25.2148 17.1454 24.786 17.1733 24.3433V24.1432C17.1536 24.1006 16.9396 4.42238 17.0249 4.32153Z" fill="#599636"/>
<path d="M17.0248 4.27796C16.9961 4.22057 16.9674 4.26403 16.9387 4.2919C16.9526 4.57888 16.8526 4.83469 16.696 5.07903C16.5238 5.32173 16.2959 5.50785 16.0671 5.70792C14.7962 6.80826 13.7959 8.13736 12.9948 9.62388C11.9289 11.6245 11.3796 13.7686 11.2238 16.0259C11.1524 16.8401 11.4812 19.7131 11.7379 20.542C12.4381 22.7427 13.6959 24.5867 15.3251 26.1872C15.7252 26.5726 16.1532 26.9301 16.596 27.2736C16.7247 27.2736 16.7386 27.1588 16.7681 27.0736C16.8246 26.8911 16.8676 26.7047 16.8969 26.516L17.1838 24.3727L17.0248 4.27796Z" fill="#6CAC48"/>
<path d="M17.7252 27.9007C17.7539 27.5727 17.9114 27.3005 18.0827 27.0291C17.9105 26.9578 17.7826 26.816 17.6826 26.6577C17.5963 26.5079 17.5249 26.35 17.4694 26.1863C17.2694 25.5861 17.2267 24.9564 17.1693 24.3431V23.9717C17.098 24.0291 17.0832 24.5145 17.0832 24.5866C17.0415 25.2348 16.9555 25.8794 16.8258 26.5159C16.7831 26.7733 16.7544 27.03 16.5962 27.2587C16.5962 27.2874 16.5962 27.3161 16.6101 27.3587C16.8676 28.1163 16.9381 28.8879 16.9816 29.6742V29.9611C16.9816 30.3039 16.9676 30.2317 17.2521 30.3465C17.3669 30.3891 17.4948 30.4039 17.6096 30.4892C17.6957 30.4892 17.7097 30.4178 17.7097 30.3604L17.667 29.889V28.5738C17.6531 28.3443 17.6957 28.1163 17.7244 27.9015L17.7252 27.9007Z" fill="#C2BFBF"/>
</svg>
