<svg width="34" height="34" viewBox="0 0 34 34" fill="none" xmlns="http://www.w3.org/2000/svg">
<g clip-path="url(#clip0_9951_1230)">
<g clip-path="url(#clip1_9951_1230)">
<path fill-rule="evenodd" clip-rule="evenodd" d="M9 12.8C10.0665 8.53352 12.7335 6.40002 17 6.40002C23.4 6.40002 24.2 11.2 27.4 12C29.5335 12.5335 31.4 11.7335 33 9.60002C31.9335 13.8665 29.2665 16 25 16C18.6 16 17.8 11.2 14.6 10.4C12.4665 9.86652 10.6 10.6665 9 12.8ZM1 22.4C2.0665 18.1335 4.7335 16 9 16C15.4 16 16.2 20.8 19.4 21.6C21.5335 22.1335 23.4 21.3335 25 19.2C23.9335 23.4665 21.2665 25.6 17 25.6C10.6 25.6 9.8 20.8 6.6 20C4.4665 19.4665 2.6 20.2665 1 22.4Z" fill="#38BDF8"/>
</g>
</g>
<defs>
<clipPath id="clip0_9951_1230">
<rect width="34" height="34" fill="white"/>
</clipPath>
<clipPath id="clip1_9951_1230">
<rect width="32" height="32" fill="white" transform="translate(1)"/>
</clipPath>
</defs>
</svg>
