<svg width="34" height="34" viewBox="0 0 34 34" fill="none" xmlns="http://www.w3.org/2000/svg">
<path fill-rule="evenodd" clip-rule="evenodd" d="M3.13764 4.34833C3.9429 2.39551 6.73359 3.88018 7.82159 4.56279C8.09448 4.73541 8.3969 5.08848 8.68859 5.20966L10.1202 5.29597C11.0086 5.5052 11.8506 5.66561 12.5485 6.071C15.8322 7.97848 17.9518 9.9191 19.9211 13.1343C20.3309 13.8047 20.5465 14.5414 20.8749 15.2876C21.359 16.3949 21.8797 17.4867 22.4362 18.5612C22.6957 19.0581 22.88 19.5986 23.2173 20.0258C23.3605 20.2054 23.739 20.2612 23.9546 20.3702C24.5961 20.6919 25.3441 20.9386 25.9499 21.3178C27.0405 22.0022 28.1008 22.8225 29.0725 23.6438C29.4429 23.9576 29.6854 24.417 30.0263 24.764V24.9358L29.1145 25.1947C28.4417 25.3673 27.8583 25.3228 27.207 25.4963C26.8186 25.5992 26.3256 25.7509 25.9051 25.7971L25.949 25.8407C26.1968 26.5268 27.5246 27.0978 28.1178 27.5206C28.8613 28.0516 29.5619 28.6888 30.1131 29.4159L30.6767 29.9756C30.8047 30.1596 30.8405 30.4028 30.9801 30.5789V30.6216C30.7143 30.5283 30.5774 30.2964 30.3734 30.1482C29.9592 29.8466 29.5386 29.5101 29.1154 29.2433C28.397 28.7908 27.5631 28.5328 26.8169 28.0812C26.3972 27.8266 25.9937 27.5128 25.6027 27.2199C25.2448 26.9514 24.8422 26.4387 24.6051 26.0569C24.4807 25.8581 24.4574 25.6158 24.3008 25.4536C24.3474 25.1014 24.7992 25.0988 25.082 24.9802C26.0778 24.5618 27.2436 24.4223 28.7683 24.4633C28.7208 24.0736 27.7751 23.6019 27.4673 23.3875C26.8508 22.9568 26.2147 22.4886 25.5588 22.0955C25.2144 21.8897 24.6194 21.731 24.257 21.5785C23.7399 21.3605 22.6008 21.1513 22.3065 20.7599C21.7446 20.0154 21.3581 19.1122 20.9617 18.2186C20.5644 17.3224 20.0607 16.3791 19.6607 15.462C19.463 15.0078 19.3655 14.5989 19.1409 14.17C17.7424 11.5084 15.6988 9.27659 13.199 7.7091C12.3785 7.19474 11.4757 6.72136 10.4673 6.4171C9.89648 6.24448 9.2129 6.34125 8.60269 6.20177H8.21169C7.8699 6.10238 7.58538 5.74146 7.30174 5.55577C6.71122 5.16782 6.13232 4.89495 5.43622 4.60812C5.17496 4.49915 4.47438 4.24197 4.22206 4.43551C4.07443 4.48433 4.00822 4.54623 3.96259 4.69356C3.81495 4.91412 3.95006 5.25587 4.04848 5.46946C4.32764 6.071 4.73027 6.43715 5.08996 6.93407C5.41474 7.38218 5.81022 7.89305 6.04374 8.39869C6.53317 9.45356 6.75059 10.6261 7.21496 11.6714C7.39301 12.0724 7.65069 12.5301 7.90838 12.8771C8.11685 13.1587 8.48995 13.3705 8.60269 13.7384C8.8389 14.1072 8.25375 15.3635 8.1249 15.7627C7.62564 17.3058 7.73122 19.4626 8.29848 20.8017C8.52306 21.3318 8.73511 21.949 9.33906 22.0937C9.3838 22.0597 9.3498 22.078 9.42585 22.051C9.5538 21.0188 9.59943 20.0241 9.94659 19.2089C10.1631 18.6972 10.5765 18.3485 10.8574 17.9161C11.0632 18.0338 11.0623 18.3781 11.1607 18.6048C11.4166 19.195 11.6806 19.834 11.9848 20.4138C12.621 21.6273 13.3197 22.7938 14.1098 23.86C14.3898 24.2383 14.7674 24.6489 15.1074 24.9794C15.2506 25.1197 15.4277 25.1921 15.5405 25.3673H15.5843V25.4109C15.0018 25.213 14.6466 24.628 14.1975 24.2906C13.3278 23.6394 12.3024 22.6735 11.7244 21.7494L10.9442 20.1984V20.1557C10.836 20.2996 10.8691 20.4574 10.8145 20.6727C10.5684 21.6212 10.7599 22.6953 9.90274 23.0414C8.92301 23.438 8.2099 22.4041 7.90748 21.922C6.92148 20.3501 6.66648 17.7121 7.3438 15.5901C7.49411 15.1185 7.50932 14.5405 7.77774 14.1691C7.73301 13.8343 7.46011 13.7384 7.29996 13.5222C7.04048 13.1691 6.81322 12.7542 6.60653 12.3593C6.19853 11.5799 5.92474 10.6619 5.6098 9.81797C5.48096 9.47536 5.4559 9.15105 5.30559 8.82761C5.07832 8.33505 4.67032 7.84423 4.3518 7.40659C3.89817 6.78151 2.62943 5.5793 3.13764 4.34833ZM11.4077 8.67069C11.7933 8.67069 12.1065 8.98105 12.1065 9.36464C12.1065 9.74823 11.7933 10.0586 11.4077 10.0586C11.2206 10.0567 11.0419 9.98262 10.9109 9.85251C10.7799 9.72239 10.7072 9.54692 10.7089 9.36464C10.7089 8.98105 11.0221 8.67069 11.4077 8.67069Z" fill="#00678C"/>
</svg>
