<svg width="34" height="34" viewBox="0 0 34 34" fill="none" xmlns="http://www.w3.org/2000/svg">
<path d="M23.5191 26.851C20.0122 28.8682 15.1902 29.0754 10.339 27.0051C6.41098 25.3411 3.15179 22.4283 1.0625 19.1003C2.06536 19.9323 3.23535 20.5982 4.48889 21.1803C9.49885 23.5185 14.5078 23.3583 18.0327 21.1863C13.0184 17.3585 8.75103 12.3597 5.57546 8.28268C4.90661 7.61693 4.40518 6.78477 3.90375 6.03589C7.74801 9.53077 13.849 13.9407 16.0214 15.1895C11.4256 10.3628 7.33029 4.37187 7.49711 4.53797C14.768 11.8607 21.5377 16.0215 21.5377 16.0215C21.7616 16.1472 21.9344 16.2519 22.0734 16.3455C22.22 15.9743 22.3485 15.589 22.4567 15.1895C23.6266 10.9456 22.2898 6.11894 19.3645 2.125C26.1334 6.20236 30.1453 13.8577 28.4734 20.2653C28.4298 20.4382 28.3825 20.6088 28.3314 20.7764C31.6738 24.9371 30.8134 29.4189 30.3956 28.5869C28.5824 25.0539 25.2256 26.1342 23.5191 26.851Z" fill="url(#paint0_linear_10055_783)"/>
<defs>
<linearGradient id="paint0_linear_10055_783" x1="15.9484" y1="2.125" x2="15.9484" y2="28.6889" gradientUnits="userSpaceOnUse">
<stop stop-color="#F88A36"/>
<stop offset="1" stop-color="#FD2020"/>
</linearGradient>
</defs>
</svg>
