<svg width="34" height="34" viewBox="0 0 34 34" fill="none" xmlns="http://www.w3.org/2000/svg">
<rect x="9.12793" y="9.83179" width="14.2556" height="14.9035" fill="white"/>
<g clip-path="url(#clip0_10055_812)">
<path d="M10.4364 4.1012C9.65576 4.10289 8.89163 4.54603 8.49873 5.22197L2.38687 15.8388C1.99995 16.5166 1.99995 17.4025 2.38687 18.0803L8.49873 28.6972C8.89163 29.3732 9.65576 29.8164 10.4364 29.818H22.6601C23.4407 29.8163 24.2048 29.3732 24.5977 28.6972L30.7096 18.0803C31.0965 17.4025 31.0964 16.5166 30.7096 15.8388L24.5977 5.22197C24.2048 4.54592 23.4407 4.10278 22.6601 4.1012L10.4364 4.1012ZM10.5473 10.3123C10.5642 10.3106 10.5818 10.3106 10.5986 10.3123H12.7069C12.7538 10.3138 12.7995 10.3271 12.8398 10.3511C12.8801 10.375 12.9137 10.4087 12.9375 10.4491L16.5141 16.8226C16.5322 16.8543 16.5437 16.8893 16.548 16.9254C16.5525 16.8893 16.564 16.8543 16.5821 16.8226L20.1502 10.4491C20.1747 10.4076 20.2097 10.3731 20.2516 10.3491C20.2935 10.3251 20.3409 10.3124 20.3892 10.3123H22.4976C22.6843 10.3139 22.8241 10.549 22.7366 10.7143L19.2454 16.9596L22.7366 23.1963C22.8324 23.3625 22.6892 23.6085 22.4976 23.6069H20.3892C20.3401 23.6059 20.2921 23.5919 20.2501 23.5664C20.2081 23.5408 20.1737 23.5047 20.1502 23.4615L16.5821 17.0879C16.564 17.0564 16.5525 17.0212 16.5481 16.9852C16.5437 17.0214 16.5322 17.0563 16.5141 17.088L12.9374 23.4615C12.9146 23.5034 12.8815 23.5388 12.8412 23.5643C12.8009 23.5897 12.7547 23.6044 12.7071 23.6069H10.5985C10.4069 23.6086 10.2637 23.3625 10.3595 23.1963L13.8508 16.9596L10.3595 10.7143C10.2758 10.5635 10.3779 10.3444 10.5472 10.3123H10.5473Z" fill="#3498DB"/>
</g>
<defs>
<clipPath id="clip0_10055_812">
<rect width="29.0965" height="25.9192" fill="white" transform="translate(2 4)"/>
</clipPath>
</defs>
</svg>
