<svg width="34" height="34" viewBox="0 0 34 34" fill="none" xmlns="http://www.w3.org/2000/svg">
<path d="M2.125 12.8917C2.125 9.12298 2.125 7.23864 2.85844 5.79919C3.50358 4.53301 4.53301 3.50358 5.79919 2.85844C7.23864 2.125 9.12298 2.125 12.8917 2.125H21.1083C24.877 2.125 26.7614 2.125 28.2008 2.85844C29.467 3.50358 30.4964 4.53301 31.1416 5.79919C31.875 7.23864 31.875 9.12298 31.875 12.8917V21.1083C31.875 24.877 31.875 26.7614 31.1416 28.2008C30.4964 29.467 29.467 30.4964 28.2008 31.1416C26.7614 31.875 24.877 31.875 21.1083 31.875H12.8917C9.12298 31.875 7.23864 31.875 5.79919 31.1416C4.53301 30.4964 3.50358 29.467 2.85844 28.2008C2.125 26.7614 2.125 24.877 2.125 21.1083V12.8917Z" fill="#001E36"/>
<path d="M8.5 23.9235V10.8411C8.5 10.7521 8.53719 10.7013 8.62396 10.7013C9.90494 10.7013 11.1853 10.625 12.4667 10.625C14.5458 10.625 16.797 11.3359 17.5861 13.511C17.7721 14.045 17.8713 14.5917 17.8713 15.1638C17.8713 16.2572 17.6233 17.1598 17.1275 17.8718C15.7424 19.8606 13.3418 19.8297 11.1899 19.8297V23.9108C11.2067 24.0316 11.1038 24.0888 11.004 24.0888H8.64875C8.54958 24.0888 8.5 24.0379 8.5 23.9235ZM11.2023 13.155V17.4268C12.0555 17.4893 12.9484 17.4961 13.7682 17.2234C14.6733 16.9623 15.169 16.1789 15.169 15.2401C15.1941 14.4401 14.7582 13.6726 14.0161 13.3839C13.2062 13.0471 12.0766 13.0269 11.2023 13.155Z" fill="#31A8FF"/>
<path d="M25.6027 16.5828C25.2276 16.3852 24.8282 16.2406 24.4152 16.153C23.8846 16.0281 21.7916 15.5908 21.7909 16.6852C21.8094 17.2961 22.7793 17.5955 23.2078 17.77C24.7121 18.2865 26.4145 19.2097 26.381 21.0655C26.427 23.3759 24.1886 24.2994 22.2698 24.2997C21.2709 24.31 20.2303 24.1553 19.3161 23.7265C19.2289 23.6803 19.1727 23.5815 19.1764 23.4809V21.2702C19.1666 21.1816 19.2617 21.1041 19.3361 21.1679C20.2318 21.7096 21.2935 21.9726 22.3297 21.9866C22.7871 21.9866 23.6937 21.9423 23.6868 21.2702C23.6868 20.6253 22.6023 20.3287 22.17 20.1649C21.5434 19.9412 20.9492 19.6313 20.4038 19.2438C19.6416 18.7001 19.1634 17.8284 19.1764 16.8694C19.172 14.694 21.2324 13.7176 23.0881 13.7172C23.9556 13.71 24.8871 13.7743 25.6946 14.1265C25.8108 14.1607 25.8348 14.283 25.8343 14.3926V16.46C25.8417 16.5883 25.6992 16.632 25.6027 16.5828Z" fill="#31A8FF"/>
</svg>
