<svg width="34" height="34" viewBox="0 0 34 34" fill="none" xmlns="http://www.w3.org/2000/svg">
<path d="M19.8463 16.9744C19.8463 15.4503 18.5721 14.2147 17 14.2147C15.4281 14.2147 14.1537 15.4503 14.1537 16.9744C14.1537 18.4986 15.4281 19.7342 17 19.7342C18.5721 19.7342 19.8463 18.4986 19.8463 16.9744Z" fill="#53C1DE"/>
<path fill-rule="evenodd" clip-rule="evenodd" d="M26.2441 11.8508C26.8453 9.48258 27.6008 5.09095 24.9373 3.60205C22.2863 2.11963 18.8365 4.9602 17.0148 6.66526C15.1985 4.97719 11.6517 2.14876 8.99048 3.64239C6.34048 5.12978 7.15768 9.4486 7.77208 11.8317C5.30008 12.5124 1.0625 13.9787 1.0625 16.9744C1.0625 19.9616 5.29567 21.5568 7.75304 22.2369C7.13636 24.6332 6.36008 28.8904 9.01348 30.3744C11.6846 31.8677 15.2203 29.1067 17.0588 27.383C18.8922 29.098 22.3089 31.8772 24.9604 30.389C27.6204 28.8961 26.9275 24.5633 26.3131 22.1664C28.6952 21.4848 32.9375 19.9243 32.9375 16.9744C32.9375 14.0074 28.6772 12.5293 26.2441 11.8508ZM25.9423 20.8961C25.5388 19.6579 24.9943 18.3412 24.3282 16.981C24.964 15.6529 25.4873 14.3531 25.8795 13.1228C27.6631 13.6242 31.5759 14.7701 31.5759 16.9744C31.5759 19.1993 27.8212 20.3561 25.9423 20.8961ZM24.2781 29.2464C22.2998 30.3567 19.361 27.699 18.0071 26.4359C18.9053 25.4834 19.8029 24.3761 20.6789 23.1465C22.2199 23.014 23.6757 22.7972 24.996 22.5013C25.4284 24.1967 26.2652 28.131 24.2781 29.2464ZM9.69384 29.2305C7.71527 28.1244 8.61962 24.3255 9.07329 22.5604C10.3789 22.8404 11.8241 23.0419 13.3688 23.1633C14.2506 24.3665 15.1742 25.4725 16.1049 26.441C14.955 27.5196 11.6817 30.3418 9.69384 29.2305ZM2.42408 16.9744C2.42408 14.7411 6.31344 13.6035 8.13773 13.1034C8.53667 14.3613 9.05989 15.6765 9.69131 17.0065C9.05171 18.3564 8.52101 19.6925 8.1184 20.9652C6.37892 20.4825 2.42408 19.2091 2.42408 16.9744ZM9.67268 4.78501C11.6593 3.67005 14.7419 6.38544 16.0606 7.60764C15.1347 8.57176 14.2196 9.66938 13.3454 10.8656C11.8462 11.0003 10.4112 11.2167 9.09191 11.5065C8.59695 9.58451 7.68816 5.89877 9.67268 4.78501ZM21.653 12.3007C22.6701 12.4251 23.6444 12.5906 24.5594 12.7932C24.2847 13.6468 23.9423 14.5394 23.5392 15.4544C22.9547 14.3791 22.3273 13.3255 21.653 12.3007ZM17.0152 8.55111C17.6433 9.21078 18.2723 9.94745 18.891 10.7466C17.6359 10.6891 16.3788 10.6888 15.1237 10.7458C15.7429 9.95401 16.3773 9.21844 17.0152 8.55111ZM10.4725 15.4535C10.076 14.5416 9.73673 13.645 9.45967 12.7792C10.3691 12.5819 11.339 12.4206 12.3494 12.2982C11.6733 13.3207 11.0469 14.374 10.4725 15.4535ZM12.3785 21.7448C11.3346 21.6319 10.3501 21.4788 9.44091 21.2869C9.72234 20.4058 10.0691 19.49 10.4741 18.5585C11.0564 19.6491 11.6923 20.7126 12.3785 21.7448ZM17.0529 25.491C16.4075 24.8157 15.7638 24.0689 15.1351 23.2656C16.3974 23.3137 17.6621 23.3138 18.9242 23.2592C18.3035 24.0771 17.6767 24.825 17.0529 25.491ZM23.5522 18.5111C23.9782 19.4526 24.3373 20.3635 24.6226 21.2297C23.6983 21.4342 22.7005 21.5989 21.6492 21.7212C22.3285 20.677 22.9658 19.607 23.5522 18.5111ZM19.919 21.8812C17.9883 22.0149 16.0454 22.0135 14.114 21.8921C13.0166 20.3378 12.0397 18.7031 11.1964 17.0061C12.0355 15.3126 13.0054 13.6812 14.0977 12.1293C16.0305 11.9876 17.9752 11.9873 19.908 12.1301C20.9908 13.6819 21.9592 15.3091 22.8179 16.9874C21.9694 18.6801 20.9945 20.3148 19.919 21.8812ZM24.2572 4.74576C26.2444 5.85707 25.3598 9.80397 24.9257 11.5202C23.6034 11.2244 22.1673 11.0042 20.6638 10.8674C19.7879 9.65817 18.8804 8.55863 17.9694 7.60695C19.3051 6.35843 22.2892 3.64532 24.2572 4.74576Z" fill="#53C1DE"/>
</svg>
