<svg width="34" height="34" viewBox="0 0 34 34" fill="none" xmlns="http://www.w3.org/2000/svg">
<circle cx="17" cy="17" r="14.875" fill="#FF3366"/>
<path d="M12.0693 11.5381C13.0962 11.5381 13.9287 10.7056 13.9287 9.67871C13.9287 8.65181 13.0962 7.81934 12.0693 7.81934C11.0424 7.81934 10.21 8.65181 10.21 9.67871C10.21 10.7056 11.0424 11.5381 12.0693 11.5381Z" fill="white"/>
<path d="M8.18457 13.1318L7.53711 15.5059H9.66211C9.236 17.238 8.34395 20.8814 8.18457 21.5986C7.98535 22.4951 7.9521 25.0518 10.6416 25.0518C12.5188 25.0518 13.7161 23.8391 14.384 22.8489L13.8789 24.8691H16.9004L18.4775 18.4854C18.7017 17.4233 19.2292 15.373 21.1338 15.373C23.399 15.373 22.5679 18.0554 22.1607 19.3699C22.1441 19.4234 22.1282 19.4747 22.1133 19.5234C21.8078 20.5195 21.4824 21.6816 21.4824 22.4785C21.4824 23.375 21.8975 25.0518 24.2217 25.0518C26.5459 25.0518 27.5365 22.7497 27.7412 21.5986L26.5625 21.1172C26.4795 21.7314 25.7324 23.0596 25.0352 23.0596C24.0806 23.0596 24.5601 21.4503 25.0718 19.7328C25.2988 18.971 25.5321 18.188 25.6494 17.5146C25.946 15.8122 25.6494 12.916 22.6943 12.916C20.859 12.916 19.4178 14.5515 18.7322 15.6868L19.3076 13.1318H14.709L14.0781 15.5059H16.2197C16.2197 15.5059 14.9489 20.6851 14.8667 20.8474C14.0034 22.5532 12.6977 23.1258 11.7207 23.0596C10.9371 23.0064 11.029 22.0635 11.1729 21.5986L13.2979 13.1318H8.18457Z" fill="white"/>
</svg>
