<svg width="34" height="34" viewBox="0 0 34 34" fill="none" xmlns="http://www.w3.org/2000/svg">
<path fill-rule="evenodd" clip-rule="evenodd" d="M19.2618 12.3516C20.0555 12.8485 20.6245 13.5302 20.9994 14.3541C21.0889 14.4814 21.029 14.5528 20.8491 14.5956C19.9061 14.8222 19.2618 14.9931 18.334 15.2198C18.1094 15.2773 18.0942 15.2913 17.8992 15.0785C17.6755 14.837 17.51 14.6801 17.1959 14.538C16.252 14.0978 15.3384 14.2259 14.4848 14.7516C13.4666 15.3767 12.9423 16.299 12.9575 17.4498C12.9727 18.5858 13.7959 19.5229 14.9796 19.679C15.9978 19.8071 16.8514 19.4663 17.5252 18.7418C17.6594 18.5858 17.7793 18.4158 17.9296 18.217H15.0396C14.7246 18.217 14.6495 18.0322 14.7551 17.7898C14.9492 17.3504 15.3089 16.612 15.5183 16.2424C15.5515 16.1733 15.6046 16.1151 15.6712 16.0748C15.7377 16.0346 15.8149 16.0141 15.8932 16.0157L20.7122 16.0148C20.9287 15.3645 21.2795 14.7507 21.7483 14.1693C22.8408 12.8058 24.1587 12.0961 25.9411 11.798C27.4684 11.5417 28.9062 11.6846 30.209 12.5216C31.3918 13.2887 32.1255 14.3262 32.3205 15.6888C32.5746 17.6067 31.9904 19.1681 30.5982 20.5028C29.6095 21.4548 28.3971 22.0512 27.004 22.3205C26.5996 22.392 26.1952 22.406 25.806 22.4487C24.4433 22.4199 23.2005 22.0512 22.1518 21.1985C21.4146 20.5944 20.9064 19.8507 20.6541 18.9859C20.4772 19.3261 20.2669 19.6487 20.026 19.9493C18.9478 21.2988 17.5404 22.1366 15.7581 22.3641C14.2907 22.5481 12.928 22.2787 11.73 21.4261C10.6214 20.631 9.99237 19.5796 9.82774 18.2737C9.63358 16.7254 10.1123 15.334 11.101 14.1126C12.1639 12.7918 13.5713 11.954 15.2937 11.6559C16.7011 11.4144 18.0495 11.5704 19.2618 12.3516ZM26.2703 14.3541C24.8772 14.6522 23.9798 15.49 23.6496 16.8247C23.5161 17.3587 23.5813 17.9215 23.8336 18.413C24.0859 18.9045 24.5089 19.2929 25.0275 19.509C25.8507 19.849 26.6738 19.8072 27.4684 19.4236C28.6512 18.8412 29.2954 17.9328 29.3697 16.7114C29.3554 16.5266 29.3554 16.3845 29.325 16.2424C29.0556 14.837 27.693 14.0411 26.2703 14.3541ZM8.61537 16.9381C8.67443 16.9381 8.70485 16.9817 8.70485 17.0383L8.67443 17.3783C8.67443 17.4359 8.61537 17.4786 8.56974 17.4786L5.30574 17.4638C5.2458 17.4638 5.23059 17.421 5.26101 17.3783L5.47038 17.0235C5.4999 16.9808 5.55985 16.9381 5.6198 16.9381H8.61627H8.61537ZM8.94464 15.6321C9.00458 15.6321 9.03411 15.6748 9.0189 15.7176L8.8999 16.0576C8.88469 16.1151 8.82474 16.143 8.7648 16.143L1.68117 16.1578C1.62122 16.1578 1.6069 16.129 1.63643 16.0863L1.95138 15.7027C1.9809 15.66 2.05606 15.6321 2.11601 15.6321H8.94464ZM9.72306 14.3253C9.78301 14.3253 9.79822 14.368 9.76779 14.4107L9.51369 14.7795C9.48327 14.8231 9.40901 14.8649 9.36337 14.8649L3.94306 14.851C3.88311 14.851 3.8679 14.8222 3.89832 14.7795L4.21148 14.3959C4.2419 14.3541 4.31706 14.3262 4.37701 14.3262H9.72306V14.3253Z" fill="#00ACD7"/>
</svg>
