<svg width="34" height="34" viewBox="0 0 34 34" fill="none" xmlns="http://www.w3.org/2000/svg">
<path fill-rule="evenodd" clip-rule="evenodd" d="M16.9735 27.2427C17.378 27.5679 17.8522 27.7074 18.3631 27.7326C18.5751 27.7431 18.7925 27.7326 19.001 27.696C19.3317 27.6387 19.6588 27.5634 19.9808 27.4702C20.6348 27.2784 21.2003 26.9463 21.6217 26.4093C21.8624 26.1041 22.0601 25.7728 22.1863 25.4067C22.293 25.1058 22.3867 24.8007 22.4672 24.4922C22.5299 24.2489 22.5603 23.9979 22.5979 23.7494C22.6229 23.5846 22.6372 23.4181 22.6533 23.2525C22.6784 22.984 22.7052 22.7155 22.7231 22.4452C22.7357 22.2578 22.7357 22.0695 22.7428 21.8812C22.7455 21.8245 22.7544 21.7678 22.7607 21.7103C22.7652 21.658 22.7929 21.6388 22.8484 21.6405C23.0434 21.6432 23.2385 21.6475 23.4327 21.6388C23.651 21.6301 23.8711 21.6205 24.0858 21.5856C24.39 21.5359 24.6942 21.4723 24.994 21.3964C25.3474 21.3066 25.6713 21.1445 25.9844 20.9605C26.3477 20.7469 26.6797 20.4959 26.9481 20.1724C27.1825 19.8908 27.2934 19.5639 27.2371 19.2082C27.1548 18.6904 26.7092 18.3513 26.1902 18.3277C26.0014 18.3199 25.8109 18.3391 25.6239 18.3626C25.3966 18.3905 25.1738 18.4402 24.9474 18.4733C24.7918 18.496 24.6343 18.5056 24.4777 18.5213L24.4741 18.5021C24.7649 17.9668 25.0673 17.4376 25.342 16.8945C25.5541 16.4778 25.7348 16.0471 25.9209 15.6182C26.2296 14.9094 26.4757 14.178 26.6814 13.4352C26.8765 12.7238 27.0438 12.0046 27.0966 11.2662C27.1172 10.9715 27.1324 10.6751 27.1306 10.3804C27.1288 10.1451 27.1029 9.90967 27.0787 9.67428C27.0519 9.40577 26.9678 9.15121 26.8523 8.90536C26.7002 8.5828 26.464 8.3169 26.2162 8.06495C26.0175 7.86357 25.7983 7.67962 25.5818 7.49654C25.2722 7.235 24.9251 7.0249 24.5645 6.83921C24.1554 6.62737 23.722 6.46349 23.2734 6.351C23.0001 6.28413 22.725 6.22424 22.4484 6.17141C22.35 6.15136 22.2516 6.10254 22.1523 6.10254H20.2877C20.2205 6.10254 20.1534 6.14613 20.0854 6.1531C19.6394 6.20039 19.199 6.28884 18.7702 6.41726C18.6091 6.46608 18.4642 6.43731 18.3121 6.42336C18.1949 6.4129 18.0794 6.38413 17.9631 6.37803C17.5184 6.3571 17.0738 6.32572 16.63 6.33008C16.2034 6.33747 15.7797 6.40021 15.3702 6.51664C15.0257 6.61254 14.6875 6.72849 14.3788 6.90546C14.2464 6.98131 14.1408 6.96649 14.0039 6.929C13.5445 6.79788 13.0811 6.68042 12.6144 6.5768C12.321 6.51808 12.0243 6.47616 11.7259 6.45126C11.4405 6.42162 11.1533 6.40505 10.867 6.39895C10.5865 6.38998 10.3057 6.3961 10.0259 6.41726C9.58209 6.45489 9.14462 6.54505 8.72318 6.68577C8.25627 6.84109 7.81995 7.07282 7.43297 7.371C7.04363 7.67545 6.71671 8.04871 6.46934 8.47121C6.20513 8.91607 6.01403 9.39849 5.90297 9.90095C5.84034 10.1729 5.8636 10.4537 5.82065 10.73C5.80723 10.8163 5.83407 10.9026 5.83407 10.9881V12.1938C5.83407 12.2731 5.80992 12.3533 5.82065 12.4344C5.84571 12.6271 5.83676 12.8215 5.87076 13.0133C5.92355 13.3175 5.97097 13.62 6.03449 13.9208C6.12397 14.3427 6.20986 14.7629 6.30918 15.1823C6.38076 15.4874 6.45949 15.7908 6.54539 16.0924C6.67602 16.5536 6.80397 17.0148 6.9516 17.4699C7.08939 17.8936 7.24686 18.3112 7.40344 18.7287C7.61997 19.3059 7.87944 19.8647 8.19081 20.4C8.45923 20.8638 8.76702 21.2979 9.17949 21.6554C9.45239 21.8907 9.75392 22.0712 10.1064 22.1619C10.3838 22.2325 10.6648 22.2412 10.9475 22.1845C11.2768 22.1192 11.5675 21.9814 11.8261 21.7748C11.8565 21.7513 11.8888 21.7329 11.9245 21.7765C12.0579 21.9422 12.2368 22.052 12.4238 22.1471C12.9293 22.4042 13.4805 22.4818 14.0397 22.5132C14.1757 22.5202 14.3126 22.501 14.4486 22.4975C14.7152 22.4905 14.9738 22.44 15.227 22.3685C15.3612 22.331 15.491 22.2831 15.627 22.2386C15.6341 22.3798 15.6431 22.5149 15.6475 22.6501L15.6654 23.3894C15.6699 23.5018 15.6744 23.6143 15.6851 23.7259C15.712 24.0153 15.7388 24.3039 15.7746 24.5916C15.7988 24.7895 15.8247 24.99 15.873 25.1835C15.9688 25.5741 16.0994 25.9542 16.2649 26.323C16.4278 26.6847 16.6622 26.9907 16.9753 27.2427H16.9735ZM16.1647 23.5585C16.1487 23.2117 16.1368 22.8647 16.1289 22.5176C16.12 22.0904 16.1164 21.6632 16.1101 21.2369L16.1092 21.2203C15.8855 21.3511 15.6672 21.4932 15.4346 21.6109C15.1626 21.7486 14.8673 21.8288 14.5613 21.8515C14.3217 21.8744 14.0806 21.8794 13.8402 21.8663C13.4483 21.835 13.0573 21.7757 12.7065 21.5874C12.5643 21.5115 12.4158 21.4182 12.3182 21.2971C12.0829 21.005 12.1957 20.6362 12.55 20.4584C12.7942 20.3363 13.0618 20.284 13.3266 20.2247C13.5565 20.1724 13.7865 20.114 14.0111 20.0417C14.2339 19.9719 14.3734 19.7958 14.5121 19.6232L14.7322 19.3477L14.4683 19.3216C14.2084 19.296 13.9545 19.2291 13.7167 19.1237C13.5127 19.0356 13.5091 19.026 13.3588 19.1847C13.1083 19.4488 12.8658 19.7208 12.6198 19.9902C12.439 20.1881 12.2601 20.3878 12.0802 20.5865C11.9013 20.7827 11.7349 20.9902 11.5434 21.1733C11.2589 21.4453 10.9153 21.6083 10.5055 21.59C10.2466 21.5756 9.9973 21.4894 9.78702 21.3415C9.33965 21.039 9.03992 20.6144 8.76613 20.1698C8.42332 19.5975 8.13864 18.994 7.91613 18.3678C7.75597 17.9363 7.59581 17.5047 7.45713 17.0671C7.06839 15.8219 6.75058 14.5568 6.50513 13.2774C6.45144 12.9941 6.41923 12.7064 6.37539 12.4204C6.31892 12.0365 6.30273 11.648 6.32707 11.2609C6.34586 10.9122 6.39686 10.5653 6.44786 10.22C6.51944 9.74054 6.68049 9.28982 6.91313 8.86351C7.28794 8.17327 7.89473 7.62944 8.63192 7.32305C8.9502 7.19167 9.28279 7.09603 9.62328 7.03797C10.1279 6.94208 10.6379 6.94644 11.147 6.95603C11.3707 6.96126 11.5926 6.99962 11.8145 7.02228C12.2941 7.06849 12.7638 7.167 13.2282 7.28818C13.5664 7.37536 13.8974 7.49044 14.2321 7.58982C14.2661 7.60028 14.3153 7.59854 14.343 7.5811C14.7941 7.29697 15.2957 7.09739 15.822 6.99264C16.024 6.95424 16.2285 6.93006 16.434 6.92028C16.6828 6.90546 16.9351 6.89064 17.1829 6.90546C17.4818 6.92203 17.7797 6.96474 18.0768 7.00398C18.2208 7.02315 18.3613 7.07197 18.5062 7.08505C18.5751 7.09203 18.6494 7.04233 18.721 7.02577C19.095 6.94208 19.4663 6.8488 19.8421 6.78167C20.1221 6.73285 20.4093 6.71018 20.6939 6.69449C21.0115 6.67618 21.3309 6.6631 21.6485 6.67792C22.0503 6.6971 22.4484 6.7529 22.8421 6.84182C23.3289 6.95254 23.7968 7.11208 24.2406 7.33526C24.5742 7.4983 24.8871 7.69871 25.1729 7.93244C25.359 8.08849 25.5496 8.24192 25.7178 8.41541C25.9254 8.629 26.1365 8.84259 26.2672 9.11721C26.3656 9.32382 26.4354 9.53828 26.4551 9.76408C26.4783 10.0457 26.5079 10.3281 26.5052 10.6097C26.5025 10.8791 26.4649 11.1485 26.4381 11.417C26.3772 12.0299 26.2412 12.6288 26.0739 13.2207C25.937 13.7089 25.7769 14.1919 25.6033 14.6697C25.4431 15.1099 25.2588 15.5415 25.0718 15.9721C24.934 16.2903 24.7855 16.6051 24.6244 16.9128C24.3257 17.4989 23.9953 18.0693 23.6349 18.6215C23.5713 18.7157 23.5114 18.8133 23.4497 18.9092C23.6098 19.0147 23.7914 19.0522 23.974 19.0714C24.1475 19.0897 24.3247 19.101 24.4983 19.0888C24.7765 19.0679 25.053 19.0295 25.3304 18.992C25.6042 18.9545 25.8717 18.8787 26.1535 18.8987C26.4336 18.9188 26.6349 19.1263 26.6161 19.3826C26.6006 19.5407 26.5302 19.6889 26.4166 19.8028C25.895 20.3642 25.2391 20.7042 24.4902 20.8716C23.9583 20.9823 23.4144 21.0292 22.8708 21.0111C22.6882 21.005 22.5066 20.964 22.3196 20.9379C22.3008 21.1044 22.2829 21.2779 22.2614 21.4522L22.1738 22.1157C22.1469 22.3266 22.1272 22.5376 22.0995 22.7477C22.0727 22.9526 22.0395 23.1557 22.0118 23.3597C21.9859 23.5498 21.9671 23.7407 21.9375 23.9307C21.8928 24.2219 21.8508 24.5131 21.7917 24.8025C21.7275 25.148 21.6088 25.4818 21.4401 25.792C21.2316 26.1638 20.9192 26.4704 20.5391 26.676C20.1427 26.8966 19.7079 27.0117 19.2685 27.1076C18.9574 27.1727 18.6377 27.19 18.321 27.159C18.0573 27.1405 17.8001 27.0699 17.5652 26.9515C17.3304 26.8331 17.1226 26.6694 16.9548 26.4703C16.6154 26.084 16.3919 25.614 16.3088 25.112C16.2694 24.8688 16.2417 24.6238 16.2193 24.378C16.195 24.1052 16.1768 23.832 16.1647 23.5585ZM16.7794 20.0539C16.783 20.2352 16.7633 20.4183 16.7642 20.6005C16.7678 21.4487 16.774 22.2979 16.7821 23.1461C16.783 23.2856 16.7901 23.4251 16.8 23.5628C16.8214 23.8532 16.8429 24.1435 16.8715 24.432C16.8921 24.6378 16.9208 24.8426 16.9539 25.0466C17.0013 25.3343 17.1355 25.5924 17.2885 25.8382C17.4209 26.0492 17.5927 26.2288 17.8182 26.3526C18.202 26.5627 18.6145 26.5801 19.0305 26.5025C19.3115 26.4502 19.588 26.3665 19.8609 26.2802C20.1224 26.2025 20.3615 26.0659 20.5587 25.8814C20.756 25.697 20.9059 25.4698 20.9963 25.2184C21.1743 24.7467 21.2289 24.2498 21.3032 23.7573C21.33 23.5724 21.3542 23.3876 21.3792 23.2028L21.4642 22.5725L21.5233 22.1017C21.551 21.8777 21.5805 21.6527 21.6074 21.4278C21.628 21.2535 21.6459 21.0791 21.6638 20.9047C21.687 20.6816 21.7121 20.4593 21.7327 20.2352C21.7479 20.0661 21.7416 19.8943 21.7729 19.7278C21.8293 19.4227 21.9778 19.1638 22.2552 18.9955C22.3715 18.9258 22.5021 18.8796 22.631 18.8212L22.6086 18.788C22.4896 18.6372 22.367 18.4899 22.2507 18.3373C22.0682 18.0993 21.9367 17.8325 21.8033 17.5658C21.6781 17.3121 21.526 17.0723 21.3935 16.8213C21.1636 16.3845 20.9283 15.9477 20.7162 15.5031C20.4496 14.9425 20.2393 14.3628 20.1731 13.7421C20.1454 13.4805 20.1373 13.2181 20.1928 12.9575C20.2805 12.5425 20.5024 12.2182 20.8764 11.995C21.2244 11.7884 21.6101 11.7221 22.0073 11.7012C22.2525 11.6881 22.4994 11.6986 22.7553 11.6986L22.7464 11.6567C22.588 11.3333 22.4395 11.0038 22.2659 10.6891C22.0163 10.2471 21.7112 9.83713 21.3578 9.46854C21.1002 9.19115 20.8172 8.93727 20.5122 8.71008C20.2127 8.48627 19.8918 8.29097 19.554 8.12685C19.1506 7.93143 18.7247 7.78391 18.2852 7.68746C17.8624 7.59313 17.4306 7.54199 16.9968 7.5349C16.6265 7.52335 16.2562 7.55496 15.8936 7.62905C15.3478 7.75198 14.8468 7.97167 14.4128 8.32649C14.1723 8.52304 13.9574 8.7476 13.7731 8.99515C13.558 9.28748 13.3757 9.60137 13.2291 9.93146C13.0233 10.3848 12.8819 10.8556 12.7844 11.3394C12.7361 11.5809 12.6985 11.8241 12.66 12.0674C12.6466 12.1528 12.6457 12.24 12.6377 12.3376L12.8023 12.2539L12.9633 12.1842C13.5091 11.9401 14.0728 11.784 14.6794 11.8023C14.9371 11.8093 15.1841 11.8599 15.4131 11.9697C15.8533 12.1807 16.1101 12.5399 16.222 12.9941C16.2989 13.3079 16.3517 13.6279 16.4036 13.9469C16.4439 14.1963 16.4841 14.4482 16.4895 14.6993C16.4958 15.0672 16.477 15.4351 16.4564 15.8021C16.4385 16.116 16.3723 16.4228 16.2595 16.7149C16.0555 17.2458 15.8283 17.768 15.6162 18.2955C15.5464 18.4698 15.4928 18.6503 15.4265 18.8421H15.695C15.7263 18.8429 15.7594 18.8438 15.7907 18.8508C16.035 18.9075 16.247 19.0147 16.4197 19.1978C16.6523 19.4401 16.7731 19.7243 16.7794 20.053V20.0539ZM12.1232 17.5361C11.9853 17.2195 11.9021 16.8828 11.8771 16.5397C11.8539 16.2154 11.8932 15.8937 11.9272 15.5711C11.9603 15.259 11.9881 14.9452 11.9979 14.6322C12.0131 14.1161 11.9782 13.6017 11.9532 13.0865C11.938 12.7796 11.9738 12.4693 12.0024 12.1624C12.0619 11.4193 12.2269 10.6879 12.4927 9.989C12.6538 9.57315 12.8399 9.16951 13.1011 8.80597C13.281 8.55664 13.4841 8.32387 13.68 8.07977L13.6219 8.05972C12.9881 7.85561 12.3345 7.71539 11.6713 7.64126C11.3582 7.60987 11.0414 7.59157 10.7265 7.57326C10.629 7.56715 10.5305 7.58023 10.4339 7.58895C10.1923 7.61162 9.94897 7.62033 9.71276 7.6648C9.31013 7.73977 8.9227 7.86531 8.56481 8.06931C8.2436 8.25326 7.97428 8.49039 7.74792 8.77546C7.49739 9.08931 7.32918 9.445 7.20839 9.82336C7.07071 10.269 6.994 10.7304 6.98023 11.1956C6.96413 11.6027 6.95607 12.0116 7.02855 12.4169C7.08223 12.7186 7.11802 13.0246 7.17618 13.3254C7.37809 14.3208 7.61895 15.3084 7.89823 16.286C8.06107 16.8352 8.2436 17.3792 8.44223 17.918C8.60328 18.3574 8.79118 18.788 8.98802 19.2135C9.11686 19.4907 9.27255 19.7575 9.43539 20.0155C9.60897 20.2919 9.8067 20.5534 10.0742 20.7531C10.4124 21.0059 10.6737 21.0451 11.0173 20.7679C11.164 20.6493 11.2884 20.5028 11.4163 20.3634C11.6194 20.1419 11.8154 19.9135 12.0185 19.6912C12.2762 19.4079 12.5374 19.1272 12.796 18.8456L12.9571 18.6642L12.8676 18.5884C12.5482 18.2909 12.2949 17.9328 12.1232 17.5361ZM21.8964 9.0989C22.1067 9.33951 22.3107 9.5871 22.4985 9.84515C22.8627 10.3429 23.1535 10.8808 23.3682 11.4562C23.4631 11.7099 23.5382 11.9662 23.5051 12.2443C23.481 12.4387 23.4828 12.6358 23.4658 12.8311C23.4505 12.9932 23.4246 13.1554 23.4031 13.3175C23.37 13.5616 23.3235 13.8057 23.3092 14.0507C23.2958 14.2852 23.3101 14.5215 23.3253 14.7551C23.3405 14.9931 23.3736 15.2294 23.396 15.4665C23.421 15.7367 23.455 16.0053 23.4631 16.2755C23.4693 16.497 23.4488 16.7201 23.4291 16.9407C23.4039 17.206 23.3379 17.4661 23.2331 17.7122C23.1607 17.8866 23.0739 18.0557 22.9915 18.2301L23.0247 18.2641L23.0748 18.3016L23.1258 18.2144C23.5508 17.5605 23.9301 16.8805 24.2576 16.1753C24.4688 15.7219 24.6665 15.2616 24.8562 14.7978C25.1514 14.0768 25.3859 13.3367 25.5666 12.58C25.6471 12.2408 25.7098 11.8965 25.7652 11.5521C25.8082 11.2827 25.844 11.0107 25.852 10.7387C25.8579 10.4495 25.846 10.1601 25.8162 9.87218C25.7957 9.6551 25.7411 9.43628 25.6015 9.26018C25.3778 8.97597 25.1353 8.70485 24.8374 8.48951C24.5869 8.30818 24.3363 8.12249 24.067 7.9708C23.6386 7.73447 23.1763 7.56198 22.6954 7.45905C22.2262 7.35647 21.7473 7.30183 21.2665 7.29603C20.9829 7.28992 20.6983 7.31956 20.4165 7.34572C20.1597 7.36926 19.9056 7.40936 19.647 7.44162C19.9244 7.59418 20.1973 7.72931 20.4541 7.88798C20.9948 8.21873 21.4811 8.62728 21.8964 9.09977V9.0989ZM14.8655 18.4506C15.0409 17.9058 15.2789 17.3853 15.5098 16.8614C15.6977 16.4368 15.7988 15.9896 15.8328 15.5301C15.8473 15.3025 15.8476 15.0743 15.8337 14.8466C15.8223 14.594 15.7984 14.3421 15.7621 14.0917C15.7165 13.7716 15.6562 13.4536 15.5813 13.1388C15.4972 12.7997 15.2861 12.5634 14.9219 12.4762C14.7037 12.4271 14.4776 12.4215 14.2571 12.4597C13.7113 12.5434 13.2103 12.7395 12.745 13.0272C12.6511 13.0847 12.5992 13.1318 12.6153 13.2626C12.6493 13.5407 12.6573 13.8223 12.6555 14.1021C12.6538 14.4988 12.6368 14.8955 12.6215 15.2921C12.6162 15.4212 12.5974 15.5493 12.5831 15.6783C12.5607 15.8754 12.5187 16.0715 12.5204 16.2685C12.5213 16.4708 12.5428 16.6783 12.5929 16.8744C12.754 17.4969 13.0931 18.0052 13.6487 18.3652C13.9873 18.5817 14.3803 18.7038 14.785 18.7183C14.8119 18.625 14.8387 18.5378 14.8655 18.4506ZM14.2124 13.1144C14.139 12.9644 14.1811 12.8406 14.3511 12.7831C14.3922 12.7692 14.4352 12.7535 14.4772 12.7491C14.5372 12.7439 14.5971 12.7482 14.6562 12.7482C14.8718 12.7491 15.0785 12.7787 15.2557 12.9113C15.3702 12.9976 15.4006 13.1109 15.3272 13.2277C15.2787 13.3053 15.2112 13.37 15.1308 13.4161C15.0505 13.4622 14.9596 13.4882 14.8664 13.4919C14.5578 13.5163 14.3412 13.3759 14.2133 13.1144H14.2124ZM22.775 13.0595L22.8457 12.4605C22.8555 12.3803 22.8126 12.3585 22.7437 12.3559C22.5263 12.3507 22.3098 12.3437 22.0923 12.3394C21.8498 12.333 21.6086 12.3755 21.3837 12.464C21.1323 12.5652 20.9408 12.7256 20.863 12.9923C20.8055 13.1888 20.7873 13.3942 20.8093 13.5974C20.8406 13.9138 20.9131 14.2216 21.0267 14.5154C21.1788 14.9094 21.3372 15.3035 21.5278 15.6809C21.7845 16.1918 22.0753 16.6861 22.3491 17.1892C22.4216 17.3234 22.4833 17.4646 22.5594 17.6207C22.7129 17.3092 22.7967 16.9696 22.8054 16.6242C22.8126 16.3383 22.7893 16.0515 22.7723 15.7655C22.7616 15.5912 22.7365 15.4168 22.7187 15.2424C22.6945 14.9992 22.6578 14.756 22.6524 14.5127C22.6502 14.2642 22.6615 14.0156 22.6864 13.7682C22.7061 13.5311 22.7464 13.2957 22.7759 13.0595H22.775ZM22.2865 12.8677C22.2511 12.9674 22.1875 13.0555 22.1032 13.1217C22.0189 13.188 21.9172 13.2299 21.8096 13.2425C21.7112 13.2593 21.61 13.2491 21.5171 13.2133C21.4243 13.1774 21.3434 13.1173 21.2835 13.0394C21.186 12.9235 21.2235 12.7866 21.3685 12.709C21.5349 12.6192 21.7174 12.5965 21.9331 12.5835C21.9921 12.5939 22.0798 12.6026 22.1639 12.6253C22.2856 12.6593 22.3303 12.7482 22.2865 12.8677ZM15.8381 19.5474C15.7191 19.4515 15.5608 19.4462 15.448 19.5508C15.3075 19.6807 15.1832 19.8281 15.0597 19.9745C14.9165 20.1428 14.7823 20.318 14.5989 20.4488C14.3305 20.6388 14.0173 20.7182 13.7033 20.7923C13.4528 20.8516 13.2022 20.9065 12.9517 20.9632L12.9481 20.9954C13.0224 21.0285 13.0949 21.0704 13.1718 21.0948C13.5548 21.2125 13.9431 21.2709 14.3475 21.2378C14.6392 21.2134 14.9165 21.1506 15.1796 21.0294C15.542 20.8629 15.8211 20.5979 16.0582 20.2893C16.0969 20.2315 16.1186 20.1646 16.1209 20.0957C16.1361 19.8612 16.0144 19.6868 15.8381 19.5465V19.5474ZM22.8162 19.4454C22.6283 19.5064 22.4762 19.6005 22.4314 19.7976C22.4001 19.9309 22.3885 20.0696 22.3769 20.2064C22.3742 20.2308 22.4055 20.2753 22.4288 20.2814C22.5728 20.318 22.7178 20.3616 22.8654 20.3747C23.047 20.3913 23.2322 20.386 23.4139 20.3773C23.6107 20.3677 23.8093 20.3546 24.0044 20.3233C24.4616 20.2483 24.9045 20.1262 25.2982 19.8734C25.4395 19.7819 25.58 19.6886 25.7214 19.5962L25.7098 19.577C25.5594 19.5988 25.4091 19.6249 25.2579 19.6406C24.951 19.6729 24.6432 19.7069 24.3345 19.7235C24.1851 19.7322 24.0339 19.7043 23.8836 19.6921C23.6322 19.6729 23.3852 19.618 23.1723 19.4863C23.1211 19.4511 23.0618 19.4289 22.9996 19.4218C22.9374 19.4146 22.8743 19.4227 22.8162 19.4454Z" fill="#336791"/>
</svg>
