<svg width="34" height="34" viewBox="0 0 34 34" fill="none" xmlns="http://www.w3.org/2000/svg">
<circle cx="16" cy="16" r="14" fill="#028CB0"/>
<path d="M6.85885 17C6.85885 21.0187 9.19635 24.48 12.5767 26.1252L7.7399 12.8734C7.1591 14.1716 6.85887 15.5778 6.85885 17ZM17 27.1412C18.1777 27.1412 19.3105 26.9344 20.3714 26.5658L20.2995 26.4309L17.1798 17.89L14.1411 26.7276C15.0401 26.9973 16.0021 27.1412 17 27.1412ZM18.3935 12.2441L22.0616 23.1494L23.0775 19.769C23.509 18.3665 23.8417 17.3596 23.8417 16.4875C23.8417 15.2289 23.3922 14.3658 23.0146 13.7005C22.4931 12.8554 22.0166 12.1452 22.0166 11.3181C22.0166 10.3831 22.7179 9.52 23.7248 9.52H23.8507C21.9821 7.80455 19.5366 6.85462 17 6.85885C15.3204 6.85853 13.6671 7.27575 12.1888 8.07297C10.7105 8.87019 9.45356 10.0224 8.53106 11.426L9.17837 11.4439C10.2392 11.4439 11.8755 11.3091 11.8755 11.3091C12.4329 11.2821 12.4958 12.0823 11.9474 12.1452C11.9474 12.1452 11.399 12.2171 10.7787 12.2441L14.4827 23.2303L16.7033 16.5775L15.121 12.2441C14.7666 12.2245 14.4128 12.1945 14.0601 12.1542C13.5117 12.1182 13.5747 11.2821 14.1231 11.3091C14.1231 11.3091 15.7953 11.4439 16.7932 11.4439C17.8541 11.4439 19.4903 11.3091 19.4903 11.3091C20.0388 11.2821 20.1107 12.0823 19.5623 12.1452C19.5623 12.1452 19.0138 12.2081 18.3935 12.2441ZM22.0975 25.7656C23.6317 24.8736 24.9049 23.5946 25.79 22.0564C26.675 20.5182 27.1409 18.7746 27.1412 17C27.1412 15.2379 26.6916 13.5837 25.9005 12.1362C26.0611 13.7287 25.82 15.336 25.1992 16.8112L22.0975 25.7656ZM17 28.6875C13.9003 28.6875 10.9275 27.4561 8.73569 25.2643C6.54386 23.0725 5.3125 20.0997 5.3125 17C5.3125 13.9003 6.54386 10.9275 8.73569 8.73569C10.9275 6.54386 13.9003 5.3125 17 5.3125C20.0997 5.3125 23.0725 6.54386 25.2643 8.73569C27.4561 10.9275 28.6875 13.9003 28.6875 17C28.6875 20.0997 27.4561 23.0725 25.2643 25.2643C23.0725 27.4561 20.0997 28.6875 17 28.6875Z" fill="white"/>
</svg>
