<svg width="34" height="34" viewBox="0 0 34 34" fill="none" xmlns="http://www.w3.org/2000/svg">
<circle cx="16" cy="16" r="14" fill="#8892BF"/>
<path d="M15.3416 10.625H17.1267L16.6222 13.307H18.2262C19.1058 13.3258 19.7611 13.5224 20.1923 13.8967C20.6321 14.2711 20.7615 14.9827 20.5804 16.0311L19.7137 20.707H17.9028L18.7306 16.2417C18.8168 15.7736 18.7909 15.4413 18.653 15.2448C18.5151 15.0482 18.2176 14.9499 17.7605 14.9499L16.3247 14.9358L15.264 20.707H13.479L15.3416 10.625Z" fill="white"/>
<path fill-rule="evenodd" clip-rule="evenodd" d="M7.16223 13.307H10.6288C11.6463 13.3163 12.3836 13.6348 12.8408 14.2619C13.2979 14.889 13.4487 15.7455 13.2935 16.8315C13.2332 17.3278 13.0995 17.8144 12.8925 18.2919C12.6941 18.7693 12.4183 19.1998 12.0646 19.5837C11.6334 20.0704 11.1721 20.3793 10.6806 20.5105C10.189 20.6416 9.68019 20.7071 9.15424 20.7071H7.60202L7.11048 23.375H5.3125L7.16223 13.307ZM7.89953 19.1203L8.67305 14.9218H8.93434C9.02928 14.9218 9.12837 14.9171 9.23185 14.9078C9.9218 14.8985 10.4951 14.9687 10.9522 15.1184C11.4179 15.2681 11.5731 15.8346 11.4179 16.8175C11.2283 17.9877 10.8573 18.671 10.3055 18.8676C9.75365 19.0549 9.06369 19.1436 8.23584 19.1344H8.05475C8.00301 19.1344 7.95127 19.1296 7.89953 19.1203Z" fill="white"/>
<path fill-rule="evenodd" clip-rule="evenodd" d="M25.9638 13.307H22.4972L20.6475 23.375H22.4455L22.937 20.7071H24.4892C25.0152 20.7071 25.524 20.6416 26.0156 20.5105C26.5071 20.3793 26.9684 20.0704 27.3996 19.5837C27.7533 19.1998 28.0291 18.7693 28.2275 18.2919C28.4344 17.8144 28.5682 17.3278 28.6285 16.8315C28.7837 15.7455 28.6329 14.889 28.1757 14.2619C27.7186 13.6348 26.9813 13.3163 25.9638 13.307ZM24.008 14.9218L23.2345 19.1203C23.2863 19.1296 23.338 19.1344 23.3897 19.1344H23.5708C24.3987 19.1436 25.0886 19.0549 25.6404 18.8676C26.1923 18.671 26.5632 17.9877 26.7529 16.8175C26.9081 15.8346 26.7529 15.2681 26.2872 15.1184C25.8301 14.9687 25.2568 14.8985 24.5668 14.9078C24.4633 14.9171 24.3643 14.9218 24.2693 14.9218H24.008Z" fill="white"/>
</svg>
