<svg width="34" height="34" viewBox="0 0 34 34" fill="none" xmlns="http://www.w3.org/2000/svg">
<path d="M20.9408 16.0601L14.9593 18.0128L9.75536 20.3099L8.29968 20.6942C7.92871 21.0474 7.53994 21.4035 7.12 21.7655C6.65852 22.1632 6.22968 22.5253 5.89877 22.7879C5.53226 23.0773 4.99064 23.6204 4.71464 23.9632C4.30361 24.4781 3.97716 25.0256 3.83767 25.4455C3.58838 26.2053 3.71155 26.9739 4.19084 27.6832C4.80516 28.5869 6.03084 29.5099 7.45981 30.1375C8.18839 30.4581 9.41258 30.8706 10.3355 31.1006C11.8684 31.4894 14.8346 31.9093 16.4654 31.9731C16.7948 31.9865 17.2385 31.9865 17.2563 31.9731C17.2919 31.9508 17.5457 31.4671 17.8395 30.8661C18.8426 28.8184 19.5667 26.8968 19.9599 25.2556C20.1944 24.2614 20.3799 22.9363 20.503 21.3679C20.5342 20.9286 20.5476 19.4596 20.5208 18.9625C20.4808 18.1493 20.4081 17.489 20.2953 16.8421C20.2775 16.7471 20.273 16.661 20.2819 16.6566C20.2997 16.6432 20.3547 16.6254 21.0907 16.4117L20.9408 16.0601ZM19.5756 16.8613C19.6305 16.8613 19.7745 18.2488 19.8101 19.1257C19.819 19.3112 19.8145 19.4329 19.8056 19.4329C19.77 19.4329 19.0414 19.0041 18.5221 18.6776C18.0695 18.3927 17.2103 17.8229 17.0753 17.7146C17.0293 17.6834 17.0352 17.679 17.4047 17.5514C18.0339 17.3406 19.5252 16.8613 19.5756 16.8613ZM16.5277 17.8644C16.5678 17.8644 16.6717 17.9238 16.921 18.0766C17.8528 18.6598 19.1186 19.3646 19.6602 19.6006C19.8279 19.6733 19.8457 19.6451 19.4614 19.9077C18.6378 20.4686 17.6125 21.0192 16.3556 21.5756C16.1345 21.675 15.949 21.7522 15.9446 21.7522C15.9357 21.7522 15.9624 21.6394 15.9995 21.5029C16.3022 20.3766 16.4743 19.2385 16.4832 18.3244C16.4877 17.8719 16.4877 17.8719 16.5277 17.8585C16.5188 17.8644 16.5233 17.8644 16.5277 17.8644ZM15.9001 18.1048C15.9268 18.1315 15.909 19.145 15.8734 19.421C15.7917 20.0814 15.6656 20.6957 15.4579 21.3872C15.4074 21.5548 15.3629 21.6943 15.354 21.7032C15.3362 21.7255 14.7159 21.1201 14.5126 20.8856C14.1595 20.479 13.885 20.0724 13.6802 19.6733C13.5763 19.47 13.4131 19.0723 13.4265 19.059C13.4992 19.0085 15.8823 18.087 15.9001 18.1048ZM12.9427 19.2667C12.9472 19.2667 12.9516 19.2667 12.9561 19.2712C12.965 19.2801 12.9961 19.3528 13.0243 19.4344C13.1683 19.8276 13.4947 20.4063 13.7752 20.7773C14.0823 21.1839 14.4845 21.6186 14.8198 21.9035C14.9281 21.9941 15.0276 22.0801 15.0409 22.0935C15.0676 22.1202 15.0765 22.1157 14.3405 22.3962C13.4858 22.7212 12.5554 23.0476 11.487 23.3904C11.2318 23.472 10.9781 23.5551 10.7228 23.6397C10.6828 23.653 10.6961 23.6308 10.8134 23.4453C11.3416 22.6173 12.1474 20.9954 12.5985 19.8469C12.6756 19.6481 12.7528 19.4492 12.7661 19.4032C12.7839 19.3394 12.8062 19.3172 12.8656 19.286C12.8982 19.2756 12.9294 19.2667 12.9427 19.2667ZM12.039 19.6421C12.0524 19.651 11.8224 20.1348 11.5954 20.5784C11.1561 21.4332 10.6768 22.2745 10.0358 23.2954C9.92748 23.472 9.82361 23.6352 9.81026 23.653C9.788 23.6842 9.7791 23.6753 9.70639 23.5358C9.55206 23.2331 9.42593 22.8443 9.35768 22.4867C9.28942 22.1335 9.30277 21.5192 9.37994 21.1394C9.43929 20.8589 9.43484 20.8634 9.56987 20.7951C10.1486 20.4998 12.0212 19.6228 12.039 19.6421ZM19.8383 19.9582V20.1481C19.8383 21.1557 19.7299 22.5401 19.5712 23.5477C19.5445 23.7243 19.5207 23.8682 19.5163 23.8726C19.5163 23.8726 19.3857 23.837 19.2314 23.791C18.5532 23.5788 17.8157 23.2672 17.151 22.9007C16.7117 22.6618 16.0752 22.2671 16.093 22.2493C16.0974 22.2448 16.2874 22.1454 16.5085 22.0282C17.3943 21.5667 18.2446 21.0696 18.9821 20.577C19.2581 20.3915 19.6736 20.0932 19.7641 20.0116L19.8383 19.9582ZM8.62613 21.2966C8.64394 21.2966 8.63948 21.3323 8.61277 21.4955C8.59497 21.6127 8.57271 21.8294 8.56381 21.9792C8.52819 22.6395 8.63652 23.1277 8.96148 23.797C9.052 23.9825 9.12471 24.1368 9.12026 24.1412C9.0891 24.1679 6.09613 25.0449 5.15535 25.3031C4.8749 25.3803 4.63155 25.447 4.61226 25.453C4.58109 25.4619 4.57664 25.4574 4.59 25.3803C4.69387 24.7155 5.19987 23.8474 5.90619 23.1159C6.37658 22.6277 6.752 22.3428 7.39303 21.9763C7.85452 21.7136 8.56381 21.3204 8.61871 21.3026C8.61574 21.2966 8.62168 21.2966 8.62613 21.2966ZM15.679 22.5579C15.6834 22.5535 15.7917 22.6128 15.9223 22.6885C16.8898 23.2494 18.2372 23.7688 19.3857 24.0359L19.4896 24.0581L19.3441 24.1397C18.7432 24.4736 16.7666 25.2972 14.7456 26.0525C14.4518 26.1608 14.1625 26.2691 14.1076 26.2914C14.0526 26.3136 14.0037 26.327 14.0037 26.3225C14.0037 26.3181 14.0853 26.1593 14.1892 25.9649C14.7545 24.9069 15.3243 23.6189 15.6137 22.7226C15.6508 22.6395 15.673 22.5624 15.679 22.5579ZM14.9593 22.7924C14.9637 22.7968 14.9281 22.8918 14.8821 23.0001C14.4889 23.9543 13.974 24.9945 13.3137 26.1608C13.146 26.459 13.0065 26.6994 13.0021 26.6994C12.9976 26.6994 12.8626 26.6178 12.6994 26.5184C11.7408 25.9308 10.8905 25.2066 10.3355 24.5063L10.2539 24.4068L10.665 24.2941C12.1385 23.8919 13.3908 23.4572 14.6343 22.9244C14.8109 22.8517 14.9548 22.7924 14.9593 22.7924ZM19.4257 24.3519C19.4257 24.3519 19.4302 24.3564 19.4257 24.3519C19.4302 24.4558 19.2002 25.3877 19.0103 26.0614C18.8515 26.6267 18.7165 27.0689 18.4672 27.8524C18.3588 28.1966 18.2639 28.4815 18.2594 28.4815C18.255 28.4815 18.2283 28.4771 18.2001 28.4682C16.8572 28.2234 15.6552 27.885 14.5245 27.4324C14.2085 27.3063 13.7559 27.103 13.7292 27.0793C13.7203 27.0704 13.9918 26.9443 14.3346 26.7944C16.3912 25.8952 18.525 24.8728 19.2581 24.435C19.3441 24.3801 19.4124 24.3519 19.4257 24.3519ZM9.11432 24.7051C9.12322 24.714 8.54897 25.542 7.74471 26.6668C7.46426 27.06 7.13929 27.5215 7.01761 27.6936C6.89594 27.8657 6.71045 28.1373 6.60658 28.299L6.41664 28.5928L6.21335 28.4207C5.97445 28.2219 5.55748 27.7975 5.372 27.5616C4.98322 27.0778 4.72058 26.5674 4.61671 26.1014C4.56626 25.8848 4.56626 25.7765 4.61226 25.7616C4.68051 25.7438 5.8869 25.4589 7.01761 25.1963C7.64677 25.0523 8.37387 24.8802 8.63651 24.8164C8.89619 24.7541 9.10987 24.7051 9.11432 24.7051ZM9.69303 24.9262L9.83697 25.0894C10.4884 25.818 11.1532 26.3552 11.9574 26.8255C12.1028 26.9072 12.2112 26.9799 12.2008 26.9843C12.1696 27.0066 9.40665 27.9874 8.12755 28.4311C7.40935 28.6848 6.81581 28.8881 6.81135 28.8881C6.8069 28.8881 6.76684 28.8614 6.72084 28.8288L6.63922 28.7694L6.76981 28.5795C7.19419 27.9652 7.72839 27.2915 8.89026 25.8892L9.69303 24.9262ZM13.3003 27.5081C13.3048 27.5037 13.5036 27.5764 13.7485 27.6669C14.3361 27.888 14.802 28.029 15.4252 28.1863C16.1939 28.3806 17.3053 28.5706 17.9612 28.6255C18.0606 28.6344 18.1155 28.6433 18.0962 28.6566C18.065 28.6744 17.4003 28.897 16.9121 29.0499C16.1345 29.2932 13.7603 29.9951 11.8254 30.5516C11.4677 30.6554 11.1606 30.7415 11.1428 30.7459C11.0983 30.7548 10.9484 30.7148 10.9484 30.6955C10.9484 30.6866 11.0567 30.5456 11.1873 30.3928C11.8387 29.6152 12.4842 28.7472 13.0228 27.9236C13.1742 27.6981 13.3003 27.5126 13.3003 27.5081ZM12.505 27.5304C12.5094 27.5348 12.1889 28.0497 11.628 28.9371C11.3876 29.3125 11.122 29.7369 11.027 29.8868C10.9365 30.0307 10.8015 30.2577 10.7243 30.3839L10.5937 30.6139L10.5255 30.5961C10.3623 30.5515 9.21819 30.1479 8.91548 30.0263C8.54006 29.8764 8.15129 29.6968 7.86194 29.5425C7.49987 29.3481 7.04877 29.0588 7.08439 29.0499C7.09329 29.0454 7.71355 28.8777 8.45845 28.6745C10.4394 28.1358 11.5375 27.8242 12.2557 27.5986C12.3877 27.5571 12.5005 27.5259 12.505 27.5304ZM18.1333 28.851H18.1377C18.1556 28.8955 17.424 30.9314 17.1569 31.5725C17.0976 31.7164 17.0753 31.7535 17.0441 31.749C16.967 31.7446 15.9045 31.5947 15.2576 31.4997C14.1313 31.3276 12.2423 30.9982 11.7675 30.8899L11.6592 30.8676L12.3328 30.7133C13.7796 30.3883 14.4756 30.2117 15.1804 29.9951C16.0707 29.7236 16.9521 29.3852 17.8439 28.9683C17.9834 28.9045 18.1021 28.8555 18.1333 28.851Z" fill="url(#paint0_linear_10055_936)"/>
<path d="M14.7741 2.11815C14.6747 2.10479 13.0692 2.6835 12.0349 3.10344C10.6386 3.67324 9.55239 4.21634 8.88316 4.68525C8.63387 4.86183 8.32226 5.17344 8.27329 5.29512C8.25548 5.33963 8.24658 5.39454 8.24658 5.44944L8.852 6.0237L10.2943 6.48518L13.7265 7.0995L17.6514 7.77318L17.6914 7.43338C17.6781 7.43338 17.6692 7.42892 17.6558 7.42892L17.1409 7.34731L17.037 7.16183C16.5029 6.22105 15.9152 5.05473 15.5725 4.26828C15.3054 3.65841 15.0531 2.95208 14.9121 2.44608C14.8335 2.14041 14.8246 2.1226 14.7741 2.11815ZM14.7014 2.34963H14.7059C14.7103 2.35408 14.7281 2.48021 14.7459 2.63008C14.8231 3.2637 14.9626 3.87357 15.1852 4.53389C15.3529 5.03099 15.3528 5.00428 15.1585 4.94492C14.697 4.81879 12.6314 4.46118 11.1342 4.25344C10.8953 4.22228 10.6905 4.18963 10.6905 4.18518C10.6727 4.16737 11.7708 3.59312 12.2545 3.36757C12.8763 3.08118 14.5753 2.37189 14.7014 2.34963ZM10.3433 4.37512L10.5199 4.43447C11.4785 4.75944 13.8883 5.22092 15.2178 5.32925C15.3677 5.3426 15.4938 5.35595 15.4983 5.35595C15.5027 5.36041 15.3766 5.42866 15.2134 5.50583C14.5708 5.82634 13.866 6.21957 13.3778 6.52376C13.2339 6.61428 13.1018 6.68699 13.084 6.68699C13.0662 6.68699 12.9712 6.66918 12.8718 6.65583L12.6908 6.62912L12.2382 6.18544C11.4428 5.41234 10.8181 4.81583 10.5792 4.58879L10.3433 4.37512ZM10.1623 4.5146L10.8003 5.30996C11.149 5.74918 11.5007 6.17802 11.5779 6.27299C11.655 6.36796 11.7174 6.44512 11.7129 6.44957C11.6951 6.46292 10.7899 6.28634 10.3107 6.17802C9.818 6.06525 9.61471 6.01034 9.312 5.91537L9.06271 5.83376V5.76996C9.06716 5.46725 9.45149 5.01466 10.1029 4.55318L10.1623 4.5146ZM15.5799 5.59931C15.5977 5.59931 15.6199 5.63937 15.6749 5.76254C15.8292 6.10086 16.3085 7.01492 16.4257 7.1915C16.4613 7.25086 16.5251 7.25531 15.887 7.15144C14.3542 6.90215 13.8616 6.82202 13.8616 6.81312C13.8616 6.80867 13.9061 6.7775 13.9654 6.74486C14.4403 6.48221 14.9196 6.14834 15.3439 5.79073C15.4478 5.70466 15.5428 5.62305 15.5606 5.6097C15.565 5.59931 15.5739 5.59486 15.5799 5.59931Z" fill="url(#paint1_linear_10055_936)"/>
<path d="M8.304 5.2334C8.304 5.2334 8.20458 5.39217 8.29954 5.62662C8.3589 5.77056 8.52954 5.94714 8.72393 6.12817C8.72393 6.12817 10.7361 8.08985 10.9794 8.37031C12.0908 9.65386 12.5761 10.9196 12.6206 12.6646C12.6473 13.7864 12.4351 14.7717 11.9068 15.9158C10.9661 17.968 8.98213 20.2339 5.9209 22.7476L6.36903 22.5977C6.65838 22.381 7.05161 22.1496 7.97458 21.6436C10.1039 20.4772 12.5004 19.4059 15.4385 18.3019C19.6705 16.7112 26.6283 14.8474 30.5888 14.242L30.9998 14.1782L30.936 14.0788C30.5739 13.5179 30.3261 13.1706 30.0279 12.7997C29.1598 11.7239 28.1063 10.8513 26.8183 10.1272C25.0465 9.13747 22.7539 8.36437 19.8515 7.79011C19.3039 7.68179 18.102 7.47405 17.1256 7.32418C15.0556 7.00366 13.7172 6.78108 12.2422 6.52882C11.7139 6.4383 10.9215 6.30327 10.3977 6.1905C10.1262 6.13114 9.60683 6.00946 9.20025 5.86998C8.8738 5.74533 8.40342 5.61772 8.304 5.2334ZM9.47032 6.36411C9.47477 6.35966 9.54748 6.38637 9.64245 6.41901C9.81458 6.47837 10.0357 6.54514 10.2983 6.61785C10.4972 6.67276 10.696 6.72469 10.8948 6.77663C11.1664 6.84488 11.3919 6.90721 11.3964 6.90721C11.4275 6.93837 11.8846 8.3985 12.0389 8.9594C12.0983 9.1716 12.1428 9.35263 12.1383 9.35263C12.1339 9.35708 12.0834 9.27992 12.0255 9.17605C11.4973 8.24418 10.6604 7.30043 9.6929 6.54069C9.56529 6.45017 9.47032 6.36856 9.47032 6.36411ZM11.6946 6.97992C11.7169 6.97992 11.8163 6.99327 11.938 7.01998C12.7066 7.19211 14.0852 7.45327 14.9666 7.60314C15.1165 7.6254 15.2337 7.65359 15.2337 7.6625C15.2337 7.6714 15.1788 7.70256 15.112 7.73966C14.9621 7.81682 14.3612 8.17295 14.1623 8.30947C13.6608 8.64334 13.2082 9.0054 12.8832 9.33186C12.7526 9.46244 12.6384 9.57076 12.6384 9.57076C12.6384 9.57076 12.6117 9.4936 12.5879 9.39863C12.4247 8.76947 12.0864 7.83908 11.7792 7.18321C11.7288 7.07934 11.6887 6.98437 11.6887 6.97546C11.6902 6.98437 11.6902 6.97992 11.6946 6.97992ZM15.6106 7.72482C15.6373 7.73372 15.6833 7.88805 15.7738 8.22637C15.9415 8.88224 16.0186 9.61379 15.9905 10.2964C15.9815 10.4863 15.9726 10.6629 15.9637 10.6851L15.9504 10.7297L15.7159 10.6525C15.2322 10.4982 14.4457 10.2682 13.7721 10.0782C13.3877 9.97437 13.0761 9.87941 13.0761 9.8705C13.0761 9.84379 13.637 9.28289 13.8759 9.07069C14.3315 8.67005 15.569 7.71147 15.6106 7.72482ZM15.9222 7.77082C15.9355 7.75747 17.7934 8.07798 18.6392 8.24121C19.2683 8.36289 20.1809 8.55282 20.2358 8.57508C20.2625 8.58398 20.1675 8.63889 19.8648 8.77392C18.6718 9.31257 17.7845 9.79631 16.903 10.3839C16.673 10.5382 16.4786 10.6644 16.4742 10.6644C16.4697 10.6644 16.4653 10.5338 16.4653 10.375C16.4653 9.51586 16.2932 8.64779 15.9771 7.91624C15.9445 7.84205 15.9177 7.77527 15.9222 7.77082ZM20.7285 8.7205C20.7418 8.73386 20.6839 9.10037 20.629 9.31702C20.4658 9.9907 20.0281 10.9893 19.4894 11.9301C19.3945 12.0978 19.3084 12.2328 19.2995 12.2373C19.2906 12.2417 19.1689 12.1735 19.0279 12.0919C18.5041 11.7847 17.9061 11.4953 17.2562 11.2238C17.0752 11.1466 16.9179 11.0843 16.9119 11.0739C16.8808 11.0472 18.3365 10.0842 19.1051 9.6227C19.715 9.25321 20.7106 8.70121 20.7285 8.7205ZM21.0712 8.77392C21.1113 8.77392 21.9348 8.99947 22.3637 9.12708C23.4261 9.44315 24.6474 9.89128 25.4427 10.2533L25.7721 10.4032L25.5421 10.4581C23.5983 10.9062 21.9348 11.4211 20.3293 12.0726C20.1987 12.1275 20.08 12.172 20.0711 12.172C20.0622 12.172 20.1067 12.0681 20.1661 11.942C20.6498 10.9151 20.9614 9.84379 21.0386 8.93121C21.0445 8.84218 21.0579 8.77392 21.0712 8.77392ZM12.8803 10.6555C12.8936 10.6421 13.5228 10.7905 13.8611 10.8855C14.376 11.0309 15.4711 11.3959 15.4711 11.4241C15.4711 11.4286 15.3494 11.5324 15.204 11.6586C14.6119 12.1512 14.0421 12.6706 13.3595 13.3309C13.1563 13.5253 12.9841 13.6841 12.9752 13.6841C12.9663 13.6841 12.9619 13.6573 12.9663 13.6202C13.0702 12.8605 13.0479 11.8841 12.9025 10.8944C12.8892 10.7682 12.8758 10.6599 12.8803 10.6555ZM26.0852 10.6688C26.0941 10.6777 25.7959 11.1481 25.6059 11.4152C25.3344 11.804 24.9367 12.3189 24.0375 13.4496C23.5626 14.0461 23.0299 14.7198 22.8534 14.9453C22.6723 15.1709 22.5239 15.3608 22.518 15.3608C22.5135 15.3608 22.4542 15.2792 22.3919 15.1798C21.8859 14.4201 21.279 13.7553 20.5608 13.1588C20.4257 13.046 20.2759 12.9243 20.2269 12.8872C20.1765 12.8516 20.1364 12.8145 20.1364 12.8101C20.1364 12.7967 20.905 12.4658 21.4882 12.2313C22.5106 11.8159 23.9025 11.3188 24.9471 10.9968C25.4932 10.8261 26.0763 10.6599 26.0852 10.6688ZM26.4339 10.7593C26.4517 10.7549 26.5601 10.8098 26.6921 10.8855C27.7902 11.5146 28.866 12.3233 29.7163 13.1558C29.9552 13.3902 30.5487 14.0061 30.5383 14.0105C30.5383 14.0105 30.3306 14.0283 30.0857 14.0461C28.1819 14.1915 25.7454 14.5937 23.4039 15.1575C23.2451 15.1932 23.1056 15.2258 23.0967 15.2258C23.0878 15.2258 23.2644 15.0492 23.4855 14.837C24.8595 13.5119 25.4887 12.6765 26.2292 11.1837C26.3345 10.9626 26.425 10.7727 26.4339 10.7593C26.4295 10.7593 26.4295 10.7593 26.4339 10.7593ZM16.3659 11.7891C16.4297 11.8025 17.0173 12.0785 17.4595 12.2996C17.8661 12.5029 18.4774 12.8279 18.5086 12.8561C18.513 12.8605 18.2964 12.9733 18.0293 13.1053C17.179 13.5297 16.4519 13.9333 15.6922 14.3933C15.4755 14.5239 15.2945 14.6337 15.2901 14.6337C15.2723 14.6337 15.2767 14.6159 15.3984 14.3933C15.805 13.6514 16.1314 12.7655 16.3169 11.9019C16.3332 11.8352 16.3525 11.7891 16.3659 11.7891ZM15.7783 11.8975C15.7916 11.9108 15.6388 12.4673 15.5438 12.77C15.3583 13.3442 15.0467 14.0624 14.744 14.6055C14.6713 14.7317 14.563 14.9172 14.5036 15.021L14.3908 15.2021L14.1371 14.9587C13.8433 14.6738 13.6029 14.4972 13.2957 14.3399C13.1741 14.2761 13.0791 14.2227 13.0791 14.2138C13.0791 14.1782 13.8522 13.4763 14.4443 12.9703C14.8686 12.6038 15.7634 11.8841 15.7783 11.8975ZM19.3722 13.3769L19.5933 13.5208C20.0993 13.8502 20.6958 14.2895 21.1528 14.6738C21.411 14.886 21.9081 15.3341 22.0075 15.4424L22.0625 15.5018L21.6959 15.6057C19.6259 16.1799 18.0248 16.6904 16.1581 17.3774C15.9504 17.4546 15.7738 17.5169 15.7604 17.5169C15.7337 17.5169 15.71 17.5392 16.1759 17.1103C17.369 16.0123 18.427 14.7999 19.2134 13.6202L19.3722 13.3769ZM18.427 13.6113C18.4359 13.6202 17.8171 14.4928 17.4461 14.9854C17.0025 15.573 16.216 16.5583 15.6744 17.2008C15.4488 17.4679 15.2544 17.689 15.2455 17.6935C15.2322 17.6979 15.2277 17.6297 15.2277 17.5258C15.2277 16.9783 15.0883 16.3951 14.8434 15.898C14.7395 15.6903 14.7217 15.6398 14.744 15.6175C14.8301 15.5404 16.1448 14.7895 16.9772 14.3429C17.5366 14.0461 18.4136 13.6024 18.427 13.6113ZM12.7126 15.0136C12.7259 15.0136 12.8298 15.0685 12.947 15.1308C13.2364 15.2896 13.4946 15.4647 13.7246 15.6546C13.7335 15.6635 13.6163 15.7585 13.4619 15.8713C13.0331 16.1784 12.3817 16.6711 12.0018 16.9738C11.6041 17.2899 11.5908 17.2988 11.6353 17.232C11.9335 16.775 12.0834 16.5183 12.2407 16.1873C12.3802 15.8935 12.5212 15.5448 12.6206 15.2421C12.6577 15.113 12.7037 15.0136 12.7126 15.0136ZM14.2365 16.2066C14.2588 16.2022 14.287 16.2423 14.4086 16.4233C14.6668 16.8076 14.8657 17.3225 14.9146 17.7395L14.9235 17.83L14.3048 18.0689C13.1963 18.4977 12.1754 18.9236 11.4839 19.2397C11.2895 19.3302 10.9512 19.4934 10.7286 19.6017C10.5075 19.7145 10.3265 19.8006 10.3265 19.7961C10.3265 19.7917 10.466 19.6878 10.6381 19.5617C11.9899 18.5808 13.1607 17.505 14.0377 16.4292C14.1326 16.3164 14.2187 16.2126 14.2276 16.2081L14.2365 16.2066ZM13.5346 16.3788C13.5524 16.3966 13.0375 16.9797 12.6844 17.3374C11.8119 18.2277 10.9483 18.9236 9.8769 19.6017C9.74187 19.6878 9.61871 19.765 9.60535 19.7739C9.57419 19.7917 9.61425 19.7472 10.0846 19.2352C10.3829 18.9147 10.6084 18.6432 10.8666 18.3078C11.0388 18.0867 11.0699 18.0541 11.3192 17.879C11.984 17.3997 13.5168 16.361 13.5346 16.3788Z" fill="url(#paint2_radial_10055_936)"/>
<defs>
<linearGradient id="paint0_linear_10055_936" x1="8.21302" y1="29.0322" x2="10.3756" y2="27.7543" gradientUnits="userSpaceOnUse">
<stop stop-color="#909CA9"/>
<stop offset="1" stop-color="#EDEDEE"/>
</linearGradient>
<linearGradient id="paint1_linear_10055_936" x1="8.2617" y1="4.94657" x2="10.0018" y2="4.94657" gradientUnits="userSpaceOnUse">
<stop stop-color="#939FAB"/>
<stop offset="1" stop-color="#DCDEE1"/>
</linearGradient>
<radialGradient id="paint2_radial_10055_936" cx="0" cy="0" r="1" gradientUnits="userSpaceOnUse" gradientTransform="translate(17.0426 12.9211) rotate(-171.457) scale(2.24346 4.48803)">
<stop stop-color="#EE352C"/>
<stop offset="1" stop-color="#A91D22"/>
</radialGradient>
</defs>
</svg>
