<svg width="34" height="34" viewBox="0 0 34 34" fill="none" xmlns="http://www.w3.org/2000/svg">
<path d="M21.1488 8.74968C19.0974 6.73079 17.1249 4.78955 16.5529 2.61536C15.9611 4.78955 14.0083 6.71138 11.9569 8.74968C8.87975 11.778 5.36865 15.214 5.36865 20.3777C5.36865 26.4538 10.3789 31.3846 16.5529 31.3846C22.7269 31.3846 27.7371 26.4538 27.7371 20.3777C27.7371 15.214 24.226 11.778 21.1488 8.74968ZM10.1224 22.9402C9.43205 22.9208 6.90722 18.6306 11.6018 14.0493L14.7184 17.3882C14.817 17.4853 14.817 17.66 14.7184 17.7571L14.6987 17.7765C13.9491 18.5336 10.7931 21.6395 10.3986 22.7266C10.3 22.9402 10.1816 22.9402 10.1224 22.9402ZM16.5529 28.5892C14.4225 28.5892 12.7064 26.9003 12.7064 24.8038C12.7262 23.8914 13.0615 22.9984 13.673 22.2996C14.3634 21.4648 16.5529 19.1159 16.5529 19.1159C16.5529 19.1159 18.7226 21.5037 19.4327 22.2996C20.064 22.979 20.3993 23.8914 20.3993 24.8038C20.3993 26.9003 18.6635 28.5892 16.5529 28.5892ZM23.9104 22.4549C23.8315 22.6296 23.6342 22.9402 23.3778 22.9402C22.9241 22.9596 22.8847 22.7266 22.5493 22.2413C21.8195 21.1736 15.4088 14.5734 14.2056 13.3116C13.1601 12.1857 14.0478 11.4092 14.4817 10.9821C15.0143 10.458 16.5529 8.94381 16.5529 8.94381C16.5529 8.94381 21.1488 13.234 23.0425 16.1458C24.9361 19.0577 24.3049 21.6201 23.9104 22.4549Z" fill="#009DDE"/>
</svg>
