<svg width="34" height="34" viewBox="0 0 34 34" fill="none" xmlns="http://www.w3.org/2000/svg">
<path fill-rule="evenodd" clip-rule="evenodd" d="M8.61589 5.08956L17 4.25L25.384 5.08956L31.8749 13.3429L17 29.7499L2.125 13.3429L8.61589 5.08956Z" fill="#FDB300"/>
<path d="M8.15004 13.3429L16.9999 29.75L2.125 13.3429H8.15004ZM25.85 13.3429L17.0001 29.75L31.875 13.3429" fill="#EA6C00"/>
<path fill-rule="evenodd" clip-rule="evenodd" d="M8.1499 13.3429H25.8496L16.9998 29.75" fill="#FDAD00"/>
<path d="M16.9998 4.25L8.61568 5.08942L8.1499 13.3428L16.9998 4.25ZM16.9999 4.25L25.384 5.08942L25.8497 13.3428" fill="#FDD231"/>
<path d="M31.875 13.3427L25.3842 5.08936L25.85 13.3427H31.875ZM2.125 13.3427L8.61582 5.08936L8.15004 13.3427" fill="#FDAD00"/>
<path fill-rule="evenodd" clip-rule="evenodd" d="M16.9998 4.25L8.1499 13.3428H25.8496" fill="#FEEEB7"/>
</svg>
