<svg width="101" height="30" viewBox="0 0 101 30" fill="none" xmlns="http://www.w3.org/2000/svg">
<path d="M22.5817 7.35936V16.6428C22.5817 16.7933 22.5215 16.9376 22.4141 17.044C22.3068 17.1504 22.1612 17.2102 22.0094 17.2102H19.0538C18.9021 17.2101 18.7566 17.1503 18.6493 17.0439C18.542 16.9375 18.4817 16.7933 18.4816 16.6428V1.54283C18.4816 1.39236 18.5419 1.24803 18.6492 1.14163C18.7566 1.03523 18.9021 0.975446 19.0538 0.975446H21.7889C21.9407 0.975446 22.0863 1.03523 22.1936 1.14163C22.3009 1.24803 22.3612 1.39236 22.3612 1.54283V3.6693C22.3612 3.6693 23.3389 0.635958 26.2406 0.635958C26.2406 0.635958 29.1106 0.29197 30.2776 3.4504C30.2776 3.4504 31.2554 0.635958 34.2201 0.635958C34.2201 0.635958 38.629 0.376028 38.629 4.89941L38.6625 7.39063V16.6741C38.6625 16.8245 38.6023 16.9689 38.495 17.0753C38.3876 17.1817 38.2421 17.2414 38.0903 17.2414H35.1344C34.9827 17.2414 34.8372 17.1816 34.7299 17.0752C34.6226 16.9688 34.5622 16.8245 34.5622 16.6741L34.5352 6.5463C34.6192 4.25296 32.748 4.41982 32.748 4.41982C30.3932 4.4616 30.6197 7.39063 30.6197 7.39063V16.6741C30.6197 16.8245 30.5594 16.9689 30.4522 17.0753C30.3449 17.1817 30.1993 17.2414 30.0475 17.2414H27.0919C26.9401 17.2414 26.7946 17.1816 26.6873 17.0752C26.58 16.9688 26.5197 16.8245 26.5196 16.6741V6.77545C26.5196 6.77545 26.6924 4.39881 24.5896 4.39881C24.5899 4.39881 22.5083 4.12787 22.5817 7.35936ZM98.7697 7.33159V16.6148C98.7697 16.7652 98.7096 16.9095 98.602 17.0159C98.4944 17.1223 98.3488 17.1821 98.197 17.1821L95.1238 17.2412C94.972 17.2411 94.8264 17.1813 94.7188 17.0749C94.612 16.9685 94.5511 16.8242 94.5511 16.6738V6.77545C94.5511 6.77545 94.7241 4.39881 92.6214 4.39881C92.6214 4.39881 90.6132 4.30074 90.6132 8.02707V16.6426C90.6132 16.793 90.5532 16.9373 90.4455 17.0437C90.3379 17.1501 90.1932 17.2098 90.0414 17.2099H87.0852C86.9334 17.2098 86.7879 17.1501 86.6806 17.0437C86.5733 16.9373 86.513 16.793 86.5129 16.6426V1.54283C86.513 1.39238 86.5733 1.24809 86.6806 1.1417C86.7879 1.0353 86.9334 0.975508 87.0852 0.975446H89.8199C89.9717 0.975446 90.1173 1.03523 90.2249 1.14163C90.3326 1.24803 90.3926 1.39236 90.3926 1.54283V3.6693C90.3926 3.6693 91.3702 0.635958 94.2723 0.635958C94.2723 0.635958 97.3799 0.168385 98.4273 3.39161C98.4273 3.39136 98.7697 4.05632 98.7697 7.33159ZM77.4288 0.573415C73.6491 0.573415 70.5847 3.73185 70.5847 9.04806C70.5847 13.7285 72.9502 17.5226 77.4288 17.5226C81.6551 17.5226 84.2729 13.7285 84.2729 9.04806C84.2729 3.82567 81.2088 0.573415 77.4288 0.573415ZM79.8145 9.23565C79.8145 11.237 79.5621 12.3002 79.5621 12.3002C79.2031 14.416 77.6541 14.419 77.4258 14.4077C77.1793 14.4175 75.6171 14.3955 75.2939 12.3002C75.2939 12.3002 75.0417 11.237 75.0417 9.23565V8.9022C75.0417 6.90079 75.2939 5.83755 75.2939 5.83755C75.6171 3.74235 77.1795 3.72034 77.4258 3.72985C77.6541 3.71859 79.2031 3.72135 79.5621 5.83755C79.5621 5.83755 79.8145 6.90079 79.8145 8.9022V9.23565ZM68.8693 3.6483V1.48179C68.8692 1.33133 68.8089 1.18705 68.7016 1.08066C68.5942 0.974263 68.4487 0.914466 68.2971 0.914405H58.5274C58.3756 0.914405 58.23 0.974175 58.1227 1.08059C58.0154 1.18699 57.9551 1.33131 57.9551 1.48179V3.63153C57.9552 3.78199 58.0154 3.92627 58.1228 4.03267C58.2301 4.13906 58.3756 4.19886 58.5274 4.19892H63.6234L57.5915 12.8749C57.5915 12.8749 57.3539 13.2267 57.3616 13.6152V16.2542C57.3616 16.2542 57.3223 17.1592 58.3573 16.634C58.3573 16.634 60.1956 15.5327 63.2782 15.5327C63.2782 15.5327 66.3224 15.4952 68.352 16.7288C68.352 16.7288 69.1945 17.1086 69.1945 16.2736V13.9764C69.1945 13.9764 69.2709 13.3685 68.4668 12.989C68.4668 12.989 66.1309 11.7171 63.0675 11.9258L68.8693 3.6483ZM16.2004 14.5098L15.2752 13.1133C14.9807 12.5919 15.0019 12.0081 15.0019 12.0081V5.56637C15.1281 1.7494e-05 8.90421 0.4796 8.90421 0.4796C3.37143 0.4796 2.55419 4.7488 2.55419 4.7488C2.32357 5.60715 2.99423 5.62791 2.99423 5.62791L5.69778 5.89985C5.69778 5.89985 6.15877 6.00442 6.32656 5.4603C6.32656 5.4603 6.68258 3.59775 8.6736 3.59775C10.84 3.59775 10.8175 5.44128 10.8175 5.44128V6.9846C6.49284 7.12795 4.48869 8.31827 4.48869 8.31827C1.81844 9.81932 1.98647 12.8006 1.98647 12.8006C1.98647 17.658 6.65432 17.4494 6.65432 17.4494C9.64 17.4494 11.4062 15.2814 11.4062 15.2814C11.9317 16.199 12.8992 17.0741 12.8992 17.0741C13.383 17.5944 13.8875 17.1577 13.8875 17.1577L16.0743 15.3024C16.5577 14.9476 16.2004 14.5098 16.2004 14.5098ZM8.11143 14.4497C6.70705 14.4497 6.18501 13.066 6.41815 11.7061C6.65154 10.3462 7.86366 9.27747 10.8178 9.3087V10.1356C10.9225 13.7476 9.28045 14.4497 8.11143 14.4497ZM55.4774 14.5098L54.5524 13.1133C54.2579 12.5919 54.2789 12.0081 54.2789 12.0081V5.56637C54.405 1.7494e-05 48.1812 0.4796 48.1812 0.4796C42.6484 0.4796 41.8312 4.7488 41.8312 4.7488C41.6005 5.60715 42.2712 5.62791 42.2712 5.62791L44.9747 5.89985C44.9747 5.89985 45.4357 6.00442 45.6035 5.4603C45.6035 5.4603 45.9595 3.59775 47.9505 3.59775C50.1169 3.59775 50.0945 5.44128 50.0945 5.44128V6.9846C45.7701 7.12795 43.7656 8.31827 43.7656 8.31827C41.0954 9.81932 41.2634 12.8006 41.2634 12.8006C41.2634 17.658 45.9313 17.4494 45.9313 17.4494C48.9169 17.4494 50.6831 15.2814 50.6831 15.2814C51.209 16.199 52.1759 17.0741 52.1759 17.0741C52.6597 17.5944 53.1644 17.1577 53.1644 17.1577L55.3509 15.3024C55.8346 14.9476 55.4774 14.5098 55.4774 14.5098ZM47.3884 14.4497C45.984 14.4497 45.4619 13.066 45.6951 11.7061C45.9284 10.3462 47.1406 9.27747 50.0945 9.3087V10.1356C50.1994 13.7476 48.5576 14.4497 47.3884 14.4497Z" fill="#AAADB7"/>
<path d="M62.9198 26.7026C62.9198 26.7026 62.6726 27.1291 62.9764 27.2245C62.9764 27.2245 63.3195 27.3573 63.7474 26.9635C63.7474 26.9635 66.8683 24.2604 66.9435 19.339C66.9435 19.339 66.9665 18.7244 66.7177 18.5563C66.7177 18.5563 65.7399 17.6986 62.2242 17.9596C62.2242 17.9596 59.1596 18.1647 57.4865 19.6375C57.4865 19.6375 57.3361 19.7678 57.3361 19.9354C57.3361 19.9354 57.3 20.2974 58.2197 20.1406C58.2197 20.1406 61.284 19.7116 63.1078 19.9354C63.1078 19.9354 64.0482 20.0473 64.3114 20.3645C64.3114 20.3645 64.7438 20.7188 64.518 21.8928C64.518 21.8933 63.8973 24.8759 62.9198 26.7026Z" fill="#AAADB7"/>
<path d="M62.3023 21.9812C62.3023 21.9812 62.76 22.5691 62.0214 23.0763C62.0214 23.0763 54.1323 29.333 40.8857 29.333C40.8857 29.333 27.25 30 15.8643 19.7429C15.8643 19.7429 15.4651 19.3954 15.7129 19.0725C15.7129 19.0725 15.9345 18.7752 16.508 19.0984C16.508 19.0984 27.2185 25.7158 41.2852 25.7158C41.2852 25.7158 51.0624 26.0911 61.092 21.8382C61.092 21.8382 61.891 21.4276 62.3023 21.9812Z" fill="#AAADB7"/>
</svg>
