<svg width="118" height="30" viewBox="0 0 118 30" fill="none" xmlns="http://www.w3.org/2000/svg">
<path fill-rule="evenodd" clip-rule="evenodd" d="M37.6802 23.6213L39.1501 20.1831C40.7377 21.3782 42.853 21.9994 44.94 21.9994C46.4805 21.9994 47.4557 21.4019 47.4557 20.4961C47.4322 17.9637 38.2267 19.946 38.1561 13.596C38.1325 10.3713 40.9779 7.88629 45.0106 7.88629C47.4086 7.88629 49.8018 8.48383 51.5119 9.84487L50.1364 13.3542C48.5723 12.3488 46.6266 11.6328 44.7751 11.6328C43.5173 11.6328 42.6881 12.2302 42.6881 12.9938C42.7116 15.4788 51.9878 14.1177 52.0821 20.1831C52.0821 23.479 49.3072 25.798 45.3216 25.798C42.4007 25.7933 39.7201 25.1009 37.6802 23.6213ZM94.124 18.9407C93.389 20.2306 92.0134 21.1127 90.4209 21.1127C88.0702 21.1127 86.1763 19.2014 86.1763 16.8398C86.1763 14.4781 88.0748 12.567 90.4209 12.567C92.0086 12.567 93.389 13.449 94.124 14.7389L98.1802 12.4721C96.6632 9.75003 93.7423 7.88629 90.4209 7.88629C85.5073 7.88629 81.5217 11.8983 81.5217 16.8446C81.5217 21.7908 85.5073 25.8028 90.4209 25.8028C93.7658 25.8028 96.6632 23.9628 98.1802 21.217L94.124 18.9407ZM54.122 0.455078H59.2005V25.4613H54.122V0.455078ZM100.173 0.455078V25.4613H105.252V17.959L111.277 25.4613H117.778L110.113 16.5506L117.208 8.23723H110.99L105.247 15.1373V0.455078H100.173Z" fill="#AAADB7"/>
<path d="M74.2894 18.9883C73.5545 20.2071 72.0375 21.1129 70.3274 21.1129C67.9765 21.1129 66.0826 19.2018 66.0826 16.8401C66.0826 14.4784 67.9813 12.5672 70.3274 12.5672C72.0375 12.5672 73.5545 13.5204 74.2894 14.763V18.9883ZM74.2894 8.24226V10.272C73.4603 8.8635 71.3968 7.88184 69.2344 7.88184C64.773 7.88184 61.2632 11.8464 61.2632 16.8163C61.2632 21.7863 64.773 25.7983 69.2344 25.7983C71.3921 25.7983 73.4555 24.8214 74.2894 23.4082V25.4379H79.368V8.24226H74.2894Z" fill="#AAADB7"/>
<path fill-rule="evenodd" clip-rule="evenodd" d="M6.2897 18.9646C6.2897 20.7098 4.8905 22.1183 3.15681 22.1183C1.42312 22.1183 0.0239258 20.705 0.0239258 18.9646C0.0239258 17.2243 1.42312 15.811 3.15681 15.811H6.2897V18.9646ZM7.85379 18.9646C7.85379 17.2195 9.25299 15.811 10.9867 15.811C12.7204 15.811 14.1196 17.2195 14.1196 18.9646V26.8464C14.1196 28.5916 12.7204 30 10.9867 30C9.25299 30 7.85379 28.5916 7.85379 26.8464V18.9646Z" fill="#AAADB7"/>
<path fill-rule="evenodd" clip-rule="evenodd" d="M10.9863 6.3073C9.25262 6.3073 7.85342 4.89883 7.85342 3.15366C7.85342 1.40848 9.25262 0 10.9863 0C12.72 0 14.1192 1.40848 14.1192 3.15366V6.3073H10.9863ZM10.9863 7.90547C12.72 7.90547 14.1192 9.31394 14.1192 11.0591C14.1192 12.8043 12.72 14.2128 10.9863 14.2128H3.13289C1.3992 14.2128 0 12.7996 0 11.0591C0 9.31869 1.3992 7.90547 3.13289 7.90547H10.9863Z" fill="#AAADB7"/>
<path fill-rule="evenodd" clip-rule="evenodd" d="M23.5374 11.0591C23.5374 9.31394 24.9366 7.90547 26.6703 7.90547C28.404 7.90547 29.8032 9.31394 29.8032 11.0591C29.8032 12.8043 28.404 14.2128 26.6703 14.2128H23.5374V11.0591ZM21.9733 11.0591C21.9733 12.8043 20.5741 14.2128 18.8404 14.2128C17.1067 14.2128 15.7075 12.8043 15.7075 11.0591V3.15366C15.7075 1.40848 17.1067 0 18.8404 0C20.5741 0 21.9733 1.40848 21.9733 3.15366V11.0591Z" fill="#AAADB7"/>
<path fill-rule="evenodd" clip-rule="evenodd" d="M18.8404 23.6927C20.5741 23.6927 21.9733 25.1013 21.9733 26.8464C21.9733 28.5916 20.5741 30 18.8404 30C17.1067 30 15.7075 28.5916 15.7075 26.8464V23.6927H18.8404ZM18.8404 22.1183C17.1067 22.1183 15.7075 20.7098 15.7075 18.9646C15.7075 17.2195 17.1067 15.811 18.8404 15.811H26.6939C28.4275 15.811 29.8267 17.2195 29.8267 18.9646C29.8267 20.7098 28.4275 22.1183 26.6939 22.1183H18.8404Z" fill="#AAADB7"/>
</svg>
