<svg width="93" height="30" viewBox="0 0 93 30" fill="none" xmlns="http://www.w3.org/2000/svg">
<path d="M11.3608 0H12.1811C15.0289 0.0616823 17.8303 1.2028 19.8424 3.2229C19.0995 3.97851 18.3411 4.70327 17.6136 5.45888C16.4838 4.44112 15.1218 3.65468 13.636 3.3771C11.4382 2.91449 9.07016 3.33084 7.22836 4.57991C5.21631 5.89066 3.8543 8.11122 3.56023 10.486C3.23521 12.8299 3.90074 15.2972 5.43299 17.1168C6.90334 18.8902 9.14755 20.0005 11.4691 20.0776C13.636 20.2009 15.8957 19.5379 17.4743 18.0266C18.7125 16.9626 19.2852 15.3435 19.4709 13.7706C16.9017 13.7706 14.3324 13.786 11.7632 13.7706V10.5939H22.5819C23.139 14.0019 22.3342 17.8416 19.734 20.278C18.0006 22.0052 15.6016 23.0229 13.1562 23.2234C10.7881 23.4547 8.34273 23.0075 6.23781 21.8664C3.71501 20.5248 1.70296 18.258 0.712407 15.5902C-0.216232 13.1383 -0.231709 10.3626 0.635021 7.89533C1.42436 5.64393 2.94114 3.65468 4.89128 2.26682C6.76404 0.894393 9.03921 0.138785 11.3608 0Z" fill="#AAADB7"/>
<path d="M73.4248 0.801758H76.7369V22.8223C75.6381 22.8223 74.5237 22.8378 73.4248 22.8069C73.4403 15.4821 73.4248 8.14195 73.4248 0.801758Z" fill="#AAADB7"/>
<path d="M29.9486 8.43464C31.9916 8.04913 34.2049 8.48091 35.8919 9.69913C37.4241 10.7786 38.4921 12.4748 38.8171 14.3253C39.235 16.4688 38.7088 18.8127 37.3158 20.5089C35.8145 22.4057 33.3536 23.4234 30.9546 23.2692C28.7568 23.1459 26.621 22.051 25.3209 20.2622C23.8505 18.2884 23.4945 15.5744 24.2994 13.2613C25.1042 10.7786 27.3794 8.88184 29.9486 8.43464ZM30.4129 11.3646C29.5771 11.5804 28.8033 12.0585 28.2461 12.737C26.7448 14.5258 26.8377 17.4403 28.4937 19.1057C29.4378 20.0618 30.8618 20.5089 32.1773 20.2468C33.4 20.0309 34.468 19.2136 35.0561 18.1342C36.0776 16.2991 35.7836 13.7702 34.2203 12.336C33.2143 11.4108 31.744 11.0253 30.4129 11.3646Z" fill="#AAADB7"/>
<path d="M46.3549 8.43529C48.6919 7.98809 51.2457 8.63576 52.9946 10.2703C55.8424 12.8147 56.152 17.5797 53.7221 20.5096C52.2517 22.3601 49.8682 23.3778 47.5157 23.2699C45.2714 23.2082 43.0582 22.0979 41.7271 20.2629C40.2258 18.2428 39.9008 15.4671 40.7521 13.1077C41.6033 10.7021 43.8321 8.86707 46.3549 8.43529ZM46.8192 11.3652C45.9834 11.5811 45.2095 12.0591 44.6524 12.7222C43.1665 14.4801 43.2284 17.3484 44.8226 19.0292C45.7667 20.0316 47.2371 20.525 48.5991 20.2474C49.8063 20.0161 50.8897 19.2143 51.4778 18.1348C52.4839 16.2844 52.1898 13.7554 50.6111 12.3213C49.6051 11.396 48.1347 11.0259 46.8192 11.3652Z" fill="#AAADB7"/>
<path d="M60.2688 9.32919C62.0487 8.21891 64.4167 7.91049 66.3359 8.86657C66.9395 9.12872 67.4348 9.57592 67.9146 10.0231C67.9301 9.60676 67.9146 9.17498 67.9301 8.7432C68.9671 8.75863 70.004 8.7432 71.0565 8.75863V22.3596C71.041 24.4105 70.5148 26.5848 69.029 28.0806C67.4039 29.7306 64.912 30.2395 62.6678 29.9002C60.2688 29.5456 58.1794 27.803 57.2507 25.5979C58.1794 25.1507 59.1544 24.796 60.114 24.3797C60.6557 25.6442 61.7546 26.7236 63.1321 26.9703C64.5096 27.217 66.1038 26.8778 67.0014 25.7367C67.961 24.5647 67.961 22.961 67.9146 21.5269C67.2026 22.2208 66.3823 22.8376 65.3918 23.0689C63.2405 23.6703 60.8724 22.9301 59.2164 21.4806C57.5448 20.0311 56.5543 17.7951 56.6471 15.5745C56.6935 13.061 58.1175 10.6399 60.2688 9.32919ZM63.4726 11.303C62.5285 11.4572 61.6463 11.9815 61.0427 12.7063C59.5878 14.4334 59.5878 17.1937 61.0582 18.8899C61.8939 19.8923 63.2405 20.4474 64.5405 20.3086C65.7633 20.1853 66.8931 19.4142 67.4967 18.3502C68.5182 16.546 68.348 14.0941 66.9705 12.5212C66.1192 11.5497 64.7572 11.0717 63.4726 11.303Z" fill="#AAADB7"/>
<path d="M80.7144 10.116C82.5716 8.38888 85.435 7.8029 87.8185 8.71271C90.0782 9.56084 91.5176 11.7043 92.245 13.9094C88.8864 15.2973 85.5433 16.6697 82.1847 18.0576C82.649 18.9365 83.361 19.7384 84.3206 20.0623C85.6671 20.5403 87.2768 20.3707 88.4066 19.4763C88.8554 19.137 89.2114 18.6898 89.5519 18.258C90.4032 18.8286 91.2544 19.3837 92.1057 19.9543C90.8985 21.7585 88.8709 23.023 86.6886 23.2235C84.2741 23.5165 81.7049 22.5912 80.1417 20.7099C77.5725 17.7492 77.8201 12.7837 80.7144 10.116ZM82.3704 12.9688C81.8442 13.7244 81.6275 14.6496 81.643 15.5594C83.8872 14.6342 86.1314 13.709 88.3756 12.7683C88.0042 11.9048 87.1065 11.3805 86.1933 11.2417C84.723 10.9795 83.1907 11.766 82.3704 12.9688Z" fill="#AAADB7"/>
</svg>
