<svg width="72" height="30" viewBox="0 0 72 30" fill="none" xmlns="http://www.w3.org/2000/svg">
<g clip-path="url(#clip0_10152_2812)">
<path d="M30.9145 7.39189V10.4044C30.9149 10.4356 30.9091 10.4665 30.8975 10.4954C30.8858 10.5244 30.8686 10.5506 30.8467 10.5727C30.8249 10.5948 30.7989 10.6122 30.7703 10.6239C30.7417 10.6358 30.7111 10.6416 30.6802 10.6412C30.4708 10.6412 29.977 10.4311 28.9716 10.4311C27.1052 10.4311 25.5493 11.7695 25.5493 14.0153V22.2997C25.5493 22.4322 25.4454 22.5391 25.3172 22.5391H22.2291C22.1983 22.5388 22.1679 22.5323 22.1397 22.5201C22.1114 22.5079 22.0858 22.4902 22.0643 22.4679C22.0427 22.4457 22.0258 22.4194 22.0144 22.3906C22.0029 22.3617 21.9972 22.3308 21.9976 22.2997V7.62847C21.9971 7.56587 22.0212 7.50561 22.0646 7.46097C22.108 7.41632 22.1672 7.39091 22.2291 7.39033H25.2031C25.2635 7.39096 25.3213 7.41519 25.3644 7.45797C25.4075 7.50074 25.4326 7.55873 25.4343 7.61977L25.4983 9.25066H25.5407C25.7605 8.85553 26.8465 6.9952 29.6447 6.9952C30.1852 6.9952 30.6732 7.13946 30.7417 7.16121C30.8423 7.19511 30.9145 7.28308 30.9145 7.39189ZM56.5892 7.70091V22.4548C56.589 22.4866 56.5827 22.518 56.5705 22.5473C56.5583 22.5766 56.5405 22.6031 56.5181 22.6254C56.4958 22.6476 56.4692 22.6652 56.4401 22.6772C56.411 22.689 56.3798 22.6949 56.3484 22.6945H53.1396C53.0762 22.6948 53.0154 22.6698 52.9704 22.6249C52.9254 22.58 52.8999 22.5188 52.8994 22.4548V7.70091C52.8994 7.56847 53.0083 7.46122 53.1396 7.46122H56.3484C56.4822 7.46122 56.5892 7.56847 56.5892 7.70091ZM57.0504 2.33163C57.0504 3.66066 56.0593 4.66326 54.7439 4.66326C53.4298 4.66326 52.4382 3.66066 52.4382 2.33163C52.4382 1.00198 53.4298 0 54.7439 0C56.0593 0 57.0504 1.00229 57.0504 2.33163ZM71.0407 18.4948C71.0407 21.1448 68.6977 23.1609 65.1663 23.1609C62.014 23.1609 59.7559 21.6556 59.4484 21.4305C59.4189 21.4086 59.3951 21.3798 59.3791 21.3466C59.3631 21.3133 59.3553 21.2766 59.3565 21.2396C59.3565 21.1765 59.3955 21.0944 59.4164 21.0481L60.3069 18.8784C60.3398 18.7979 60.4068 18.7296 60.5326 18.7296C60.9295 18.7296 62.7409 20.168 65.2761 20.168C66.807 20.168 67.6539 19.4865 67.6539 18.5446C67.6539 17.9396 67.3704 17.2426 65.9777 16.7691L64.2894 16.1971C61.6792 15.312 60.2174 13.9715 60.2174 11.4738C60.2174 8.83658 62.6016 6.9952 66.0147 6.9952C68.0447 6.9952 69.6316 7.71428 70.3963 8.1439C70.4737 8.18653 70.518 8.2549 70.518 8.33882C70.518 8.38824 70.4983 8.44737 70.4802 8.49182L69.5691 10.7137C69.5493 10.7592 69.5166 10.7977 69.4749 10.8243C69.4334 10.8509 69.3849 10.8643 69.3358 10.8629C68.9926 10.8629 67.8534 9.97255 65.8243 9.97255C64.6037 9.97255 63.6467 10.5113 63.6467 11.6274C63.6467 12.5563 64.3604 12.9595 65.8102 13.4516C65.8102 13.4516 66.9033 13.8219 67.5684 14.0488C70.0498 14.8907 71.0407 16.4368 71.0407 18.4948ZM41.898 7.10526C38.8429 7.10526 37.1124 8.68855 36.9387 8.83161H36.9009V0.860218C36.9006 0.796839 36.8755 0.736142 36.8311 0.691442C36.7866 0.646742 36.7265 0.621685 36.6638 0.621768H33.6105C33.5795 0.621645 33.5488 0.627726 33.5201 0.639662C33.4914 0.651598 33.4653 0.669152 33.4434 0.691315C33.4214 0.713477 33.4041 0.73981 33.3922 0.768797C33.3804 0.797787 33.3743 0.828853 33.3744 0.860218V15.1155C33.3744 19.9504 36.8181 23.3163 41.5217 23.3163C46.1668 23.3163 49.6708 19.8309 49.6708 15.2079C49.6708 10.3391 46.0014 7.10526 41.898 7.10526ZM41.7461 10.1638C44.5313 10.1638 46.2615 12.3785 46.2615 15.1037C46.2615 17.8286 44.5313 20.0374 41.7461 20.0374C38.9601 20.0374 37.2384 17.8286 37.2384 15.1037C37.2381 12.3785 38.9601 10.1638 41.7461 10.1638Z" fill="#AAADB7"/>
<path d="M20.8503 4.29563C20.8725 4.31686 20.8903 4.34245 20.9025 4.37083C20.9146 4.39922 20.921 4.42981 20.9211 4.46075C20.9212 4.49169 20.9151 4.52233 20.9032 4.55081C20.8912 4.57929 20.8736 4.60501 20.8515 4.6264L18.8276 6.61544C18.8054 6.63804 18.7787 6.65575 18.7493 6.66746C18.72 6.67918 18.6885 6.68464 18.657 6.68353C18.6 6.68462 18.5448 6.66358 18.5027 6.62477C16.3147 4.69262 13.46 3.62754 10.466 3.62754C7.47364 3.62754 4.61837 4.69262 2.43003 6.62477C2.38814 6.66358 2.3331 6.68461 2.27629 6.68353C2.2068 6.68353 2.1533 6.66176 2.10594 6.61544L0.0814928 4.6264C0.0594799 4.60498 0.0419909 4.57928 0.0300826 4.55083C0.0181741 4.52239 0.0120937 4.4918 0.0122086 4.46091C0.0123236 4.43001 0.0186316 4.39948 0.0307514 4.37112C0.0428712 4.34276 0.0605511 4.31719 0.0827228 4.29594C2.87742 1.62482 6.56503 0.155273 10.466 0.155273C14.3667 0.155273 18.0553 1.62482 20.8503 4.29563ZM20.8503 25.8592C20.8725 25.838 20.8901 25.8125 20.9022 25.7843C20.9143 25.756 20.9206 25.7256 20.9207 25.6948C20.9208 25.664 20.9148 25.6336 20.9028 25.6052C20.8909 25.5769 20.8735 25.5512 20.8515 25.5299L18.8276 23.539C18.8051 23.5168 18.7785 23.4994 18.7491 23.4879C18.7198 23.4763 18.6885 23.4709 18.657 23.4719C18.5955 23.4719 18.5467 23.4921 18.5027 23.531C16.3147 25.4631 13.46 26.5279 10.466 26.5279C7.47364 26.5279 4.61837 25.4631 2.43003 23.531C2.38819 23.492 2.33314 23.4709 2.27629 23.4719C2.24489 23.471 2.21362 23.4764 2.18435 23.4879C2.15509 23.4995 2.12842 23.5168 2.10594 23.539L0.0814928 25.5296C0.0594309 25.5507 0.0419022 25.5762 0.0299995 25.6044C0.0180967 25.6327 0.012075 25.6631 0.0123097 25.6938C0.0123097 25.7556 0.038138 25.8162 0.0827228 25.8589C2.87711 28.5294 6.56503 29.9995 10.466 29.9995C14.3667 30.0001 18.0553 28.53 20.8503 25.8592Z" fill="#AAADB7"/>
<path d="M10.4639 6.99512C5.68139 6.99512 2.16504 10.4046 2.16504 14.9251C2.16504 19.4441 5.68139 22.8502 10.4639 22.8502C15.2453 22.8502 18.769 19.4441 18.769 14.9251C18.769 10.4046 15.2453 6.99512 10.4639 6.99512ZM10.3194 19.8822C7.48046 19.8822 5.72658 17.6734 5.72658 14.9485C5.72658 12.2232 7.48015 10.0082 10.3194 10.0082C13.1568 10.0082 14.9187 12.2232 14.9187 14.9485C14.919 17.6734 13.1568 19.8822 10.3194 19.8822Z" fill="#AAADB7"/>
</g>
<defs>
<clipPath id="clip0_10152_2812">
<rect width="71.0526" height="30" fill="white"/>
</clipPath>
</defs>
</svg>
