<svg width="90" height="38" viewBox="0 0 90 38" fill="none" xmlns="http://www.w3.org/2000/svg">
<path d="M39.1581 9.36306V13.1789C39.1586 13.2184 39.1512 13.2576 39.1365 13.2942C39.1217 13.3309 39.0999 13.3641 39.0722 13.3921C39.0446 13.4201 39.0117 13.4421 38.9754 13.457C38.9392 13.472 38.9004 13.4794 38.8613 13.4789C38.5961 13.4789 37.9706 13.2127 36.697 13.2127C34.3329 13.2127 32.3621 14.908 32.3621 17.7527V28.2463C32.3621 28.4141 32.2305 28.5495 32.0681 28.5495H28.1566C28.1176 28.5491 28.0791 28.5409 28.0433 28.5255C28.0075 28.51 27.975 28.4876 27.9478 28.4594C27.9205 28.4312 27.899 28.3979 27.8846 28.3614C27.8701 28.3248 27.8628 28.2857 27.8633 28.2463V9.66273C27.8627 9.58343 27.8932 9.50711 27.9482 9.45056C28.0032 9.394 28.0781 9.36182 28.1566 9.36109H31.9236C32.0001 9.36188 32.0733 9.39258 32.1279 9.44676C32.1825 9.50094 32.2143 9.57439 32.2165 9.65171L32.2975 11.7175H32.3512C32.6297 11.217 34.0053 8.86059 37.5496 8.86059C38.2343 8.86059 38.8524 9.04331 38.9392 9.07087C39.0666 9.1138 39.1581 9.22524 39.1581 9.36306ZM71.6793 9.75449V28.4428C71.6791 28.483 71.6711 28.5228 71.6557 28.5599C71.6402 28.597 71.6177 28.6306 71.5893 28.6588C71.561 28.687 71.5274 28.7093 71.4905 28.7244C71.4536 28.7394 71.4141 28.7469 71.3743 28.7464H67.3098C67.2296 28.7468 67.1526 28.7151 67.0956 28.6582C67.0386 28.6013 67.0062 28.5238 67.0056 28.4428V9.75449C67.0056 9.58673 67.1435 9.45088 67.3098 9.45088H71.3743C71.5438 9.45088 71.6793 9.58673 71.6793 9.75449ZM72.2635 2.9534C72.2635 4.63684 71.0082 5.9068 69.342 5.9068C67.6774 5.9068 66.4214 4.63684 66.4214 2.9534C66.4214 1.26917 67.6774 0 69.342 0C71.0082 0 72.2635 1.26957 72.2635 2.9534ZM89.9846 23.4268C89.9846 26.7834 87.0168 29.3371 82.5437 29.3371C78.5508 29.3371 75.6905 27.4304 75.301 27.1453C75.2636 27.1176 75.2335 27.0811 75.2132 27.039C75.1929 26.9968 75.1831 26.9503 75.1846 26.9035C75.1846 26.8236 75.234 26.7196 75.2605 26.6609L76.3884 23.9127C76.4301 23.8107 76.515 23.7241 76.6743 23.7241C77.1771 23.7241 79.4715 25.5461 82.6828 25.5461C84.6219 25.5461 85.6946 24.6829 85.6946 23.4898C85.6946 22.7235 85.3355 21.8406 83.5715 21.2408L81.4329 20.5163C78.1267 19.3952 76.2751 17.6972 76.2751 14.5335C76.2751 11.193 79.2951 8.86059 83.6183 8.86059C86.1896 8.86059 88.1997 9.77142 89.1683 10.3156C89.2664 10.3696 89.3225 10.4562 89.3225 10.5625C89.3225 10.6251 89.2976 10.7 89.2746 10.7563L88.1206 13.5707C88.0955 13.6283 88.054 13.6771 88.0013 13.7108C87.9487 13.7445 87.8873 13.7615 87.825 13.7597C87.3903 13.7597 85.9473 12.6319 83.3772 12.6319C81.831 12.6319 80.6189 13.3143 80.6189 14.728C80.6189 15.9046 81.5229 16.4154 83.3593 17.0387C83.3593 17.0387 84.7439 17.5077 85.5863 17.7952C88.7294 18.8616 89.9846 20.8199 89.9846 23.4268ZM53.0705 8.99999C49.2007 8.99999 47.0087 11.0055 46.7887 11.1867H46.7408V1.08961C46.7405 1.00933 46.7087 0.932446 46.6524 0.875826C46.5961 0.819206 46.5199 0.787468 46.4405 0.787573H42.573C42.5337 0.787417 42.4948 0.79512 42.4585 0.810239C42.4221 0.825357 42.3891 0.847593 42.3613 0.875665C42.3335 0.903738 42.3115 0.937092 42.2965 0.97381C42.2815 1.01053 42.2738 1.04988 42.2739 1.08961V19.1463C42.2739 25.2705 46.636 29.534 52.5938 29.534C58.4776 29.534 62.9161 25.1192 62.9161 19.2633C62.9161 13.0962 58.2681 8.99999 53.0705 8.99999ZM52.8781 12.8741C56.406 12.8741 58.5976 15.6794 58.5976 19.1313C58.5976 22.5829 56.406 25.3807 52.8781 25.3807C49.3491 25.3807 47.1684 22.5829 47.1684 19.1313C47.168 15.6794 49.3491 12.8741 52.8781 12.8741Z" fill="#6B6E78"/>
<path d="M26.4105 5.44123C26.4387 5.46812 26.4612 5.50053 26.4766 5.53649C26.492 5.57244 26.5001 5.61119 26.5002 5.65038C26.5004 5.68957 26.4926 5.72838 26.4775 5.76446C26.4623 5.80053 26.4401 5.83311 26.4121 5.86021L23.8485 8.37966C23.8203 8.40828 23.7865 8.43071 23.7493 8.44555C23.7122 8.46039 23.6723 8.46731 23.6324 8.4659C23.5602 8.46728 23.4902 8.44064 23.4369 8.39147C20.6654 5.94409 17.0495 4.59498 13.2571 4.59498C9.46677 4.59498 5.8501 5.94409 3.0782 8.39147C3.02514 8.44063 2.95542 8.46727 2.88346 8.4659C2.79544 8.4659 2.72767 8.43833 2.66769 8.37966L0.103387 5.86021C0.075504 5.83308 0.0533512 5.80052 0.0382673 5.76449C0.0231833 5.72846 0.0154814 5.68971 0.015627 5.65058C0.0157726 5.61145 0.0237627 5.57277 0.0391145 5.53685C0.0544662 5.50093 0.0768608 5.46854 0.104945 5.44162C3.64489 2.05821 8.31587 0.196777 13.2571 0.196777C18.198 0.196777 22.8702 2.05821 26.4105 5.44123ZM26.4105 32.7551C26.4386 32.7283 26.4609 32.696 26.4763 32.6602C26.4916 32.6244 26.4996 32.5859 26.4997 32.5469C26.4999 32.5079 26.4922 32.4693 26.4771 32.4334C26.462 32.3975 26.4399 32.365 26.4121 32.338L23.8485 29.8162C23.82 29.7881 23.7862 29.766 23.749 29.7514C23.7119 29.7368 23.6722 29.7299 23.6324 29.7312C23.5545 29.7312 23.4926 29.7568 23.4369 29.806C20.6654 32.2534 17.0495 33.6021 13.2571 33.6021C9.46677 33.6021 5.8501 32.2534 3.0782 29.806C3.0252 29.7567 2.95547 29.7299 2.88346 29.7312C2.84369 29.73 2.80408 29.7369 2.76701 29.7515C2.72994 29.7661 2.69616 29.7881 2.66769 29.8162L0.103387 32.3376C0.0754419 32.3644 0.0532389 32.3966 0.0381621 32.4324C0.0230852 32.4682 0.0154577 32.5067 0.015755 32.5456C0.015755 32.6239 0.0484709 32.7007 0.104945 32.7547C3.6445 36.1373 8.31587 37.9995 13.2571 37.9995C18.198 38.0003 22.8702 36.1381 26.4105 32.7551Z" fill="#6B6E78"/>
<path d="M13.2541 8.86035C7.19623 8.86035 2.74219 13.179 2.74219 18.905C2.74219 24.6291 7.19623 28.9434 13.2541 28.9434C19.3105 28.9434 23.7739 24.6291 23.7739 18.905C23.7739 13.179 19.3105 8.86035 13.2541 8.86035ZM13.0711 25.184C9.47505 25.184 7.25348 22.3861 7.25348 18.9346C7.25348 15.4826 9.47466 12.6769 13.0711 12.6769C16.6651 12.6769 18.8968 15.4826 18.8968 18.9346C18.8972 22.3861 16.6651 25.184 13.0711 25.184Z" fill="#6B6E78"/>
</svg>
