<svg width="107" height="44" viewBox="0 0 107 44" fill="none" xmlns="http://www.w3.org/2000/svg">
<g clip-path="url(#clip0_9873_2856)">
<path d="M53.8267 4.8014C54.5545 4.83524 55.2497 5.11167 55.8003 5.58617C56.5506 6.29246 56.7474 7.47018 56.3922 8.41247C55.0117 11.2382 51.7284 13.1256 49.4848 13.75C48.1426 14.0639 46.4457 14.0639 45.2219 13.5931C44.6294 13.9462 44.1296 15.0875 43.4061 14.6133C42.3589 13.8001 43.2654 12.5274 42.6609 11.6243C42.5362 11.4384 42.2223 11.4247 42.0644 11.1205C41.2352 9.31495 42.2617 7.5879 43.4061 6.21455C45.314 4.09795 50.7876 1.73967 53.8267 4.8014ZM47.4717 6.21398C46.4057 6.41018 45.2019 6.87137 44.551 7.62713C43.8996 8.38233 43.4856 9.11876 43.8802 9.90353C45.2619 8.88333 45.9327 7.47018 47.4723 6.60694C47.4717 6.44941 47.7085 6.3317 47.4717 6.21398ZM53.9062 6.60694C51.1822 6.37094 49.1297 8.41247 47.1955 10.3744C47.0771 10.6883 46.3668 11.0414 46.9193 11.3946C49.5248 11.63 52.0115 10.8851 53.9062 9.15743C54.4592 8.64733 54.8527 7.98028 54.5776 7.27342C54.4592 6.99932 54.1807 6.72465 53.9062 6.60694ZM77.509 18.3028C78.7723 21.3645 79.8378 26.1914 77.509 29.1355C76.8776 29.8417 75.7727 30.4929 75.0624 29.9595C72.4569 27.8798 71.3525 24.8966 69.734 22.2272C69.4973 22.1095 69.4973 22.424 69.3789 22.5417C68.787 25.2497 69.8919 28.7823 68.0372 30.9012C67.3269 31.0189 66.6624 30.6555 66.4188 29.9595C65.5106 27.173 66.4571 24.2682 66.6938 21.4817C67.2469 20.0685 67.4836 18.4205 68.7075 17.3605C70.6811 18.1453 71.6282 20.3438 72.772 21.9531C73.6018 23.1695 74.2721 24.5434 75.2191 25.6421C76.0478 25.289 75.6401 24.2119 75.6143 23.5619C75.2975 21.0108 74.5872 18.656 73.9158 16.2226C73.8775 15.5948 73.5223 14.5348 74.192 14.1424C75.9706 14.9277 76.7192 16.7719 77.509 18.3028ZM65.5889 17.3605C65.5889 17.9497 65.1154 18.6855 64.7196 18.7737C60.9308 19.3623 56.7073 19.0091 53.1553 20.1863C53.0369 20.6179 53.5499 20.6964 53.8261 20.8141C56.8646 21.2849 60.0627 21.4026 63.0234 22.1487C64.5887 22.544 65.1554 24.3865 65.2738 25.9168C65.3464 27.1235 64.8798 28.5855 63.6948 29.4101C60.7747 31.2549 56.3144 31.1759 53.3531 29.4892C52.2214 28.8579 51.1427 27.8412 51.0638 26.585C51.0707 25.5875 51.4985 24.8022 52.2088 24.4263C55.0511 23.2878 58.5637 23.9167 61.0114 25.368C61.1681 26.1533 60.3137 26.1107 59.9048 26.3888C57.1809 27.9589 55.1289 24.6236 52.6028 25.8389C52.2477 26.0743 51.9909 26.7311 52.4055 26.9381C55.5235 28.312 58.9972 27.3305 62.0757 26.4672C62.4309 26.3495 62.8655 25.9964 62.9044 25.6432C62.786 24.387 61.3654 24.1129 60.4573 23.7598C57.7733 23.0927 54.8132 23.0927 51.9314 22.8181C51.3789 22.7004 50.6749 22.3176 50.5108 21.8764C50.1951 20.9346 50.1951 19.6392 50.9054 18.8544C54.5759 15.6357 60.141 15.911 64.7986 16.7742C65.1148 16.8897 65.47 17.0074 65.5889 17.3605ZM48.3404 18.8522C48.6956 22.6196 48.8929 26.1135 48.814 30.0772C48.7351 30.5867 48.1431 30.705 47.7485 30.9012C47.1171 31.0189 46.3011 30.8853 46.0511 30.548C45.1435 29.0951 45.4592 27.1337 45.3803 25.3674C45.4987 22.5815 45.4592 19.559 46.249 16.9681C46.4 16.5917 46.8409 16.2619 47.1961 16.4967C48.1431 16.9681 48.301 17.9104 48.3404 18.8522ZM92.1937 18.3028C92.3836 18.6201 92.582 19.1103 92.1937 19.323C90.4174 20.1078 88.0102 19.7546 85.9571 19.9901C85.4047 20.4609 84.97 21.2457 85.1668 21.9526C85.3652 22.0703 85.5419 22.2494 85.7598 22.2267C87.022 22.3057 88.9173 21.6381 89.7471 22.8152C89.9495 23.1655 89.7196 24.4735 89.1552 24.5031C87.6151 24.7004 85.0827 24.3108 84.3386 24.7004C83.3916 25.3282 83.4699 26.5446 83.1148 27.5267C83.7862 27.9583 84.4891 27.5164 85.2851 27.4084C86.7469 27.173 88.3654 26.7413 89.8249 27.0553C90.1011 27.5654 90.4963 28.1153 90.2195 28.7431C87.7312 30.7056 84.5217 32.7169 81.1023 31.2941C79.8189 30.722 79.247 28.7823 79.6817 27.1349C79.9573 25.9571 81.1806 24.8192 80.4314 23.563C80.313 23.0131 80.6293 22.5428 81.1028 22.4251C82.4051 22.4251 82.1283 20.8158 82.7997 20.0697C82.0499 19.2457 80.1558 19.2849 80.3531 17.6363C81.2613 17.1655 82.3667 17.3224 83.3916 17.1655C85.7204 16.694 88.3254 16.4194 90.6953 16.694C91.1671 16.7884 91.7991 17.7142 92.1937 18.3028ZM35.8279 9.35419C39.4703 12.3147 44.1959 17.3611 43.604 23.1695C42.8931 27.7621 37.9988 31.2157 33.8542 32.3149C29.8281 33.4921 24.7759 33.3743 20.6702 32.4326C20.394 33.1787 20.1178 34.0806 19.2496 34.3951C18.6972 34.5913 17.9863 34.4736 17.5522 34.1204C16.329 32.982 17.3155 30.784 15.5392 30.0783C12.0654 28.6259 8.3155 25.7604 6.53975 22.2284C6.30299 21.5221 6.57921 20.8158 7.01329 20.2664C9.73724 18.1078 13.1709 17.2445 16.6052 16.5769C16.8025 16.6554 16.7236 16.3807 16.8814 16.3022C17.0787 13.9474 17.1576 11.5527 17.9074 9.43324C18.0784 9.13582 18.4993 9.04085 18.7761 9.23705C20.947 10.8851 19.9205 13.9866 20.8681 16.2232C25.0127 16.4194 29.1572 16.6156 32.4331 18.9318C33.5385 19.8342 33.8079 21.5579 33.4591 22.5428C33.1108 23.5261 31.9595 24.2307 30.8935 24.308C30.1826 24.308 28.841 24.3768 28.9199 23.8377C28.9988 23.298 31.3344 22.4149 30.6173 21.6785C29.5862 20.6202 24.427 19.9906 21.2296 19.5983C20.8349 19.5198 20.4729 19.6375 20.4729 20.0691C20.394 23.0518 20.1572 26.3484 20.6702 29.2145C20.7097 29.4113 20.9465 29.6467 21.1443 29.6848C26.7884 30.5878 32.7488 30.0772 37.1695 26.8591C39.2221 25.2116 39.8935 22.8943 39.5378 20.3438C37.7615 13.2399 30.3016 8.96124 24.1834 6.21398C18.2237 3.62368 11.6314 2.28901 4.56613 2.64272C3.4412 2.72461 1.65859 3.11074 1.64544 3.50653C1.63229 3.90233 3.66482 3.77779 3.42119 4.52673C3.17813 5.2751 1.11243 4.83097 0.500497 4.64445C-0.111436 4.45792 -0.0519578 3.58444 0.105886 3.03511C1.64544 0.327088 5.94155 0.10815 7.882 0.0131819C18.6177 -0.262056 28.9994 3.80338 35.8279 9.35419ZM16.4868 19.8729C13.7628 19.9122 10.8816 20.1868 8.35553 21.1285C7.84254 21.3247 7.21059 21.8741 7.6052 22.5417C8.63119 23.915 10.0987 25.0427 11.4735 25.8383C12.8484 26.6327 14.671 27.6438 16.329 27.8798C16.7236 25.3282 16.7236 22.8164 16.6841 20.1868C16.5257 20.1084 16.6835 19.9514 16.4868 19.8729ZM98.074 16.3011C97.9556 19.7154 94.7575 21.8354 94.7575 25.2497C94.8759 25.3674 94.956 25.5244 95.1127 25.447C97.6793 22.66 100.205 18.6958 103.955 17.5186C104.943 17.4401 105.836 18.2937 106.205 18.9318C107.508 21.5221 107.193 25.1724 105.377 27.5272C103.503 29.8389 100.245 32.1585 96.5361 31.7656C94.9971 35.5336 93.9294 39.4978 93.3375 43.619C93.0218 44.443 92.2726 43.6974 91.7991 43.5405C88.6021 41.0287 91.2272 34.3792 91.4439 33.5307C91.6607 32.6845 92.5162 30.6885 93.1419 29.0172C91.6418 26.349 92.5889 23.1297 93.8122 20.6571C94.7592 19.0085 96.0632 17.36 97.6021 16.1043C97.7977 16.1049 97.9556 16.1441 98.074 16.3011ZM104.43 20.54C103.957 20.4615 103.759 21.0899 103.365 21.2076C101.549 23.2486 99.733 25.2895 98.8249 27.7229C100.049 27.8798 101.075 27.0951 102.141 26.6634C103.957 25.525 105.101 23.6421 104.983 21.4828C104.904 21.1285 104.588 20.8539 104.43 20.54Z" fill="#6B6E78"/>
</g>
<defs>
<clipPath id="clip0_9873_2856">
<rect width="107" height="44" fill="white"/>
</clipPath>
</defs>
</svg>
