<svg width="106" height="27" viewBox="0 0 106 27" fill="none" xmlns="http://www.w3.org/2000/svg">
<path fill-rule="evenodd" clip-rule="evenodd" d="M33.9121 21.2593L35.235 18.1649C36.6639 19.2405 38.5676 19.7996 40.4459 19.7996C41.8324 19.7996 42.7101 19.2618 42.7101 18.4466C42.6889 16.1674 34.404 17.9515 34.3404 12.2365C34.3192 9.33424 36.8801 7.09776 40.5095 7.09776C42.6677 7.09776 44.8216 7.63554 46.3607 8.86048L45.1227 12.0189C43.715 11.114 41.9639 10.4696 40.2975 10.4696C39.1655 10.4696 38.4192 11.0073 38.4192 11.6945C38.4404 13.931 46.789 12.706 46.8738 18.1649C46.8738 21.1312 44.3764 23.2183 40.7894 23.2183C38.1606 23.2141 35.748 22.5909 33.9121 21.2593ZM84.7115 17.0467C84.05 18.2076 82.812 19.0015 81.3788 19.0015C79.2631 19.0015 77.5586 17.2814 77.5586 15.1559C77.5586 13.0304 79.2673 11.3104 81.3788 11.3104C82.8077 11.3104 84.05 12.1042 84.7115 13.2651L88.3621 11.225C86.9968 8.77512 84.368 7.09776 81.3788 7.09776C76.9565 7.09776 73.3695 10.7086 73.3695 15.1602C73.3695 19.6118 76.9565 23.2226 81.3788 23.2226C84.3892 23.2226 86.9968 21.5666 88.3621 19.0954L84.7115 17.0467ZM48.7097 0.409668H53.2804V22.9153H48.7097V0.409668ZM90.1556 0.409668V22.9153H94.7263V16.1632L100.149 22.9153H106L99.102 14.8956L105.487 7.4136H99.8906L94.7221 13.6237V0.409668H90.1556Z" fill="#6B6E78"/>
<path d="M66.8603 17.0896C66.1989 18.1865 64.8336 19.0017 63.2945 19.0017C61.1787 19.0017 59.4742 17.2817 59.4742 15.1562C59.4742 13.0307 61.183 11.3106 63.2945 11.3106C64.8336 11.3106 66.1989 12.1685 66.8603 13.2868V17.0896ZM66.8603 7.41813V9.24487C66.1141 7.97725 64.257 7.09375 62.3108 7.09375C58.2955 7.09375 55.1367 10.6619 55.1367 15.1348C55.1367 19.6078 58.2955 23.2186 62.3108 23.2186C64.2527 23.2186 66.1098 22.3394 66.8603 21.0675V22.8942H71.431V7.41813H66.8603Z" fill="#6B6E78"/>
<path fill-rule="evenodd" clip-rule="evenodd" d="M5.66068 17.0682C5.66068 18.6389 4.4014 19.9065 2.84108 19.9065C1.28076 19.9065 0.0214844 18.6346 0.0214844 17.0682C0.0214844 15.5019 1.28076 14.23 2.84108 14.23H5.66068V17.0682ZM7.06836 17.0682C7.06836 15.4976 8.32764 14.23 9.88796 14.23C11.4483 14.23 12.7076 15.4976 12.7076 17.0682V24.1618C12.7076 25.7325 11.4483 27.0001 9.88796 27.0001C8.32764 27.0001 7.06836 25.7325 7.06836 24.1618V17.0682Z" fill="#6B6E78"/>
<path fill-rule="evenodd" clip-rule="evenodd" d="M9.88768 5.67657C8.32736 5.67657 7.06808 4.40895 7.06808 2.83829C7.06808 1.26763 8.32736 0 9.88768 0C11.448 0 12.7073 1.26763 12.7073 2.83829V5.67657H9.88768ZM9.88768 7.11492C11.448 7.11492 12.7073 8.38255 12.7073 9.95321C12.7073 11.5239 11.448 12.7915 9.88768 12.7915H2.8196C1.25928 12.7915 0 11.5196 0 9.95321C0 8.38682 1.25928 7.11492 2.8196 7.11492H9.88768Z" fill="#6B6E78"/>
<path fill-rule="evenodd" clip-rule="evenodd" d="M21.1836 9.95321C21.1836 8.38255 22.4429 7.11492 24.0032 7.11492C25.5635 7.11492 26.8228 8.38255 26.8228 9.95321C26.8228 11.5239 25.5635 12.7915 24.0032 12.7915H21.1836V9.95321ZM19.7759 9.95321C19.7759 11.5239 18.5166 12.7915 16.9563 12.7915C15.396 12.7915 14.1367 11.5239 14.1367 9.95321V2.83829C14.1367 1.26763 15.396 0 16.9563 0C18.5166 0 19.7759 1.26763 19.7759 2.83829V9.95321Z" fill="#6B6E78"/>
<path fill-rule="evenodd" clip-rule="evenodd" d="M16.9563 21.3235C18.5166 21.3235 19.7759 22.5912 19.7759 24.1618C19.7759 25.7325 18.5166 27.0001 16.9563 27.0001C15.396 27.0001 14.1367 25.7325 14.1367 24.1618V21.3235H16.9563ZM16.9563 19.9065C15.396 19.9065 14.1367 18.6389 14.1367 17.0682C14.1367 15.4976 15.396 14.23 16.9563 14.23H24.0244C25.5847 14.23 26.844 15.4976 26.844 17.0682C26.844 18.6389 25.5847 19.9065 24.0244 19.9065H16.9563Z" fill="#6B6E78"/>
</svg>
