<svg width="103" height="34" viewBox="0 0 103 34" fill="none" xmlns="http://www.w3.org/2000/svg">
<path d="M12.6853 0.251221H13.6013C16.7811 0.320094 19.9091 1.59426 22.1557 3.84987C21.3262 4.69357 20.4794 5.50284 19.6672 6.34654C18.4056 5.21012 16.8848 4.33198 15.2258 4.02205C12.7717 3.5055 10.1276 3.9704 8.07109 5.36509C5.82446 6.82865 4.30367 9.30811 3.97531 11.9597C3.6124 14.5769 4.35551 17.3319 6.06641 19.3637C7.70818 21.3438 10.214 22.5835 12.8063 22.6696C15.2258 22.8073 17.7489 22.0669 19.5116 20.3795C20.8942 19.1915 21.5336 17.3835 21.741 15.6273C18.8722 15.6273 16.0034 15.6445 13.1347 15.6273V12.0803H25.2146C25.8368 15.8855 24.9381 20.1729 22.0348 22.8934C20.0992 24.8219 17.4205 25.9583 14.69 26.1822C12.0459 26.4404 9.31538 25.9411 6.96506 24.6669C4.14813 23.1689 1.9015 20.6378 0.795465 17.659C-0.241442 14.9213 -0.258724 11.822 0.709056 9.06705C1.59043 6.55316 3.28404 4.33198 5.46155 2.78233C7.55264 1.24989 10.0931 0.406186 12.6853 0.251221Z" fill="#6B6E78"/>
<path d="M81.9854 1.14673H85.6836V25.7346C84.4566 25.7346 83.2124 25.7518 81.9854 25.7174C82.0026 17.5387 81.9854 9.34269 81.9854 1.14673Z" fill="#6B6E78"/>
<path d="M33.4404 9.66959C35.7216 9.23913 38.1929 9.72124 40.0766 11.0815C41.7875 12.2868 42.98 14.1808 43.3429 16.247C43.8095 18.6404 43.2219 21.2576 41.6666 23.1516C39.9902 25.2695 37.2424 26.4059 34.5637 26.2337C32.1097 26.0959 29.7248 24.8734 28.2732 22.8761C26.6314 20.6721 26.2339 17.6417 27.1326 15.0589C28.0312 12.2868 30.5716 10.1689 33.4404 9.66959ZM33.9589 12.9411C33.0257 13.1821 32.1616 13.7159 31.5394 14.4735C29.8631 16.4709 29.9668 19.7251 31.8159 21.5847C32.8701 22.6523 34.46 23.1516 35.929 22.8589C37.2943 22.6178 38.4867 21.7053 39.1434 20.5C40.284 18.451 39.9557 15.6272 38.2102 14.0258C37.0869 12.9927 35.4451 12.5623 33.9589 12.9411Z" fill="#6B6E78"/>
<path d="M51.7592 9.66988C54.3687 9.17054 57.2202 9.89372 59.1731 11.7189C62.3529 14.5599 62.6986 19.8804 59.9853 23.1519C58.3436 25.2181 55.6822 26.3545 53.0553 26.234C50.5495 26.1651 48.0782 24.9254 46.592 22.8764C44.9156 20.6208 44.5527 17.5215 45.5032 14.8871C46.4537 12.201 48.9423 10.152 51.7592 9.66988ZM52.2777 12.9414C51.3444 13.1824 50.4803 13.7162 49.8582 14.4566C48.1992 16.4195 48.2683 19.6221 50.0483 21.4989C51.1025 22.6181 52.7443 23.1691 54.2651 22.8592C55.613 22.6009 56.8228 21.7055 57.4795 20.5002C58.6028 18.434 58.2744 15.6102 56.5117 14.0089C55.3884 12.9758 53.7466 12.5626 52.2777 12.9414Z" fill="#6B6E78"/>
<path d="M67.2953 10.6683C69.2827 9.42862 71.9268 9.08425 74.0697 10.1518C74.7437 10.4445 75.2967 10.9438 75.8325 11.4432C75.8497 10.9783 75.8325 10.4962 75.8497 10.014C77.0076 10.0313 78.1655 10.014 79.3407 10.0313V25.2179C79.3234 27.508 78.7358 29.9358 77.0768 31.6059C75.2622 33.4483 72.4798 34.0165 69.9739 33.6377C67.2953 33.2417 64.9622 31.296 63.9253 28.8338C64.9622 28.3344 66.051 27.9384 67.1224 27.4735C67.7273 28.8854 68.9543 30.0907 70.4924 30.3662C72.0305 30.6417 73.8105 30.2629 74.8128 28.9887C75.8843 27.6801 75.8843 25.8894 75.8325 24.2881C75.0375 25.0629 74.1216 25.7517 73.0155 26.01C70.6134 26.6815 67.9693 25.855 66.1201 24.2365C64.2537 22.6179 63.1476 20.1213 63.2513 17.6418C63.3032 14.8352 64.8931 12.1319 67.2953 10.6683ZM70.8726 12.8723C69.8184 13.0445 68.8333 13.6299 68.1594 14.4392C66.5349 16.3676 66.5349 19.4497 68.1766 21.3438C69.1099 22.463 70.6134 23.0828 72.065 22.9279C73.4303 22.7901 74.6919 21.9292 75.3659 20.7411C76.5065 18.7266 76.3164 15.9888 74.7783 14.2326C73.8278 13.1478 72.307 12.614 70.8726 12.8723Z" fill="#6B6E78"/>
<path d="M90.1247 11.5465C92.1985 9.61803 95.3956 8.96373 98.057 9.97962C100.58 10.9266 102.187 13.32 103 15.7822C99.2495 17.3319 95.5166 18.8643 91.7664 20.414C92.2849 21.3954 93.0799 22.2908 94.1513 22.6524C95.6549 23.1861 97.4522 22.9967 98.7137 21.9981C99.2149 21.6193 99.6124 21.1199 99.9926 20.6378C100.943 21.2749 101.894 21.8948 102.844 22.5318C101.496 24.5464 99.2322 25.9583 96.7954 26.1821C94.0995 26.5093 91.2307 25.4762 89.4852 23.3755C86.6165 20.0696 86.893 14.5253 90.1247 11.5465ZM91.9738 14.7319C91.3862 15.5756 91.1443 16.6087 91.1616 17.6246C93.6674 16.5915 96.1733 15.5584 98.6792 14.5081C98.2644 13.5438 97.2621 12.9584 96.2424 12.8034C94.6007 12.5107 92.8898 13.3889 91.9738 14.7319Z" fill="#6B6E78"/>
</svg>
