<svg width="114" height="34" viewBox="0 0 114 34" fill="none" xmlns="http://www.w3.org/2000/svg">
<path d="M25.5927 8.34054V18.8618C25.5927 19.0323 25.5244 19.1959 25.4027 19.3165C25.2811 19.437 25.1161 19.5048 24.9441 19.5048H21.5944C21.4224 19.5047 21.2575 19.4369 21.1359 19.3164C21.0143 19.1958 20.946 19.0323 20.9459 18.8618V1.74848C20.9459 1.57794 21.0142 1.41437 21.1358 1.29378C21.2575 1.17319 21.4224 1.10544 21.5944 1.10544H24.6942C24.8662 1.10544 25.0312 1.17319 25.1528 1.29378C25.2744 1.41437 25.3428 1.57794 25.3428 1.74848V4.15848C25.3428 4.15848 26.4508 0.720687 29.7394 0.720687C29.7394 0.720687 32.9921 0.330834 34.3147 3.91039C34.3147 3.91039 35.4228 0.720687 38.7828 0.720687C38.7828 0.720687 43.7796 0.4261 43.7796 5.5526L43.8176 8.37598V18.8972C43.8176 19.0677 43.7493 19.2313 43.6277 19.3519C43.506 19.4725 43.3411 19.5402 43.1691 19.5402H39.8191C39.6471 19.5402 39.4822 19.4724 39.3606 19.3518C39.239 19.2312 39.1706 19.0677 39.1705 18.8972L39.1399 7.41907C39.2352 4.81996 37.1145 5.00907 37.1145 5.00907C34.4457 5.05642 34.7024 8.37598 34.7024 8.37598V18.8972C34.7024 19.0677 34.6341 19.2313 34.5125 19.3519C34.3909 19.4725 34.2259 19.5402 34.0539 19.5402H30.7042C30.5322 19.5402 30.3673 19.4724 30.2457 19.3518C30.1241 19.2312 30.0557 19.0677 30.0556 18.8972V7.67878C30.0556 7.67878 30.2515 4.98525 27.8683 4.98525C27.8686 4.98525 25.5095 4.67819 25.5927 8.34054ZM111.939 8.30907V18.83C111.939 19.0005 111.871 19.164 111.749 19.2846C111.627 19.4052 111.462 19.473 111.29 19.473L107.807 19.54C107.635 19.5399 107.47 19.4721 107.348 19.3515C107.227 19.2309 107.158 19.0674 107.158 18.8969V7.67878C107.158 7.67878 107.354 4.98525 104.971 4.98525C104.971 4.98525 102.695 4.87411 102.695 9.09728V18.8615C102.695 19.032 102.627 19.1955 102.505 19.3161C102.383 19.4367 102.219 19.5044 102.047 19.5045H98.6966C98.5246 19.5044 98.3597 19.4367 98.2381 19.3161C98.1165 19.1955 98.0481 19.032 98.048 18.8615V1.74848C98.0481 1.57796 98.1165 1.41444 98.2381 1.29386C98.3597 1.17328 98.5246 1.10551 98.6966 1.10544H101.796C101.968 1.10544 102.133 1.17319 102.255 1.29378C102.377 1.41437 102.445 1.57794 102.445 1.74848V4.15848C102.445 4.15848 103.553 0.720687 106.842 0.720687C106.842 0.720687 110.364 0.190771 111.551 3.84376C111.551 3.84348 111.939 4.5971 111.939 8.30907ZM87.7527 0.649805C83.4691 0.649805 79.9961 4.22936 79.9961 10.2544C79.9961 15.5589 82.677 19.8589 87.7527 19.8589C92.5425 19.8589 95.5093 15.5589 95.5093 10.2544C95.5093 4.33569 92.0367 0.649805 87.7527 0.649805ZM90.4565 10.467C90.4565 12.7352 90.1705 13.9402 90.1705 13.9402C89.7636 16.3381 88.0081 16.3415 87.7493 16.3287C87.4699 16.3398 85.6995 16.3148 85.3332 13.9402C85.3332 13.9402 85.0473 12.7352 85.0473 10.467V10.0891C85.0473 7.82083 85.3332 6.61583 85.3332 6.61583C85.6995 4.24127 87.4702 4.21632 87.7493 4.2271C88.0081 4.21434 89.7636 4.21746 90.1705 6.61583C90.1705 6.61583 90.4565 7.82083 90.4565 10.0891V10.467ZM78.0519 4.13467V1.6793C78.0518 1.50878 77.9835 1.34526 77.8619 1.22468C77.7402 1.1041 77.5753 1.03633 77.4034 1.03626H66.3311C66.1591 1.03626 65.9941 1.104 65.8725 1.2246C65.7508 1.34519 65.6825 1.50875 65.6825 1.6793V4.11567C65.6826 4.28619 65.7509 4.44971 65.8726 4.57029C65.9942 4.69087 66.1591 4.75864 66.3311 4.75871H72.1066L65.2704 14.5915C65.2704 14.5915 65.0011 14.9902 65.0099 15.4305V18.4214C65.0099 18.4214 64.9653 19.447 66.1383 18.8518C66.1383 18.8518 68.2218 17.6037 71.7154 17.6037C71.7154 17.6037 75.1654 17.5612 77.4657 18.9593C77.4657 18.9593 78.4205 19.3897 78.4205 18.4433V15.8399C78.4205 15.8399 78.5071 15.1509 77.5958 14.7208C77.5958 14.7208 74.9484 13.2793 71.4766 13.5158L78.0519 4.13467ZM18.3605 16.4444L17.3119 14.8617C16.9782 14.2708 17.0022 13.6091 17.0022 13.6091V6.30849C17.1452 -4.52995e-05 10.0915 0.543481 10.0915 0.543481C3.82102 0.543481 2.89481 5.38191 2.89481 5.38191C2.63344 6.3547 3.39352 6.37823 3.39352 6.37823L6.45755 6.68643C6.45755 6.68643 6.98 6.80494 7.17016 6.18827C7.17016 6.18827 7.57365 4.07739 9.83014 4.07739C12.2854 4.07739 12.2599 6.16672 12.2599 6.16672V7.91581C7.35861 8.07828 5.08724 9.42731 5.08724 9.42731C2.06096 11.1285 2.2514 14.5073 2.2514 14.5073C2.2514 20.0123 7.54162 19.7759 7.54162 19.7759C10.9254 19.7759 12.9271 17.3188 12.9271 17.3188C13.5227 18.3588 14.6191 19.3506 14.6191 19.3506C15.1675 19.9403 15.7392 19.4453 15.7392 19.4453L18.2176 17.3426C18.7655 16.9406 18.3605 16.4444 18.3605 16.4444ZM9.19302 16.3763C7.60138 16.3763 7.00974 14.8081 7.27396 13.2669C7.53847 11.7256 8.91221 10.5144 12.2602 10.5498V11.4869C12.3789 15.5805 10.5179 16.3763 9.19302 16.3763ZM62.8744 16.4444L61.8261 14.8617C61.4924 14.2708 61.5161 13.6091 61.5161 13.6091V6.30849C61.6591 -4.52995e-05 54.6054 0.543481 54.6054 0.543481C48.3349 0.543481 47.4087 5.38191 47.4087 5.38191C47.1473 6.3547 47.9074 6.37823 47.9074 6.37823L50.9714 6.68643C50.9714 6.68643 51.4939 6.80494 51.684 6.18827C51.684 6.18827 52.0875 4.07739 54.344 4.07739C56.7992 4.07739 56.7738 6.16672 56.7738 6.16672V7.91581C51.8728 8.07828 49.6011 9.42731 49.6011 9.42731C46.5748 11.1285 46.7653 14.5073 46.7653 14.5073C46.7653 20.0123 52.0555 19.7759 52.0555 19.7759C55.4392 19.7759 57.4409 17.3188 57.4409 17.3188C58.0369 18.3588 59.1327 19.3506 59.1327 19.3506C59.6811 19.9403 60.253 19.4453 60.253 19.4453L62.7311 17.3426C63.2793 16.9406 62.8744 16.4444 62.8744 16.4444ZM53.7069 16.3763C52.1153 16.3763 51.5236 14.8081 51.7878 13.2669C52.0523 11.7256 53.4261 10.5144 56.7738 10.5498V11.4869C56.8927 15.5805 55.032 16.3763 53.7069 16.3763Z" fill="#6B6E78"/>
<path d="M71.3089 30.2631C71.3089 30.2631 71.0287 30.7465 71.373 30.8546C71.373 30.8546 71.7619 31.0051 72.2468 30.5588C72.2468 30.5588 75.7838 27.4953 75.8691 21.9177C75.8691 21.9177 75.8951 21.2211 75.6131 21.0306C75.6131 21.0306 74.505 20.0586 70.5205 20.3543C70.5205 20.3543 67.0473 20.5868 65.1511 22.256C65.1511 22.256 64.9807 22.4037 64.9807 22.5936C64.9807 22.5936 64.9398 23.0039 65.9821 22.8261C65.9821 22.8261 69.455 22.3399 71.5219 22.5936C71.5219 22.5936 72.5877 22.7204 72.886 23.0799C72.886 23.0799 73.3761 23.4814 73.1202 24.812C73.1202 24.8126 72.4167 28.1928 71.3089 30.2631Z" fill="#6B6E78"/>
<path d="M70.609 24.912C70.609 24.912 71.1277 25.5783 70.2907 26.1531C70.2907 26.1531 61.3497 33.2441 46.3369 33.2441C46.3369 33.2441 30.8831 34 17.9793 22.3753C17.9793 22.3753 17.5269 21.9815 17.8077 21.6155C17.8077 21.6155 18.0588 21.2786 18.7088 21.6449C18.7088 21.6449 30.8474 29.1446 46.7896 29.1446C46.7896 29.1446 57.8704 29.5699 69.2373 24.7499C69.2373 24.7499 70.1429 24.2846 70.609 24.912Z" fill="#6B6E78"/>
</svg>
