<svg width="133" height="22" viewBox="0 0 133 22" fill="none" xmlns="http://www.w3.org/2000/svg">
<path fill-rule="evenodd" clip-rule="evenodd" d="M86.7002 1.91648C86.9563 1.91648 87.4075 1.97942 87.4075 1.56956C87.4075 1.24644 87.1483 1.205 86.8732 1.205H86.3154V1.91648H86.7002ZM87.6407 3.03551H87.3411L86.765 2.10835H86.3139V3.03551H86.0578V1.03231H86.9342C87.1262 1.03231 87.2748 1.0561 87.4265 1.13976C87.5545 1.20576 87.6391 1.37922 87.6391 1.5711C87.6391 1.98095 87.361 2.10913 87.0409 2.10913L87.6407 3.03551ZM88.2823 2.0247C88.2805 1.61387 88.1177 1.22038 87.8292 0.929879C87.5408 0.639376 87.1501 0.475371 86.7422 0.473553C85.8863 0.473553 85.1631 1.16355 85.1631 2.0247C85.1631 2.90657 85.8863 3.61575 86.7422 3.61575C87.5766 3.61499 88.2823 2.90657 88.2823 2.0247ZM84.9695 2.0247C84.9693 1.79106 85.0152 1.5597 85.1044 1.34404C85.1936 1.12838 85.3245 0.932699 85.4894 0.768351C85.6543 0.604003 85.8499 0.474258 86.0649 0.386632C86.28 0.299005 86.5102 0.255242 86.7422 0.257883C87.7275 0.257883 88.5178 1.0561 88.5178 2.0247C88.5178 3.01479 87.7275 3.83066 86.7422 3.83066C85.7385 3.83066 84.9695 3.01479 84.9695 2.0247ZM131.204 1.91648C131.463 1.91648 131.911 1.97942 131.911 1.56956C131.911 1.24644 131.631 1.205 131.397 1.205H130.821V1.91648H131.204ZM132.125 3.03551H131.845L131.249 2.10835H130.821V3.03551H130.586V1.03231H131.442C131.611 1.03231 131.762 1.0561 131.932 1.13976C132.083 1.20576 132.146 1.37922 132.146 1.5711C132.146 1.98095 131.869 2.10913 131.525 2.10913L132.125 3.03551ZM132.786 2.0247C132.786 1.16355 132.104 0.473553 131.227 0.473553C131.025 0.472843 130.824 0.51248 130.637 0.59018C130.45 0.667881 130.28 0.782111 130.137 0.926289C129.994 1.07047 129.88 1.24175 129.803 1.43026C129.726 1.61878 129.687 1.8208 129.687 2.0247C129.687 2.90657 130.373 3.61575 131.227 3.61575C132.104 3.61499 132.786 2.90657 132.786 2.0247ZM129.472 2.0247C129.472 1.0561 130.221 0.257883 131.227 0.257883C132.21 0.257883 133 1.0561 133 2.0247C133 3.01479 132.21 3.83066 131.227 3.83066C130.221 3.83066 129.472 3.01479 129.472 2.0247ZM25.5238 18.4495C24.9082 18.4517 24.2983 18.3312 23.7292 18.095C23.16 17.8588 22.643 17.5114 22.2077 17.073C21.7725 16.6346 21.4277 16.1138 21.1932 15.5406C20.9587 14.9673 20.8392 14.3531 20.8415 13.7331C20.8413 13.114 20.9623 12.5009 21.1976 11.9289C21.4329 11.3569 21.7778 10.8372 22.2127 10.3996C22.6476 9.96197 23.1639 9.61499 23.732 9.3785C24.3002 9.14201 24.909 9.02064 25.5238 9.02135C26.1383 9.02105 26.7467 9.14271 27.3145 9.37939C27.8823 9.61607 28.3981 9.96313 28.8326 10.4007C29.2671 10.8383 29.6117 11.3578 29.8467 11.9296C30.0817 12.5014 30.2025 13.1143 30.2022 13.7331C30.2047 14.3528 30.0855 14.9669 29.8513 15.5399C29.6172 16.113 29.2727 16.6337 28.8378 17.0721C28.403 17.5105 27.8862 17.8579 27.3175 18.0943C26.7487 18.3307 26.1391 18.4514 25.5238 18.4495ZM7.95084 18.4495C5.36509 18.4495 3.29221 16.3626 3.29221 13.7331C3.29221 11.1289 5.36509 9.02135 7.95084 9.02135C10.5366 9.02135 12.6331 11.1289 12.6331 13.7331C12.6352 14.353 12.5156 14.9672 12.281 15.5403C12.0465 16.1135 11.7017 16.6342 11.2665 17.0726C10.8313 17.5109 10.3143 17.8583 9.74522 18.0946C9.17618 18.3309 8.56635 18.4515 7.95084 18.4495ZM66.8624 18.4495C64.2766 18.4495 62.2045 16.3626 62.2045 13.7331C62.2045 11.1289 64.2766 9.02135 66.8624 9.02135C69.4268 9.02135 71.5241 11.1289 71.5241 13.7331C71.5267 14.3514 71.408 14.9641 71.1749 15.5361C70.9419 16.1081 70.5989 16.6281 70.1658 17.0663C69.7327 17.5045 69.2179 17.8523 68.651 18.0896C68.0841 18.327 67.4763 18.4493 66.8624 18.4495ZM49.0997 18.4495C48.4837 18.4532 47.8731 18.3338 47.3033 18.0981C46.7334 17.8624 46.2158 17.5152 45.7802 17.0764C45.3447 16.6377 44.9999 16.1163 44.766 15.5424C44.5321 14.9685 44.4136 14.3535 44.4174 13.7331C44.4157 13.1135 44.5357 12.4998 44.7704 11.9271C45.0052 11.3544 45.3501 10.8341 45.7852 10.3962C46.2204 9.95827 46.7373 9.61135 47.3061 9.37539C47.875 9.13944 48.4845 9.01912 49.0997 9.02135C49.7143 9.02095 50.3231 9.14251 50.8911 9.37911C51.4591 9.61571 51.9753 9.9627 52.4101 10.4003C52.8449 10.8378 53.1899 11.3574 53.4252 11.9292C53.6606 12.5011 53.7818 13.1141 53.7819 13.7331C53.7839 14.353 53.6642 14.9671 53.4296 15.5402C53.195 16.1133 52.8502 16.634 52.4151 17.0723C51.9799 17.5107 51.4629 17.858 50.8939 18.0944C50.3249 18.3307 49.7152 18.4514 49.0997 18.4495ZM30.2266 20.2163C28.8658 21.2292 27.2166 21.7725 25.5245 21.7651C21.1189 21.7651 17.5501 18.1701 17.5501 13.7331C17.5501 9.31991 21.1189 5.72642 25.5245 5.72642C27.2758 5.72642 28.8998 6.30665 30.203 7.27525V0.667733H33.6674V21.637H30.2266V20.2163ZM85.8459 10.8511C85.6524 9.53558 84.6045 8.59078 82.9393 8.59078C82.0629 8.59078 80.1608 8.89011 80.1608 10.0314C80.1608 11.733 83.0468 11.8826 83.751 11.9272C88.37 12.3577 89.715 14.4032 89.715 16.8131C89.715 18.5999 88.8173 19.9339 87.5362 20.8817C86.4465 21.6776 84.2021 22 82.8326 22C79.7965 22 76.72 20.3238 76.313 16.5315H79.7127C79.9017 18.3198 81.7634 18.9867 82.8113 18.9867C84.712 18.9867 86.0593 18.1701 86.0593 17.2222C86.0593 15.7156 84.6708 15.3917 82.6597 15.1776C81.5302 15.0486 79.3674 14.6603 78.4712 13.9066C77.4683 13.1107 76.6125 12.205 76.6125 10.6561C76.6125 7.87852 78.7707 5.68344 83.0262 5.65964C86.5524 5.63892 89.2243 7.75034 89.3073 10.8265L85.8459 10.8511ZM12.6537 20.2163C11.293 21.23 9.64331 21.7733 7.95084 21.7651C3.52693 21.7651 0 18.1701 0 13.7331C0 9.31991 3.52693 5.72642 7.95084 5.72642C9.70516 5.72642 11.3292 6.30665 12.6537 7.27525V5.74791H16.0732V21.637H12.6537V20.2163ZM39.6079 4.64959V0.646242H36.1671V4.64959H39.6079ZM39.6079 21.6362V5.74714H36.1671V21.6362H39.6079ZM71.5241 20.2163C70.2407 21.2056 68.6175 21.7651 66.8624 21.7651C62.4598 21.7651 58.891 18.1701 58.891 13.7331C58.891 9.31991 62.4598 5.72642 66.8624 5.72642C68.6175 5.72642 70.2415 6.30665 71.5241 7.27525V5.74791H74.9847V21.637H71.566L71.5241 20.2163ZM53.8025 20.2163C52.4993 21.2056 50.8548 21.7651 49.0997 21.7651C44.7177 21.7651 41.1283 18.1701 41.1283 13.7331C41.1283 9.31991 44.7177 5.72642 49.0997 5.72642C50.8548 5.72642 52.4788 6.30665 53.8025 7.27525V0.667733H57.2228V21.637H53.8025V20.2163ZM116.307 11.9272C116.499 8.15943 115.386 4.02484 112.392 0C109.487 3.76772 108.463 8.05198 108.718 11.9272H116.307ZM109.166 14.9174C109.038 14.3555 108.931 13.7889 108.846 13.2189H116.178C116.094 13.7892 115.987 14.3558 115.858 14.9174H109.166ZM110.876 19.1825C111.347 19.9714 111.89 20.7138 112.5 21.3998C113.1 20.7313 113.634 19.9768 114.127 19.1825H110.876ZM127.743 11.9479C128.597 10.1603 129.197 8.15943 129.473 5.91983C124.494 6.35117 120.583 8.78189 117.951 11.9479H127.743ZM127.08 13.2189C126.738 13.8198 126.373 14.3579 125.99 14.9174L116.005 14.8752C116.326 14.3371 116.647 13.7331 117.011 13.2189H127.08ZM123.146 17.89C123.772 17.3756 124.358 16.814 124.898 16.2099L100.102 16.1892C100.661 16.8115 101.268 17.3874 101.918 17.9115L123.146 17.89ZM114.49 19.1825C114.343 19.8978 114.257 20.6244 114.234 21.3545C116.606 21.2478 119.064 20.5149 121.287 19.1825H114.49ZM97.9235 13.2189C98.2855 13.8198 98.6497 14.3579 99.0575 14.9174H108.997C108.718 14.3371 108.377 13.7784 108.01 13.2189H97.9235ZM103.736 19.1825C105.96 20.5149 108.398 21.2478 110.769 21.3545C110.742 20.6258 110.664 19.9 110.535 19.1825H103.736ZM107.049 11.9479C104.442 8.78189 100.553 6.35117 95.5709 5.91983C95.8241 8.00449 96.3939 10.0376 97.2605 11.9479H107.049Z" fill="#6B6E78"/>
</svg>
