<svg width="50" height="50" viewBox="0 0 50 50" fill="none" xmlns="http://www.w3.org/2000/svg">
<path d="M19.0833 22.6458C18.875 22.625 18.625 22.625 18.3958 22.6458C13.4375 22.4792 9.5 18.4167 9.5 13.4167C9.5 8.3125 13.625 4.16667 18.75 4.16667C23.8542 4.16667 28 8.3125 28 13.4167C27.9792 18.4167 24.0417 22.4792 19.0833 22.6458Z" stroke="white" stroke-width="2" stroke-linecap="round" stroke-linejoin="round"/>
<path d="M34.1868 8.33333C38.2285 8.33333 41.4785 11.6042 41.4785 15.625C41.4785 19.5625 38.3535 22.7708 34.4577 22.9167C34.291 22.8958 34.1035 22.8958 33.916 22.9167" stroke="url(#paint0_linear_10553_8620)" stroke-width="2" stroke-linecap="round" stroke-linejoin="round"/>
<path d="M8.66602 30.3333C3.62435 33.7083 3.62435 39.2083 8.66602 42.5625C14.3952 46.3958 23.791 46.3958 29.5202 42.5625C34.5618 39.1875 34.5618 33.6875 29.5202 30.3333C23.8118 26.5208 14.416 26.5208 8.66602 30.3333Z" stroke="white" stroke-width="2" stroke-linecap="round" stroke-linejoin="round"/>
<path d="M38.209 41.6667C39.709 41.3542 41.1256 40.75 42.2923 39.8542C45.5423 37.4167 45.5423 33.3958 42.2923 30.9583C41.1465 30.0833 39.7507 29.5 38.2715 29.1667" stroke="url(#paint1_linear_10553_8620)" stroke-width="2" stroke-linecap="round" stroke-linejoin="round"/>
<defs>
<linearGradient id="paint0_linear_10553_8620" x1="33.4435" y1="7.11744" x2="34" y2="24.5" gradientUnits="userSpaceOnUse">
<stop stop-color="#00FFA3"/>
<stop offset="1" stop-color="#00FFA3" stop-opacity="0"/>
</linearGradient>
<linearGradient id="paint1_linear_10553_8620" x1="37.8015" y1="28.1245" x2="38.2757" y2="43.024" gradientUnits="userSpaceOnUse">
<stop stop-color="#00FFA3"/>
<stop offset="1" stop-color="#00FFA3" stop-opacity="0"/>
</linearGradient>
</defs>
</svg>
