<svg width="50" height="50" viewBox="0 0 50 50" fill="none" xmlns="http://www.w3.org/2000/svg">
<path d="M12.5 20.8333V16.6667C12.5 9.77082 14.5833 4.16666 25 4.16666C35.4167 4.16666 37.5 9.77082 37.5 16.6667V20.8333" stroke="url(#paint0_linear_10553_9321)" stroke-width="2" stroke-linecap="round" stroke-linejoin="round"/>
<path d="M24.9993 38.5417C27.8758 38.5417 30.2077 36.2098 30.2077 33.3333C30.2077 30.4568 27.8758 28.125 24.9993 28.125C22.1229 28.125 19.791 30.4568 19.791 33.3333C19.791 36.2098 22.1229 38.5417 24.9993 38.5417Z" stroke="url(#paint1_linear_10553_9321)" stroke-width="2" stroke-linecap="round" stroke-linejoin="round"/>
<path d="M35.416 45.8333H14.5827C6.24935 45.8333 4.16602 43.75 4.16602 35.4167V31.25C4.16602 22.9167 6.24935 20.8333 14.5827 20.8333H35.416C43.7494 20.8333 45.8327 22.9167 45.8327 31.25V35.4167C45.8327 43.75 43.7494 45.8333 35.416 45.8333Z" stroke="white" stroke-width="2" stroke-linecap="round" stroke-linejoin="round"/>
<defs>
<linearGradient id="paint0_linear_10553_9321" x1="10.9381" y1="2.77707" x2="39.0631" y2="2.77707" gradientUnits="userSpaceOnUse">
<stop stop-color="#00FFA3"/>
<stop offset="1" stop-color="#00FFA3" stop-opacity="0"/>
</linearGradient>
<linearGradient id="paint1_linear_10553_9321" x1="19.1402" y1="27.2565" x2="30.859" y2="27.2565" gradientUnits="userSpaceOnUse">
<stop stop-color="#00FFA3"/>
<stop offset="1" stop-color="#00FFA3" stop-opacity="0"/>
</linearGradient>
</defs>
</svg>
