<svg width="50" height="50" viewBox="0 0 50 50" fill="none" xmlns="http://www.w3.org/2000/svg">
<path d="M43.9167 17.8751V32.125C43.9167 34.4583 42.6667 36.6251 40.6458 37.8126L28.2708 44.9584C26.25 46.1251 23.75 46.1251 21.7083 44.9584L9.33333 37.8126C7.3125 36.6459 6.0625 34.4792 6.0625 32.125V17.8751C6.0625 15.5417 7.3125 13.375 9.33333 12.1875L21.7083 5.04166C23.7292 3.87499 26.2292 3.87499 28.2708 5.04166L40.6458 12.1875C42.6667 13.375 43.9167 15.5209 43.9167 17.8751Z" stroke="white" stroke-width="2" stroke-linecap="round" stroke-linejoin="round"/>
<path d="M24.9987 22.9167C27.6796 22.9167 29.8529 20.7433 29.8529 18.0624C29.8529 15.3816 27.6796 13.2084 24.9987 13.2084C22.3178 13.2084 20.1445 15.3816 20.1445 18.0624C20.1445 20.7433 22.3178 22.9167 24.9987 22.9167Z" stroke="url(#paint0_linear_18064_1260)" stroke-width="2" stroke-linecap="round" stroke-linejoin="round"/>
<path d="M33.3327 34.7082C33.3327 30.9582 29.6035 27.9167 24.9993 27.9167C20.3952 27.9167 16.666 30.9582 16.666 34.7082" stroke="url(#paint1_linear_18064_1260)" stroke-width="2" stroke-linecap="round" stroke-linejoin="round"/>
<defs>
<linearGradient id="paint0_linear_18064_1260" x1="19.538" y1="12.3989" x2="30.4599" y2="12.3989" gradientUnits="userSpaceOnUse">
<stop stop-color="#00FFA3"/>
<stop offset="1" stop-color="#00FFA3" stop-opacity="0"/>
</linearGradient>
<linearGradient id="paint1_linear_18064_1260" x1="15.6248" y1="27.3504" x2="34.3748" y2="27.3504" gradientUnits="userSpaceOnUse">
<stop stop-color="#00FFA3"/>
<stop offset="1" stop-color="#00FFA3" stop-opacity="0"/>
</linearGradient>
</defs>
</svg>
