<svg width="500" height="510" viewBox="0 0 500 510" fill="none" xmlns="http://www.w3.org/2000/svg">
<g opacity="0.3">
<path d="M462.075 97.6101C473.475 89.3714 484.681 76.5632 479.772 63.4153C479.772 63.4153 471.909 58.1578 459.459 64.7318C447.009 71.3058 447.009 71.3058 447.009 71.3058L462.075 97.6101Z" fill="#29292D"/>
<path d="M467.244 152.497C472.373 150.059 494.286 138.618 498.187 119.058C501.556 102.164 488.674 79.3763 482.225 69.3115C482.64 82.6718 469.267 93.9766 462.818 98.6396C456.284 103.362 451.476 105.672 444.849 108.169L467.244 152.497Z" fill="#2A2B2E"/>
<path d="M483.198 73.2852C481.801 82.1609 475.047 91.3678 463.553 99.6744C457.35 104.159 452.678 106.503 446.609 108.856L467.802 150.805C474.26 147.578 493.371 136.655 496.926 118.802C499.896 103.972 489.867 84.2927 483.198 73.2852ZM479.761 63.4072C479.761 63.4072 504.01 96.2856 499.423 119.303C494.835 142.32 466.66 154.16 466.66 154.16L443.071 107.471C450.443 104.762 455.234 102.554 462.072 97.6105C473.473 89.3634 484.679 76.5637 479.761 63.4072Z" fill="#2F2F33"/>
</g>
<path opacity="0.03" fill-rule="evenodd" clip-rule="evenodd" d="M369.243 52.0417C357.267 45.0802 346.797 28.635 345.894 15.3174C344.99 1.99974 353.956 -3.14571 365.931 3.81577C377.907 10.7773 388.378 27.2225 389.281 40.5401C390.218 53.8577 381.252 59.0032 369.243 52.0417Z" fill="#202124"/>
<path fill-rule="evenodd" clip-rule="evenodd" d="M375.125 18.4453L378.303 20.0596L364.187 41.6502L351.743 23.0863L355.824 24.7006L362.414 30.9558L375.125 18.4453Z" fill="#2A2A2E"/>
<path opacity="0.03" fill-rule="evenodd" clip-rule="evenodd" d="M409.044 431.202L271.723 352.339C266.638 349.985 259.144 347.799 254.127 350.86L241.348 358.695C238.772 360.276 230.309 365.489 235.962 368.583C252.621 377.697 358.999 440.182 375.892 449.43C379.104 451.179 383.754 451.818 388.671 451.414C393.555 451.011 398.64 449.665 402.52 447.278L407.639 444.116C411.251 441.863 413.259 439.442 413.459 437.088C413.627 434.767 412.155 432.615 409.044 431.202Z" fill="#202124"/>
<path fill-rule="evenodd" clip-rule="evenodd" d="M405.21 422.655C405.176 429.381 402.801 434.09 398.988 436.309L392.933 439.975C372.226 431.097 379.887 325.531 378.649 295.533L385.005 138.042C379.652 128.659 359.079 120.453 363.863 101.25L303.147 72.6644C300.438 70.8148 229.586 29.5503 242.298 21.8154C244.439 20.5374 246.546 19.2258 248.62 17.9815C253.304 15.1902 259.292 16.9053 263.707 19.4612L384.536 89.1433C396.412 96.0039 405.712 112.651 405.678 125.935L405.21 422.655Z" fill="#2F2F33"/>
<path fill-rule="evenodd" clip-rule="evenodd" d="M236.166 35.4698C236.199 28.8782 238.441 24.2036 242.12 21.9504C246.001 19.5626 251.42 19.798 257.408 23.2956L378.237 92.9776C389.945 99.771 399.412 116.25 399.379 129.769L398.877 426.49C398.844 440.009 389.31 445.457 377.602 438.664L256.772 368.982C245.064 362.189 235.597 345.71 235.631 332.19L236.166 35.4698Z" fill="#202124"/>
<path fill-rule="evenodd" clip-rule="evenodd" d="M236.166 35.4698C236.199 28.8782 238.441 24.2036 242.12 21.9504C246.001 19.5626 251.42 19.798 257.408 23.2956L378.237 92.9776C389.945 99.771 399.412 116.25 399.379 129.769L398.877 426.49C398.844 440.009 389.31 445.457 377.602 438.664L256.772 368.982C245.064 362.189 235.597 345.71 235.631 332.19L236.166 35.4698Z" fill="#29292D"/>
<path fill-rule="evenodd" clip-rule="evenodd" d="M382.505 117.696C385.683 119.546 388.259 118.066 388.259 114.4C388.259 110.734 385.717 106.295 382.539 104.446C379.361 102.596 376.785 104.076 376.785 107.741C376.785 111.407 379.328 115.88 382.505 117.696Z" fill="#36363A"/>
<path fill-rule="evenodd" clip-rule="evenodd" d="M290.749 58.2373C290.749 57.2284 291.452 56.8585 292.321 57.363C304.866 64.4926 325.472 76.1287 338.017 83.2583C338.887 83.7628 339.589 85.0071 339.589 85.9824V87.9666C339.589 88.9755 338.887 89.3454 338.017 88.8409C325.472 81.7113 304.866 70.0752 292.321 62.9456C291.452 62.4411 290.749 61.1968 290.749 60.2215V58.2373Z" fill="#36363A"/>
<path fill-rule="evenodd" clip-rule="evenodd" d="M289.87 179.913C289.87 177.189 291.777 176.146 294.152 177.525L347.241 207.692C349.582 209.104 351.489 212.433 351.489 215.158V220.538C351.489 223.262 349.582 224.305 347.207 222.926L294.119 192.726C291.777 191.314 289.87 187.984 289.87 185.26V179.913Z" fill="#303034"/>
<path fill-rule="evenodd" clip-rule="evenodd" d="M262.14 188.657C262.14 186.269 263.846 185.328 265.887 186.572C295.994 203.69 345.336 231.603 375.443 248.687C377.517 249.932 379.189 252.858 379.189 255.245V259.987C379.189 262.375 377.483 263.317 375.443 262.072C345.336 244.954 295.994 217.041 265.887 199.957C263.813 198.713 262.14 195.787 262.14 193.399V188.657Z" fill="#303034"/>
<path opacity="0.5" fill-rule="evenodd" clip-rule="evenodd" d="M268.031 235.035C268.031 231.504 270.506 230.091 273.55 231.874C305.832 250.505 338.079 269.775 370.361 288.406C373.405 290.189 375.88 294.46 375.847 297.991L376.014 426.526C376.014 430.057 373.539 431.47 370.461 429.687C338.18 411.056 305.932 391.786 273.651 373.155C270.606 371.372 268.131 367.101 268.164 363.57L268.031 235.035Z" fill="#333337"/>
<path fill-rule="evenodd" clip-rule="evenodd" d="M265.583 232.815L269.296 230.965C270.233 230.528 271.471 230.662 272.809 231.436C303.317 249.024 333.792 267.252 364.3 284.841C367.177 286.522 369.519 290.558 369.485 293.887L369.619 415.36C369.619 416.739 369.218 417.781 368.515 418.42C367.813 419.026 365.137 420.203 364.166 420.707C333.658 403.119 303.417 382.537 272.876 364.948C269.999 363.267 267.657 359.231 267.69 355.902L265.583 232.815Z" fill="#353539"/>
<path fill-rule="evenodd" clip-rule="evenodd" d="M263.942 236.244C263.942 232.915 266.283 231.57 269.16 233.251C299.668 250.84 330.143 269.067 360.652 286.656C363.529 288.338 365.87 292.373 365.837 295.703L365.971 417.175C365.971 420.505 363.629 421.85 360.752 420.169C330.244 402.58 299.769 384.352 269.26 366.764C266.384 365.082 264.042 361.046 264.075 357.717L263.942 236.244Z" fill="#38383E"/>
<path fill-rule="evenodd" clip-rule="evenodd" d="M302.279 287.901C302.279 286.892 302.647 286.152 303.216 285.782C303.818 285.412 304.655 285.446 305.591 285.984L309.672 288.338C311.412 290.625 313.519 292.609 315.727 293.887C317.968 295.199 319.975 295.569 321.547 295.165L324.457 296.847C326.264 297.889 327.769 300.479 327.736 302.564L327.702 315.007C319.206 310.03 310.743 305.053 302.246 300.075L302.279 287.901ZM315.559 291.499C319.841 293.988 323.086 292.138 322.751 287.363C322.417 282.587 318.67 276.702 314.389 274.18C310.074 271.691 306.862 273.541 307.197 278.316C307.498 283.092 311.244 288.977 315.559 291.499Z" fill="#3E3E44"/>
<path fill-rule="evenodd" clip-rule="evenodd" d="M269.2 293.451C269.2 292.072 270.17 291.501 271.374 292.207C300.444 308.955 329.481 325.736 358.551 342.484C359.755 343.19 360.725 344.872 360.692 346.251L360.758 359.871C360.758 361.25 359.788 361.822 358.584 361.115C329.514 344.367 300.478 327.586 271.408 310.838C270.203 310.132 269.233 308.45 269.267 307.071L269.2 293.451Z" fill="#3E3E44"/>
<path fill-rule="evenodd" clip-rule="evenodd" d="M284.14 354.019C284.14 352.64 285.11 352.068 286.314 352.774C302.037 361.821 317.726 370.867 333.448 379.914C334.652 380.62 335.623 382.302 335.589 383.68L335.656 397.301C335.656 398.68 334.686 399.251 333.482 398.545C317.759 389.499 302.07 380.452 286.348 371.405C285.143 370.699 284.173 369.018 284.207 367.639L284.14 354.019Z" fill="#3E3E44"/>
<path fill-rule="evenodd" clip-rule="evenodd" d="M269.2 318.336C269.2 316.957 270.17 316.385 271.374 317.092C300.444 333.839 329.481 350.621 358.551 367.369C359.755 368.075 360.725 369.757 360.692 371.136L360.758 384.756C360.758 386.135 359.788 386.706 358.584 386C329.514 369.252 300.478 352.471 271.408 335.723C270.203 335.017 269.233 333.335 269.267 331.956L269.2 318.336Z" fill="#3E3E44"/>
<path fill-rule="evenodd" clip-rule="evenodd" d="M350.658 354.085C347.514 352.235 344.737 347.931 344.503 344.4C344.269 340.902 346.611 339.523 349.788 341.373C352.933 343.222 355.709 347.527 355.943 351.058C356.178 354.59 353.836 355.935 350.658 354.085Z" fill="#45454C"/>
<path fill-rule="evenodd" clip-rule="evenodd" d="M352.237 345.239L353.073 345.643L349.327 351.36L346.049 346.45L347.153 346.887L348.859 348.535L352.237 345.239Z" fill="#4D4D54"/>
<path fill-rule="evenodd" clip-rule="evenodd" d="M350.658 377.692C347.514 375.843 344.737 371.538 344.503 368.007C344.269 364.509 346.611 363.131 349.788 364.98C352.933 366.83 355.709 371.168 355.943 374.666C356.178 378.163 353.836 379.509 350.658 377.692Z" fill="#45454C"/>
<path fill-rule="evenodd" clip-rule="evenodd" d="M352.237 368.813L353.073 369.251L349.327 374.934L346.049 370.024L347.153 370.461L348.859 372.109L352.237 368.813Z" fill="#4D4D54"/>
<path fill-rule="evenodd" clip-rule="evenodd" d="M276.627 301.353C276.594 301.017 276.861 300.714 277.196 300.681C277.53 300.647 277.831 300.916 277.865 301.252L278.065 304.313L279.838 303.27C280.139 303.102 280.507 303.203 280.675 303.505C280.842 303.808 280.742 304.178 280.44 304.346L278.734 305.322L281.31 306.801C281.611 306.969 281.712 307.373 281.544 307.676C281.377 307.978 280.976 308.079 280.675 307.911L279.37 307.138L280.741 309.357C280.909 309.66 280.842 310.03 280.541 310.232C280.24 310.433 279.872 310.332 279.671 310.03L278.266 307.81L278.366 309.357C278.4 309.693 278.132 309.996 277.798 310.03C277.463 310.063 277.162 309.794 277.129 309.458L276.928 306.398L275.389 307.306C275.088 307.474 274.72 307.373 274.553 307.07C274.386 306.768 274.486 306.398 274.787 306.23L276.259 305.389L273.683 303.909C273.382 303.741 273.282 303.337 273.449 303.035C273.616 302.732 274.018 302.631 274.319 302.799L275.624 303.573L274.252 301.353C274.051 301.05 274.152 300.681 274.453 300.479C274.754 300.311 275.122 300.378 275.323 300.681L276.727 302.9L276.627 301.353Z" fill="#45454D"/>
<path fill-rule="evenodd" clip-rule="evenodd" d="M289.766 308.921C289.732 308.584 290 308.282 290.334 308.248C290.669 308.214 290.97 308.483 291.003 308.82L291.204 311.88L292.977 310.837C293.278 310.669 293.646 310.77 293.813 311.073C293.981 311.376 293.88 311.745 293.579 311.914L291.873 312.889L294.449 314.369C294.75 314.537 294.85 314.94 294.683 315.243C294.516 315.546 294.114 315.647 293.813 315.478L292.509 314.705L293.88 316.925C294.081 317.227 293.981 317.597 293.679 317.799C293.378 317.967 293.011 317.9 292.81 317.597L291.405 315.378L291.505 316.925C291.539 317.261 291.271 317.564 290.937 317.597C290.602 317.631 290.301 317.362 290.268 317.025L290.067 313.965L288.528 314.873C288.227 315.041 287.859 314.94 287.692 314.638C287.525 314.335 287.625 313.965 287.926 313.797L289.398 312.956L286.822 311.476C286.521 311.308 286.421 310.905 286.588 310.602C286.755 310.299 287.157 310.198 287.458 310.367L288.762 311.14L287.391 308.921C287.223 308.618 287.29 308.248 287.591 308.046C287.893 307.878 288.261 307.945 288.461 308.248L289.866 310.468L289.766 308.921Z" fill="#45454D"/>
<path fill-rule="evenodd" clip-rule="evenodd" d="M302.621 316.253C302.588 315.916 302.855 315.614 303.19 315.58C303.524 315.546 303.825 315.815 303.859 316.152L304.06 319.212L305.832 318.169C306.134 318.001 306.501 318.102 306.669 318.405C306.836 318.708 306.736 319.078 306.435 319.246L304.729 320.221L307.304 321.701C307.605 321.869 307.706 322.272 307.538 322.575C307.371 322.878 306.97 322.979 306.669 322.81L305.364 322.037L306.736 324.257C306.936 324.559 306.836 324.929 306.535 325.131C306.234 325.333 305.866 325.232 305.665 324.929L304.26 322.71L304.361 324.257C304.394 324.593 304.126 324.896 303.792 324.929C303.457 324.963 303.156 324.694 303.123 324.357L302.922 321.297L301.384 322.205C301.082 322.373 300.714 322.272 300.547 321.97C300.38 321.667 300.48 321.297 300.781 321.129L302.253 320.288L299.678 318.808C299.377 318.64 299.276 318.237 299.443 317.934C299.611 317.631 300.012 317.531 300.313 317.699L301.618 318.472L300.246 316.253C300.046 315.95 300.146 315.58 300.447 315.378C300.748 315.21 301.116 315.277 301.317 315.58L302.722 317.8L302.621 316.253Z" fill="#45454D"/>
<path fill-rule="evenodd" clip-rule="evenodd" d="M315.506 323.617C315.472 323.281 315.74 322.978 316.074 322.944C316.409 322.911 316.71 323.18 316.743 323.516L316.944 326.577L318.717 325.534C319.018 325.366 319.386 325.467 319.553 325.769C319.72 326.072 319.62 326.442 319.319 326.61L317.613 327.585L320.189 329.065C320.49 329.233 320.59 329.637 320.423 329.94C320.256 330.242 319.854 330.343 319.553 330.175L318.249 329.401L319.62 331.621C319.787 331.924 319.72 332.294 319.419 332.495C319.118 332.664 318.75 332.596 318.55 332.294L317.145 330.074L317.245 331.621C317.279 331.957 317.011 332.26 316.676 332.294C316.342 332.327 316.041 332.058 316.007 331.722L315.807 328.662L314.268 329.57C313.967 329.738 313.599 329.637 313.432 329.334C313.264 329.032 313.365 328.662 313.666 328.493L315.138 327.653L312.562 326.173C312.261 326.005 312.16 325.601 312.328 325.299C312.495 324.996 312.896 324.895 313.197 325.063L314.502 325.837L313.131 323.617C312.93 323.314 313.03 322.944 313.331 322.743C313.632 322.541 314 322.642 314.201 322.944L315.606 325.164L315.506 323.617Z" fill="#45454D"/>
<path fill-rule="evenodd" clip-rule="evenodd" d="M276.627 326.004C276.594 325.667 276.861 325.365 277.196 325.331C277.53 325.298 277.831 325.567 277.865 325.903L278.066 328.963L279.838 327.921C280.139 327.753 280.507 327.853 280.675 328.156C280.842 328.459 280.742 328.829 280.441 328.997L278.735 329.972L281.31 331.452C281.611 331.62 281.712 332.024 281.544 332.326C281.377 332.629 280.976 332.73 280.675 332.562L279.37 331.788L280.742 334.008C280.909 334.31 280.842 334.68 280.541 334.882C280.24 335.05 279.872 334.983 279.671 334.68L278.266 332.461L278.367 334.008C278.4 334.344 278.132 334.647 277.798 334.68C277.463 334.714 277.162 334.445 277.129 334.109L276.928 331.048L275.389 331.956C275.088 332.124 274.72 332.024 274.553 331.721C274.386 331.418 274.486 331.048 274.787 330.88L276.259 330.039L273.683 328.56C273.382 328.392 273.282 327.988 273.449 327.685C273.617 327.383 274.018 327.282 274.319 327.45L275.624 328.223L274.252 326.004C274.051 325.701 274.152 325.331 274.453 325.129C274.754 324.928 275.122 325.028 275.323 325.331L276.727 327.551L276.627 326.004Z" fill="#45454C"/>
<path fill-rule="evenodd" clip-rule="evenodd" d="M289.766 333.57C289.732 333.234 290 332.931 290.334 332.898C290.669 332.864 290.97 333.133 291.003 333.469L291.204 336.53L292.977 335.487C293.278 335.319 293.646 335.42 293.813 335.723C293.981 336.025 293.88 336.395 293.579 336.563L291.873 337.539L294.449 339.018C294.75 339.186 294.85 339.59 294.683 339.893C294.516 340.195 294.114 340.296 293.813 340.128L292.509 339.355L293.88 341.574C294.081 341.877 293.981 342.247 293.68 342.449C293.378 342.65 293.011 342.549 292.81 342.247L291.405 340.027L291.505 341.574C291.539 341.911 291.271 342.213 290.937 342.247C290.602 342.28 290.301 342.011 290.268 341.675L290.067 338.615L288.528 339.523C288.227 339.691 287.859 339.59 287.692 339.287C287.525 338.985 287.625 338.615 287.926 338.447L289.398 337.606L286.822 336.126C286.521 335.958 286.421 335.554 286.588 335.252C286.755 334.949 287.157 334.848 287.458 335.016L288.762 335.79L287.391 333.57C287.224 333.268 287.29 332.898 287.592 332.696C287.893 332.494 288.261 332.595 288.461 332.898L289.866 335.117L289.766 333.57Z" fill="#45454C"/>
<path fill-rule="evenodd" clip-rule="evenodd" d="M302.621 340.901C302.588 340.565 302.855 340.262 303.19 340.229C303.524 340.195 303.825 340.464 303.859 340.8L304.06 343.861L305.832 342.818C306.134 342.65 306.501 342.751 306.669 343.054C306.836 343.356 306.736 343.726 306.435 343.894L304.729 344.87L307.304 346.349C307.605 346.518 307.706 346.921 307.538 347.224C307.371 347.526 306.97 347.627 306.669 347.459L305.364 346.686L306.736 348.905C306.936 349.208 306.836 349.578 306.535 349.78C306.234 349.948 305.866 349.881 305.665 349.578L304.26 347.358L304.361 348.905C304.394 349.242 304.126 349.544 303.792 349.578C303.457 349.611 303.156 349.342 303.123 349.006L302.922 345.946L301.384 346.854C301.082 347.022 300.714 346.921 300.547 346.618C300.38 346.316 300.48 345.946 300.781 345.778L302.253 344.937L299.678 343.457C299.377 343.289 299.276 342.885 299.443 342.583C299.611 342.28 300.012 342.179 300.313 342.347L301.618 343.121L300.246 340.901C300.046 340.599 300.146 340.229 300.447 340.027C300.748 339.825 301.116 339.926 301.317 340.229L302.722 342.448L302.621 340.901Z" fill="#45454C"/>
<path fill-rule="evenodd" clip-rule="evenodd" d="M315.506 348.266C315.472 347.93 315.74 347.627 316.074 347.594C316.409 347.56 316.71 347.829 316.743 348.165L316.944 351.226L318.717 350.183C319.018 350.015 319.386 350.116 319.553 350.419C319.721 350.721 319.62 351.091 319.319 351.259L317.613 352.235L320.189 353.714C320.49 353.883 320.59 354.286 320.423 354.589C320.256 354.891 319.854 354.992 319.553 354.824L318.249 354.051L319.62 356.27C319.787 356.573 319.721 356.943 319.419 357.145C319.118 357.346 318.75 357.246 318.55 356.943L317.145 354.723L317.245 356.27C317.279 356.607 317.011 356.909 316.676 356.943C316.342 356.976 316.041 356.707 316.007 356.371L315.807 353.311L314.268 354.219C313.967 354.387 313.599 354.286 313.432 353.983C313.265 353.681 313.365 353.311 313.666 353.143L315.138 352.302L312.562 350.822C312.261 350.654 312.161 350.25 312.328 349.948C312.495 349.645 312.897 349.544 313.198 349.712L314.502 350.486L313.131 348.266C312.93 347.964 313.03 347.594 313.331 347.392C313.632 347.224 314 347.291 314.201 347.594L315.606 349.813L315.506 348.266Z" fill="#45454C"/>
<path fill-rule="evenodd" clip-rule="evenodd" d="M294.016 145.342C294.016 144.031 294.25 142.921 294.652 141.979C295.153 140.869 295.889 139.995 296.826 139.39C297.83 138.751 299 138.482 300.271 138.616C301.342 138.717 302.479 139.087 303.684 139.76L311.946 144.501L312.214 144.871C313.853 147.024 315.66 149.042 317.533 150.757C319.339 152.405 321.246 153.851 323.186 154.994C325.093 156.104 326.866 156.81 328.505 157.18C330.077 157.516 331.482 157.516 332.687 157.214L333.556 156.978C334.727 157.651 339.444 160.173 339.912 160.644C341.986 161.855 343.86 163.906 345.198 166.227C346.536 168.547 347.339 171.204 347.339 173.592L347.305 190.205C347.406 194.678 347.272 196.998 345.097 197.974C343.224 198.781 340.949 197.671 336.801 195.216C332.185 192.492 326.766 189.297 319.139 184.824C312.448 180.89 306.427 177.358 301.442 174.5L300.64 174.029C294.317 170.363 293.916 170.161 293.916 161.821L294.016 145.342ZM298.733 143.762C298.565 144.165 298.465 144.703 298.465 145.342L298.432 161.855C298.432 167.572 298.699 167.74 302.914 170.161L303.717 170.632C310.575 174.601 316.329 177.964 321.447 180.957C325.628 183.412 331.951 187.145 339.109 191.382C341.953 193.064 343.358 193.904 343.391 193.904C343.692 193.77 343.023 192.795 342.956 190.34L342.99 173.592C342.99 171.977 342.388 170.094 341.451 168.446C340.481 166.765 339.21 165.352 337.771 164.512L332.921 161.72C331.282 161.989 329.509 161.956 327.635 161.552C325.561 161.115 323.353 160.207 321.012 158.862C318.804 157.584 316.63 155.936 314.589 154.053C312.582 152.203 310.709 150.151 309.036 147.932L301.543 143.593C300.974 143.257 300.439 143.055 299.97 143.022C299.669 142.988 299.402 143.022 299.235 143.156C299 143.291 298.867 143.493 298.733 143.762ZM323.186 152.875C326.799 155.465 329.509 155.835 331.817 155.297C333.322 155.196 334.694 154.759 335.898 154.019C337.102 153.279 338.072 152.236 338.842 150.959C340.013 148.907 340.581 146.149 340.381 142.887C340.046 137.91 337.939 132.428 334.828 127.518C331.717 122.642 327.602 118.337 323.153 115.748C320.008 113.932 317.065 113.158 314.522 113.326C313.017 113.427 311.645 113.864 310.441 114.604C309.237 115.344 308.267 116.387 307.497 117.664C306.326 119.716 305.758 122.474 305.958 125.736C306.293 130.713 308.4 136.195 311.511 141.105C314.623 145.981 318.771 150.286 323.186 152.875ZM315.258 138.717C318.001 143.022 321.581 146.788 325.428 149.008C327.769 150.353 329.843 150.958 331.549 150.824C332.319 150.757 332.988 150.555 333.59 150.219C334.159 149.882 334.627 149.378 334.995 148.705C335.731 147.394 336.099 145.544 335.932 143.156C335.63 138.952 333.824 134.177 331.081 129.906C328.338 125.601 324.759 121.835 320.912 119.615C318.57 118.236 316.496 117.664 314.79 117.799C314.02 117.866 313.351 118.068 312.749 118.404C312.18 118.741 311.712 119.245 311.344 119.918C310.608 121.229 310.24 123.079 310.408 125.467C310.709 129.704 312.548 134.446 315.258 138.717Z" fill="#303034"/>
<path fill-rule="evenodd" clip-rule="evenodd" d="M360.458 133.34L363.001 131.994C363.904 131.692 365.008 131.86 366.245 132.566C396.653 150.087 426.995 168.248 457.403 185.769C460.279 187.417 462.588 191.486 462.588 194.782L462.721 315.784C462.721 317.298 462.22 318.374 461.45 318.979C460.48 319.685 458.507 321.232 456.968 320.324C426.56 302.803 396.787 283.095 366.379 265.54C363.502 263.859 361.194 259.823 361.194 256.528L360.458 133.34Z" fill="#353539"/>
<path opacity="0.5" fill-rule="evenodd" clip-rule="evenodd" d="M358.919 136.703C358.919 133.407 361.26 132.062 364.137 133.71C394.545 151.231 424.886 169.392 455.294 186.913C458.171 188.561 460.479 192.63 460.479 195.926L460.613 316.928C460.613 320.224 458.271 321.569 455.394 319.921C424.986 302.4 394.645 284.239 364.237 266.718C361.36 265.036 359.052 261.001 359.052 257.705L358.919 136.703Z" fill="#38383E"/>
<path fill-rule="evenodd" clip-rule="evenodd" d="M366.457 245.263C366.457 243.817 367.461 243.278 368.699 244.018L396.698 259.926C397.936 260.665 398.939 262.414 398.939 263.86V266.685C398.939 268.131 397.936 268.669 396.698 267.93L368.699 252.022C367.461 251.283 366.457 249.534 366.457 248.088V245.263Z" fill="#404045"/>
<path fill-rule="evenodd" clip-rule="evenodd" d="M366.457 257.672C366.457 256.428 367.361 255.924 368.431 256.562C384.321 265.575 410.313 280.306 426.203 289.318C427.307 289.957 428.177 291.538 428.177 292.782V295.271C428.177 296.515 427.274 297.02 426.203 296.381C410.313 287.368 384.321 272.638 368.431 263.625C367.327 262.986 366.457 261.405 366.457 260.161V257.672Z" fill="#404045"/>
<path fill-rule="evenodd" clip-rule="evenodd" d="M446.056 192.092C450.103 193.168 453.716 197.977 454.151 202.853C454.586 207.73 451.642 210.79 447.595 209.714C443.547 208.638 439.934 203.829 439.5 198.952C439.065 194.11 442.008 191.016 446.056 192.092Z" fill="#404045"/>
<path fill-rule="evenodd" clip-rule="evenodd" d="M446.452 196.429C448.492 196.968 450.332 199.423 450.566 201.878C450.767 204.333 449.295 205.913 447.221 205.342C445.181 204.803 443.341 202.348 443.107 199.893C442.906 197.472 444.378 195.891 446.452 196.429Z" fill="#36363B"/>
<path fill-rule="evenodd" clip-rule="evenodd" d="M369.628 216.306C367.989 211.194 363.775 200.937 363.306 195.59C362.838 190.142 366.116 186.711 370.665 187.888C375.215 189.099 379.262 194.48 379.731 199.928C380.232 205.746 373.308 211.766 369.628 216.306ZM370.599 191.621C367.856 190.882 365.882 192.967 366.15 196.262C366.417 199.558 368.859 202.787 371.602 203.527C374.345 204.266 376.319 202.181 376.018 198.886C375.783 195.59 373.341 192.361 370.599 191.621Z" fill="#404045"/>
<path fill-rule="evenodd" clip-rule="evenodd" d="M368.78 222.425C368.144 223.265 369.415 224.375 370.151 223.434C370.82 222.526 371.489 221.584 372.158 220.676C372.827 219.801 371.489 218.725 370.787 219.633C370.151 220.575 369.482 221.517 368.78 222.425ZM445.485 206.484C445.586 205.307 443.88 205.206 443.779 206.282C443.646 207.358 443.445 208.502 443.211 209.578C442.943 210.587 444.549 211.125 444.883 209.981C445.151 208.838 445.385 207.661 445.485 206.484ZM443.244 214.992C443.646 213.95 442.207 213.277 441.672 214.32C441.237 215.329 440.735 216.338 440.167 217.246C439.564 218.254 441.07 219.095 441.605 218.154C442.207 217.145 442.776 216.069 443.244 214.992ZM438.226 222.324C439.096 221.449 437.791 220.34 437.089 221.046C436.286 221.786 435.45 222.391 434.48 222.895C433.51 223.4 434.246 224.947 435.283 224.409C436.353 223.837 437.323 223.131 438.226 222.324ZM429.964 225.754C431.101 225.754 431.101 224.039 429.964 224.039C429.127 224.039 427.622 223.871 426.853 223.534C425.749 223.232 425.28 224.779 426.317 225.182C427.488 225.552 428.726 225.754 429.964 225.754ZM421.567 222.694C422.404 223.333 423.507 222.055 422.571 221.315C421.701 220.676 420.831 219.936 420.062 219.163C419.292 218.389 418.055 219.566 418.858 220.373C419.727 221.248 420.631 221.987 421.567 222.694ZM415.412 216.438C416.115 217.346 417.453 216.27 416.784 215.396C416.115 214.488 415.479 213.58 414.843 212.638C414.208 211.663 412.803 212.638 413.405 213.58C414.041 214.555 414.71 215.53 415.412 216.438ZM410.762 209.141C411.331 210.116 412.803 209.242 412.234 208.266C411.665 207.291 410.963 206.181 410.26 205.34C409.591 204.466 408.22 205.509 408.922 206.417C409.525 207.358 410.16 208.132 410.762 209.141ZM405.443 202.986C406.38 203.592 407.35 202.314 406.413 201.574C405.41 200.834 404.373 200.296 403.235 199.825C402.165 199.422 401.596 201.069 402.633 201.439C403.637 201.843 404.574 202.347 405.443 202.986ZM397.95 200.733C399.154 200.632 398.887 198.917 397.85 199.018C396.645 199.085 395.475 199.287 394.304 199.623C393.233 199.926 393.668 201.574 394.772 201.271C395.843 200.968 396.88 200.8 397.95 200.733ZM390.256 203.188C391.226 202.616 390.457 201.17 389.42 201.675C388.383 202.246 387.413 202.885 386.442 203.558C385.539 204.264 386.509 205.576 387.413 204.971C388.349 204.332 389.286 203.726 390.256 203.188ZM383.499 208.098C384.302 207.291 383.265 206.114 382.361 206.82C381.492 207.594 380.655 208.401 379.819 209.208C379.016 210.015 380.22 211.226 381.023 210.419C381.826 209.611 382.662 208.838 383.499 208.098ZM377.544 214.118C378.247 213.311 377.109 212.134 376.273 212.975C375.504 213.849 374.768 214.723 374.032 215.598C373.296 216.539 374.701 217.548 375.336 216.708C376.072 215.833 376.808 214.959 377.544 214.118Z" fill="#404045"/>
<path fill-rule="evenodd" clip-rule="evenodd" d="M368.155 219.199C370.128 219.737 371.901 222.091 372.102 224.445C372.303 226.833 370.864 228.312 368.891 227.808C366.917 227.27 365.144 224.916 364.944 222.562C364.743 220.174 366.181 218.66 368.155 219.199Z" fill="#404045"/>
<path fill-rule="evenodd" clip-rule="evenodd" d="M368.36 221.316C369.363 221.585 370.266 222.762 370.367 223.973C370.467 225.184 369.731 225.924 368.728 225.688C367.724 225.419 366.821 224.242 366.721 223.031C366.62 221.821 367.356 221.047 368.36 221.316Z" fill="#36363B"/>
<path fill-rule="evenodd" clip-rule="evenodd" d="M179.169 1.37424L181.477 0.129913C182.28 -0.13913 183.317 -0.0046064 184.421 0.668C212.186 16.676 239.884 33.2558 267.65 49.2638C270.259 50.7772 272.4 54.4766 272.366 57.5033L272.5 168.013C272.5 169.391 272.065 170.4 271.329 170.938C270.46 171.577 268.653 172.99 267.215 172.183C239.45 156.175 212.253 138.182 184.488 122.174C181.878 120.661 179.737 116.962 179.771 113.935L179.169 1.37424Z" fill="#353539"/>
<path fill-rule="evenodd" clip-rule="evenodd" d="M177.76 4.43514C177.76 1.40841 179.901 0.19773 182.51 1.71109C210.275 17.7191 237.974 34.2989 265.739 50.3069C268.348 51.8203 270.489 55.5196 270.456 58.5464L270.59 169.056C270.59 172.082 268.449 173.293 265.839 171.78C238.074 155.772 210.376 139.192 182.61 123.184C180.001 121.671 177.86 117.971 177.894 114.944L177.76 4.43514Z" fill="#38383E"/>
<path fill-rule="evenodd" clip-rule="evenodd" d="M184.616 103.578C184.616 102.266 185.553 101.762 186.656 102.434L212.213 116.963C213.35 117.635 214.253 119.249 214.253 120.561V123.151C214.253 124.462 213.317 124.967 212.213 124.294L186.656 109.766C185.519 109.093 184.616 107.479 184.616 106.167V103.578Z" fill="#404045"/>
<path fill-rule="evenodd" clip-rule="evenodd" d="M184.616 114.911C184.616 113.767 185.419 113.297 186.422 113.902C200.907 122.141 224.692 135.593 239.176 143.833C240.18 144.438 240.983 145.851 240.983 146.994V149.281C240.983 150.424 240.18 150.895 239.176 150.29C224.692 142.05 200.907 128.598 186.422 120.359C185.419 119.754 184.616 118.341 184.616 117.198V114.911Z" fill="#404045"/>
<path fill-rule="evenodd" clip-rule="evenodd" d="M250.519 75.5628L250.419 130.481L265.74 139.46L265.84 84.5421L250.519 75.5628ZM204.489 31.877L204.322 105.359L219.643 114.339L219.81 40.8563L204.489 31.877ZM227.437 57.9405L227.337 118.845L242.658 127.824L242.758 66.9198L227.437 57.9405ZM181.441 36.9888L181.34 91.9071L196.661 100.886L196.762 45.9681L181.441 36.9888Z" fill="#404045"/>
<path opacity="0.03" fill-rule="evenodd" clip-rule="evenodd" d="M5.66374 393.898L65.0078 359.898C71.4641 356.939 80.7303 354.551 87.3204 358.015C93.3418 361.142 103.21 367.599 107.592 370.088C110.904 372.005 122.445 378.933 115.253 382.868C94.1112 394.436 73.2036 407.418 51.7273 419.155C47.6796 421.374 41.7251 422.181 35.503 421.643C29.2809 421.139 22.925 419.323 17.9072 416.363C14.3278 414.278 10.8488 412.227 7.36975 410.209C2.7199 407.485 0.244445 404.257 0.0102799 401.297C-0.156981 398.438 1.71639 395.714 5.66374 393.898Z" fill="#202124"/>
<path fill-rule="evenodd" clip-rule="evenodd" d="M84.6042 234.226C84.8718 236.815 84.4704 240.817 84.6711 250.604C84.8049 257.531 83.9017 269.638 83.1658 280.03C82.8647 284.335 82.2626 288.135 81.8947 291.498C81.6271 293.919 80.5566 296.341 80.2221 298.695C77.613 316.485 74.2345 332.662 72.2274 354.185C71.7591 359.129 71.2573 361.685 72.1271 366.595C72.2943 367.536 72.7626 368.512 72.8965 369.487C73.4986 374.229 73.9669 378.971 75.8066 382.905C76.0743 383.477 76.4757 384.99 76.8102 385.629C76.8102 385.629 72.5954 387.109 72.0602 387.176C71.5584 387.244 64.7344 385.327 64.7344 385.327C64.7344 385.327 62.1922 373.892 62.2256 373.22C62.6605 365.72 57.5091 367.099 62.0919 361.416C62.5267 360.709 62.4263 360.642 62.3929 359.801C62.326 352.403 61.0883 341.641 60.1517 331.989C57.4756 304.479 62.0249 306.464 63.0619 293.314C61.1887 277.508 57.3753 255.043 57.7767 235.571L84.6042 234.226Z" fill="#FECACA"/>
<path fill-rule="evenodd" clip-rule="evenodd" d="M74.8687 380.787C75.6046 382.132 76.4075 384.083 77.0765 385.529C77.9462 387.412 78.381 388.657 78.7824 390.136C78.9831 390.876 78.9497 391.583 78.6152 391.986C76.9761 394.206 68.7138 390.17 65.9709 387.715C64.198 386.134 64.1645 384.251 63.7296 381.964C63.0941 378.534 62.9937 378.13 62.1574 374.599L61.2208 384.184L60.418 384.655C60.2508 380.754 59.8494 375.575 59.2473 372.245C59.0131 370.9 58.6117 369.387 58.5448 368.647C58.2102 364.308 60.3512 362.156 62.2913 360.945C61.5554 363.568 63.462 367.873 64.3317 373.288C65.2349 378.938 68.3458 385.126 70.7877 385.664C71.8247 385.899 74.0994 384.587 75.3371 383.881C75.8723 383.612 75.337 381.998 74.8687 380.787Z" fill="#434347"/>
<path fill-rule="evenodd" clip-rule="evenodd" d="M51.1949 225.916C48.3849 235.063 42.8319 243.404 41.728 250.601C40.6241 257.831 41.2262 264.658 42.5977 275.453C43.5344 282.785 47.2476 299.331 46.4447 305.62C45.2739 314.801 41.9622 320.249 40.8582 331.011C39.955 339.687 41.3934 352.265 41.8283 364.238C41.9956 368.811 41.5942 368.879 40.5237 372.981C40.1892 374.259 39.955 375.672 39.7543 377.253C39.3194 380.784 39.0518 384.988 39.4533 390.234C39.5871 392.05 40.2561 392.958 40.4568 395.447L50.5928 398.709C50.3587 396.556 50.0576 393.227 49.9238 389.561C49.79 386.299 49.8234 382.768 49.8568 379.506C49.8568 374.865 49.422 371.939 50.2248 367.533C52.9679 352.904 57.1829 340.057 60.0597 328.018C61.5651 321.729 62 316.146 64.2079 307.167C65.1111 303.501 65.847 299.836 66.0477 296.069C66.6164 286.081 68.5231 274.075 68.59 263.817C76.7858 251.845 82.1382 245.96 84.3795 239.738C84.8144 235.669 83.4094 230.792 83.4094 230.792L51.1949 225.916Z" fill="#FFCFCF"/>
<path fill-rule="evenodd" clip-rule="evenodd" d="M41.5211 369.45C40.6514 371.468 39.8151 372.511 39.3468 375.369C38.8785 378.228 39.6144 382.869 39.0458 386.434L38.1425 392.05C37.6073 395.312 38.1426 397.7 41.5211 400.895C44.5651 403.787 47.7094 405.233 49.6161 404.594C51.0211 404.123 52.3591 401.937 51.1549 395.547C50.1514 390.234 50.1848 385.189 49.9172 379.506C49.5493 384.987 49.4154 386.871 50.051 392.386C50.2183 393.933 50.3186 396.422 48.5122 396.422C41.0862 396.523 40.9859 394.505 40.6848 392.151C39.8151 385.895 40.0158 374.999 41.5211 369.45Z" fill="#434347"/>
<path fill-rule="evenodd" clip-rule="evenodd" d="M51.1921 225.916C48.3821 235.063 42.8291 243.404 41.7252 250.601C40.0861 261.362 41.9593 269.904 44.8697 293.345C45.2377 296.405 44.8028 299.297 44.2341 301.954C42.4946 310.126 50.4897 312.413 59.9566 309.387C71.5311 305.687 82.2023 297.011 82.9048 292.975C84.2094 281.541 87.4209 259.782 87.2201 249.995C87.0194 240.209 84.8116 236.846 84.544 234.223L84.4436 231.7C84.176 229.683 55.3067 226.555 51.1921 225.916Z" fill="#2F2F33"/>
<path fill-rule="evenodd" clip-rule="evenodd" d="M30.6785 178.026C51.9206 189.527 60.8189 167.533 63.0267 150.987C63.9634 143.857 63.7292 137.03 60.6516 132.759C57.4402 128.287 52.021 126.47 46.7356 126.672C35.2615 127.109 29.1063 138.073 31.8494 149.541C34.559 160.706 39.8779 172.813 30.6785 178.026Z" fill="#E33D15"/>
<path fill-rule="evenodd" clip-rule="evenodd" d="M58.7435 133.23C52.9565 130.237 44.6273 136.963 47.3368 146.144C48.2399 141.301 51.0498 135.954 58.7435 133.23Z" fill="#ED461E"/>
<path fill-rule="evenodd" clip-rule="evenodd" d="M58.0427 132.457C78.4151 125.663 92.9668 157.31 69.6507 167.13C47.3381 176.513 35.4291 139.99 58.0427 132.457Z" fill="#E33D15"/>
<path fill-rule="evenodd" clip-rule="evenodd" d="M137.941 189.257C139.145 191.006 136.87 192.25 135.867 192.284C134.228 192.486 131.919 191.645 131.317 192.755C130.682 193.999 123.022 191.443 123.122 191.376C126.266 189.089 129.143 188.551 129.645 188.584C134.495 188.921 133.09 190.031 137.941 189.257Z" fill="#FFCFCF"/>
<path fill-rule="evenodd" clip-rule="evenodd" d="M124.207 198.538C117.182 200.523 107.614 207.417 100.924 208.93C98.8165 209.401 95.5382 210.343 93.8656 208.527C85.2684 199.211 97.2108 202.271 98.2144 198.74C104.303 194.167 113.87 196.319 121.698 192.081C122.233 191.745 122.735 191.442 123.237 191.173C126.314 189.626 128.02 189.761 133.339 192.451C134.878 193.225 135.681 193.124 137.052 193.09L142.405 192.384C144.044 192.317 145.081 192.72 145.348 193.258C145.616 193.864 145.047 197.261 144.077 198.606C143.877 199.245 142.672 199.716 140.766 199.749L132.938 202.171L132.57 201.969C127.886 199.346 125.879 198.471 124.207 198.538Z" fill="#FFCFCF"/>
<path fill-rule="evenodd" clip-rule="evenodd" d="M90.8274 209.37C84.505 203.451 75.5398 194.841 72.3284 188.014C70.2544 183.575 69.853 171.166 76.5768 169.585C78.8181 168.172 82.2637 177.421 84.5385 181.154C88.6865 187.913 91.7975 191.949 96.6815 198.171C101.867 194.774 109.059 194.438 115.783 192.756C116.887 192.487 117.89 192.454 118.894 192.655C119.697 192.487 120.5 192.184 121.235 191.848C122.005 192.05 124.547 196.456 124.112 199.045C123.577 199.213 122.373 199.55 121.838 199.751C121.035 200.02 120.6 200.794 119.797 201.231C117.121 202.677 105.045 208.731 99.0567 210.076C96.7819 210.58 93.1022 211.791 91.2958 209.84C91.1285 209.706 90.9612 209.538 90.8274 209.37Z" fill="#FFB156"/>
<path fill-rule="evenodd" clip-rule="evenodd" d="M90.8327 209.369C88.7253 207.419 86.3503 205.132 83.9753 202.744C88.9595 198.372 88.4912 190.604 85.2799 185.862C83.1725 182.768 81.9349 180.515 80.8645 178.06C80.53 176.176 80.2289 174.629 79.8943 173.587C79.7605 172.981 79.493 172.376 79.1584 171.838C80.1954 173.149 80.7975 175.705 82.47 179.27C85.3468 185.391 89.7289 188.989 90.0968 196.186C90.3644 201.5 92.7729 207.789 96.7201 210.614C94.7465 211.017 92.5387 211.219 91.2676 209.84C91.1338 209.706 90.9665 209.537 90.8327 209.369Z" fill="#F5A548"/>
<path fill-rule="evenodd" clip-rule="evenodd" d="M46.9887 216.498C50.8691 225.545 44.2456 230.59 46.6542 236.811L45.9182 241.049C53.0101 246.194 78.4337 246.564 84.8231 236.374L84.9569 231.296C86.0608 228.874 85.3249 222.72 85.0238 221.106C83.9868 215.96 84.4886 213.236 83.9199 207.284C83.7861 205.77 83.485 204.829 83.3512 203.315C89.0047 199.078 88.6701 190.839 85.2914 185.895C83.1839 182.801 81.9462 180.548 80.8757 178.093C80.5412 176.209 80.2402 174.662 79.9057 173.62C79.7049 172.745 79.2366 171.905 78.7348 171.165C77.1291 168.844 74.5198 168.575 69.1675 169.786C58.5966 172.241 47.6912 177.756 42.8406 182.935C39.2947 186.736 39.4619 190.906 41.4691 199.986C42.7403 205.838 44.9816 211.891 46.9887 216.498Z" fill="#FFB156"/>
<path fill-rule="evenodd" clip-rule="evenodd" d="M46.8857 216.432C50.7662 225.478 44.3099 230.657 46.7185 236.912L45.9824 241.083C53.0743 246.632 78.4979 246.396 84.8873 236.206L84.7535 231.767C84.7535 231.599 72.2759 242.899 58.0587 236.61C54.9811 235.231 52.1711 228.471 56.1853 215.49C56.5533 214.246 61.1028 214.178 67.4922 209.436C62.742 211.454 53.8437 214.212 53.3754 202.105C53.1747 196.691 52.3719 192.621 49.6288 188.855C48.2907 187.039 40.4628 196.59 41.6337 201.197C43.1725 207.049 45.4138 213.001 46.8857 216.432Z" fill="#F5A548"/>
<path fill-rule="evenodd" clip-rule="evenodd" d="M74.8401 173.586C75.7098 176.479 76.1781 190.671 74.539 196.959C68.8524 190.502 52.2943 182.095 54.4017 177.555C57.0443 171.905 73.3348 168.575 74.8401 173.586Z" fill="#FECACA"/>
<path fill-rule="evenodd" clip-rule="evenodd" d="M74.007 174.225C74.7764 176.815 75.0439 189.662 73.94 195.211C69.5914 189.964 53.602 181.994 55.5422 177.488C57.7833 172.376 72.669 169.753 74.007 174.225Z" fill="#FFCFCF"/>
<path fill-rule="evenodd" clip-rule="evenodd" d="M59.4134 162.223C60.2162 166.897 59.8148 171.336 58.343 175.877C62.1563 179.408 68.9468 177.928 70.519 174.7C70.1845 172.614 69.783 170.698 69.5823 168.579L59.4134 162.223Z" fill="#FFCFCF"/>
<path fill-rule="evenodd" clip-rule="evenodd" d="M59.4106 162.223C59.812 164.476 59.9123 166.662 59.7451 168.814C60.8489 173.354 69.3119 176.415 70.1817 172.816C69.9475 171.404 69.7134 170.059 69.5461 168.579L59.4106 162.223Z" fill="#FFCFCF"/>
<path fill-rule="evenodd" clip-rule="evenodd" d="M75.1675 142.447C77.0742 145.474 78.0777 148.534 77.6429 152.839C77.5425 153.949 77.6763 154.621 78.0109 155.328C79.7837 159.363 79.6165 160.608 78.7468 163.836C77.877 166.964 77.9439 168.612 76.8735 169.688C75.7696 170.798 74.1305 171.067 72.759 171.134C69.9157 171.302 65.032 169.419 62.1887 167.872C60.0813 166.728 60.1816 165.921 59.2785 163.903C56.3013 161.314 58.2414 159.397 59.2115 159.229C62.0548 158.657 62.5231 161.986 64.2291 162.726C63.928 156.908 74.9668 147.088 75.1675 142.447Z" fill="#FFCFCF"/>
<path fill-rule="evenodd" clip-rule="evenodd" d="M76.4401 144.77C77.5105 147.09 77.9789 149.612 77.6444 152.841C77.544 153.951 77.6779 154.623 78.0124 155.329C79.7853 159.365 79.618 160.609 78.7483 163.838C78.3803 165.25 78.1796 166.36 77.9789 167.235C77.3099 168.244 75.9384 168.782 74.6673 168.21C73.4631 167.672 72.3257 166.259 72.0246 163.905C71.8239 162.224 68.412 161.147 67.7095 159.432C67.1409 158.02 68.7131 156.439 69.6497 155.632C72.9279 152.807 75.0352 148.94 76.4401 144.77Z" fill="#FFCFCF"/>
<path fill-rule="evenodd" clip-rule="evenodd" d="M75.1644 142.447C73.5588 149.577 64.2929 154.991 64.226 162.726C66.7682 154.655 75.7331 149.14 75.1644 142.447Z" fill="#FFCFCF"/>
<path fill-rule="evenodd" clip-rule="evenodd" d="M42.374 234.557C43.6451 235.33 45.9197 236.07 46.8563 236.642C47.3246 236.944 50.7701 239.063 52.6768 240.375C54.7507 241.754 55.3194 243.771 56.557 246.025C57.4267 247.841 57.8282 249.152 57.9285 250.06C58.0623 251.002 55.6874 252.818 54.6838 252.582C52.3757 252.078 50.0342 249.253 49.4321 248.917C44.2807 246.226 41.8388 245.957 39.9655 243.839C39.1627 242.931 38.6944 240.274 37.0553 237.886L40.1997 235.027L42.374 234.557Z" fill="#FFCFCF"/>
<path fill-rule="evenodd" clip-rule="evenodd" d="M42.3722 182.902C34.0426 186.399 26.9173 202.777 19.3571 212.564C17.8518 214.481 17.8183 216.398 18.6212 217.844C18.9223 218.617 19.424 219.492 20.093 220.534C23.6724 225.848 26.6162 230.354 34.3102 236.946C34.8789 237.45 35.4142 237.652 36.2839 237.887C36.7523 238.291 37.4548 238.997 37.9565 239.434C37.321 238.594 41.1345 234.457 42.874 234.76C42.4391 234.222 41.9708 233.616 41.5024 232.977C41.4355 232.17 41.4021 231.935 41.0006 231.329C37.7892 226.655 34.6782 220.433 30.6974 216.061C37.4213 210.58 41.469 206.847 47.022 200.053C54.8164 190.469 48.6947 180.245 42.3722 182.902Z" fill="#FFB156"/>
<path fill-rule="evenodd" clip-rule="evenodd" d="M126.861 121.8L82.0348 95.6016L92.4385 45.9632V45.9296V45.8959V45.8623V45.8287V45.7951V45.7614V45.7278V45.6942V45.6605V45.6269V45.5933V45.5596V45.526V45.4924V45.4587V45.4251V45.3915V45.3579V45.3242V45.2906V45.257V45.2233V45.1897V45.1561H92.4718H92.5053H92.5388H92.5722H92.6057C92.773 45.0552 93.0072 45.0216 93.2748 45.1224L138.101 71.3205C137.131 70.177 131.176 107.17 126.861 121.8Z" fill="#4991FF"/>
<path fill-rule="evenodd" clip-rule="evenodd" d="M92.4385 45.9619C111.272 67.6535 133.718 81.0384 131.544 99.8713L126.861 121.798L82.0348 95.6003L92.4385 45.9619Z" fill="#4991FF"/>
<path fill-rule="evenodd" clip-rule="evenodd" d="M126.218 66.4093L125.215 116.754L78.2145 89.4797L78.3484 39.5723L126.218 66.4093Z" fill="#97B4E1"/>
<path fill-rule="evenodd" clip-rule="evenodd" d="M125.354 66.8481L126.358 66.2764L126.224 116.184L125.22 116.756L125.354 66.8481Z" fill="#9EBFF1"/>
<path fill-rule="evenodd" clip-rule="evenodd" d="M78.3455 39.5717L79.349 39L126.349 66.2742L125.346 66.8459L78.3455 39.5717Z" fill="#9EBFF1"/>
<path fill-rule="evenodd" clip-rule="evenodd" d="M123.573 105.959V109.12L80.052 83.8641V80.7028L123.573 105.959ZM123.674 69.773V72.9342L80.1523 47.6778V44.5166L123.674 69.773ZM123.64 74.9521L80.1523 49.6957V52.8569L123.64 78.1133V74.9521ZM123.64 80.0975L80.1189 54.8411V58.0024L123.607 83.2587L123.64 80.0975ZM123.64 85.2766L80.1189 60.0202V63.1814L123.64 88.4378V85.2766ZM123.607 90.4556L80.0855 65.1993V68.3605L123.607 93.6169V90.4556ZM123.607 95.6347L80.0855 70.3783V73.5396L123.607 98.796V95.6347ZM123.573 100.78L80.052 75.5238V78.685L123.573 103.941V100.78Z" fill="#A8C1E9"/>
<path opacity="0.5" fill-rule="evenodd" clip-rule="evenodd" d="M114.744 85.7136L125.415 123.48C125.549 123.884 125.85 124.456 126.084 124.691L81.2584 98.4931C80.857 98.2577 80.6563 97.6524 80.5894 97.2824L69.9181 59.5156L67.911 52.4196C67.8106 51.8815 68.1787 51.2425 68.3125 51.1416C70.1858 52.8567 80.1211 58.9438 81.9275 60.0536C85.0051 62.475 85.1055 65.4681 89.7553 70.4118C90.6585 71.3534 90.9596 71.6225 92.0635 72.2615L114.744 85.7136Z" fill="#4991FF"/>
<path opacity="0.5" fill-rule="evenodd" clip-rule="evenodd" d="M115.273 84.2678C115.34 84.2005 115.407 84.1333 115.508 84.0997C115.842 83.8979 116.177 83.9988 116.277 84.3351L126.847 121.799L137.251 72.1609C137.351 71.6901 137.652 71.2529 138.02 71.0511C138.087 71.0175 138.154 70.9838 138.221 70.9502C138.655 70.8493 138.89 71.2193 138.789 71.7573L128.319 121.732C128.152 122.606 127.918 123.245 127.684 123.683C127.45 124.153 127.148 124.456 126.847 124.624C126.513 124.826 126.245 124.792 126.011 124.658C125.777 124.49 125.576 124.086 125.409 123.481L114.738 85.7139C114.604 85.3104 114.872 84.6377 115.273 84.2678Z" fill="#4991FF"/>
<path opacity="0.2" fill-rule="evenodd" clip-rule="evenodd" d="M93.4684 70.8488L116.082 84.0655C115.48 83.7629 114.577 85.1081 114.744 85.7471L91.8962 72.3958C91.1268 71.9586 90.6584 71.6896 89.9894 71.1515C86.7445 68.5619 85.2058 65.0308 83.0983 62.1722C82.4962 61.3651 81.894 60.7934 81.2918 60.3225C80.7231 60.0199 80.4221 59.8517 80.5225 59.8853L67.911 52.4194C67.8106 51.8813 68.1787 51.276 68.3125 51.1414C68.5466 50.8724 68.9145 50.5697 69.2491 50.7379L81.8606 58.2038C81.7602 58.1702 82.0612 58.3047 82.6299 58.641C83.2321 59.1118 83.8342 59.6836 84.4363 60.4907C86.6776 63.5174 88.2834 66.9141 91.9297 69.8063C92.465 70.2435 92.8997 70.5125 93.4684 70.8488Z" fill="#4991FF"/>
<path opacity="0.03" fill-rule="evenodd" clip-rule="evenodd" d="M125.494 445.743C149.579 431.752 188.518 431.752 212.47 445.743C236.421 459.733 236.287 482.433 212.202 496.39C188.116 510.38 149.178 510.38 125.226 496.39C101.275 482.4 101.408 459.733 125.494 445.743Z" fill="#202124"/>
<path opacity="0.03" fill-rule="evenodd" clip-rule="evenodd" d="M304.159 453.377L240.834 417.124C233.942 413.962 224.041 411.44 217.016 415.106C210.593 418.469 200.055 425.329 195.372 427.986C191.826 430.004 179.516 437.436 187.176 441.64C209.723 453.983 232.069 467.838 254.95 480.349C259.299 482.703 265.622 483.577 272.279 483.006C278.902 482.467 285.693 480.517 291.045 477.389C294.859 475.17 298.606 472.984 302.285 470.831C307.27 467.939 309.879 464.475 310.147 461.314C310.381 458.186 308.407 455.328 304.159 453.377Z" fill="#202124"/>
<path fill-rule="evenodd" clip-rule="evenodd" d="M216.946 465.582L217.046 470.358C217.08 477.588 212.329 484.819 202.829 490.3C187.709 499.078 165.931 500.49 148.871 495.984C137.597 493.024 120.737 484.55 120.737 470.593L120.637 465.817L216.946 465.582Z" fill="#242528"/>
<path fill-rule="evenodd" clip-rule="evenodd" d="M134.855 445.874C153.722 434.944 184.196 434.944 202.93 445.874C221.696 456.838 221.596 474.594 202.729 485.524C183.862 496.454 153.387 496.454 134.62 485.524C115.887 474.561 115.988 456.804 134.855 445.874Z" fill="#434347"/>
<path fill-rule="evenodd" clip-rule="evenodd" d="M173.873 348.146V462.152C173.873 463.027 173.304 463.935 172.133 464.607C170.26 465.684 167.617 465.852 165.51 465.314C164.139 464.944 162.065 463.901 162.065 462.186V348.179L173.873 348.146Z" fill="#29292D"/>
<path fill-rule="evenodd" clip-rule="evenodd" d="M230.529 371.622C224.708 386.621 221.53 407.808 218.018 424.321C217.483 426.271 216.479 428.726 213.87 430.072C209.756 432.19 205.173 431.753 204.036 428.659C204.136 413.223 203.199 401.822 203.668 393.347C204.203 383.864 207.749 369.403 211.361 363.887C214.037 351.108 236.717 356.018 230.529 371.622Z" fill="#2B2B30"/>
<path opacity="0.3" fill-rule="evenodd" clip-rule="evenodd" d="M231.141 369.842C230.94 370.514 230.74 371.12 230.539 371.624L230.305 372.263L230.238 372.398C229.268 374.987 228.365 377.745 227.528 380.637L227.495 380.772L227.294 381.478L227.227 381.713L227.093 382.218C223.28 395.838 220.604 412.014 217.828 424.962C216.389 405.557 219.567 386.119 224.685 369.337C224.986 364.831 224.819 360.829 224.384 357.163C229.167 358.643 232.947 363.082 231.141 369.842Z" fill="#1E2353"/>
<path fill-rule="evenodd" clip-rule="evenodd" d="M223.484 438.714C220.808 441.338 219.203 439.656 218.099 444.398C215.189 448.837 212.546 450.216 210.138 449.712C207.06 449.073 204.685 447.828 204.25 444.398C203.749 438.681 203.615 437.605 205.12 433.401L205.521 433.132C205.856 432.762 206.224 432.627 206.759 432.762C209.435 433.401 210.238 435.049 211.208 435.99C213.282 437.975 215.289 436.394 216.159 434.074V434.04L216.192 433.973V433.939L216.226 433.838V433.804L216.259 433.67V433.636L216.293 433.502V433.468V433.435V433.367V433.3L216.326 433.065L216.359 432.829V432.796C216.393 432.661 216.393 432.527 216.426 432.392V432.358L216.46 432.19V432.157V432.123V432.022V431.988V431.888L216.493 431.618V431.551V431.484V431.282V431.114V430.912C216.493 430.778 216.46 430.677 216.426 430.542C216.359 429.601 216.426 428.962 216.56 428.525C216.56 428.289 216.594 428.087 216.594 427.852C219.504 426.204 223.886 421.765 226.997 420.924C229.238 420.319 230.476 423.514 230.576 424.993C230.81 428.558 226.328 435.553 223.484 438.714Z" fill="#333337"/>
<path fill-rule="evenodd" clip-rule="evenodd" d="M215.918 426.776C215.785 430.005 216.052 433.57 213.677 435.453C211.603 437.101 208.024 437.74 205.85 434.444C204.947 433.065 205.047 430.644 204.712 427.718C204.679 429.904 216.052 429.03 215.918 426.776Z" fill="#FFA495"/>
<path fill-rule="evenodd" clip-rule="evenodd" d="M222.744 437.335C220.068 439.958 218.462 438.277 217.358 443.019C214.448 447.458 211.805 448.837 209.397 448.332C206.353 447.693 203.944 446.449 203.51 443.019C203.008 437.301 202.874 436.225 204.379 432.021L204.781 431.752C205.115 431.383 205.483 431.248 206.018 431.383C208.694 432.021 209.497 433.669 210.467 434.611C212.541 436.595 214.548 435.015 215.418 432.694V432.66L215.451 432.593V432.56L215.485 432.459V432.425L215.518 432.291V432.257L215.552 432.122V432.089V432.055V431.988V431.921L215.585 431.685L215.619 431.45V431.416C215.652 431.282 215.652 431.147 215.686 431.013V430.979L215.719 430.811V430.777V430.744V430.643V430.609V430.508L215.753 430.239V430.172V430.105V429.903V429.735V429.533C215.753 429.398 215.719 429.297 215.686 429.163C215.619 428.221 215.686 427.582 215.819 427.145C215.819 426.91 215.853 426.708 215.853 426.472C218.763 424.825 223.045 421.63 226.156 420.789C228.397 420.184 229.735 422.134 229.802 423.614C230.103 427.179 225.621 434.174 222.744 437.335Z" fill="#434347"/>
<path fill-rule="evenodd" clip-rule="evenodd" d="M226.99 421.563C227.76 422.437 229.532 421.866 230.369 423.816C230.402 422.538 229.098 420.688 227.726 420.688C227.458 420.722 226.589 421.227 226.99 421.563Z" fill="#333337"/>
<path fill-rule="evenodd" clip-rule="evenodd" d="M218.62 421.294C218.42 422.303 218.186 423.312 217.985 424.321C217.45 426.271 216.446 428.726 213.837 430.071C209.722 432.19 205.14 431.753 204.002 428.659C204.002 427.314 203.768 426.002 203.768 424.724C206.076 427.583 213.837 429.264 218.62 421.294Z" fill="#2F2F33"/>
<path fill-rule="evenodd" clip-rule="evenodd" d="M173.372 352.318C160.46 348.686 135.805 362.508 112.489 387.596C91.4479 410.23 171.833 434.04 187.79 427.919C202.977 422.067 241.481 402.73 238.236 394.558C231.947 378.583 196.755 358.842 173.372 352.318Z" fill="#161D5C"/>
<path fill-rule="evenodd" clip-rule="evenodd" d="M183.783 354.537C172.276 354.907 159.363 354.504 149.093 358.304C139.526 361.835 141.031 375.758 149.762 383.762C157.423 390.757 170.335 392.842 189.437 384.973C195.358 382.518 201.044 380.264 209.909 379.222C218.44 378.247 224.026 379.995 228.709 371.891C232.055 366.14 231.018 359.38 223.123 356.791C211.548 352.99 195.625 354.167 183.783 354.537Z" fill="#2B2B30"/>
<path fill-rule="evenodd" clip-rule="evenodd" d="M286.818 423.547C290.029 429.331 291.568 431.585 292.404 432.795C294.277 435.553 290.33 440.059 287.721 441.505C285.079 442.952 280.897 442.985 279.091 438.849C278.388 437.234 278.154 435.082 277.385 433.064C278.689 435.183 284.543 428.827 286.818 423.547Z" fill="#FFA495"/>
<path fill-rule="evenodd" clip-rule="evenodd" d="M282.858 441.168C284.196 440.831 292.225 443.723 292.593 433.534C298.346 434.946 307.646 430.406 312.898 430.473C313.835 430.473 315.407 429.431 315.875 429.969C317.381 431.617 319.053 434.24 316.845 436.728C315.24 438.544 311.493 441.302 309.018 442.883C306.375 444.564 301.792 447.322 298.614 448.6C295.068 450.012 293.462 450.618 292.325 451.997C290.585 453.443 288.679 454.317 287.508 454.384C284.999 454.552 281.888 453.779 279.948 451.29C279.346 450.517 278.442 446.649 278.342 444.026C278.275 441.975 278.844 439.452 279.212 437.166L282.858 441.168Z" fill="#333337"/>
<path fill-rule="evenodd" clip-rule="evenodd" d="M293.834 432.223C297.012 432.424 305.074 429.969 310.359 429.196C312.634 428.86 314.641 428.389 316.113 430.205C317.484 431.853 317.351 433.568 315.544 435.619C313.939 437.435 310.995 439.756 308.519 441.336C305.877 443.018 301.294 445.776 298.116 447.054C294.603 448.466 292.964 449.071 291.827 450.45C290.087 451.896 288.18 452.771 287.01 452.872C284.501 453.04 281.323 451.964 279.382 449.509C278.78 448.735 277.944 445.137 277.844 442.547C277.777 441.101 277.609 438.915 277.676 437.637C277.81 435.518 278.68 435.182 279.684 435.485C281.557 436.023 282.56 437.536 283.497 438.747C284.3 439.789 285.27 440.327 286.24 440.395C288.381 440.563 289.92 439.049 290.723 437.065C291.124 435.754 291.191 434.308 291.191 432.794C291.158 432.66 291.124 432.525 291.091 432.391C290.689 428.86 292.429 428.792 292.328 429.566C292.328 430.205 292.797 431.752 293.834 432.223Z" fill="#434347"/>
<path fill-rule="evenodd" clip-rule="evenodd" d="M314.575 429.937C314.843 431.282 316.616 429.937 317.218 433.3C318.355 431.685 316.549 429.567 315.244 429.163C314.977 429.096 314.308 428.961 314.575 429.937Z" fill="#333337"/>
<path fill-rule="evenodd" clip-rule="evenodd" d="M250.384 368.46C259.617 384.3 276.711 407.942 286.245 422.1C288.687 426.708 284.572 433.804 277.012 434.813C266.207 421.831 253.595 414.5 242.924 398.492C240.917 395.465 237.17 389.076 234.829 384.468C231.918 384.838 227.971 385.443 223.689 386.15C214.858 387.596 207.565 389.681 201.778 392.472C183.179 401.451 170.132 400.14 162.104 393.582C152.938 386.116 150.63 372.328 159.996 368.225C170.032 363.853 181.473 362.911 192.913 361.869C203.384 360.927 224.291 358.875 237.07 360.591C238.074 360.725 239.01 360.893 239.913 361.061C243.326 361.667 245.634 362.508 248.176 365.164C249.18 366.14 249.916 367.283 250.384 368.46Z" fill="#2F2F33"/>
<path fill-rule="evenodd" clip-rule="evenodd" d="M285.009 419.274C285.544 420.182 287.551 423.108 288.087 423.983C289.492 427.817 284.407 434.341 276.814 434.946C276.245 434.173 274.138 431.886 273.536 431.146C280.393 429.229 284.742 425.362 285.009 419.274Z" fill="#2F2F33"/>
<path fill-rule="evenodd" clip-rule="evenodd" d="M171.216 290.537C173.223 287.073 175.23 284.181 177.438 281.053C179.244 278.497 179.846 278.564 182.656 277.791C185.733 276.916 186.369 277.152 189.112 277.959C191.487 278.665 193.494 280.38 194.096 281.457C196.003 284.887 188.108 285.627 187.439 285.929C186.168 288.418 185.8 290.369 183.526 291.781C179.712 294.135 178.173 294.202 176.769 296.994L171.216 290.537Z" fill="#FFA698"/>
<path fill-rule="evenodd" clip-rule="evenodd" d="M179.649 285.964C182.091 283.106 182.258 282.433 185.436 279.776C185.57 279.709 185.703 279.675 185.804 279.642L188.547 279.81C189.885 281.222 192.26 282.635 193.832 281.054C193.899 281.155 193.966 281.256 194.033 281.357C195.17 283.139 194.033 285.493 192.996 285.661C190.487 286.031 188.547 285.493 187.476 285.964C186.205 288.453 185.837 290.403 183.563 291.816C179.749 294.17 178.21 294.237 176.805 297.029L173.293 292.926L179.649 285.964Z" fill="#FF9281"/>
<path fill-rule="evenodd" clip-rule="evenodd" d="M155.793 325.042C158.268 321.544 171.515 307.487 174.76 301.736C175.228 300.895 175.462 298.877 175.462 298.507L177.235 296.187C176.901 293.429 173.89 290.234 171.214 289.864L169.274 291.445C167.969 291.378 165.895 291.815 164.758 292.487C155.826 297.734 139.802 312.598 139.869 323.259C139.97 330.658 152.38 328.169 155.793 325.042Z" fill="#FFB156"/>
<path fill-rule="evenodd" clip-rule="evenodd" d="M194.157 266.595L170.874 303.857L208.675 313.24L231.925 275.944L194.157 266.595Z" fill="#2A2B2E"/>
<path fill-rule="evenodd" clip-rule="evenodd" d="M175.799 292.96C181.117 293.464 180.248 290.404 182.121 286.873C183.057 286.436 183.76 285.628 184.663 284.855C188.309 284.25 188.744 282.568 188.276 280.819C187.038 280.853 184.63 280.853 183.593 280.954C178.609 283.106 174.895 283.241 172.721 288.79C171.952 290.808 174.226 290.471 175.799 292.96Z" fill="#FFA698"/>
<path fill-rule="evenodd" clip-rule="evenodd" d="M201.874 309.408C201.707 309.946 202.008 310.518 202.543 310.686C203.078 310.854 203.647 310.552 203.814 310.014C204.55 307.693 205.587 302.682 205.587 298.647C205.554 295.687 204.952 293.198 203.279 292.223C200.436 290.643 198.596 291.82 196.756 293.03C196.422 293.232 196.087 293.467 195.82 293.602C195.05 294.039 194.415 294.275 193.913 294.308C193.344 294.342 192.909 294.14 192.575 293.77C192.174 293.333 191.906 292.66 191.705 291.887C191.371 290.407 191.404 288.591 191.705 287.145C191.872 286.371 192.04 285.598 192.24 284.824C193.244 280.553 194.214 276.484 190.401 274.87C189.899 274.668 189.297 274.904 189.096 275.408C188.895 275.912 189.129 276.518 189.631 276.72C191.839 277.661 191.07 280.923 190.267 284.32C190.066 285.127 189.865 285.934 189.732 286.741C189.397 288.423 189.33 290.542 189.732 292.324C189.966 293.434 190.401 294.409 191.07 295.149C191.806 295.956 192.776 296.427 194.013 296.326C194.85 296.292 195.753 295.99 196.823 295.384C197.191 295.149 197.526 294.947 197.827 294.745C199.165 293.871 200.503 292.997 202.276 294.006C203.212 294.544 203.547 296.393 203.58 298.68C203.547 302.48 202.577 307.222 201.874 309.408Z" fill="#333438"/>
<path fill-rule="evenodd" clip-rule="evenodd" d="M142.1 361.534L142.836 364.729C148.924 374.583 171.906 381.107 188.197 366.949C187.829 365.368 187.595 364.292 187.461 362.88C187.829 361.77 187.796 359.987 187.562 357.431C186.926 351.143 184.618 340.145 184.584 339.607C183.848 325.718 186.893 311.93 180.771 302.076C179.466 299.957 177.693 299.15 175.686 298.04C171.27 295.686 151.467 289.532 141.197 288.052C135.008 287.144 128.218 288.321 126.01 295.518C122.999 305.304 129.288 319.799 134.44 333.487C141.23 351.412 138.086 354.136 142.1 361.534Z" fill="#F5A548"/>
<path opacity="0.35" fill-rule="evenodd" clip-rule="evenodd" d="M187.658 358.507C187.625 358.171 187.591 357.801 187.558 357.431C186.922 351.142 184.614 340.145 184.581 339.607C183.845 325.718 187.29 311.66 180.767 302.076C176.954 296.459 168.625 297.435 165.681 304.362C163.44 309.609 165.48 317.142 168.19 329.585C170.13 338.396 173.576 359.045 178.76 361.198C180.533 361.971 183.544 360.996 187.658 358.507Z" fill="#F5A548"/>
<path fill-rule="evenodd" clip-rule="evenodd" d="M157.55 279.041C157.917 282.404 158.988 287.113 160.192 290.341C153.402 291.384 143.668 291.384 141.694 286.541L141.293 276.956C146.745 270.432 157.282 279.109 157.55 279.041Z" fill="url(#paint0_linear_12159_64043)"/>
<path fill-rule="evenodd" clip-rule="evenodd" d="M141.627 286.371C139.754 287.38 138.248 289.801 138.884 291.046C142.396 298.848 157.817 298.377 166.715 294.678C165.477 292.626 162.199 290.003 160.326 289.768C154.572 291.416 144.303 290.844 141.627 286.371Z" fill="#FFB156"/>
<path fill-rule="evenodd" clip-rule="evenodd" d="M156.649 285.498C154.609 285.027 153.438 282.538 152.735 278.335C152.1 274.77 142.098 279.276 142.265 279.041C141.362 275.779 138.217 273.324 137.515 268.817C136.511 262.495 138.05 255.836 144.306 252.069C155.679 245.209 168.09 252.843 169.83 265.286C170.164 267.707 168.157 268.75 167.956 270.768C167.923 271.171 168.391 271.642 168.692 272.584C169.127 273.862 167.889 281.899 165.615 285.027C164.644 286.305 158.188 286.103 156.649 285.498Z" fill="#FFA698"/>
<path fill-rule="evenodd" clip-rule="evenodd" d="M165.575 284.992C165.173 285.564 162.263 284.925 161.193 284.42C165.776 278.636 160.49 273.961 165.173 268.446C167.983 265.15 165.073 261.451 168.217 259.702C168.987 261.417 169.556 263.267 169.823 265.251C170.158 267.673 168.151 268.715 167.95 270.733C167.916 271.136 168.385 271.607 168.686 272.549C169.087 273.827 167.783 281.797 165.575 284.992Z" fill="url(#paint1_linear_12159_64043)"/>
<path fill-rule="evenodd" clip-rule="evenodd" d="M159.147 277.392C159.917 275.912 159.515 275.307 158.813 275.374C158.043 275.441 156.873 276.383 156.103 277.896C154.899 280.351 155.702 283.748 158.344 282.84C156.204 282.672 156.739 280.15 157.575 278.636C158.177 277.627 158.947 276.955 159.147 277.392Z" fill="#FFB49C"/>
<path fill-rule="evenodd" clip-rule="evenodd" d="M158.083 277.965C158.519 279.142 158.652 279.848 158.418 280.184C158.251 280.42 157.815 280.689 157.213 279.949C157.28 279.176 157.648 278.503 158.083 277.965Z" fill="#FF9D8E"/>
<path fill-rule="evenodd" clip-rule="evenodd" d="M140.846 279.511C140.144 275.879 137.234 272.516 136.598 268.379C135.962 264.31 135.996 258.727 140.077 255.566C142.72 245.376 156.101 244.468 164.765 247.831C170.987 250.253 170.552 258.29 165.635 260.812C166.237 264.445 164.263 267.505 163.594 268.177C161.62 270.33 161.52 270.666 161.152 272.953C160.851 274.769 160.215 279.208 158.844 275.273C157.941 272.718 154.763 275.072 153.993 277.628C153.659 278.771 153.19 280.251 151.752 282.067C148.407 286.237 141.214 281.529 140.846 279.511Z" fill="#E33D15"/>
<path fill-rule="evenodd" clip-rule="evenodd" d="M145.026 253.312C148.337 243.929 161.684 246.586 165.966 249.142C170.281 251.731 169.211 260.879 162.688 260.072C158.239 259.5 153.388 252.034 145.026 253.312Z" fill="#E33D15"/>
<path fill-rule="evenodd" clip-rule="evenodd" d="M212.414 303.859L216.428 303.389L219.974 300.429L220.175 294.947L217.265 293.199C214.221 293.569 212.448 292.728 211.812 293.3C211.11 293.905 211.444 297.436 212.414 303.859Z" fill="#FF9584"/>
<path fill-rule="evenodd" clip-rule="evenodd" d="M203.718 313.445C204.42 312.604 205.022 311.763 205.491 310.889C205.357 307.593 206.226 305.508 207.665 303.558C210.006 300.363 210.341 299.926 210.843 297.538C211.043 296.529 211.177 295.789 211.344 295.318C211.846 294.074 213.285 294.41 213.753 295.688C214.121 296.663 214.054 298.042 213.887 298.883L213.251 300.565L217.533 295.654C218.235 294.578 209.973 295.688 211.813 293.166C212.85 292.594 214.322 292.493 216.061 292.325C217.7 292.191 219.138 292.291 219.807 292.359C221.513 292.493 222.182 299.556 222.216 301.405C222.216 302.179 222.216 303.49 221.781 304.331C220.777 306.483 219.44 308.501 218.001 309.813C215.225 312.302 212.716 311.999 210.608 316.707L203.718 313.445Z" fill="#FFA698"/>
<path fill-rule="evenodd" clip-rule="evenodd" d="M225.329 289.768C217.736 292.862 207.333 296.764 203.587 300.026C207.668 299.992 218.505 295.082 226.132 291.921C228.005 291.114 227.102 289.029 225.329 289.768Z" fill="#434347"/>
<path fill-rule="evenodd" clip-rule="evenodd" d="M207.676 303.557C210.017 300.362 210.352 299.925 210.853 297.537C211.054 296.528 211.188 295.788 211.355 295.317C211.857 294.073 213.295 294.409 213.764 295.687C214.132 296.663 214.065 298.041 213.897 298.882L213.128 301.573L207.676 303.557Z" fill="#FFA698"/>
<path fill-rule="evenodd" clip-rule="evenodd" d="M189.127 326.895C193.141 321.548 197.657 315.662 200.367 313.241C201.103 312.602 203.01 311.929 203.378 311.896L205.251 309.676C208.028 309.441 211.741 311.728 212.644 314.284L211.507 316.503C211.841 317.781 211.841 319.9 211.406 321.144C208.195 330.863 197.289 349.326 186.986 351.882C185.916 352.185 184.611 352.219 183.005 351.882C181.099 351.479 180.296 348.956 179.493 347.342C173.371 334.563 170.394 329.989 166.447 317.142C163.837 308.667 164.707 303.825 167.684 300.932C171.431 297.3 176.984 297.267 179.995 301.168C184.544 306.986 187.321 318.084 189.127 326.895Z" fill="#FFB156"/>
<path fill-rule="evenodd" clip-rule="evenodd" d="M230.267 409.289L201.632 428.324C184.706 438.917 161.055 439.388 143.66 429.501L111.345 411.105C99.5699 404.413 96.5927 394.122 97.8973 380.098C98.9009 369.538 107.498 342.23 112.683 331.435C125.897 304.026 168.013 332.276 175.038 351.579C179.42 363.552 184.706 371.287 192.032 378.82C210.363 397.687 214.946 380.939 227.759 376.399C239.701 372.161 240.437 385.782 239.868 396.241C239.567 402.429 236.289 405.321 230.267 409.289Z" fill="#434347"/>
<path opacity="0.5" fill-rule="evenodd" clip-rule="evenodd" d="M230.267 409.288L201.632 428.322C184.706 438.916 161.055 439.387 143.66 429.499L111.345 411.104C99.5699 404.411 96.5927 394.12 97.8973 380.096C98.1315 377.709 98.7336 374.514 99.6033 370.814C102.514 374.48 144.162 411.238 175.607 413.66C195.21 415.139 215.214 408.951 239.902 396.273C239.567 402.427 236.289 405.319 230.267 409.288Z" fill="#242428"/>
<path opacity="0.03" d="M439.901 510C437.563 510 435.224 509.471 433.413 508.413L391.552 484.164C389.65 483.06 388.595 481.542 388.595 479.885C388.595 478.229 389.65 476.711 391.552 475.606L433.207 451.312C436.852 449.196 442.537 449.219 446.183 451.312L488.044 475.56C489.946 476.665 491.001 478.183 491.001 479.839C491.001 481.496 489.946 483.014 488.044 484.118L446.389 508.413C444.555 509.471 442.217 510 439.901 510ZM439.672 451.542C437.654 451.542 435.637 451.979 434.101 452.877L392.446 477.171C391.117 477.93 390.406 478.896 390.406 479.885C390.406 480.875 391.14 481.841 392.446 482.6L434.307 506.848C437.379 508.643 442.4 508.643 445.472 506.848L487.127 482.554C488.456 481.795 489.167 480.829 489.167 479.839C489.167 478.85 488.433 477.907 487.127 477.125L445.266 452.877C443.707 451.979 441.689 451.542 439.672 451.542Z" fill="#202124"/>
<path opacity="0.1" d="M439.901 491.064C437.563 491.064 435.224 490.535 433.413 489.477L391.552 465.229C389.65 464.124 388.595 462.606 388.595 460.95C388.595 459.293 389.65 457.775 391.552 456.671L433.207 432.376C436.852 430.26 442.537 430.26 446.183 432.376L488.044 456.625C489.946 457.729 491.001 459.247 491.001 460.904C491.001 462.56 489.946 464.078 488.044 465.183L446.389 489.477C444.555 490.535 442.217 491.064 439.901 491.064ZM439.672 432.584C437.654 432.584 435.637 433.021 434.101 433.918L392.446 458.212C391.117 458.971 390.406 459.937 390.406 460.927C390.406 461.916 391.14 462.859 392.446 463.641L434.307 487.889C437.379 489.684 442.4 489.684 445.472 487.889L487.127 463.595C488.456 462.836 489.167 461.87 489.167 460.881C489.167 459.891 488.433 458.925 487.127 458.166L445.266 433.918C443.707 433.044 441.689 432.584 439.672 432.584Z" fill="#202124"/>
<path d="M405.961 409.027C404.124 413.443 418.763 425.187 424.041 429.245C421.016 427.191 415.212 424.171 413.667 429.967C411.548 437.917 439.421 453.967 439.421 453.967C439.421 453.967 443.712 430.864 440.363 418.57C438.734 412.579 434.335 419.216 434.335 419.216C434.335 419.216 435.006 398.282 429.862 395.031C424.717 391.78 423.387 403.319 423.387 403.319C423.387 403.319 411.103 379.69 404.624 383.611C398.233 387.476 417.494 408.448 418.011 409.018C417.612 408.81 408.149 403.76 405.961 409.027Z" fill="url(#paint2_linear_12159_64043)"/>
<path d="M408.265 387.928C409.937 390.497 411.601 393.064 413.173 395.692C414.779 398.295 416.334 400.929 417.866 403.575C420.912 408.875 423.821 414.251 426.536 419.722L428.523 423.852C429.206 425.217 429.771 426.637 430.407 428.024L431.349 430.113C431.661 430.809 431.928 431.529 432.22 432.229L433.943 436.477C434.963 439.353 436.09 442.197 436.939 445.133C437.965 448.022 438.587 451.015 439.411 453.974C438.423 447.905 436.904 441.935 434.872 436.132C432.792 430.345 430.388 424.679 427.672 419.162C424.917 413.669 421.944 408.288 418.71 403.071C415.476 397.854 412.032 392.76 408.265 387.928Z" fill="#00FFA3"/>
<path d="M412.126 412.686L416.072 415.255C417.384 416.107 418.72 416.916 420.06 417.724C421.399 418.531 422.761 419.299 424.149 420.031C425.537 420.762 426.936 421.476 428.404 422.086C427.219 421.043 425.972 420.071 424.67 419.179C423.384 418.271 422.054 417.436 420.71 416.622C419.351 415.833 417.977 415.066 416.555 414.38C415.133 413.695 413.676 413.063 412.126 412.686Z" fill="#00FFA3"/>
<path d="M428.4 422.086C428.794 420.446 429.094 418.784 429.298 417.109C429.521 415.442 429.659 413.768 429.768 412.09C429.85 410.41 429.9 408.727 429.845 407.041C429.79 405.355 429.675 403.653 429.246 402.003C429.146 403.694 428.974 405.347 428.849 407.016C428.701 408.682 428.597 410.349 428.496 412.018C428.412 413.687 428.33 415.358 428.31 417.037C428.29 418.715 428.283 420.393 428.4 422.086Z" fill="#00FFA3"/>
<path d="M418.582 430.762C420.235 431.789 421.831 432.905 423.364 434.106C424.915 435.273 426.424 436.495 427.931 437.726C429.438 438.957 430.931 440.198 432.399 441.472C433.882 442.728 435.355 444.003 436.801 445.291L438.016 446.372L437.858 444.752C437.68 442.915 437.588 441.044 437.513 439.185C437.438 437.326 437.421 435.459 437.421 433.595C437.441 431.73 437.508 429.867 437.633 428.004C437.758 426.142 437.992 424.288 438.278 422.431C437.717 424.224 437.345 426.076 437.023 427.935C436.748 429.799 436.544 431.677 436.435 433.56C436.325 435.444 436.297 437.331 436.317 439.217C436.337 441.103 436.435 442.979 436.593 444.881L437.653 444.342C436.184 443.044 434.691 441.785 433.179 440.539C431.656 439.314 430.13 438.09 428.551 436.934C426.971 435.779 425.372 434.641 423.724 433.588C422.057 432.561 420.384 431.527 418.582 430.762Z" fill="#00FFA3"/>
<path d="M475.869 402.627C477.912 407.537 461.636 420.594 455.766 425.105C459.131 422.822 465.583 419.463 467.303 425.909C469.657 434.747 438.669 452.593 438.669 452.593C438.669 452.593 433.899 426.905 437.626 413.237C439.435 406.576 444.327 413.955 444.327 413.955C444.327 413.955 443.582 390.68 449.295 387.066C455.008 383.453 456.499 396.281 456.499 396.281C456.499 396.281 470.155 370.01 477.361 374.372C484.466 378.67 463.051 401.987 462.476 402.62C462.914 402.385 473.433 396.772 475.869 402.627Z" fill="url(#paint3_linear_12159_64043)"/>
<path d="M473.306 378.688C471.449 381.544 469.597 384.399 467.85 387.321C466.064 390.215 464.336 393.144 462.632 396.086C459.246 401.979 456.012 407.956 452.992 414.038L450.782 418.626C450.023 420.145 449.396 421.723 448.686 423.264L447.64 425.587C447.294 426.361 446.996 427.156 446.671 427.94L444.756 432.66C443.622 435.857 442.367 439.02 441.423 442.284C440.285 445.497 439.589 448.825 438.669 452.115C439.743 445.379 441.476 438.738 443.717 432.277C446.03 425.842 448.703 419.543 451.722 413.409C454.783 407.302 458.091 401.32 461.687 395.519C465.284 389.719 469.114 384.062 473.306 378.688Z" fill="#00FFA3"/>
<path d="M469.022 406.694L464.636 409.55C463.177 410.494 461.693 411.398 460.203 412.296C458.702 413.174 457.198 414.048 455.656 414.861C454.114 415.674 452.557 416.468 450.926 417.147C452.243 415.986 453.63 414.906 455.078 413.913C456.506 412.905 457.986 411.977 459.479 411.073C460.99 410.195 462.518 409.341 464.099 408.584C465.68 407.826 467.301 407.114 469.022 406.694Z" fill="#00FFA3"/>
<path d="M450.928 417.145C450.489 415.321 450.156 413.473 449.929 411.611C449.681 409.757 449.528 407.895 449.407 406.03C449.316 404.163 449.259 402.293 449.321 400.417C449.382 398.542 449.509 396.649 449.987 394.815C450.105 396.695 450.29 398.534 450.429 400.389C450.592 402.241 450.709 404.095 450.823 405.95C450.916 407.807 451.008 409.665 451.03 411.53C451.052 413.394 451.057 415.262 450.928 417.145Z" fill="#00FFA3"/>
<path d="M461.841 426.312C460.003 427.454 458.227 428.695 456.523 430.03C454.798 431.328 453.118 432.687 451.445 434.055C449.772 435.423 448.11 436.804 446.477 438.221C444.829 439.616 443.19 441.034 441.583 442.469L440.234 443.672L440.408 441.87C440.606 439.828 440.707 437.746 440.792 435.68C440.877 433.614 440.894 431.538 440.894 429.464C440.871 427.392 440.797 425.321 440.659 423.25C440.521 421.179 440.26 419.119 439.942 417.052C440.567 419.046 440.979 421.106 441.338 423.172C441.643 425.245 441.87 427.333 441.989 429.427C442.108 431.52 442.142 433.617 442.125 435.714C442.107 437.811 441.992 439.898 441.817 442.009L440.64 441.41C442.274 439.963 443.936 438.565 445.61 437.181C447.306 435.818 449.001 434.457 450.757 433.169C452.514 431.88 454.289 430.62 456.121 429.447C457.976 428.313 459.836 427.162 461.841 426.312Z" fill="#00FFA3"/>
<path d="M452.849 449.87L449.584 473.127C449.508 473.668 449.24 474.162 448.829 474.52C448.418 474.878 447.892 475.075 447.347 475.074H428.982C428.438 475.075 427.911 474.878 427.5 474.519C427.089 474.161 426.821 473.666 426.746 473.125L423.502 449.87C423.457 449.55 423.481 449.223 423.573 448.912C423.665 448.602 423.822 448.315 424.034 448.07C424.246 447.826 424.508 447.63 424.803 447.496C425.097 447.362 425.416 447.293 425.739 447.293H450.614C450.937 447.293 451.256 447.363 451.55 447.497C451.843 447.632 452.105 447.827 452.317 448.072C452.529 448.316 452.686 448.603 452.777 448.913C452.869 449.224 452.893 449.55 452.849 449.87Z" fill="#4991FF"/>
<defs>
<linearGradient id="paint0_linear_12159_64043" x1="151.954" y1="279.198" x2="149.782" y2="287.29" gradientUnits="userSpaceOnUse">
<stop stop-color="#FF8A78"/>
<stop offset="1" stop-color="#FFA799"/>
</linearGradient>
<linearGradient id="paint1_linear_12159_64043" x1="168.723" y1="271.293" x2="159.874" y2="276.436" gradientUnits="userSpaceOnUse">
<stop stop-color="#FFB89E"/>
<stop offset="1" stop-color="#FFA799"/>
</linearGradient>
<linearGradient id="paint2_linear_12159_64043" x1="422.483" y1="383.172" x2="422.483" y2="453.967" gradientUnits="userSpaceOnUse">
<stop stop-color="#00FFA3"/>
<stop offset="1" stop-color="#00FFA3" stop-opacity="0"/>
</linearGradient>
<linearGradient id="paint3_linear_12159_64043" x1="457.503" y1="373.883" x2="457.503" y2="452.593" gradientUnits="userSpaceOnUse">
<stop stop-color="#00FFA3"/>
<stop offset="1" stop-color="#00FFA3" stop-opacity="0"/>
</linearGradient>
</defs>
</svg>
